<?xml version="1.0" encoding="utf-8" standalone="no"?>
<!DOCTYPE svg PUBLIC "-//W3C//DTD SVG 1.1//EN"
  "http://www.w3.org/Graphics/SVG/1.1/DTD/svg11.dtd">
<svg xmlns:xlink="http://www.w3.org/1999/xlink" width="460.8pt" height="345.6pt" viewBox="0 0 460.8 345.6" xmlns="http://www.w3.org/2000/svg" version="1.1">
 <metadata>
  <rdf:RDF xmlns:dc="http://purl.org/dc/elements/1.1/" xmlns:cc="http://creativecommons.org/ns#" xmlns:rdf="http://www.w3.org/1999/02/22-rdf-syntax-ns#">
   <cc:Work>
    <dc:type rdf:resource="http://purl.org/dc/dcmitype/StillImage"/>
    <dc:date>2023-02-20T21:37:28.358792</dc:date>
    <dc:format>image/svg+xml</dc:format>
    <dc:creator>
     <cc:Agent>
      <dc:title>Matplotlib v3.7.0, https://matplotlib.org/</dc:title>
     </cc:Agent>
    </dc:creator>
   </cc:Work>
  </rdf:RDF>
 </metadata>
 <defs>
  <style type="text/css">*{stroke-linejoin: round; stroke-linecap: butt}</style>
 </defs>
 <g id="figure_1">
  <g id="patch_1">
   <path d="M 0 345.6 
L 460.8 345.6 
L 460.8 0 
L 0 0 
z
" style="fill: #ffffff"/>
  </g>
  <g id="axes_1">
   <g id="patch_2">
    <path d="M 57.6 307.584 
L 414.72 307.584 
L 414.72 41.472 
L 57.6 41.472 
z
" style="fill: #ffffff"/>
   </g>
   <g id="matplotlib.axis_1">
    <g id="xtick_1">
     <g id="line2d_1">
      <defs>
       <path id="m513865f5ad" d="M 0 0 
L 0 3.5 
" style="stroke: #000000; stroke-width: 0.8"/>
      </defs>
      <g>
       <use xlink:href="#m513865f5ad" x="73.832403" y="307.584" style="stroke: #000000; stroke-width: 0.8"/>
      </g>
     </g>
     <g id="text_1">
      <!-- 0.0 -->
      <g transform="translate(65.88084 322.182437) scale(0.1 -0.1)">
       <defs>
        <path id="DejaVuSans-30" d="M 2034 4250 
Q 1547 4250 1301 3770 
Q 1056 3291 1056 2328 
Q 1056 1369 1301 889 
Q 1547 409 2034 409 
Q 2525 409 2770 889 
Q 3016 1369 3016 2328 
Q 3016 3291 2770 3770 
Q 2525 4250 2034 4250 
z
M 2034 4750 
Q 2819 4750 3233 4129 
Q 3647 3509 3647 2328 
Q 3647 1150 3233 529 
Q 2819 -91 2034 -91 
Q 1250 -91 836 529 
Q 422 1150 422 2328 
Q 422 3509 836 4129 
Q 1250 4750 2034 4750 
z
" transform="scale(0.015625)"/>
        <path id="DejaVuSans-2e" d="M 684 794 
L 1344 794 
L 1344 0 
L 684 0 
L 684 794 
z
" transform="scale(0.015625)"/>
       </defs>
       <use xlink:href="#DejaVuSans-30"/>
       <use xlink:href="#DejaVuSans-2e" x="63.623047"/>
       <use xlink:href="#DejaVuSans-30" x="95.410156"/>
      </g>
     </g>
    </g>
    <g id="xtick_2">
     <g id="line2d_2">
      <g>
       <use xlink:href="#m513865f5ad" x="138.763377" y="307.584" style="stroke: #000000; stroke-width: 0.8"/>
      </g>
     </g>
     <g id="text_2">
      <!-- 0.2 -->
      <g transform="translate(130.811814 322.182437) scale(0.1 -0.1)">
       <defs>
        <path id="DejaVuSans-32" d="M 1228 531 
L 3431 531 
L 3431 0 
L 469 0 
L 469 531 
Q 828 903 1448 1529 
Q 2069 2156 2228 2338 
Q 2531 2678 2651 2914 
Q 2772 3150 2772 3378 
Q 2772 3750 2511 3984 
Q 2250 4219 1831 4219 
Q 1534 4219 1204 4116 
Q 875 4013 500 3803 
L 500 4441 
Q 881 4594 1212 4672 
Q 1544 4750 1819 4750 
Q 2544 4750 2975 4387 
Q 3406 4025 3406 3419 
Q 3406 3131 3298 2873 
Q 3191 2616 2906 2266 
Q 2828 2175 2409 1742 
Q 1991 1309 1228 531 
z
" transform="scale(0.015625)"/>
       </defs>
       <use xlink:href="#DejaVuSans-30"/>
       <use xlink:href="#DejaVuSans-2e" x="63.623047"/>
       <use xlink:href="#DejaVuSans-32" x="95.410156"/>
      </g>
     </g>
    </g>
    <g id="xtick_3">
     <g id="line2d_3">
      <g>
       <use xlink:href="#m513865f5ad" x="203.694351" y="307.584" style="stroke: #000000; stroke-width: 0.8"/>
      </g>
     </g>
     <g id="text_3">
      <!-- 0.4 -->
      <g transform="translate(195.742788 322.182437) scale(0.1 -0.1)">
       <defs>
        <path id="DejaVuSans-34" d="M 2419 4116 
L 825 1625 
L 2419 1625 
L 2419 4116 
z
M 2253 4666 
L 3047 4666 
L 3047 1625 
L 3713 1625 
L 3713 1100 
L 3047 1100 
L 3047 0 
L 2419 0 
L 2419 1100 
L 313 1100 
L 313 1709 
L 2253 4666 
z
" transform="scale(0.015625)"/>
       </defs>
       <use xlink:href="#DejaVuSans-30"/>
       <use xlink:href="#DejaVuSans-2e" x="63.623047"/>
       <use xlink:href="#DejaVuSans-34" x="95.410156"/>
      </g>
     </g>
    </g>
    <g id="xtick_4">
     <g id="line2d_4">
      <g>
       <use xlink:href="#m513865f5ad" x="268.625325" y="307.584" style="stroke: #000000; stroke-width: 0.8"/>
      </g>
     </g>
     <g id="text_4">
      <!-- 0.6 -->
      <g transform="translate(260.673762 322.182437) scale(0.1 -0.1)">
       <defs>
        <path id="DejaVuSans-36" d="M 2113 2584 
Q 1688 2584 1439 2293 
Q 1191 2003 1191 1497 
Q 1191 994 1439 701 
Q 1688 409 2113 409 
Q 2538 409 2786 701 
Q 3034 994 3034 1497 
Q 3034 2003 2786 2293 
Q 2538 2584 2113 2584 
z
M 3366 4563 
L 3366 3988 
Q 3128 4100 2886 4159 
Q 2644 4219 2406 4219 
Q 1781 4219 1451 3797 
Q 1122 3375 1075 2522 
Q 1259 2794 1537 2939 
Q 1816 3084 2150 3084 
Q 2853 3084 3261 2657 
Q 3669 2231 3669 1497 
Q 3669 778 3244 343 
Q 2819 -91 2113 -91 
Q 1303 -91 875 529 
Q 447 1150 447 2328 
Q 447 3434 972 4092 
Q 1497 4750 2381 4750 
Q 2619 4750 2861 4703 
Q 3103 4656 3366 4563 
z
" transform="scale(0.015625)"/>
       </defs>
       <use xlink:href="#DejaVuSans-30"/>
       <use xlink:href="#DejaVuSans-2e" x="63.623047"/>
       <use xlink:href="#DejaVuSans-36" x="95.410156"/>
      </g>
     </g>
    </g>
    <g id="xtick_5">
     <g id="line2d_5">
      <g>
       <use xlink:href="#m513865f5ad" x="333.556299" y="307.584" style="stroke: #000000; stroke-width: 0.8"/>
      </g>
     </g>
     <g id="text_5">
      <!-- 0.8 -->
      <g transform="translate(325.604736 322.182437) scale(0.1 -0.1)">
       <defs>
        <path id="DejaVuSans-38" d="M 2034 2216 
Q 1584 2216 1326 1975 
Q 1069 1734 1069 1313 
Q 1069 891 1326 650 
Q 1584 409 2034 409 
Q 2484 409 2743 651 
Q 3003 894 3003 1313 
Q 3003 1734 2745 1975 
Q 2488 2216 2034 2216 
z
M 1403 2484 
Q 997 2584 770 2862 
Q 544 3141 544 3541 
Q 544 4100 942 4425 
Q 1341 4750 2034 4750 
Q 2731 4750 3128 4425 
Q 3525 4100 3525 3541 
Q 3525 3141 3298 2862 
Q 3072 2584 2669 2484 
Q 3125 2378 3379 2068 
Q 3634 1759 3634 1313 
Q 3634 634 3220 271 
Q 2806 -91 2034 -91 
Q 1263 -91 848 271 
Q 434 634 434 1313 
Q 434 1759 690 2068 
Q 947 2378 1403 2484 
z
M 1172 3481 
Q 1172 3119 1398 2916 
Q 1625 2713 2034 2713 
Q 2441 2713 2670 2916 
Q 2900 3119 2900 3481 
Q 2900 3844 2670 4047 
Q 2441 4250 2034 4250 
Q 1625 4250 1398 4047 
Q 1172 3844 1172 3481 
z
" transform="scale(0.015625)"/>
       </defs>
       <use xlink:href="#DejaVuSans-30"/>
       <use xlink:href="#DejaVuSans-2e" x="63.623047"/>
       <use xlink:href="#DejaVuSans-38" x="95.410156"/>
      </g>
     </g>
    </g>
    <g id="xtick_6">
     <g id="line2d_6">
      <g>
       <use xlink:href="#m513865f5ad" x="398.487273" y="307.584" style="stroke: #000000; stroke-width: 0.8"/>
      </g>
     </g>
     <g id="text_6">
      <!-- 1.0 -->
      <g transform="translate(390.53571 322.182437) scale(0.1 -0.1)">
       <defs>
        <path id="DejaVuSans-31" d="M 794 531 
L 1825 531 
L 1825 4091 
L 703 3866 
L 703 4441 
L 1819 4666 
L 2450 4666 
L 2450 531 
L 3481 531 
L 3481 0 
L 794 0 
L 794 531 
z
" transform="scale(0.015625)"/>
       </defs>
       <use xlink:href="#DejaVuSans-31"/>
       <use xlink:href="#DejaVuSans-2e" x="63.623047"/>
       <use xlink:href="#DejaVuSans-30" x="95.410156"/>
      </g>
     </g>
    </g>
    <g id="text_7">
     <!-- n -->
     <g transform="translate(232.99125 335.860562) scale(0.1 -0.1)">
      <defs>
       <path id="DejaVuSans-6e" d="M 3513 2113 
L 3513 0 
L 2938 0 
L 2938 2094 
Q 2938 2591 2744 2837 
Q 2550 3084 2163 3084 
Q 1697 3084 1428 2787 
Q 1159 2491 1159 1978 
L 1159 0 
L 581 0 
L 581 3500 
L 1159 3500 
L 1159 2956 
Q 1366 3272 1645 3428 
Q 1925 3584 2291 3584 
Q 2894 3584 3203 3211 
Q 3513 2838 3513 2113 
z
" transform="scale(0.015625)"/>
      </defs>
      <use xlink:href="#DejaVuSans-6e"/>
     </g>
    </g>
    <g id="text_8">
     <!-- 1e6 -->
     <g transform="translate(395.841875 334.860562) scale(0.1 -0.1)">
      <defs>
       <path id="DejaVuSans-65" d="M 3597 1894 
L 3597 1613 
L 953 1613 
Q 991 1019 1311 708 
Q 1631 397 2203 397 
Q 2534 397 2845 478 
Q 3156 559 3463 722 
L 3463 178 
Q 3153 47 2828 -22 
Q 2503 -91 2169 -91 
Q 1331 -91 842 396 
Q 353 884 353 1716 
Q 353 2575 817 3079 
Q 1281 3584 2069 3584 
Q 2775 3584 3186 3129 
Q 3597 2675 3597 1894 
z
M 3022 2063 
Q 3016 2534 2758 2815 
Q 2500 3097 2075 3097 
Q 1594 3097 1305 2825 
Q 1016 2553 972 2059 
L 3022 2063 
z
" transform="scale(0.015625)"/>
      </defs>
      <use xlink:href="#DejaVuSans-31"/>
      <use xlink:href="#DejaVuSans-65" x="63.623047"/>
      <use xlink:href="#DejaVuSans-36" x="125.146484"/>
     </g>
    </g>
   </g>
   <g id="matplotlib.axis_2">
    <g id="ytick_1">
     <g id="line2d_7">
      <defs>
       <path id="m71daf9bad2" d="M 0 0 
L -3.5 0 
" style="stroke: #000000; stroke-width: 0.8"/>
      </defs>
      <g>
       <use xlink:href="#m71daf9bad2" x="57.6" y="295.488" style="stroke: #000000; stroke-width: 0.8"/>
      </g>
     </g>
     <g id="text_9">
      <!-- 0 -->
      <g transform="translate(44.2375 299.287219) scale(0.1 -0.1)">
       <use xlink:href="#DejaVuSans-30"/>
      </g>
     </g>
    </g>
    <g id="ytick_2">
     <g id="line2d_8">
      <g>
       <use xlink:href="#m71daf9bad2" x="57.6" y="265.229336" style="stroke: #000000; stroke-width: 0.8"/>
      </g>
     </g>
     <g id="text_10">
      <!-- 10 -->
      <g transform="translate(37.875 269.028554) scale(0.1 -0.1)">
       <use xlink:href="#DejaVuSans-31"/>
       <use xlink:href="#DejaVuSans-30" x="63.623047"/>
      </g>
     </g>
    </g>
    <g id="ytick_3">
     <g id="line2d_9">
      <g>
       <use xlink:href="#m71daf9bad2" x="57.6" y="234.970671" style="stroke: #000000; stroke-width: 0.8"/>
      </g>
     </g>
     <g id="text_11">
      <!-- 20 -->
      <g transform="translate(37.875 238.76989) scale(0.1 -0.1)">
       <use xlink:href="#DejaVuSans-32"/>
       <use xlink:href="#DejaVuSans-30" x="63.623047"/>
      </g>
     </g>
    </g>
    <g id="ytick_4">
     <g id="line2d_10">
      <g>
       <use xlink:href="#m71daf9bad2" x="57.6" y="204.712007" style="stroke: #000000; stroke-width: 0.8"/>
      </g>
     </g>
     <g id="text_12">
      <!-- 30 -->
      <g transform="translate(37.875 208.511225) scale(0.1 -0.1)">
       <defs>
        <path id="DejaVuSans-33" d="M 2597 2516 
Q 3050 2419 3304 2112 
Q 3559 1806 3559 1356 
Q 3559 666 3084 287 
Q 2609 -91 1734 -91 
Q 1441 -91 1130 -33 
Q 819 25 488 141 
L 488 750 
Q 750 597 1062 519 
Q 1375 441 1716 441 
Q 2309 441 2620 675 
Q 2931 909 2931 1356 
Q 2931 1769 2642 2001 
Q 2353 2234 1838 2234 
L 1294 2234 
L 1294 2753 
L 1863 2753 
Q 2328 2753 2575 2939 
Q 2822 3125 2822 3475 
Q 2822 3834 2567 4026 
Q 2313 4219 1838 4219 
Q 1578 4219 1281 4162 
Q 984 4106 628 3988 
L 628 4550 
Q 988 4650 1302 4700 
Q 1616 4750 1894 4750 
Q 2613 4750 3031 4423 
Q 3450 4097 3450 3541 
Q 3450 3153 3228 2886 
Q 3006 2619 2597 2516 
z
" transform="scale(0.015625)"/>
       </defs>
       <use xlink:href="#DejaVuSans-33"/>
       <use xlink:href="#DejaVuSans-30" x="63.623047"/>
      </g>
     </g>
    </g>
    <g id="ytick_5">
     <g id="line2d_11">
      <g>
       <use xlink:href="#m71daf9bad2" x="57.6" y="174.453342" style="stroke: #000000; stroke-width: 0.8"/>
      </g>
     </g>
     <g id="text_13">
      <!-- 40 -->
      <g transform="translate(37.875 178.252561) scale(0.1 -0.1)">
       <use xlink:href="#DejaVuSans-34"/>
       <use xlink:href="#DejaVuSans-30" x="63.623047"/>
      </g>
     </g>
    </g>
    <g id="ytick_6">
     <g id="line2d_12">
      <g>
       <use xlink:href="#m71daf9bad2" x="57.6" y="144.194678" style="stroke: #000000; stroke-width: 0.8"/>
      </g>
     </g>
     <g id="text_14">
      <!-- 50 -->
      <g transform="translate(37.875 147.993897) scale(0.1 -0.1)">
       <defs>
        <path id="DejaVuSans-35" d="M 691 4666 
L 3169 4666 
L 3169 4134 
L 1269 4134 
L 1269 2991 
Q 1406 3038 1543 3061 
Q 1681 3084 1819 3084 
Q 2600 3084 3056 2656 
Q 3513 2228 3513 1497 
Q 3513 744 3044 326 
Q 2575 -91 1722 -91 
Q 1428 -91 1123 -41 
Q 819 9 494 109 
L 494 744 
Q 775 591 1075 516 
Q 1375 441 1709 441 
Q 2250 441 2565 725 
Q 2881 1009 2881 1497 
Q 2881 1984 2565 2268 
Q 2250 2553 1709 2553 
Q 1456 2553 1204 2497 
Q 953 2441 691 2322 
L 691 4666 
z
" transform="scale(0.015625)"/>
       </defs>
       <use xlink:href="#DejaVuSans-35"/>
       <use xlink:href="#DejaVuSans-30" x="63.623047"/>
      </g>
     </g>
    </g>
    <g id="ytick_7">
     <g id="line2d_13">
      <g>
       <use xlink:href="#m71daf9bad2" x="57.6" y="113.936013" style="stroke: #000000; stroke-width: 0.8"/>
      </g>
     </g>
     <g id="text_15">
      <!-- 60 -->
      <g transform="translate(37.875 117.735232) scale(0.1 -0.1)">
       <use xlink:href="#DejaVuSans-36"/>
       <use xlink:href="#DejaVuSans-30" x="63.623047"/>
      </g>
     </g>
    </g>
    <g id="ytick_8">
     <g id="line2d_14">
      <g>
       <use xlink:href="#m71daf9bad2" x="57.6" y="83.677349" style="stroke: #000000; stroke-width: 0.8"/>
      </g>
     </g>
     <g id="text_16">
      <!-- 70 -->
      <g transform="translate(37.875 87.476568) scale(0.1 -0.1)">
       <defs>
        <path id="DejaVuSans-37" d="M 525 4666 
L 3525 4666 
L 3525 4397 
L 1831 0 
L 1172 0 
L 2766 4134 
L 525 4134 
L 525 4666 
z
" transform="scale(0.015625)"/>
       </defs>
       <use xlink:href="#DejaVuSans-37"/>
       <use xlink:href="#DejaVuSans-30" x="63.623047"/>
      </g>
     </g>
    </g>
    <g id="ytick_9">
     <g id="line2d_15">
      <g>
       <use xlink:href="#m71daf9bad2" x="57.6" y="53.418685" style="stroke: #000000; stroke-width: 0.8"/>
      </g>
     </g>
     <g id="text_17">
      <!-- 80 -->
      <g transform="translate(37.875 57.217903) scale(0.1 -0.1)">
       <use xlink:href="#DejaVuSans-38"/>
       <use xlink:href="#DejaVuSans-30" x="63.623047"/>
      </g>
     </g>
    </g>
    <g id="text_18">
     <!-- Hr (%) -->
     <g transform="translate(31.795312 190.585031) rotate(-90) scale(0.1 -0.1)">
      <defs>
       <path id="DejaVuSans-48" d="M 628 4666 
L 1259 4666 
L 1259 2753 
L 3553 2753 
L 3553 4666 
L 4184 4666 
L 4184 0 
L 3553 0 
L 3553 2222 
L 1259 2222 
L 1259 0 
L 628 0 
L 628 4666 
z
" transform="scale(0.015625)"/>
       <path id="DejaVuSans-72" d="M 2631 2963 
Q 2534 3019 2420 3045 
Q 2306 3072 2169 3072 
Q 1681 3072 1420 2755 
Q 1159 2438 1159 1844 
L 1159 0 
L 581 0 
L 581 3500 
L 1159 3500 
L 1159 2956 
Q 1341 3275 1631 3429 
Q 1922 3584 2338 3584 
Q 2397 3584 2469 3576 
Q 2541 3569 2628 3553 
L 2631 2963 
z
" transform="scale(0.015625)"/>
       <path id="DejaVuSans-20" transform="scale(0.015625)"/>
       <path id="DejaVuSans-28" d="M 1984 4856 
Q 1566 4138 1362 3434 
Q 1159 2731 1159 2009 
Q 1159 1288 1364 580 
Q 1569 -128 1984 -844 
L 1484 -844 
Q 1016 -109 783 600 
Q 550 1309 550 2009 
Q 550 2706 781 3412 
Q 1013 4119 1484 4856 
L 1984 4856 
z
" transform="scale(0.015625)"/>
       <path id="DejaVuSans-25" d="M 4653 2053 
Q 4381 2053 4226 1822 
Q 4072 1591 4072 1178 
Q 4072 772 4226 539 
Q 4381 306 4653 306 
Q 4919 306 5073 539 
Q 5228 772 5228 1178 
Q 5228 1588 5073 1820 
Q 4919 2053 4653 2053 
z
M 4653 2450 
Q 5147 2450 5437 2106 
Q 5728 1763 5728 1178 
Q 5728 594 5436 251 
Q 5144 -91 4653 -91 
Q 4153 -91 3862 251 
Q 3572 594 3572 1178 
Q 3572 1766 3864 2108 
Q 4156 2450 4653 2450 
z
M 1428 4353 
Q 1159 4353 1004 4120 
Q 850 3888 850 3481 
Q 850 3069 1003 2837 
Q 1156 2606 1428 2606 
Q 1700 2606 1854 2837 
Q 2009 3069 2009 3481 
Q 2009 3884 1853 4118 
Q 1697 4353 1428 4353 
z
M 4250 4750 
L 4750 4750 
L 1831 -91 
L 1331 -91 
L 4250 4750 
z
M 1428 4750 
Q 1922 4750 2215 4408 
Q 2509 4066 2509 3481 
Q 2509 2891 2217 2550 
Q 1925 2209 1428 2209 
Q 931 2209 642 2551 
Q 353 2894 353 3481 
Q 353 4063 643 4406 
Q 934 4750 1428 4750 
z
" transform="scale(0.015625)"/>
       <path id="DejaVuSans-29" d="M 513 4856 
L 1013 4856 
Q 1481 4119 1714 3412 
Q 1947 2706 1947 2009 
Q 1947 1309 1714 600 
Q 1481 -109 1013 -844 
L 513 -844 
Q 928 -128 1133 580 
Q 1338 1288 1338 2009 
Q 1338 2731 1133 3434 
Q 928 4138 513 4856 
z
" transform="scale(0.015625)"/>
      </defs>
      <use xlink:href="#DejaVuSans-48"/>
      <use xlink:href="#DejaVuSans-72" x="75.195312"/>
      <use xlink:href="#DejaVuSans-20" x="116.308594"/>
      <use xlink:href="#DejaVuSans-28" x="148.095703"/>
      <use xlink:href="#DejaVuSans-25" x="187.109375"/>
      <use xlink:href="#DejaVuSans-29" x="282.128906"/>
     </g>
    </g>
   </g>
   <g id="line2d_16">
    <path d="M 73.832727 295.488 
L 73.834351 295.488 
L 73.946032 179.308601 
L 74.056739 159.981807 
L 74.068751 160.218867 
L 74.198613 146.745319 
L 74.198938 146.877184 
L 74.291789 139.486823 
L 74.303152 139.496127 
L 74.431391 130.246812 
L 74.43204 130.425838 
L 74.523268 125.060732 
L 74.650533 120.710879 
L 74.655403 120.909597 
L 74.658325 121.0515 
L 74.748903 117.388632 
L 74.749553 117.407617 
L 74.903439 111.440453 
L 74.754098 117.433139 
L 74.903764 111.496242 
L 74.917724 111.781147 
L 75.003757 109.674466 
L 75.131022 106.626719 
L 75.143684 106.802222 
L 75.147255 106.941173 
L 75.308608 102.128079 
L 75.460871 98.972606 
L 75.310232 102.20754 
L 75.461521 98.990634 
L 75.462495 99.047786 
L 75.558917 97.614432 
L 75.562164 97.758676 
L 75.69787 95.501666 
L 75.70696 95.685421 
L 75.707284 95.720025 
L 75.795266 93.663459 
L 75.799162 93.713614 
L 75.941685 91.838245 
L 75.80111 93.713663 
L 75.943633 91.979634 
L 75.944932 92.011737 
L 76.036485 90.301447 
L 76.037134 90.317321 
L 76.203357 87.796373 
L 76.204006 87.853243 
L 76.210824 87.952805 
L 76.306273 87.104731 
L 76.320558 87.156128 
L 76.461782 85.38122 
L 76.470223 85.532201 
L 76.561776 84.512468 
L 76.710793 83.148292 
L 76.712416 83.165647 
L 76.741635 83.238328 
L 76.810137 82.248715 
L 76.81176 82.298957 
L 76.984152 80.182967 
L 76.814682 82.310191 
L 76.99097 80.243389 
L 76.991295 80.265513 
L 77.088691 79.341752 
L 77.08934 79.384848 
L 77.239655 78.077737 
L 77.090314 79.419303 
L 77.247447 78.113529 
L 77.247772 78.134194 
L 77.338351 77.024814 
L 77.341272 77.038754 
L 77.476978 76.385617 
L 77.343545 77.068234 
L 77.478601 76.402336 
L 77.483471 76.425495 
L 77.582816 75.994147 
L 77.703912 75.501115 
L 77.587361 76.076707 
L 77.71495 75.519301 
L 77.725339 75.626879 
L 77.814619 74.88223 
L 77.951948 74.176205 
L 77.824684 74.921629 
L 77.956169 74.23596 
L 77.956493 74.253378 
L 78.057136 73.7105 
L 78.177908 73.47658 
L 78.05876 73.725951 
L 78.179856 73.48567 
L 78.184401 73.559523 
L 78.285044 73.236631 
L 78.286018 73.241121 
L 78.415231 72.626452 
L 78.29803 73.332995 
L 78.425944 72.718528 
L 78.432437 72.755355 
L 78.529185 72.344469 
L 78.537301 72.374461 
L 78.66976 71.843183 
L 78.675604 71.869634 
L 78.77365 71.51543 
L 78.79248 71.593294 
L 78.903836 71.201946 
L 78.904161 71.216304 
L 79.001557 70.614865 
L 79.001882 70.628989 
L 79.1259 70.144094 
L 79.142133 70.18547 
L 79.145704 70.225972 
L 79.245049 69.841238 
L 79.39926 69.174508 
L 79.247321 69.881517 
L 79.400558 69.209649 
L 79.416791 69.251707 
L 79.501851 68.903247 
L 79.504448 68.920404 
L 79.640478 68.543788 
L 79.544056 68.995223 
L 79.641452 68.564929 
L 79.645997 68.590263 
L 79.745342 68.298796 
L 79.746316 68.319602 
L 79.751186 68.340538 
L 79.849881 68.033747 
L 79.969354 67.883677 
L 79.906695 68.058774 
L 79.972276 67.895994 
L 79.98234 67.948978 
L 80.078438 67.722266 
L 80.202131 67.441406 
L 80.094346 67.751819 
L 80.212195 67.447002 
L 80.231999 67.507976 
L 80.293035 67.28971 
L 80.319332 67.30617 
L 80.32063 67.306418 
L 80.461855 66.936464 
L 80.479711 67.018383 
L 80.557628 66.714734 
L 80.567693 66.764878 
L 80.602106 66.810222 
L 80.694957 66.583215 
L 80.696905 66.60524 
L 80.793328 66.318134 
L 80.798198 66.323219 
L 80.891698 66.074357 
L 80.799821 66.348412 
L 80.920592 66.205714 
L 80.920917 66.216216 
L 80.993315 66.009999 
L 81.027404 66.073226 
L 81.142656 65.927463 
L 81.032598 66.1023 
L 81.151422 65.94738 
L 81.298166 65.511623 
L 81.158564 65.970029 
L 81.304334 65.530565 
L 81.312775 65.540537 
L 81.407899 65.302729 
L 81.528671 65.123892 
L 81.465039 65.314153 
L 81.535164 65.152287 
L 81.557565 65.171672 
L 81.638729 65.011715 
L 81.641326 65.012891 
L 81.779954 64.756258 
L 81.782551 64.782211 
L 81.875402 64.575292 
L 81.885142 64.586197 
L 81.993252 64.455104 
L 81.890661 64.610245 
L 82.010134 64.463554 
L 82.058508 64.520415 
L 82.112725 64.442975 
L 82.12214 64.492078 
L 82.236743 64.298992 
L 82.253625 64.319176 
L 82.273105 64.328936 
L 82.348749 64.213568 
L 82.360761 64.216793 
L 82.491597 64.046826 
L 82.390305 64.269054 
L 82.492571 64.050168 
L 82.494844 64.076866 
L 82.575034 63.873476 
L 82.598733 63.916932 
L 82.728595 63.653249 
L 82.599383 63.922877 
L 82.737361 63.693922 
L 82.739634 63.719976 
L 82.816577 63.594571 
L 82.847419 63.668729 
L 82.955204 63.532545 
L 82.974684 63.543232 
L 82.975008 63.551469 
L 83.041887 63.465082 
L 83.083443 63.487915 
L 83.215902 63.318551 
L 83.109416 63.512672 
L 83.216552 63.324147 
L 83.222395 63.343091 
L 83.320117 63.135254 
L 83.361672 63.086694 
L 83.42498 63.166263 
L 83.430824 63.143953 
L 83.437966 63.163312 
L 83.502573 63.008807 
L 83.536337 63.007833 
L 83.615552 62.922152 
L 83.654836 62.952154 
L 83.703209 63.086568 
L 83.767166 62.980818 
L 83.790541 62.914965 
L 83.863913 63.029615 
L 83.873328 63.02256 
L 83.886639 63.056745 
L 83.962284 62.920764 
L 83.981439 62.953164 
L 84.128507 62.687207 
L 84.131104 62.688685 
L 84.133377 62.701899 
L 84.235319 62.631703 
L 84.240188 62.64627 
L 84.283368 62.555504 
L 84.240838 62.651357 
L 84.358687 62.598384 
L 84.36583 62.616408 
L 84.463226 62.467452 
L 84.463876 62.472444 
L 84.510626 62.379444 
L 84.474589 62.494715 
L 84.57718 62.461083 
L 84.585946 62.468329 
L 84.658344 62.366066 
L 84.684641 62.387836 
L 84.788531 62.329685 
L 84.719704 62.407675 
L 84.803465 62.342627 
L 84.8408 62.35698 
L 84.870993 62.273794 
L 84.913523 62.317822 
L 85.031048 62.124421 
L 84.928132 62.332666 
L 85.053449 62.143812 
L 85.053774 62.150563 
L 85.154741 61.96684 
L 85.157014 61.987679 
L 85.275188 61.943824 
L 85.229087 62.050718 
L 85.276162 61.946532 
L 85.28298 61.956897 
L 85.345314 61.838991 
L 85.382324 61.847732 
L 85.504395 61.715809 
L 85.382974 61.852361 
L 85.513809 61.727623 
L 85.514459 61.740616 
L 85.590103 61.590153 
L 85.620621 61.645668 
L 85.673215 61.713662 
L 85.742042 61.588186 
L 85.747561 61.614083 
L 85.814765 61.466455 
L 85.848204 61.488207 
L 85.882617 61.439073 
L 85.916706 61.546519 
L 85.958587 61.495763 
L 85.960859 61.507209 
L 86.043322 61.430058 
L 86.067995 61.46047 
L 86.125459 61.435664 
L 86.150133 61.52169 
L 86.175781 61.482568 
L 86.198831 61.545388 
L 86.289085 61.529092 
L 86.290384 61.537709 
L 86.420895 61.419196 
L 86.436154 61.445364 
L 86.514396 61.363307 
L 86.52933 61.36789 
L 86.686138 61.11347 
L 86.530629 61.37636 
L 86.687762 61.12014 
L 86.700748 61.150538 
L 86.724448 61.093652 
L 86.798144 61.10761 
L 86.948784 60.893473 
L 86.800092 61.112515 
L 86.949433 60.905086 
L 86.951706 60.915771 
L 87.055271 60.828818 
L 87.056245 60.831244 
L 87.17799 60.741537 
L 87.183185 60.759291 
L 87.246168 60.784878 
L 87.287074 60.695308 
L 87.290646 60.699217 
L 87.292918 60.716963 
L 87.423754 60.599001 
L 87.4507 60.645388 
L 87.442584 60.577517 
L 87.537059 60.634256 
L 87.637702 60.588768 
L 87.557512 60.662154 
L 87.656207 60.604753 
L 87.698087 60.655315 
L 87.760421 60.577786 
L 87.76659 60.590127 
L 87.902295 60.481856 
L 87.906841 60.49493 
L 87.951968 60.411087 
L 88.01073 60.43615 
L 88.170785 60.175567 
L 88.175005 60.190017 
L 88.216561 60.220993 
L 88.185719 60.167167 
L 88.285713 60.184369 
L 88.422068 60.047068 
L 88.295452 60.20019 
L 88.425639 60.057563 
L 88.534398 60.148772 
L 88.541216 60.130959 
L 88.647054 60.055153 
L 88.582123 60.184274 
L 88.665234 60.078809 
L 88.679844 60.098722 
L 88.761008 59.983437 
L 88.771721 60.007662 
L 88.852236 59.948795 
L 88.773994 60.023755 
L 88.886324 59.999265 
L 88.889571 60.023944 
L 88.970735 59.923635 
L 88.993785 59.944847 
L 89.084688 59.847982 
L 89.013264 59.949415 
L 89.12592 59.860197 
L 89.127868 59.870937 
L 89.210979 59.783685 
L 89.232731 59.79128 
L 89.244419 59.823417 
L 89.371034 59.682717 
L 89.3798 59.714569 
L 89.46908 59.609513 
L 89.478819 59.630774 
L 89.606084 59.55325 
L 89.608681 59.560957 
L 89.69926 59.564279 
L 89.65738 59.504809 
L 89.718415 59.539554 
L 89.867431 59.373619 
L 89.869379 59.383922 
L 89.883664 59.404318 
L 89.975541 59.317916 
L 89.976191 59.32133 
L 90.057354 59.291802 
L 89.994047 59.333044 
L 90.092092 59.313088 
L 90.108325 59.319281 
L 90.169685 59.268256 
L 90.200852 59.279924 
L 90.289483 59.214929 
L 90.20215 59.280659 
L 90.32487 59.239422 
L 90.332662 59.261679 
L 90.422591 59.192109 
L 90.433629 59.207206 
L 90.454083 59.249729 
L 90.543687 59.223166 
L 90.621929 59.317819 
L 90.659265 59.287216 
L 90.773868 59.23244 
L 90.706989 59.320684 
L 90.782958 59.249027 
L 90.788477 59.262192 
L 90.878407 59.182953 
L 90.890094 59.195129 
L 90.981971 59.114918 
L 90.891717 59.200338 
L 91.014762 59.154361 
L 91.052097 59.159039 
L 91.121248 59.087212 
L 91.20014 59.063726 
L 91.13878 59.093958 
L 91.236501 59.083541 
L 91.262149 59.11015 
L 91.333897 59.040789 
L 91.34591 59.057126 
L 91.346559 59.060283 
L 91.475447 59.000137 
L 91.508562 59.020803 
L 91.574467 58.952375 
L 91.583557 58.957289 
L 91.707575 58.916663 
L 91.708224 58.91976 
L 91.805621 58.961005 
L 91.736145 58.89911 
L 91.821854 58.950543 
L 91.93321 58.945817 
L 91.843281 58.986506 
L 91.935483 58.953806 
L 91.958533 58.989041 
L 92.040671 58.874351 
L 92.134496 58.868926 
L 92.087746 58.924858 
L 92.151378 58.888572 
L 92.153976 58.895303 
L 92.228646 58.782291 
L 92.256242 58.80625 
L 92.395519 58.687503 
L 92.256891 58.809259 
L 92.398441 58.708898 
L 92.40396 58.736948 
L 92.493565 58.620865 
L 92.503304 58.628674 
L 92.64875 58.522619 
L 92.650048 58.528531 
L 92.743224 58.428549 
L 92.753613 58.444489 
L 92.873735 58.412783 
L 92.792572 58.470431 
L 92.876657 58.418207 
L 92.94938 58.472158 
L 92.990611 58.454104 
L 92.994182 58.462393 
L 93.125018 58.389489 
L 93.13281 58.40886 
L 93.230856 58.325906 
L 93.231505 58.32878 
L 93.332473 58.327537 
L 93.279229 58.365225 
L 93.34481 58.336517 
L 93.436038 58.352718 
L 93.410065 58.309085 
L 93.456491 58.339566 
L 93.583106 58.268228 
L 93.496423 58.366542 
L 93.589275 58.282625 
L 93.66005 58.316791 
L 93.612001 58.277037 
L 93.700956 58.28594 
L 93.714267 58.291575 
L 93.826273 58.25445 
L 93.84348 58.266983 
L 93.886009 58.206733 
L 93.936655 58.242558 
L 94.069764 58.152578 
L 94.07853 58.158292 
L 94.078854 58.162097 
L 94.1769 58.079361 
L 94.185341 58.105423 
L 94.310333 58.057627 
L 94.31358 58.066484 
L 94.321047 58.076298 
L 94.408379 58.004965 
L 94.419742 58.007206 
L 94.506749 57.999299 
L 94.429482 58.019345 
L 94.532397 58.018301 
L 94.594731 58.068841 
L 94.557396 58.006117 
L 94.645052 58.033997 
L 94.714853 58.042091 
L 94.683037 58.084954 
L 94.748617 58.073141 
L 94.806406 58.090293 
L 94.855104 58.018723 
L 94.961266 57.975152 
L 94.867766 58.030899 
L 94.975226 58.006527 
L 94.985291 58.012703 
L 95.080739 57.942135 
L 95.081064 57.945764 
L 95.180733 57.964203 
L 95.114503 57.972809 
L 95.189174 57.970686 
L 95.283649 58.004677 
L 95.232028 57.955143 
L 95.302154 57.989742 
L 95.304751 57.995595 
L 95.43786 57.931021 
L 95.445002 57.950439 
L 95.544671 57.882581 
L 95.671286 57.852202 
L 95.707648 57.874471 
L 95.772254 57.821947 
L 95.780695 57.832786 
L 95.893026 57.831685 
L 95.831341 57.875318 
L 95.894974 57.83931 
L 95.972566 57.869075 
L 96.003408 57.814144 
L 96.004058 57.816674 
L 96.004707 57.819204 
L 96.14723 57.73915 
L 96.239757 57.760766 
L 96.169632 57.7269 
L 96.259886 57.750737 
L 96.335206 57.703932 
L 96.383904 57.729527 
L 96.489092 57.736396 
L 96.455328 57.694205 
L 96.494936 57.724012 
L 96.555646 57.693487 
L 96.496234 57.728966 
L 96.614409 57.716094 
L 96.661808 57.745039 
L 96.711481 57.703014 
L 96.726739 57.724187 
L 96.817967 57.714792 
L 96.839395 57.735556 
L 96.873808 57.741046 
L 96.941012 57.684264 
L 96.94718 57.696726 
L 97.087106 57.627895 
L 97.087756 57.630312 
L 97.091002 57.633948 
L 97.180607 57.570647 
L 97.195541 57.59238 
L 97.204956 57.612555 
L 97.319884 57.571958 
L 97.429617 57.587613 
L 97.394879 57.537058 
L 97.432539 57.583767 
L 97.556882 57.54289 
L 97.437734 57.590342 
L 97.562076 57.549439 
L 97.635124 57.582161 
L 97.610125 57.542744 
L 97.673108 57.545035 
L 97.769206 57.531752 
L 97.682848 57.559825 
L 97.78479 57.559426 
L 97.79875 57.579148 
L 97.863031 57.51651 
L 97.893874 57.535754 
L 97.941923 57.529179 
L 97.967246 57.575338 
L 98.002958 57.561068 
L 98.028281 57.570537 
L 98.098082 57.526207 
L 98.111068 57.528056 
L 98.278265 57.391448 
L 98.279564 57.39204 
L 98.296446 57.40777 
L 98.354234 57.35991 
L 98.39092 57.391624 
L 98.491563 57.399312 
L 98.44806 57.441467 
L 98.5039 57.406878 
L 98.525652 57.421665 
L 98.610387 57.359606 
L 98.749664 57.302883 
L 98.611361 57.361037 
L 98.749989 57.305987 
L 98.852255 57.305803 
L 98.787973 57.274876 
L 98.860371 57.296692 
L 98.944781 57.291481 
L 98.891538 57.314606 
L 98.965235 57.332888 
L 99.070423 57.36017 
L 98.987961 57.309826 
L 99.078539 57.35112 
L 99.210674 57.309742 
L 99.081461 57.359225 
L 99.211648 57.315012 
L 99.227556 57.332687 
L 99.277877 57.294061 
L 99.32268 57.311914 
L 99.437608 57.25684 
L 99.325602 57.316092 
L 99.455464 57.277169 
L 99.456762 57.285408 
L 99.528836 57.223334 
L 99.565522 57.26143 
L 99.688241 57.244711 
L 99.575911 57.273617 
L 99.690514 57.246654 
L 99.690838 57.249645 
L 99.764535 57.191784 
L 99.79765 57.204375 
L 99.879138 57.142747 
L 99.918097 57.201206 
L 100.033674 57.270005 
L 100.037245 57.268731 
L 100.151848 57.242262 
L 100.054127 57.275993 
L 100.160289 57.258946 
L 100.173276 57.268241 
L 100.241778 57.212874 
L 100.268399 57.226147 
L 100.383977 57.227333 
L 100.271646 57.233111 
L 100.385275 57.231586 
L 100.494359 57.226303 
L 100.401183 57.211555 
L 100.495982 57.222387 
L 100.626169 57.184839 
L 100.511241 57.237149 
L 100.630065 57.186491 
L 100.711878 57.217418 
L 100.651167 57.172538 
L 100.743369 57.200561 
L 100.840766 57.161462 
L 100.744343 57.201885 
L 100.864141 57.196747 
L 100.939461 57.22104 
L 100.976472 57.202103 
L 101.10958 57.151228 
L 100.989783 57.213995 
L 101.112827 57.161586 
L 101.210223 57.191329 
L 101.224833 57.164213 
L 101.225807 57.165514 
L 101.351448 57.14698 
L 101.458909 57.149546 
L 101.385861 57.123783 
L 101.462805 57.144042 
L 101.501114 57.133203 
L 101.522541 57.172192 
L 101.573512 57.16742 
L 101.619288 57.18175 
L 101.593641 57.142055 
L 101.684544 57.161646 
L 101.818626 57.131077 
L 101.863429 57.144068 
L 101.893622 57.116954 
L 101.929658 57.125497 
L 102.02673 57.092525 
L 101.930957 57.129521 
L 102.053352 57.118996 
L 102.053677 57.121739 
L 102.148476 57.042036 
L 102.157566 57.056133 
L 102.262105 57.048287 
L 102.275091 57.063899 
L 102.340347 57.068649 
L 102.362099 57.040386 
L 102.386123 57.058669 
L 102.393915 57.065243 
L 102.532218 57.002488 
L 102.607213 57.012949 
L 102.567605 56.985083 
L 102.642276 56.989479 
L 102.769865 56.961513 
L 102.650717 56.994569 
L 102.771488 56.971499 
L 102.815317 56.979684 
L 102.871157 56.93427 
L 102.880572 56.950716 
L 102.990955 56.923869 
L 102.881871 56.954617 
L 103.004591 56.944456 
L 103.007513 56.948144 
L 103.106857 56.905293 
L 103.112051 56.910714 
L 103.229252 56.902807 
L 103.112701 56.91265 
L 103.232823 56.91174 
L 103.246134 56.92285 
L 103.338985 56.874535 
L 103.340284 56.878378 
L 103.420149 56.858414 
L 103.455212 56.892148 
L 103.5367 56.924951 
L 103.468847 56.882595 
L 103.568841 56.908608 
L 103.686691 56.902728 
L 103.569815 56.913118 
L 103.690586 56.907538 
L 103.712338 56.916834 
L 103.789606 56.856655 
L 103.796099 56.85591 
L 103.931156 56.797404 
L 103.801294 56.861214 
L 103.940246 56.807477 
L 104.047057 56.805902 
L 103.948687 56.792827 
L 104.050953 56.797663 
L 104.155167 56.798361 
L 104.052577 56.800732 
L 104.166206 56.810733 
L 104.278536 56.829838 
L 104.220098 56.787906 
L 104.28016 56.82643 
L 104.333403 56.859775 
L 104.398659 56.835716 
L 104.490536 56.83637 
L 104.427228 56.820966 
L 104.509691 56.828472 
L 104.646046 56.791067 
L 104.648643 56.795245 
L 104.734027 56.812619 
L 104.760649 56.795722 
L 104.766168 56.800201 
L 104.893433 56.775593 
L 104.901874 56.793019 
L 104.968753 56.75359 
L 105.003166 56.758732 
L 105.114198 56.767604 
L 105.009984 56.766824 
L 105.119392 56.772699 
L 105.197959 56.810025 
L 105.233996 56.792994 
L 105.328146 56.776669 
L 105.355092 56.79686 
L 105.429113 56.815062 
L 105.467422 56.79977 
L 105.478136 56.812284 
L 105.591765 56.797049 
L 105.619686 56.812006 
L 105.67228 56.780484 
L 105.701499 56.780484 
L 105.836555 56.716571 
L 105.851489 56.726692 
L 105.869995 56.729687 
L 105.919991 56.688402 
L 105.958301 56.688784 
L 106.091409 56.660064 
L 105.962846 56.695048 
L 106.094331 56.663425 
L 106.103746 56.672219 
L 106.176144 56.638816 
L 106.203415 56.642779 
L 106.251464 56.678606 
L 106.312499 56.670665 
L 106.358925 56.679313 
L 106.379053 56.651942 
L 106.422882 56.659651 
L 106.544952 56.646956 
L 106.432946 56.673114 
L 106.548848 56.654379 
L 106.590728 56.671834 
L 106.652737 56.614204 
L 106.655984 56.619874 
L 106.780002 56.597687 
L 106.669295 56.629945 
L 106.787794 56.606474 
L 106.898176 56.607716 
L 106.8287 56.587041 
L 106.899475 56.605214 
L 107.042648 56.561305 
L 106.901423 56.607403 
L 107.044596 56.566445 
L 107.147187 56.5827 
L 107.058556 56.557435 
L 107.156926 56.569984 
L 107.300424 56.520075 
L 107.161472 56.578986 
L 107.303346 56.529196 
L 107.304969 56.534915 
L 107.373147 56.493434 
L 107.412754 56.512041 
L 107.541318 56.502574 
L 107.422819 56.519303 
L 107.541967 56.504263 
L 107.59586 56.510395 
L 107.645532 56.472151 
L 107.650726 56.479816 
L 107.777667 56.464896 
L 107.6517 56.48089 
L 107.780588 56.471 
L 107.780913 56.473285 
L 107.875712 56.437654 
L 107.888698 56.442272 
L 107.919865 56.464868 
L 108.021482 56.42823 
L 108.126021 56.449421 
L 108.056545 56.403332 
L 108.135112 56.438308 
L 108.239001 56.443466 
L 108.139981 56.443606 
L 108.252312 56.453142 
L 108.273739 56.467797 
L 108.347111 56.415206 
L 108.360747 56.42711 
L 108.502946 56.393237 
L 108.361396 56.428761 
L 108.50327 56.395476 
L 108.505218 56.397575 
L 108.600017 56.354416 
L 108.610082 56.358651 
L 108.749034 56.331196 
L 108.749683 56.33283 
L 108.778577 56.345038 
L 108.847404 56.307302 
L 108.858443 56.309758 
L 108.969475 56.324666 
L 108.872403 56.326549 
L 108.972072 56.331161 
L 109.046093 56.351262 
L 109.085052 56.336874 
L 109.210368 56.337089 
L 109.090571 56.343662 
L 109.210693 56.339284 
L 109.316206 56.327831 
L 109.255171 56.320641 
L 109.320102 56.320868 
L 109.461327 56.290063 
L 109.463275 56.292112 
L 109.580475 56.331607 
L 109.581124 56.330454 
L 109.695403 56.309123 
L 109.585669 56.336129 
L 109.71261 56.322522 
L 109.712934 56.324686 
L 109.803513 56.249639 
L 109.814551 56.254777 
L 109.932726 56.194334 
L 109.962269 56.218711 
L 110.009344 56.234075 
L 110.05999 56.197057 
L 110.071029 56.196753 
L 110.192125 56.199389 
L 110.071678 56.19833 
L 110.194397 56.203537 
L 110.246018 56.200129 
L 110.218097 56.183904 
L 110.303481 56.183895 
L 110.411267 56.171987 
L 110.305105 56.186465 
L 110.429448 56.186188 
L 110.538856 56.19025 
L 110.43172 56.184942 
L 110.541778 56.187888 
L 110.654109 56.208254 
L 110.546648 56.192873 
L 110.655083 56.211915 
L 110.734948 56.239944 
L 110.768387 56.219836 
L 110.769361 56.223486 
L 110.90669 56.200908 
L 110.94922 56.221011 
L 111.012528 56.176606 
L 111.016424 56.185828 
L 111.13687 56.184267 
L 111.017722 56.191543 
L 111.142714 56.190153 
L 111.247578 56.193938 
L 111.220631 56.173867 
L 111.254396 56.187657 
L 111.393023 56.165929 
L 111.395296 56.167332 
L 111.506328 56.166011 
L 111.430034 56.158522 
L 111.507302 56.164376 
L 111.668006 56.111171 
L 111.699173 56.118813 
L 111.77222 56.074775 
L 111.776116 56.083823 
L 111.804361 56.101502 
L 111.905978 56.082473 
L 112.004348 56.086932 
L 111.929028 56.072609 
L 112.018633 56.083875 
L 112.146547 56.078054 
L 112.025776 56.090065 
L 112.149144 56.081463 
L 112.260501 56.095221 
L 112.158235 56.076731 
L 112.263098 56.09095 
L 112.263748 56.092439 
L 112.412764 56.057157 
L 112.522497 56.05069 
L 112.452047 56.041246 
L 112.523796 56.04857 
L 112.525095 56.051529 
L 112.668917 56.022554 
L 112.771832 56.0298 
L 112.687422 56.015246 
L 112.781572 56.024103 
L 112.786442 56.028821 
L 112.90559 56.032426 
L 113.015973 56.04512 
L 112.934809 56.012887 
L 113.019544 56.041873 
L 113.128303 56.032112 
L 113.147783 56.04581 
L 113.230245 56.058264 
L 113.193884 56.034247 
L 113.260438 56.047273 
L 113.261087 56.048724 
L 113.416597 56.006626 
L 113.524707 56.005517 
L 113.426012 56.001545 
L 113.528278 56.002315 
L 113.657816 55.984538 
L 113.662036 55.997584 
L 113.77599 56.01187 
L 113.684762 55.991184 
L 113.776639 56.010844 
L 113.918189 55.988947 
L 113.779236 56.016577 
L 113.919812 55.991293 
L 113.98799 56.026068 
L 113.923059 55.988635 
L 114.032467 55.992881 
L 114.176614 55.957386 
L 114.036038 55.999494 
L 114.182458 55.962862 
L 114.289594 55.970693 
L 114.207456 55.953014 
L 114.295438 55.96644 
L 114.42952 55.925116 
L 114.441857 55.942256 
L 114.524319 55.954524 
L 114.478543 55.92886 
L 114.554188 55.942049 
L 114.681452 55.930821 
L 114.556136 55.946271 
L 114.687296 55.938637 
L 114.750279 55.94004 
L 114.782745 55.909254 
L 114.795082 55.911861 
L 114.902867 55.945024 
L 114.904166 55.947814 
L 115.004159 55.956942 
L 114.912607 55.942033 
L 115.01747 55.953259 
L 115.173954 55.9142 
L 115.174928 55.915092 
L 115.220379 55.928965 
L 115.18694 55.908666 
L 115.28596 55.907458 
L 115.433353 55.875498 
L 115.288882 55.910126 
L 115.436275 55.88052 
L 115.535295 55.881741 
L 115.475883 55.872517 
L 115.548281 55.876265 
L 115.70931 55.826466 
L 115.711907 55.829601 
L 115.812875 55.839715 
L 115.825536 55.834774 
L 115.969034 55.816288 
L 115.969358 55.818134 
L 115.990136 55.824408 
L 116.074871 55.784234 
L 116.07617 55.784627 
L 116.209603 55.78135 
L 116.077468 55.787344 
L 116.210252 55.782704 
L 116.281027 55.79126 
L 116.226485 55.779482 
L 116.320959 55.771458 
L 116.323557 55.779175 
L 116.455367 55.769109 
L 116.53718 55.765987 
L 116.558607 55.750554 
L 116.565749 55.756141 
L 116.681002 55.772781 
L 116.566723 55.757008 
L 116.684898 55.776235 
L 116.787488 55.770147 
L 116.703403 55.762843 
L 116.795605 55.765129 
L 116.944621 55.732409 
L 116.949816 55.736232 
L 117.038771 55.750104 
L 116.967347 55.728913 
L 117.062471 55.736101 
L 117.193632 55.722747 
L 117.1998 55.731933 
L 117.277393 55.741821 
L 117.215384 55.725215 
L 117.311157 55.724653 
L 117.430305 55.735476 
L 117.433552 55.742063 
L 117.471536 55.745893 
L 117.525429 55.72009 
L 117.542636 55.72233 
L 117.680939 55.707895 
L 117.54361 55.723178 
L 117.683861 55.712671 
L 117.766972 55.725772 
L 117.699119 55.708738 
L 117.794568 55.701978 
L 117.93839 55.684287 
L 117.940013 55.686431 
L 118.009165 55.708231 
L 118.052993 55.68819 
L 118.19714 55.670187 
L 118.053967 55.689028 
L 118.198763 55.672319 
L 118.305899 55.664681 
L 118.251357 55.653285 
L 118.309146 55.6601 
L 118.448098 55.649596 
L 118.312392 55.664353 
L 118.448747 55.653086 
L 118.517899 55.659302 
L 118.454267 55.649728 
L 118.560429 55.647947 
L 118.694836 55.648275 
L 118.561078 55.649232 
L 118.69516 55.650011 
L 118.716263 55.653339 
L 118.796777 55.610885 
L 118.801323 55.613285 
L 118.927289 55.612383 
L 118.802297 55.616296 
L 118.934106 55.61815 
L 119.041892 55.612037 
L 118.982155 55.601449 
L 119.045788 55.610979 
L 119.187662 55.598923 
L 119.188311 55.602358 
L 119.252593 55.613109 
L 119.190259 55.601831 
L 119.298369 55.5867 
L 119.442841 55.571218 
L 119.44349 55.574633 
L 119.449334 55.579525 
L 119.500954 55.538794 
L 119.5516 55.548908 
L 119.557444 55.553792 
L 119.686007 55.551661 
L 119.794767 55.550889 
L 119.751912 55.538759 
L 119.798338 55.548159 
L 119.798987 55.549411 
L 119.950926 55.526202 
L 120.013584 55.494413 
L 120.061308 55.51267 
L 120.061958 55.513916 
L 120.207728 55.501398 
L 120.307072 55.502865 
L 120.227531 55.487382 
L 120.320058 55.498056 
L 120.328499 55.50782 
L 120.464205 55.489943 
L 120.554784 55.490553 
L 120.519072 55.475305 
L 120.575237 55.479979 
L 120.720358 55.466476 
L 120.721981 55.4685 
L 120.829442 55.469666 
L 120.726201 55.467059 
L 120.834311 55.465273 
L 120.99534 55.434957 
L 120.997613 55.438192 
L 121.036896 55.40696 
L 121.103126 55.408746 
L 121.238507 55.410523 
L 121.239481 55.411311 
L 121.351487 55.408682 
L 121.264479 55.401148 
L 121.351811 55.408255 
L 121.519658 55.369527 
L 121.627119 55.372952 
L 121.632313 55.368218 
L 121.789771 55.343381 
L 121.89853 55.349245 
L 121.833274 55.329767 
L 121.9034 55.347006 
L 122.029366 55.363164 
L 121.910867 55.36387 
L 122.030015 55.36436 
L 122.03034 55.365978 
L 122.078714 55.335927 
L 122.137151 55.333607 
L 122.138125 55.334382 
L 122.306946 55.295285 
L 122.415381 55.297567 
L 122.314738 55.28931 
L 122.42025 55.295357 
L 122.562774 55.286239 
L 122.421224 55.296128 
L 122.565371 55.288962 
L 122.649132 55.310706 
L 122.572838 55.28142 
L 122.681598 55.303416 
L 122.808862 55.313762 
L 122.811784 55.316056 
L 122.928335 55.333962 
L 122.816329 55.314276 
L 122.92866 55.333549 
L 123.075079 55.325462 
L 123.18741 55.322714 
L 123.107545 55.316231 
L 123.187735 55.322303 
L 123.189033 55.324642 
L 123.328959 55.322826 
L 123.376684 55.32813 
L 123.336102 55.317789 
L 123.438693 55.305544 
L 123.594527 55.283842 
L 123.59615 55.285755 
L 123.674717 55.280053 
L 123.647446 55.272789 
L 123.705884 55.268647 
L 123.869834 55.240989 
L 123.960738 55.233765 
L 123.900677 55.226132 
L 123.979568 55.224073 
L 123.988983 55.233918 
L 124.124039 55.22084 
L 124.199035 55.225568 
L 124.126636 55.219575 
L 124.234097 55.2056 
L 124.401619 55.16821 
L 124.234747 55.206746 
L 124.403242 55.172039 
L 124.435708 55.168972 
L 124.509405 55.138513 
L 124.638617 55.132979 
L 124.647058 55.143907 
L 124.757116 55.159855 
L 124.64998 55.142261 
L 124.76296 55.156569 
L 124.913275 55.146454 
L 125.019437 55.145942 
L 125.02593 55.143804 
L 125.165207 55.143333 
L 125.167155 55.146712 
L 125.273967 55.132048 
L 125.202867 55.122563 
L 125.276889 55.130423 
L 125.417789 55.126128 
L 125.278187 55.132671 
L 125.42136 55.129438 
L 125.531743 55.137186 
L 125.535639 55.132497 
L 125.636282 55.16899 
L 125.536288 55.133615 
L 125.640177 55.179477 
L 125.753482 55.179797 
L 125.64245 55.178641 
L 125.753807 55.179407 
L 125.922303 55.149572 
L 126.031062 55.147848 
L 125.924575 55.148742 
L 126.034633 55.143589 
L 126.178455 55.141478 
L 126.179105 55.142582 
L 126.287539 55.152503 
L 126.294357 55.15003 
L 126.440452 55.148957 
L 126.552782 55.161668 
L 126.458632 55.140519 
L 126.556354 55.159314 
L 126.701799 55.157127 
L 126.702124 55.158602 
L 126.740757 55.157703 
L 126.795624 55.126596 
L 126.809909 55.132069 
L 126.810558 55.13316 
L 126.947563 55.140945 
L 127.047556 55.166138 
L 127.065412 55.160015 
L 127.067036 55.161807 
L 127.214754 55.155144 
L 127.319617 55.17084 
L 127.224169 55.149686 
L 127.330006 55.16242 
L 127.479347 55.155735 
L 127.330655 55.163501 
L 127.479997 55.156813 
L 127.595898 55.166952 
L 127.729656 55.178289 
L 127.598496 55.171253 
L 127.731279 55.180058 
L 127.834844 55.175225 
L 127.743941 55.176365 
L 127.842961 55.171323 
L 127.981588 55.175182 
L 127.84361 55.172393 
L 127.984186 55.177637 
L 128.030287 55.184479 
L 128.094568 55.163196 
L 128.282543 55.116039 
L 128.388381 55.128592 
L 128.291309 55.11324 
L 128.397471 55.121826 
L 128.555578 55.107211 
L 128.556228 55.108268 
L 128.650377 55.116119 
L 128.669532 55.106927 
L 128.816925 55.106332 
L 128.81725 55.107751 
L 128.905556 55.070438 
L 128.922763 55.072419 
L 129.083792 55.053019 
L 129.08509 55.055114 
L 129.175994 55.059527 
L 129.091908 55.052779 
L 129.196447 55.043661 
L 129.342542 55.044693 
L 129.343191 55.045736 
L 129.458768 55.054364 
L 129.459093 55.054002 
L 129.615252 55.045549 
L 129.697389 55.057928 
L 129.728232 55.041207 
L 129.878871 55.037196 
L 129.879196 55.038589 
L 129.980488 55.026219 
L 129.905818 55.024856 
L 129.988929 55.020379 
L 129.990553 55.022082 
L 130.149634 55.007087 
L 130.26586 55.032364 
L 130.178853 54.997546 
L 130.268782 55.029147 
L 130.430135 55.015183 
L 130.542466 55.018603 
L 130.442797 55.011702 
L 130.544414 55.01647 
L 130.690184 55.021358 
L 130.807384 55.038407 
L 130.70317 55.01581 
L 130.808034 55.037698 
L 130.966141 55.027372 
L 130.809657 55.039377 
L 130.966465 55.028739 
L 130.974582 55.026791 
L 131.080419 55.028622 
L 131.228786 55.030622 
L 131.283978 55.027364 
L 131.245344 55.024682 
L 131.336896 55.006067 
L 131.339818 55.011453 
L 131.482342 55.011264 
L 131.557337 55.005451 
L 131.590777 54.988204 
L 131.591426 54.989207 
L 131.755377 54.97289 
L 131.858617 54.974188 
L 131.793361 54.954244 
L 131.868681 54.970194 
L 132.025489 54.965 
L 132.102108 54.967688 
L 132.135547 54.948939 
L 132.291382 54.94486 
L 132.406634 54.951919 
L 132.301121 54.936205 
L 132.406959 54.951575 
L 132.558248 54.948965 
L 132.558897 54.951624 
L 132.647853 54.963002 
L 132.673501 54.952645 
L 132.676098 54.956584 
L 132.83875 54.938693 
L 132.952054 54.936113 
L 132.952379 54.935772 
L 133.094578 54.944398 
L 133.094903 54.945716 
L 133.205935 54.942199 
L 133.104642 54.94215 
L 133.207883 54.940163 
L 133.357224 54.942947 
L 133.357548 54.944259 
L 133.449426 54.950806 
L 133.471502 54.942662 
L 133.634804 54.929302 
L 133.636102 54.93124 
L 133.743888 54.931142 
L 133.679931 54.920284 
L 133.749407 54.927068 
L 133.921799 54.9077 
L 134.035752 54.911082 
L 134.036726 54.910079 
L 134.037376 54.911042 
L 134.206521 54.893518 
L 134.311384 54.891611 
L 134.220481 54.885694 
L 134.319176 54.886874 
L 134.483127 54.874806 
L 134.483451 54.876094 
L 134.591562 54.86768 
L 134.530526 54.860398 
L 134.595133 54.865655 
L 134.757136 54.858905 
L 134.871739 54.863283 
L 134.777913 54.852289 
L 134.872388 54.862623 
L 135.010366 54.878636 
L 135.011016 54.879584 
L 135.126268 54.891261 
L 135.017833 54.877494 
L 135.127891 54.88962 
L 135.281129 54.891707 
L 135.390537 54.901217 
L 135.304504 54.884115 
L 135.397355 54.899138 
L 135.540852 54.90461 
L 135.398329 54.901349 
L 135.5428 54.909021 
L 135.654806 54.917444 
L 135.658377 54.913862 
L 135.827523 54.901542 
L 135.944398 54.912986 
L 135.944723 54.912662 
L 135.94732 54.916395 
L 136.115492 54.898787 
L 136.123608 54.89544 
L 136.227822 54.88951 
L 136.393071 54.881228 
L 136.494039 54.905209 
L 136.399565 54.877936 
L 136.512544 54.899442 
L 136.655068 54.904214 
L 136.659613 54.90911 
L 136.767074 54.904692 
L 136.664158 54.907751 
L 136.772593 54.902376 
L 136.935245 54.895127 
L 136.77584 54.906982 
L 136.935894 54.896046 
L 137.044978 54.883861 
L 136.938816 54.894732 
L 137.046926 54.881951 
L 137.223214 54.863005 
L 137.223863 54.86392 
L 137.308274 54.871284 
L 137.337168 54.858557 
L 137.503716 54.850779 
L 137.615072 54.842734 
L 137.536831 54.838623 
L 137.616046 54.841788 
L 137.781945 54.834717 
L 137.873822 54.844037 
L 137.78649 54.833387 
L 137.896223 54.833111 
L 137.896873 54.834017 
L 138.056603 54.831414 
L 138.091666 54.829726 
L 138.069914 54.826228 
L 138.165362 54.809175 
L 138.31308 54.818177 
L 138.166012 54.810077 
L 138.314054 54.820289 
L 138.480602 54.814247 
L 138.594556 54.813005 
L 138.594881 54.812695 
L 138.597478 54.816279 
L 138.749741 54.817843 
L 138.750066 54.819047 
L 138.831879 54.781919 
L 138.856553 54.788653 
L 139.01888 54.786749 
L 139.13608 54.797531 
L 139.047125 54.778022 
L 139.13673 54.796916 
L 139.137379 54.797805 
L 139.303278 54.791009 
L 139.41431 54.782095 
L 139.415608 54.78087 
L 139.570144 54.78484 
L 139.570469 54.786029 
L 139.681825 54.785805 
L 139.685072 54.784246 
L 139.842854 54.779196 
L 139.846101 54.785082 
L 139.960704 54.786279 
L 139.961353 54.785672 
L 140.136342 54.77347 
L 140.254516 54.790583 
L 140.255815 54.789373 
L 140.411649 54.792066 
L 140.412948 54.79381 
L 140.52885 54.802614 
L 140.419116 54.791027 
L 140.530148 54.801409 
L 140.675918 54.808975 
L 140.678516 54.813918 
L 140.773315 54.815758 
L 140.686957 54.810509 
L 140.79247 54.809783 
L 140.793768 54.811516 
L 140.94733 54.817697 
L 141.066478 54.835089 
L 141.067128 54.834491 
L 141.275881 54.79282 
L 141.382692 54.802573 
L 141.392432 54.798011 
L 141.552811 54.800837 
L 141.664493 54.793058 
L 141.665467 54.792169 
L 141.66644 54.794177 
L 141.856688 54.766935 
L 141.969019 54.760099 
L 141.886881 54.758253 
L 141.969668 54.759509 
L 142.135891 54.758547 
L 142.25017 54.76435 
L 142.252767 54.763437 
L 142.434574 54.746986 
L 142.434899 54.748125 
L 142.536516 54.765319 
L 142.444638 54.745073 
L 142.552424 54.755286 
L 142.716374 54.756383 
L 142.82903 54.749358 
L 142.746892 54.747523 
L 142.829679 54.748776 
L 142.983241 54.752073 
L 142.985513 54.757144 
L 143.088104 54.754877 
L 143.098818 54.749565 
L 143.2803 54.736468 
L 143.391332 54.738037 
L 143.283871 54.734703 
L 143.395228 54.734573 
L 143.544894 54.748376 
L 143.395877 54.735408 
L 143.545218 54.749498 
L 143.662094 54.759931 
L 143.663393 54.758781 
L 143.846823 54.744045 
L 143.958829 54.747532 
L 143.962724 54.745497 
L 143.963374 54.746325 
L 144.129272 54.745707 
L 144.245823 54.750766 
L 144.246148 54.75048 
L 144.415293 54.749794 
L 144.49808 54.751015 
L 144.417891 54.74891 
L 144.528273 54.741275 
L 144.688653 54.746877 
L 144.528922 54.742096 
L 144.688977 54.74798 
L 144.799685 54.745629 
L 144.802931 54.7428 
L 144.968505 54.743861 
L 144.969154 54.744678 
L 145.078239 54.753403 
L 145.08603 54.749396 
L 145.087329 54.751026 
L 145.285693 54.722306 
L 145.394777 54.703571 
L 145.368805 54.695798 
L 145.395751 54.70273 
L 145.573337 54.693526 
L 145.573662 54.694616 
L 145.683395 54.695949 
L 145.576259 54.693748 
L 145.688914 54.692569 
L 145.857735 54.693675 
L 145.978506 54.714144 
L 145.97948 54.71331 
L 146.133692 54.726853 
L 146.242451 54.735741 
L 146.250892 54.731247 
L 146.418089 54.732284 
L 146.251541 54.732049 
L 146.418414 54.733361 
L 146.483669 54.742727 
L 146.530095 54.71945 
L 146.691449 54.726816 
L 146.805402 54.727196 
L 146.807026 54.725821 
L 146.979742 54.724883 
L 147.092073 54.726635 
L 147.095644 54.724962 
L 147.097592 54.727341 
L 147.27323 54.719931 
L 147.387833 54.726451 
L 147.390431 54.724268 
L 147.553407 54.731509 
L 147.665413 54.721534 
L 147.573861 54.722353 
L 147.666062 54.720991 
L 147.844298 54.714138 
L 147.844947 54.714923 
L 147.953707 54.719648 
L 147.960849 54.715017 
L 148.122852 54.724355 
L 148.242 54.738899 
L 148.242974 54.73809 
L 148.42121 54.733883 
L 148.541332 54.747548 
L 148.438092 54.727792 
L 148.541657 54.747279 
L 148.715996 54.746285 
L 148.837742 54.765086 
L 148.838067 54.764818 
L 149.029938 54.749364 
L 149.144865 54.747595 
L 149.145515 54.747061 
L 149.147138 54.749642 
L 149.310439 54.755092 
L 149.424718 54.75775 
L 149.426991 54.75589 
L 149.584123 54.770234 
L 149.690935 54.764705 
L 149.697103 54.759675 
L 149.874365 54.757583 
L 149.985397 54.755115 
L 149.988968 54.752214 
L 149.989942 54.754003 
L 150.173697 54.744098 
L 150.274015 54.7439 
L 150.287651 54.736725 
L 150.464263 54.736508 
L 150.57497 54.72411 
L 150.576269 54.723064 
L 150.76814 54.706787 
L 150.769114 54.709835 
L 150.884366 54.709179 
L 150.885016 54.708658 
L 151.054485 54.714223 
L 151.159349 54.701541 
L 151.068446 54.705594 
L 151.166167 54.698633 
L 151.345701 54.694908 
L 151.346025 54.695917 
L 151.45933 54.694305 
L 151.461603 54.692496 
L 151.666784 54.669702 
L 151.667109 54.670706 
L 151.781712 54.674411 
L 151.78431 54.672352 
L 151.964168 54.670975 
L 152.077148 54.677202 
L 151.974557 54.665277 
L 152.082018 54.674613 
L 152.269019 54.667611 
L 152.376155 54.674663 
L 152.38622 54.669249 
L 152.591402 54.64803 
L 152.697564 54.659579 
L 152.710225 54.654647 
L 152.889435 54.652591 
L 152.890409 54.654315 
L 153.007609 54.658442 
L 153.008258 54.657935 
L 153.210843 54.640169 
L 153.319927 54.635774 
L 153.325122 54.632976 
L 153.520564 54.620875 
L 153.616986 54.631242 
L 153.63744 54.621576 
L 153.831908 54.61153 
L 153.945862 54.609588 
L 153.94781 54.608088 
L 154.145849 54.59537 
L 154.261426 54.595877 
L 154.262725 54.594881 
L 154.443233 54.594441 
L 154.443558 54.595411 
L 154.557511 54.591073 
L 154.448103 54.593151 
L 154.55881 54.59008 
L 154.740941 54.589629 
L 154.856843 54.587469 
L 154.857168 54.587222 
L 155.055532 54.57566 
L 155.172732 54.576167 
L 155.350643 54.580148 
L 155.468493 54.582563 
L 155.469467 54.584233 
L 155.678545 54.562292 
L 155.797368 54.573578 
L 155.681791 54.561046 
L 155.798992 54.572357 
L 155.980149 54.575074 
L 156.097349 54.575576 
L 156.286623 54.572206 
L 156.403174 54.573195 
L 156.404148 54.572467 
L 156.573618 54.583877 
L 156.688871 54.588184 
L 156.691793 54.586009 
L 156.693416 54.588357 
L 156.864834 54.594697 
L 156.99015 54.618678 
L 156.990475 54.618437 
L 157.168386 54.624599 
L 157.264484 54.630039 
L 157.284937 54.621973 
L 157.286885 54.626418 
L 157.452134 54.636014 
L 157.566088 54.635296 
L 157.568685 54.633381 
L 157.766725 54.624663 
L 157.883925 54.627423 
L 157.884899 54.626708 
L 158.089107 54.612354 
L 158.089432 54.613282 
L 158.203386 54.60445 
L 158.20371 54.604212 
L 158.412463 54.588975 
L 158.52382 54.58558 
L 158.419281 54.586325 
L 158.52804 54.583666 
L 158.744261 54.563114 
L 158.861461 54.565927 
L 158.862435 54.565221 
L 159.042294 54.568796 
L 159.042943 54.570631 
L 159.150079 54.583002 
L 159.162416 54.575235 
L 159.369546 54.562558 
L 159.489993 54.569895 
L 159.68576 54.564295 
L 159.686084 54.565206 
L 159.809129 54.586645 
L 159.811077 54.585248 
L 160.020154 54.571248 
L 160.027946 54.566813 
L 160.135407 54.564017 
L 160.319161 54.568172 
L 160.4237 54.559523 
L 160.337342 54.559754 
L 160.432141 54.554648 
L 160.612649 54.562247 
L 160.732447 54.568809 
L 160.732772 54.568579 
L 160.943473 54.554746 
L 161.049635 54.548407 
L 161.057427 54.544027 
L 161.254817 54.538564 
L 161.255141 54.539459 
L 161.371692 54.539313 
L 161.372666 54.538628 
L 161.56681 54.537717 
L 161.672323 54.536373 
L 161.682387 54.53043 
L 161.896984 54.515227 
L 162.017431 54.524646 
L 161.901205 54.51339 
L 162.018405 54.523966 
L 162.209302 54.525358 
L 162.324555 54.520586 
L 162.325528 54.519908 
L 162.522919 54.516792 
L 162.641418 54.517539 
L 162.83199 54.520264 
L 162.948866 54.519922 
L 162.835561 54.518895 
L 162.94984 54.519248 
L 163.130023 54.526928 
L 163.130997 54.528456 
L 163.242679 54.523994 
L 163.246574 54.521309 
L 163.431628 54.527803 
L 163.549153 54.528102 
L 163.549802 54.527656 
L 163.724466 54.54233 
L 163.836148 54.535697 
L 163.839394 54.533474 
L 164.05042 54.523244 
L 164.16762 54.534643 
L 164.172165 54.531542 
L 164.375399 54.526657 
L 164.49747 54.535784 
L 164.735442 54.507356 
L 164.852642 54.50358 
L 165.053279 54.501624 
L 165.169181 54.498744 
L 165.170479 54.497868 
L 165.373064 54.494622 
L 165.488966 54.487473 
L 165.692524 54.483608 
L 165.806153 54.484428 
L 165.810374 54.481602 
L 166.033736 54.465603 
L 166.146716 54.45517 
L 166.148015 54.454304 
L 166.368131 54.440587 
L 166.484682 54.449056 
L 166.489552 54.446882 
L 166.686293 54.448723 
L 166.80609 54.455004 
L 166.807389 54.454144 
L 167.011922 54.450817 
L 167.012246 54.451657 
L 167.126525 54.453129 
L 167.13107 54.451183 
L 167.321967 54.457902 
L 167.436245 54.456213 
L 167.439492 54.454078 
L 167.646946 54.44781 
L 167.647596 54.449478 
L 167.766095 54.450269 
L 167.766744 54.449844 
L 167.968355 54.450557 
L 168.075166 54.445427 
L 168.083283 54.440127 
L 168.301775 54.428821 
L 168.3021 54.42965 
L 168.416703 54.429879 
L 168.313463 54.42433 
L 168.420274 54.427556 
L 168.604354 54.438657 
L 168.604678 54.439483 
L 168.721879 54.43905 
L 168.723177 54.438208 
L 168.94167 54.428016 
L 169.06374 54.4358 
L 169.064065 54.43559 
L 169.284181 54.425423 
L 169.405277 54.432782 
L 169.406251 54.432155 
L 169.61403 54.429956 
L 169.736425 54.439523 
L 169.737075 54.439107 
L 169.948425 54.434614 
L 170.068872 54.438243 
L 170.069196 54.438035 
L 170.268859 54.442037 
L 170.387358 54.443833 
L 170.279573 54.437238 
L 170.388657 54.443005 
L 170.619486 54.427165 
L 170.729544 54.417097 
L 170.73409 54.415226 
L 170.945765 54.410626 
L 170.946089 54.411432 
L 171.068484 54.420891 
L 171.069133 54.420481 
L 171.275939 54.420976 
L 171.392165 54.421191 
L 171.395087 54.419349 
L 171.597022 54.422909 
L 171.715521 54.419686 
L 171.922651 54.419976 
L 172.04602 54.432721 
L 172.047319 54.431908 
L 172.28107 54.41653 
L 172.395673 54.417762 
L 172.400218 54.414925 
L 172.663189 54.381461 
L 172.779091 54.376957 
L 172.780714 54.375949 
L 173.017712 54.358805 
L 173.138159 54.364391 
L 173.139458 54.363588 
L 173.370936 54.350929 
L 173.501123 54.378097 
L 173.502097 54.377497 
L 173.708902 54.380036 
L 173.829025 54.380846 
L 173.829349 54.380646 
L 174.027389 54.388549 
L 174.140693 54.379815 
L 174.14329 54.378223 
L 174.340031 54.387878 
L 174.461452 54.390809 
L 174.657544 54.400805 
L 174.774744 54.398497 
L 174.776367 54.397508 
L 175.015963 54.380044 
L 175.016287 54.380818 
L 175.143227 54.397842 
L 175.143552 54.397645 
L 175.333151 54.412463 
L 175.453597 54.413992 
L 175.453922 54.413796 
L 175.660403 54.418338 
L 175.778902 54.423921 
L 175.782148 54.421962 
L 176.009407 54.412039 
L 176.010056 54.413571 
L 176.129529 54.410873 
L 176.355489 54.402745 
L 176.355813 54.403508 
L 176.47626 54.404076 
L 176.476585 54.403881 
L 176.696376 54.401394 
L 176.816823 54.409593 
L 176.819745 54.407848 
L 177.066483 54.389306 
L 177.183034 54.381748 
L 177.183683 54.381362 
L 177.393086 54.385107 
L 177.39341 54.385863 
L 177.510611 54.379843 
L 177.51126 54.379458 
L 177.711572 54.38952 
L 177.834941 54.398759 
L 177.835915 54.398183 
L 178.040123 54.405879 
L 178.1557 54.394239 
L 178.156025 54.394048 
L 178.378738 54.390842 
L 178.500159 54.392718 
L 178.500483 54.392527 
L 178.74787 54.375811 
L 178.866045 54.36931 
L 179.057267 54.385507 
L 179.178687 54.391107 
L 179.180311 54.390159 
L 179.404972 54.386789 
L 179.528016 54.396072 
L 179.529639 54.395127 
L 179.786441 54.374032 
L 179.888708 54.364774 
L 179.90072 54.35874 
L 180.120511 54.359199 
L 180.243555 54.368451 
L 180.245503 54.367326 
L 180.448737 54.378233 
L 180.567561 54.37514 
L 180.568535 54.374579 
L 180.813 54.359906 
L 180.813649 54.36137 
L 180.933772 54.362147 
L 180.93507 54.361401 
L 181.140577 54.370948 
L 181.26492 54.377527 
L 181.4714 54.387369 
L 181.59412 54.393012 
L 181.595094 54.392456 
L 181.842805 54.378763 
L 181.963252 54.37842 
L 181.963902 54.378051 
L 182.197328 54.37254 
L 182.321996 54.379774 
L 182.540164 54.382906 
L 182.540489 54.383626 
L 182.657689 54.37699 
L 182.658988 54.376257 
L 182.897284 54.36894 
L 183.016433 54.363944 
L 183.016757 54.363762 
L 183.260573 54.353397 
L 183.379397 54.355791 
L 183.382643 54.353969 
L 183.585228 54.367638 
L 183.706974 54.367481 
L 183.981632 54.340857 
L 184.105325 54.34588 
L 184.10565 54.345699 
L 184.32187 54.351709 
L 184.441343 54.34928 
L 184.442642 54.348559 
L 184.701391 54.331857 
L 184.823462 54.336872 
L 184.82541 54.335793 
L 185.075069 54.324198 
L 185.199412 54.328832 
L 185.423424 54.331407 
L 185.542248 54.324984 
L 185.542572 54.324805 
L 185.78931 54.315789 
L 185.913653 54.322156 
L 185.914302 54.3218 
L 186.185714 54.299333 
L 186.305836 54.296646 
L 186.306485 54.296292 
L 186.563936 54.281565 
L 186.682111 54.274742 
L 186.683085 54.274212 
L 186.888267 54.287952 
L 186.888591 54.288645 
L 187.005792 54.284098 
L 187.008389 54.28269 
L 187.234349 54.285992 
L 187.3509 54.280083 
L 187.353497 54.278678 
L 187.583353 54.279877 
L 187.700228 54.269503 
L 187.700878 54.269153 
L 187.908657 54.283105 
L 188.035597 54.293154 
L 188.035922 54.29298 
L 188.286231 54.282313 
L 188.28688 54.283681 
L 188.405704 54.275753 
L 188.645299 54.273451 
L 188.769966 54.278678 
L 188.770616 54.278331 
L 189.027742 54.266691 
L 189.149488 54.266647 
L 189.150462 54.266129 
L 189.406614 54.255071 
L 189.529009 54.263187 
L 189.532581 54.261293 
L 189.766007 54.263155 
L 189.884506 54.259753 
L 189.886779 54.258552 
L 190.140659 54.248779 
L 190.140984 54.249452 
L 190.263379 54.249085 
L 190.263703 54.248914 
L 190.48804 54.25557 
L 190.615629 54.264245 
L 190.873405 54.254158 
L 190.993203 54.249279 
L 190.994177 54.248769 
L 191.256823 54.236204 
L 191.378893 54.236023 
L 191.379867 54.235515 
L 191.606151 54.241953 
L 191.726923 54.240776 
L 191.728546 54.239932 
L 192.003204 54.222062 
L 192.126248 54.226375 
L 192.128196 54.225365 
L 192.394089 54.212122 
L 192.516808 54.217426 
L 192.51973 54.215917 
L 192.750235 54.221806 
L 192.874578 54.222948 
L 193.11255 54.224967 
L 193.238516 54.233496 
L 193.240139 54.232662 
L 193.450191 54.248972 
L 193.577131 54.258592 
L 193.57843 54.257927 
L 193.813804 54.262012 
L 193.929381 54.248767 
L 193.93068 54.248104 
L 194.178716 54.244109 
L 194.179366 54.24541 
L 194.302085 54.24571 
L 194.303059 54.245214 
L 194.551745 54.242534 
L 194.675114 54.24088 
L 194.92802 54.236892 
L 195.053986 54.241228 
L 195.054311 54.241064 
L 195.300074 54.240694 
L 195.418249 54.239249 
L 195.422469 54.237119 
L 195.665311 54.239036 
L 195.795173 54.250244 
L 196.079571 54.231274 
L 196.205861 54.235412 
L 196.475 54.224168 
L 196.602265 54.229414 
L 196.877248 54.216106 
L 197.001591 54.21562 
L 197.276573 54.202385 
L 197.399942 54.200013 
L 197.659017 54.195522 
L 197.784658 54.197588 
L 198.021656 54.204012 
L 198.144051 54.199761 
L 198.409943 54.191943 
L 198.537533 54.196982 
L 198.813814 54.184886 
L 198.935235 54.178017 
L 199.183596 54.179648 
L 199.299498 54.162189 
L 199.561819 54.157044 
L 199.684538 54.152733 
L 199.92738 54.157864 
L 200.054645 54.162255 
L 200.304629 54.163892 
L 200.434816 54.173058 
L 200.694215 54.170896 
L 200.817909 54.167688 
L 201.077308 54.165543 
L 201.19743 54.155583 
L 201.47014 54.147082 
L 201.596756 54.149436 
L 201.861999 54.145313 
L 201.986991 54.143838 
L 202.236001 54.147481 
L 202.357097 54.138692 
L 202.640521 54.125973 
L 202.765188 54.123918 
L 203.015497 54.127722 
L 203.137892 54.121429 
L 203.400538 54.119398 
L 203.527153 54.120986 
L 203.822589 54.104276 
L 203.947906 54.102709 
L 204.199189 54.106816 
L 204.323532 54.103451 
L 204.586178 54.102977 
L 204.710196 54.099026 
L 205.006606 54.08281 
L 205.12965 54.0771 
L 205.387101 54.079097 
L 205.511444 54.075787 
L 205.797465 54.065281 
L 205.926028 54.068965 
L 206.174714 54.07576 
L 206.303602 54.080015 
L 206.552612 54.087361 
L 206.687344 54.10221 
L 206.974988 54.091732 
L 207.101604 54.09183 
L 207.388598 54.081704 
L 207.511967 54.075213 
L 207.783054 54.073151 
L 207.907397 54.068441 
L 208.19147 54.060487 
L 208.31841 54.060465 
L 208.591445 54.05829 
L 208.716762 54.055366 
L 208.998887 54.049095 
L 209.126476 54.050243 
L 209.38133 54.056303 
L 209.503725 54.047473 
L 209.79494 54.037889 
L 209.923179 54.039471 
L 210.172514 54.048712 
L 210.296532 54.042812 
L 210.578008 54.038366 
L 210.699429 54.027912 
L 210.950387 54.037113 
L 211.077327 54.035682 
L 211.332181 54.043112 
L 211.461394 54.045667 
L 211.731507 54.047003 
L 211.854875 54.039324 
L 212.121742 54.042104 
L 212.248033 54.039548 
L 212.52756 54.037447 
L 212.653202 54.033773 
L 212.933054 54.031547 
L 213.064215 54.036755 
L 213.320692 54.045479 
L 213.450879 54.048975 
L 213.743068 54.042042 
L 213.872281 54.043852 
L 214.188495 54.026485 
L 214.319331 54.031094 
L 214.583924 54.036922 
L 214.713462 54.038585 
L 214.989743 54.03932 
L 215.116358 54.035983 
L 215.441338 54.016391 
L 215.570226 54.016956 
L 215.826703 54.026945 
L 215.951695 54.02088 
L 216.250378 54.012719 
L 216.377967 54.010396 
L 216.676325 54.003108 
L 216.804564 54.001897 
L 217.104545 53.993956 
L 217.231809 53.991116 
L 217.500624 53.997156 
L 217.628213 53.994867 
L 217.916507 53.992623 
L 218.045395 53.991838 
L 218.318754 53.996601 
L 218.45446 54.007198 
L 218.782036 53.989061 
L 218.916119 53.996929 
L 219.210256 53.993597 
L 219.335573 53.986891 
L 219.600167 53.995968 
L 219.732301 53.999889 
L 220.017024 54.000504 
L 220.148184 54.002803 
L 220.420894 54.009088 
L 220.550756 54.009235 
L 220.837102 54.009822 
L 220.967288 54.010501 
L 221.239998 54.017403 
L 221.368886 54.015948 
L 221.65718 54.016378 
L 221.787367 54.016383 
L 222.065596 54.021623 
L 222.199029 54.026908 
L 222.499659 54.022902 
L 222.627573 54.019214 
L 222.894764 54.028945 
L 223.027873 54.033669 
L 223.334347 54.02794 
L 223.459988 54.019944 
L 223.724907 54.031202 
L 223.857691 54.03472 
L 224.153451 54.03403 
L 224.282989 54.032325 
L 224.601475 54.022428 
L 224.734583 54.026453 
L 225.019306 54.030896 
L 225.148843 54.028554 
L 225.431942 54.033636 
L 225.566025 54.038531 
L 225.871849 54.035087 
L 226.002361 54.034301 
L 226.293576 54.036733 
L 226.427334 54.041084 
L 226.706537 54.048301 
L 226.841918 54.054549 
L 227.170144 54.04281 
L 227.308772 54.054151 
L 227.60713 54.054324 
L 227.736018 54.050345 
L 228.054504 54.04318 
L 228.182743 54.037569 
L 228.486944 54.036098 
L 228.6233 54.04317 
L 228.94276 54.03631 
L 229.076193 54.038817 
L 229.383966 54.036579 
L 229.513179 54.032533 
L 229.843028 54.022294 
L 229.973539 54.01965 
L 230.290078 54.014667 
L 230.422861 54.015542 
L 230.745568 54.008805 
L 230.875106 54.00469 
L 231.204955 53.995222 
L 231.335466 53.992 
L 231.649408 53.989365 
L 231.776997 53.98169 
L 232.109444 53.971942 
L 232.241578 53.971232 
L 232.548702 53.971896 
L 232.678239 53.96724 
L 233.005491 53.960187 
L 233.13795 53.959367 
L 233.466826 53.95173 
L 233.600259 53.952391 
L 233.931407 53.944538 
L 234.062567 53.941778 
L 234.367418 53.943966 
L 234.503449 53.947924 
L 234.852453 53.933965 
L 234.983288 53.930133 
L 235.31541 53.922633 
L 235.453389 53.929496 
L 235.812132 53.912597 
L 235.948812 53.917513 
L 236.253014 53.921175 
L 236.386771 53.921124 
L 236.676039 53.93097 
L 236.811745 53.933798 
L 237.150684 53.92503 
L 237.283793 53.924016 
L 237.622083 53.916135 
L 237.762009 53.92458 
L 238.100949 53.916479 
L 238.234707 53.915835 
L 238.609359 53.89515 
L 238.740195 53.890245 
L 239.036604 53.898556 
L 239.168414 53.89449 
L 239.508977 53.887108 
L 239.642086 53.884954 
L 239.957001 53.887027 
L 240.08946 53.883936 
L 240.430348 53.877087 
L 240.568326 53.882011 
L 240.869606 53.889644 
L 241.010506 53.898179 
L 241.343602 53.894762 
L 241.475412 53.890169 
L 241.790002 53.893497 
L 241.924085 53.892183 
L 242.25783 53.889145 
L 242.391913 53.887255 
L 242.732476 53.881774 
L 242.869155 53.883608 
L 243.202576 53.881301 
L 243.334061 53.875726 
L 243.6967 53.862952 
L 243.830134 53.859599 
L 244.158684 53.859671 
L 244.290819 53.854488 
L 244.635278 53.848893 
L 244.773905 53.852912 
L 245.097586 53.855303 
L 245.230695 53.851525 
L 245.571907 53.847691 
L 245.707937 53.847465 
L 246.033566 53.849735 
L 246.174466 53.856337 
L 246.508861 53.855489 
L 246.642943 53.852536 
L 247.015972 53.838668 
L 247.147132 53.831095 
L 247.520486 53.8172 
L 247.657165 53.817339 
L 247.984417 53.8202 
L 248.125318 53.826188 
L 248.445103 53.83163 
L 248.57951 53.828052 
L 248.935331 53.821498 
L 249.067791 53.815251 
L 249.392121 53.819666 
L 249.526853 53.816563 
L 249.880077 53.811524 
L 250.01416 53.806987 
L 250.345308 53.809598 
L 250.480689 53.806851 
L 250.849821 53.796941 
L 250.988449 53.798641 
L 251.317324 53.802586 
L 251.450757 53.796656 
L 251.780282 53.800925 
L 251.916312 53.798537 
L 252.245188 53.803012 
L 252.383815 53.804144 
L 252.742884 53.798868 
L 252.883459 53.802081 
L 253.23993 53.797706 
L 253.380506 53.80091 
L 253.771066 53.785559 
L 253.908719 53.784842 
L 254.284994 53.774388 
L 254.427518 53.779656 
L 254.795352 53.772625 
L 254.933655 53.772246 
L 255.271945 53.775702 
L 255.407326 53.771432 
L 255.75211 53.772708 
L 255.887491 53.767912 
L 256.260195 53.760413 
L 256.389407 53.747472 
L 256.719257 53.754291 
L 256.861131 53.75811 
L 257.184487 53.767585 
L 257.325387 53.769565 
L 257.687377 53.766203 
L 257.82568 53.764767 
L 258.1604 53.77096 
L 258.303572 53.775906 
L 258.612319 53.79062 
L 258.749973 53.787793 
L 259.117158 53.783774 
L 259.263577 53.792386 
L 259.623619 53.79071 
L 259.769389 53.798449 
L 260.139171 53.79411 
L 260.279747 53.794565 
L 260.649528 53.790245 
L 260.789455 53.789862 
L 261.158587 53.786298 
L 261.307279 53.79722 
L 261.661478 53.798494 
L 261.804651 53.801758 
L 262.152356 53.805642 
L 262.294879 53.80806 
L 262.65622 53.808043 
L 262.79712 53.808376 
L 263.186382 53.799378 
L 263.330204 53.802925 
L 263.703557 53.799583 
L 263.84186 53.7961 
L 264.206447 53.795584 
L 264.348646 53.797056 
L 264.698949 53.801611 
L 264.842771 53.804614 
L 265.180737 53.813071 
L 265.319364 53.809502 
L 265.669667 53.814524 
L 265.808294 53.810451 
L 266.163791 53.813813 
L 266.30664 53.815051 
L 266.698498 53.807421 
L 266.841671 53.809066 
L 267.235477 53.800856 
L 267.377027 53.799967 
L 267.771158 53.792202 
L 267.911409 53.789705 
L 268.311708 53.780556 
L 268.455206 53.782106 
L 268.828234 53.781512 
L 268.970108 53.780543 
L 269.363915 53.773987 
L 269.510334 53.778641 
L 269.894076 53.775231 
L 270.031405 53.768172 
L 270.422614 53.762979 
L 270.56319 53.759936 
L 270.93005 53.762292 
L 271.074846 53.76443 
L 271.414759 53.775569 
L 271.560854 53.778783 
L 271.981607 53.765029 
L 272.126727 53.767055 
L 272.516313 53.763405 
L 272.658837 53.762269 
L 273.088355 53.746935 
L 273.231203 53.745714 
L 273.620465 53.742717 
L 273.765585 53.74425 
L 274.161015 53.739881 
L 274.300941 53.734658 
L 274.673645 53.737202 
L 274.81974 53.739415 
L 275.229129 53.731349 
L 275.377497 53.736285 
L 275.798574 53.725214 
L 275.941422 53.723053 
L 276.301464 53.730372 
L 276.453728 53.739446 
L 276.834548 53.740974 
L 276.980318 53.741806 
L 277.358541 53.744102 
L 277.501389 53.741462 
L 277.872145 53.746461 
L 278.020187 53.749975 
L 278.473406 53.730424 
L 278.6195 53.731161 
L 279.012333 53.730084 
L 279.154207 53.72585 
L 279.538273 53.727855 
L 279.686641 53.730782 
L 280.12038 53.718125 
L 280.268098 53.72029 
L 280.645347 53.724775 
L 280.794363 53.728447 
L 281.229401 53.715956 
L 281.373872 53.713855 
L 281.770925 53.713008 
L 281.913773 53.709029 
L 282.344915 53.698724 
L 282.487114 53.693542 
L 282.879621 53.69453 
L 283.024093 53.691992 
L 283.398095 53.698817 
L 283.542567 53.696281 
L 283.9341 53.698008 
L 284.079546 53.696133 
L 284.491208 53.692513 
L 284.642497 53.697349 
L 285.035654 53.699528 
L 285.18597 53.702768 
L 285.611267 53.695703 
L 285.756713 53.693381 
L 286.185582 53.685795 
L 286.333625 53.686441 
L 286.731327 53.687786 
L 286.882616 53.691653 
L 287.278695 53.693908 
L 287.427387 53.69482 
L 287.88515 53.680002 
L 288.028323 53.674232 
L 288.468555 53.664463 
L 288.619844 53.667857 
L 289.029883 53.667109 
L 289.182146 53.67113 
L 289.584394 53.673027 
L 289.731787 53.671579 
L 290.119425 53.677575 
L 290.271363 53.681206 
L 290.672962 53.68371 
L 290.827497 53.689769 
L 291.205071 53.698969 
L 291.35214 53.696702 
L 291.75666 53.698801 
L 291.905676 53.698249 
L 292.326429 53.696272 
L 292.474796 53.695005 
L 292.925742 53.684662 
L 293.071187 53.679736 
L 293.521159 53.670168 
L 293.670175 53.669193 
L 294.122095 53.659136 
L 294.272085 53.65924 
L 294.656477 53.668252 
L 294.805493 53.666839 
L 295.235336 53.663784 
L 295.387924 53.666276 
L 295.814521 53.664118 
L 295.964511 53.663333 
L 296.381693 53.664199 
L 296.532008 53.663769 
L 296.881661 53.683468 
L 297.036197 53.687157 
L 297.467014 53.684707 
L 297.619926 53.686633 
L 298.031589 53.689821 
L 298.183527 53.690689 
L 298.598436 53.692984 
L 298.745505 53.688175 
L 299.185737 53.684074 
L 299.329559 53.675801 
L 299.776284 53.670423 
L 299.933092 53.675636 
L 300.364234 53.674453 
L 300.515199 53.673416 
L 300.929783 53.677104 
L 301.082046 53.677017 
L 301.531044 53.671935 
L 301.6898 53.678743 
L 302.140096 53.673325 
L 302.29171 53.672124 
L 302.751746 53.664577 
L 302.905308 53.665441 
L 303.358201 53.660246 
L 303.517932 53.667178 
L 303.953943 53.666451 
L 304.108803 53.668247 
L 304.510077 53.677096 
L 304.665262 53.679221 
L 305.09056 53.681715 
L 305.236005 53.673229 
L 305.697989 53.666536 
L 305.8522 53.667218 
L 306.356064 53.650034 
L 306.514496 53.654689 
L 306.92486 53.662366 
L 307.086862 53.670704 
L 307.508914 53.675293 
L 307.665073 53.677139 
L 308.159198 53.66343 
L 308.315032 53.664943 
L 308.759809 53.664059 
L 308.916293 53.665817 
L 309.353927 53.667194 
L 309.512034 53.670611 
L 309.89675 53.686014 
L 310.050637 53.684676 
L 310.519763 53.678338 
L 310.672351 53.675682 
L 311.152191 53.667049 
L 311.305428 53.664655 
L 311.764815 53.661703 
L 311.924545 53.665913 
L 312.421591 53.653375 
L 312.579374 53.655195 
L 313.050448 53.64972 
L 313.202062 53.645305 
L 313.606582 53.657132 
L 313.762091 53.65624 
L 314.203947 53.658583 
L 314.364975 53.663242 
L 314.808779 53.665482 
L 314.963639 53.663531 
L 315.432441 53.659884 
L 315.590548 53.661189 
L 316.022663 53.66676 
L 316.181419 53.6683 
L 316.596004 53.678637 
L 316.755734 53.681135 
L 317.20181 53.683964 
L 317.359267 53.683793 
L 317.777098 53.693648 
L 317.93488 53.693792 
L 318.41472 53.688593 
L 318.57445 53.690263 
L 319.071497 53.681221 
L 319.23285 53.684491 
L 319.659772 53.692821 
L 319.820151 53.694718 
L 320.270447 53.697642 
L 320.427905 53.696667 
L 320.906771 53.692948 
L 321.067475 53.694756 
L 321.537575 53.693201 
L 321.686267 53.683286 
L 322.13559 53.687239 
L 322.291749 53.684223 
L 322.760875 53.683723 
L 322.922553 53.686075 
L 323.388433 53.686756 
L 323.552708 53.691222 
L 324.0069 53.694732 
L 324.169877 53.697928 
L 324.639977 53.697952 
L 324.801006 53.698869 
L 325.303897 53.691355 
L 325.468821 53.696018 
L 325.953206 53.692991 
L 326.110015 53.689472 
L 326.583686 53.689431 
L 326.74439 53.689647 
L 327.237216 53.685399 
L 327.39792 53.685229 
L 327.898538 53.679136 
L 328.059242 53.678972 
L 328.549471 53.675771 
L 328.707903 53.673067 
L 329.172159 53.676452 
L 329.33611 53.678978 
L 329.79712 53.683499 
L 329.960097 53.684711 
L 330.465909 53.678598 
L 330.633431 53.68409 
L 331.123984 53.68198 
L 331.287935 53.68372 
L 331.779138 53.681845 
L 331.945686 53.686014 
L 332.469354 53.676509 
L 332.631032 53.67574 
L 333.089445 53.681955 
L 333.252746 53.682698 
L 333.717652 53.687744 
L 333.875759 53.683274 
L 334.364689 53.683079 
L 334.527017 53.682161 
L 334.99939 53.685822 
L 335.165938 53.688809 
L 335.65779 53.688302 
L 335.822714 53.689407 
L 336.316514 53.688823 
L 336.479167 53.687833 
L 336.967447 53.688528 
L 337.133995 53.690745 
L 337.610589 53.694499 
L 337.777137 53.696707 
L 338.240419 53.703873 
L 338.407292 53.705996 
L 338.872522 53.713052 
L 339.031928 53.708356 
L 339.500729 53.714575 
L 339.665979 53.714834 
L 340.174064 53.712425 
L 340.331846 53.705911 
L 340.899992 53.690219 
L 341.060371 53.685718 
L 341.561314 53.685365 
L 341.724291 53.682856 
L 342.207052 53.686993 
L 342.372302 53.686535 
L 342.822598 53.698358 
L 342.984925 53.694904 
L 343.468661 53.699509 
L 343.637157 53.701591 
L 344.150761 53.699455 
L 344.315361 53.697686 
L 344.82929 53.695852 
L 344.990968 53.691484 
L 345.470158 53.697802 
L 345.642226 53.702324 
L 346.151284 53.702298 
L 346.318157 53.702197 
L 346.803841 53.707378 
L 346.970713 53.706914 
L 347.469708 53.709476 
L 347.641126 53.712667 
L 348.153106 53.712691 
L 348.321927 53.713584 
L 348.848517 53.710376 
L 349.012468 53.706632 
L 349.536136 53.704446 
L 349.712099 53.711243 
L 350.251026 53.706053 
L 350.42147 53.707651 
L 350.923711 53.710886 
L 351.088636 53.707665 
L 351.665223 53.694619 
L 351.838264 53.698122 
L 352.403163 53.688034 
L 352.576204 53.69118 
L 353.129741 53.683957 
L 353.299211 53.684007 
L 353.834567 53.681114 
L 354.006958 53.683337 
L 354.50855 53.688114 
L 354.678669 53.68802 
L 355.188053 53.691443 
L 355.365639 53.697761 
L 355.865607 53.703188 
L 356.036701 53.703573 
L 356.549655 53.70653 
L 356.715554 53.702472 
L 357.260974 53.698807 
L 357.436612 53.70272 
L 357.991772 53.697326 
L 358.15832 53.693155 
L 358.751465 53.679688 
L 358.925804 53.682147 
L 359.464731 53.680618 
L 359.633227 53.677783 
L 360.161765 53.678814 
L 360.331235 53.676809 
L 360.910419 53.667459 
L 361.078915 53.664304 
L 361.587974 53.670151 
L 361.764262 53.673204 
L 362.296371 53.674165 
L 362.466166 53.671768 
L 363.01256 53.670067 
L 363.185601 53.670053 
L 363.74628 53.665704 
L 363.918347 53.664541 
L 364.453378 53.665914 
L 364.629341 53.667994 
L 365.193266 53.663331 
L 365.366957 53.663185 
L 365.884132 53.668605 
L 366.056199 53.667113 
L 366.606489 53.665975 
L 366.776608 53.662545 
L 367.308068 53.665651 
L 367.488252 53.670183 
L 368.07815 53.661533 
L 368.252814 53.661522 
L 368.814792 53.658995 
L 368.994975 53.663175 
L 369.550135 53.662052 
L 369.725773 53.662173 
L 370.28418 53.66072 
L 370.464363 53.664547 
L 371.062702 53.655261 
L 371.23347 53.651095 
L 371.817524 53.645101 
L 371.99089 53.642729 
L 372.586307 53.634785 
L 372.761945 53.634264 
L 373.322624 53.633729 
L 373.497938 53.63262 
L 374.101147 53.623488 
L 374.280032 53.624935 
L 374.85532 53.6218 
L 375.038425 53.626633 
L 375.632544 53.62004 
L 375.806884 53.617516 
L 376.344837 53.622553 
L 376.525994 53.625157 
L 377.134722 53.616322 
L 377.317827 53.620475 
L 377.921036 53.613097 
L 378.100246 53.613822 
L 378.700857 53.606993 
L 378.880716 53.607912 
L 379.472237 53.603239 
L 379.655018 53.60647 
L 380.269589 53.597566 
L 380.448474 53.597397 
L 381.004933 53.600336 
L 381.181545 53.598058 
L 381.753587 53.598235 
L 381.933121 53.598258 
L 382.44218 53.61114 
L 382.621389 53.610583 
L 383.182717 53.613156 
L 383.36355 53.613551 
L 383.973577 53.606896 
L 384.15376 53.606786 
L 384.728075 53.60745 
L 384.903713 53.603491 
L 385.512441 53.597772 
L 385.694248 53.598297 
L 386.271809 53.598971 
L 386.455888 53.601253 
L 387.014619 53.605884 
L 387.192854 53.603332 
L 387.819438 53.594829 
L 388.002544 53.595727 
L 388.633673 53.586697 
L 388.812233 53.583794 
L 389.424207 53.578805 
L 389.602768 53.575915 
L 390.20695 53.572758 
L 390.391354 53.574033 
L 390.942618 53.581322 
L 391.1241 53.580053 
L 391.688675 53.585082 
L 391.879572 53.590974 
L 392.428239 53.599311 
L 392.61037 53.598222 
L 393.201891 53.598689 
L 393.388568 53.600736 
L 394.014827 53.594611 
L 394.195985 53.592488 
L 394.765105 53.597506 
L 394.953404 53.60046 
L 395.593299 53.592405 
L 395.77608 53.590903 
L 396.346823 53.596203 
L 396.528955 53.594215 
L 397.138007 53.592608 
L 397.316243 53.58741 
L 397.882116 53.59421 
L 398.067819 53.594291 
L 398.487273 53.597876 
L 398.487273 53.597876 
" clip-path="url(#p41173376e7)" style="fill: none; stroke: #1f77b4; stroke-width: 1.5; stroke-linecap: square"/>
   </g>
   <g id="line2d_17">
    <path d="M 57.6 55.257891 
L 414.72 55.257891 
" clip-path="url(#p41173376e7)" style="fill: none; stroke: #008000; stroke-width: 1.5; stroke-linecap: square"/>
   </g>
   <g id="line2d_18">
    <path d="M 57.6 288.882472 
L 414.72 288.882472 
" clip-path="url(#p41173376e7)" style="fill: none; stroke: #ff0000; stroke-width: 1.5; stroke-linecap: square"/>
   </g>
   <g id="patch_3">
    <path d="M 57.6 307.584 
L 57.6 41.472 
" style="fill: none; stroke: #000000; stroke-width: 0.8; stroke-linejoin: miter; stroke-linecap: square"/>
   </g>
   <g id="patch_4">
    <path d="M 414.72 307.584 
L 414.72 41.472 
" style="fill: none; stroke: #000000; stroke-width: 0.8; stroke-linejoin: miter; stroke-linecap: square"/>
   </g>
   <g id="patch_5">
    <path d="M 57.6 307.584 
L 414.72 307.584 
" style="fill: none; stroke: #000000; stroke-width: 0.8; stroke-linejoin: miter; stroke-linecap: square"/>
   </g>
   <g id="patch_6">
    <path d="M 57.6 41.472 
L 414.72 41.472 
" style="fill: none; stroke: #000000; stroke-width: 0.8; stroke-linejoin: miter; stroke-linecap: square"/>
   </g>
   <g id="text_19">
    <!-- Hit Rate utilizando a estratgia LFU (25%) -->
    <g transform="translate(109.778437 35.472) scale(0.12 -0.12)">
     <defs>
      <path id="DejaVuSans-69" d="M 603 3500 
L 1178 3500 
L 1178 0 
L 603 0 
L 603 3500 
z
M 603 4863 
L 1178 4863 
L 1178 4134 
L 603 4134 
L 603 4863 
z
" transform="scale(0.015625)"/>
      <path id="DejaVuSans-74" d="M 1172 4494 
L 1172 3500 
L 2356 3500 
L 2356 3053 
L 1172 3053 
L 1172 1153 
Q 1172 725 1289 603 
Q 1406 481 1766 481 
L 2356 481 
L 2356 0 
L 1766 0 
Q 1100 0 847 248 
Q 594 497 594 1153 
L 594 3053 
L 172 3053 
L 172 3500 
L 594 3500 
L 594 4494 
L 1172 4494 
z
" transform="scale(0.015625)"/>
      <path id="DejaVuSans-52" d="M 2841 2188 
Q 3044 2119 3236 1894 
Q 3428 1669 3622 1275 
L 4263 0 
L 3584 0 
L 2988 1197 
Q 2756 1666 2539 1819 
Q 2322 1972 1947 1972 
L 1259 1972 
L 1259 0 
L 628 0 
L 628 4666 
L 2053 4666 
Q 2853 4666 3247 4331 
Q 3641 3997 3641 3322 
Q 3641 2881 3436 2590 
Q 3231 2300 2841 2188 
z
M 1259 4147 
L 1259 2491 
L 2053 2491 
Q 2509 2491 2742 2702 
Q 2975 2913 2975 3322 
Q 2975 3731 2742 3939 
Q 2509 4147 2053 4147 
L 1259 4147 
z
" transform="scale(0.015625)"/>
      <path id="DejaVuSans-61" d="M 2194 1759 
Q 1497 1759 1228 1600 
Q 959 1441 959 1056 
Q 959 750 1161 570 
Q 1363 391 1709 391 
Q 2188 391 2477 730 
Q 2766 1069 2766 1631 
L 2766 1759 
L 2194 1759 
z
M 3341 1997 
L 3341 0 
L 2766 0 
L 2766 531 
Q 2569 213 2275 61 
Q 1981 -91 1556 -91 
Q 1019 -91 701 211 
Q 384 513 384 1019 
Q 384 1609 779 1909 
Q 1175 2209 1959 2209 
L 2766 2209 
L 2766 2266 
Q 2766 2663 2505 2880 
Q 2244 3097 1772 3097 
Q 1472 3097 1187 3025 
Q 903 2953 641 2809 
L 641 3341 
Q 956 3463 1253 3523 
Q 1550 3584 1831 3584 
Q 2591 3584 2966 3190 
Q 3341 2797 3341 1997 
z
" transform="scale(0.015625)"/>
      <path id="DejaVuSans-75" d="M 544 1381 
L 544 3500 
L 1119 3500 
L 1119 1403 
Q 1119 906 1312 657 
Q 1506 409 1894 409 
Q 2359 409 2629 706 
Q 2900 1003 2900 1516 
L 2900 3500 
L 3475 3500 
L 3475 0 
L 2900 0 
L 2900 538 
Q 2691 219 2414 64 
Q 2138 -91 1772 -91 
Q 1169 -91 856 284 
Q 544 659 544 1381 
z
M 1991 3584 
L 1991 3584 
z
" transform="scale(0.015625)"/>
      <path id="DejaVuSans-6c" d="M 603 4863 
L 1178 4863 
L 1178 0 
L 603 0 
L 603 4863 
z
" transform="scale(0.015625)"/>
      <path id="DejaVuSans-7a" d="M 353 3500 
L 3084 3500 
L 3084 2975 
L 922 459 
L 3084 459 
L 3084 0 
L 275 0 
L 275 525 
L 2438 3041 
L 353 3041 
L 353 3500 
z
" transform="scale(0.015625)"/>
      <path id="DejaVuSans-64" d="M 2906 2969 
L 2906 4863 
L 3481 4863 
L 3481 0 
L 2906 0 
L 2906 525 
Q 2725 213 2448 61 
Q 2172 -91 1784 -91 
Q 1150 -91 751 415 
Q 353 922 353 1747 
Q 353 2572 751 3078 
Q 1150 3584 1784 3584 
Q 2172 3584 2448 3432 
Q 2725 3281 2906 2969 
z
M 947 1747 
Q 947 1113 1208 752 
Q 1469 391 1925 391 
Q 2381 391 2643 752 
Q 2906 1113 2906 1747 
Q 2906 2381 2643 2742 
Q 2381 3103 1925 3103 
Q 1469 3103 1208 2742 
Q 947 2381 947 1747 
z
" transform="scale(0.015625)"/>
      <path id="DejaVuSans-6f" d="M 1959 3097 
Q 1497 3097 1228 2736 
Q 959 2375 959 1747 
Q 959 1119 1226 758 
Q 1494 397 1959 397 
Q 2419 397 2687 759 
Q 2956 1122 2956 1747 
Q 2956 2369 2687 2733 
Q 2419 3097 1959 3097 
z
M 1959 3584 
Q 2709 3584 3137 3096 
Q 3566 2609 3566 1747 
Q 3566 888 3137 398 
Q 2709 -91 1959 -91 
Q 1206 -91 779 398 
Q 353 888 353 1747 
Q 353 2609 779 3096 
Q 1206 3584 1959 3584 
z
" transform="scale(0.015625)"/>
      <path id="DejaVuSans-73" d="M 2834 3397 
L 2834 2853 
Q 2591 2978 2328 3040 
Q 2066 3103 1784 3103 
Q 1356 3103 1142 2972 
Q 928 2841 928 2578 
Q 928 2378 1081 2264 
Q 1234 2150 1697 2047 
L 1894 2003 
Q 2506 1872 2764 1633 
Q 3022 1394 3022 966 
Q 3022 478 2636 193 
Q 2250 -91 1575 -91 
Q 1294 -91 989 -36 
Q 684 19 347 128 
L 347 722 
Q 666 556 975 473 
Q 1284 391 1588 391 
Q 1994 391 2212 530 
Q 2431 669 2431 922 
Q 2431 1156 2273 1281 
Q 2116 1406 1581 1522 
L 1381 1569 
Q 847 1681 609 1914 
Q 372 2147 372 2553 
Q 372 3047 722 3315 
Q 1072 3584 1716 3584 
Q 2034 3584 2315 3537 
Q 2597 3491 2834 3397 
z
" transform="scale(0.015625)"/>
      <path id="DejaVuSans-e9" d="M 3597 1894 
L 3597 1613 
L 953 1613 
Q 991 1019 1311 708 
Q 1631 397 2203 397 
Q 2534 397 2845 478 
Q 3156 559 3463 722 
L 3463 178 
Q 3153 47 2828 -22 
Q 2503 -91 2169 -91 
Q 1331 -91 842 396 
Q 353 884 353 1716 
Q 353 2575 817 3079 
Q 1281 3584 2069 3584 
Q 2775 3584 3186 3129 
Q 3597 2675 3597 1894 
z
M 3022 2063 
Q 3016 2534 2758 2815 
Q 2500 3097 2075 3097 
Q 1594 3097 1305 2825 
Q 1016 2553 972 2059 
L 3022 2063 
z
M 2466 5119 
L 3088 5119 
L 2070 3944 
L 1591 3944 
L 2466 5119 
z
" transform="scale(0.015625)"/>
      <path id="DejaVuSans-67" d="M 2906 1791 
Q 2906 2416 2648 2759 
Q 2391 3103 1925 3103 
Q 1463 3103 1205 2759 
Q 947 2416 947 1791 
Q 947 1169 1205 825 
Q 1463 481 1925 481 
Q 2391 481 2648 825 
Q 2906 1169 2906 1791 
z
M 3481 434 
Q 3481 -459 3084 -895 
Q 2688 -1331 1869 -1331 
Q 1566 -1331 1297 -1286 
Q 1028 -1241 775 -1147 
L 775 -588 
Q 1028 -725 1275 -790 
Q 1522 -856 1778 -856 
Q 2344 -856 2625 -561 
Q 2906 -266 2906 331 
L 2906 616 
Q 2728 306 2450 153 
Q 2172 0 1784 0 
Q 1141 0 747 490 
Q 353 981 353 1791 
Q 353 2603 747 3093 
Q 1141 3584 1784 3584 
Q 2172 3584 2450 3431 
Q 2728 3278 2906 2969 
L 2906 3500 
L 3481 3500 
L 3481 434 
z
" transform="scale(0.015625)"/>
      <path id="DejaVuSans-4c" d="M 628 4666 
L 1259 4666 
L 1259 531 
L 3531 531 
L 3531 0 
L 628 0 
L 628 4666 
z
" transform="scale(0.015625)"/>
      <path id="DejaVuSans-46" d="M 628 4666 
L 3309 4666 
L 3309 4134 
L 1259 4134 
L 1259 2759 
L 3109 2759 
L 3109 2228 
L 1259 2228 
L 1259 0 
L 628 0 
L 628 4666 
z
" transform="scale(0.015625)"/>
      <path id="DejaVuSans-55" d="M 556 4666 
L 1191 4666 
L 1191 1831 
Q 1191 1081 1462 751 
Q 1734 422 2344 422 
Q 2950 422 3222 751 
Q 3494 1081 3494 1831 
L 3494 4666 
L 4128 4666 
L 4128 1753 
Q 4128 841 3676 375 
Q 3225 -91 2344 -91 
Q 1459 -91 1007 375 
Q 556 841 556 1753 
L 556 4666 
z
" transform="scale(0.015625)"/>
     </defs>
     <use xlink:href="#DejaVuSans-48"/>
     <use xlink:href="#DejaVuSans-69" x="75.195312"/>
     <use xlink:href="#DejaVuSans-74" x="102.978516"/>
     <use xlink:href="#DejaVuSans-20" x="142.1875"/>
     <use xlink:href="#DejaVuSans-52" x="173.974609"/>
     <use xlink:href="#DejaVuSans-61" x="241.207031"/>
     <use xlink:href="#DejaVuSans-74" x="302.486328"/>
     <use xlink:href="#DejaVuSans-65" x="341.695312"/>
     <use xlink:href="#DejaVuSans-20" x="403.21875"/>
     <use xlink:href="#DejaVuSans-75" x="435.005859"/>
     <use xlink:href="#DejaVuSans-74" x="498.384766"/>
     <use xlink:href="#DejaVuSans-69" x="537.59375"/>
     <use xlink:href="#DejaVuSans-6c" x="565.376953"/>
     <use xlink:href="#DejaVuSans-69" x="593.160156"/>
     <use xlink:href="#DejaVuSans-7a" x="620.943359"/>
     <use xlink:href="#DejaVuSans-61" x="673.433594"/>
     <use xlink:href="#DejaVuSans-6e" x="734.712891"/>
     <use xlink:href="#DejaVuSans-64" x="798.091797"/>
     <use xlink:href="#DejaVuSans-6f" x="861.568359"/>
     <use xlink:href="#DejaVuSans-20" x="922.75"/>
     <use xlink:href="#DejaVuSans-61" x="954.537109"/>
     <use xlink:href="#DejaVuSans-20" x="1015.816406"/>
     <use xlink:href="#DejaVuSans-65" x="1047.603516"/>
     <use xlink:href="#DejaVuSans-73" x="1109.126953"/>
     <use xlink:href="#DejaVuSans-74" x="1161.226562"/>
     <use xlink:href="#DejaVuSans-72" x="1200.435547"/>
     <use xlink:href="#DejaVuSans-61" x="1241.548828"/>
     <use xlink:href="#DejaVuSans-74" x="1302.828125"/>
     <use xlink:href="#DejaVuSans-e9" x="1342.037109"/>
     <use xlink:href="#DejaVuSans-67" x="1403.560547"/>
     <use xlink:href="#DejaVuSans-69" x="1467.037109"/>
     <use xlink:href="#DejaVuSans-61" x="1494.820312"/>
     <use xlink:href="#DejaVuSans-20" x="1556.099609"/>
     <use xlink:href="#DejaVuSans-4c" x="1587.886719"/>
     <use xlink:href="#DejaVuSans-46" x="1643.599609"/>
     <use xlink:href="#DejaVuSans-55" x="1701.119141"/>
     <use xlink:href="#DejaVuSans-20" x="1774.3125"/>
     <use xlink:href="#DejaVuSans-28" x="1806.099609"/>
     <use xlink:href="#DejaVuSans-32" x="1845.113281"/>
     <use xlink:href="#DejaVuSans-35" x="1908.736328"/>
     <use xlink:href="#DejaVuSans-25" x="1972.359375"/>
     <use xlink:href="#DejaVuSans-29" x="2067.378906"/>
    </g>
   </g>
   <g id="legend_1">
    <g id="patch_7">
     <path d="M 286.805938 198.045187 
L 407.72 198.045187 
Q 409.72 198.045187 409.72 196.045187 
L 409.72 153.010812 
Q 409.72 151.010812 407.72 151.010812 
L 286.805938 151.010812 
Q 284.805938 151.010812 284.805938 153.010812 
L 284.805938 196.045187 
Q 284.805938 198.045187 286.805938 198.045187 
z
" style="fill: #ffffff; opacity: 0.8; stroke: #cccccc; stroke-linejoin: miter"/>
    </g>
    <g id="line2d_19">
     <path d="M 288.805938 159.10925 
L 298.805938 159.10925 
L 308.805938 159.10925 
" style="fill: none; stroke: #1f77b4; stroke-width: 1.5; stroke-linecap: square"/>
    </g>
    <g id="text_20">
     <!-- 25% -->
     <g transform="translate(316.805938 162.60925) scale(0.1 -0.1)">
      <use xlink:href="#DejaVuSans-32"/>
      <use xlink:href="#DejaVuSans-35" x="63.623047"/>
      <use xlink:href="#DejaVuSans-25" x="127.246094"/>
     </g>
    </g>
    <g id="line2d_20">
     <path d="M 288.805938 173.787375 
L 298.805938 173.787375 
L 308.805938 173.787375 
" style="fill: none; stroke: #008000; stroke-width: 1.5; stroke-linecap: square"/>
    </g>
    <g id="text_21">
     <!-- Mdia: 79.39 % -->
     <g transform="translate(316.805938 177.287375) scale(0.1 -0.1)">
      <defs>
       <path id="DejaVuSans-4d" d="M 628 4666 
L 1569 4666 
L 2759 1491 
L 3956 4666 
L 4897 4666 
L 4897 0 
L 4281 0 
L 4281 4097 
L 3078 897 
L 2444 897 
L 1241 4097 
L 1241 0 
L 628 0 
L 628 4666 
z
" transform="scale(0.015625)"/>
       <path id="DejaVuSans-3a" d="M 750 794 
L 1409 794 
L 1409 0 
L 750 0 
L 750 794 
z
M 750 3309 
L 1409 3309 
L 1409 2516 
L 750 2516 
L 750 3309 
z
" transform="scale(0.015625)"/>
       <path id="DejaVuSans-39" d="M 703 97 
L 703 672 
Q 941 559 1184 500 
Q 1428 441 1663 441 
Q 2288 441 2617 861 
Q 2947 1281 2994 2138 
Q 2813 1869 2534 1725 
Q 2256 1581 1919 1581 
Q 1219 1581 811 2004 
Q 403 2428 403 3163 
Q 403 3881 828 4315 
Q 1253 4750 1959 4750 
Q 2769 4750 3195 4129 
Q 3622 3509 3622 2328 
Q 3622 1225 3098 567 
Q 2575 -91 1691 -91 
Q 1453 -91 1209 -44 
Q 966 3 703 97 
z
M 1959 2075 
Q 2384 2075 2632 2365 
Q 2881 2656 2881 3163 
Q 2881 3666 2632 3958 
Q 2384 4250 1959 4250 
Q 1534 4250 1286 3958 
Q 1038 3666 1038 3163 
Q 1038 2656 1286 2365 
Q 1534 2075 1959 2075 
z
" transform="scale(0.015625)"/>
      </defs>
      <use xlink:href="#DejaVuSans-4d"/>
      <use xlink:href="#DejaVuSans-e9" x="86.279297"/>
      <use xlink:href="#DejaVuSans-64" x="147.802734"/>
      <use xlink:href="#DejaVuSans-69" x="211.279297"/>
      <use xlink:href="#DejaVuSans-61" x="239.0625"/>
      <use xlink:href="#DejaVuSans-3a" x="300.341797"/>
      <use xlink:href="#DejaVuSans-20" x="334.033203"/>
      <use xlink:href="#DejaVuSans-37" x="365.820312"/>
      <use xlink:href="#DejaVuSans-39" x="429.443359"/>
      <use xlink:href="#DejaVuSans-2e" x="493.066406"/>
      <use xlink:href="#DejaVuSans-33" x="524.853516"/>
      <use xlink:href="#DejaVuSans-39" x="588.476562"/>
      <use xlink:href="#DejaVuSans-20" x="652.099609"/>
      <use xlink:href="#DejaVuSans-25" x="683.886719"/>
     </g>
    </g>
    <g id="line2d_21">
     <path d="M 288.805938 188.4655 
L 298.805938 188.4655 
L 308.805938 188.4655 
" style="fill: none; stroke: #ff0000; stroke-width: 1.5; stroke-linecap: square"/>
    </g>
    <g id="text_22">
     <!-- Des. pad.: 2.18 % -->
     <g transform="translate(316.805938 191.9655) scale(0.1 -0.1)">
      <defs>
       <path id="DejaVuSans-44" d="M 1259 4147 
L 1259 519 
L 2022 519 
Q 2988 519 3436 956 
Q 3884 1394 3884 2338 
Q 3884 3275 3436 3711 
Q 2988 4147 2022 4147 
L 1259 4147 
z
M 628 4666 
L 1925 4666 
Q 3281 4666 3915 4102 
Q 4550 3538 4550 2338 
Q 4550 1131 3912 565 
Q 3275 0 1925 0 
L 628 0 
L 628 4666 
z
" transform="scale(0.015625)"/>
       <path id="DejaVuSans-70" d="M 1159 525 
L 1159 -1331 
L 581 -1331 
L 581 3500 
L 1159 3500 
L 1159 2969 
Q 1341 3281 1617 3432 
Q 1894 3584 2278 3584 
Q 2916 3584 3314 3078 
Q 3713 2572 3713 1747 
Q 3713 922 3314 415 
Q 2916 -91 2278 -91 
Q 1894 -91 1617 61 
Q 1341 213 1159 525 
z
M 3116 1747 
Q 3116 2381 2855 2742 
Q 2594 3103 2138 3103 
Q 1681 3103 1420 2742 
Q 1159 2381 1159 1747 
Q 1159 1113 1420 752 
Q 1681 391 2138 391 
Q 2594 391 2855 752 
Q 3116 1113 3116 1747 
z
" transform="scale(0.015625)"/>
      </defs>
      <use xlink:href="#DejaVuSans-44"/>
      <use xlink:href="#DejaVuSans-65" x="77.001953"/>
      <use xlink:href="#DejaVuSans-73" x="138.525391"/>
      <use xlink:href="#DejaVuSans-2e" x="190.625"/>
      <use xlink:href="#DejaVuSans-20" x="222.412109"/>
      <use xlink:href="#DejaVuSans-70" x="254.199219"/>
      <use xlink:href="#DejaVuSans-61" x="317.675781"/>
      <use xlink:href="#DejaVuSans-64" x="378.955078"/>
      <use xlink:href="#DejaVuSans-2e" x="442.431641"/>
      <use xlink:href="#DejaVuSans-3a" x="474.21875"/>
      <use xlink:href="#DejaVuSans-20" x="507.910156"/>
      <use xlink:href="#DejaVuSans-32" x="539.697266"/>
      <use xlink:href="#DejaVuSans-2e" x="603.320312"/>
      <use xlink:href="#DejaVuSans-31" x="635.107422"/>
      <use xlink:href="#DejaVuSans-38" x="698.730469"/>
      <use xlink:href="#DejaVuSans-20" x="762.353516"/>
      <use xlink:href="#DejaVuSans-25" x="794.140625"/>
     </g>
    </g>
   </g>
  </g>
 </g>
 <defs>
  <clipPath id="p41173376e7">
   <rect x="57.6" y="41.472" width="357.12" height="266.112"/>
  </clipPath>
 </defs>
</svg>
