<?xml version="1.0" encoding="utf-8" standalone="no"?>
<!DOCTYPE svg PUBLIC "-//W3C//DTD SVG 1.1//EN"
  "http://www.w3.org/Graphics/SVG/1.1/DTD/svg11.dtd">
<svg xmlns:xlink="http://www.w3.org/1999/xlink" width="460.8pt" height="345.6pt" viewBox="0 0 460.8 345.6" xmlns="http://www.w3.org/2000/svg" version="1.1">
 <metadata>
  <rdf:RDF xmlns:dc="http://purl.org/dc/elements/1.1/" xmlns:cc="http://creativecommons.org/ns#" xmlns:rdf="http://www.w3.org/1999/02/22-rdf-syntax-ns#">
   <cc:Work>
    <dc:type rdf:resource="http://purl.org/dc/dcmitype/StillImage"/>
    <dc:date>2023-02-20T21:36:03.361917</dc:date>
    <dc:format>image/svg+xml</dc:format>
    <dc:creator>
     <cc:Agent>
      <dc:title>Matplotlib v3.7.0, https://matplotlib.org/</dc:title>
     </cc:Agent>
    </dc:creator>
   </cc:Work>
  </rdf:RDF>
 </metadata>
 <defs>
  <style type="text/css">*{stroke-linejoin: round; stroke-linecap: butt}</style>
 </defs>
 <g id="figure_1">
  <g id="patch_1">
   <path d="M 0 345.6 
L 460.8 345.6 
L 460.8 0 
L 0 0 
z
" style="fill: #ffffff"/>
  </g>
  <g id="axes_1">
   <g id="patch_2">
    <path d="M 57.6 307.584 
L 414.72 307.584 
L 414.72 41.472 
L 57.6 41.472 
z
" style="fill: #ffffff"/>
   </g>
   <g id="matplotlib.axis_1">
    <g id="xtick_1">
     <g id="line2d_1">
      <defs>
       <path id="m5b5f9faf31" d="M 0 0 
L 0 3.5 
" style="stroke: #000000; stroke-width: 0.8"/>
      </defs>
      <g>
       <use xlink:href="#m5b5f9faf31" x="73.832403" y="307.584" style="stroke: #000000; stroke-width: 0.8"/>
      </g>
     </g>
     <g id="text_1">
      <!-- 0.0 -->
      <g transform="translate(65.88084 322.182437) scale(0.1 -0.1)">
       <defs>
        <path id="DejaVuSans-30" d="M 2034 4250 
Q 1547 4250 1301 3770 
Q 1056 3291 1056 2328 
Q 1056 1369 1301 889 
Q 1547 409 2034 409 
Q 2525 409 2770 889 
Q 3016 1369 3016 2328 
Q 3016 3291 2770 3770 
Q 2525 4250 2034 4250 
z
M 2034 4750 
Q 2819 4750 3233 4129 
Q 3647 3509 3647 2328 
Q 3647 1150 3233 529 
Q 2819 -91 2034 -91 
Q 1250 -91 836 529 
Q 422 1150 422 2328 
Q 422 3509 836 4129 
Q 1250 4750 2034 4750 
z
" transform="scale(0.015625)"/>
        <path id="DejaVuSans-2e" d="M 684 794 
L 1344 794 
L 1344 0 
L 684 0 
L 684 794 
z
" transform="scale(0.015625)"/>
       </defs>
       <use xlink:href="#DejaVuSans-30"/>
       <use xlink:href="#DejaVuSans-2e" x="63.623047"/>
       <use xlink:href="#DejaVuSans-30" x="95.410156"/>
      </g>
     </g>
    </g>
    <g id="xtick_2">
     <g id="line2d_2">
      <g>
       <use xlink:href="#m5b5f9faf31" x="138.763377" y="307.584" style="stroke: #000000; stroke-width: 0.8"/>
      </g>
     </g>
     <g id="text_2">
      <!-- 0.2 -->
      <g transform="translate(130.811814 322.182437) scale(0.1 -0.1)">
       <defs>
        <path id="DejaVuSans-32" d="M 1228 531 
L 3431 531 
L 3431 0 
L 469 0 
L 469 531 
Q 828 903 1448 1529 
Q 2069 2156 2228 2338 
Q 2531 2678 2651 2914 
Q 2772 3150 2772 3378 
Q 2772 3750 2511 3984 
Q 2250 4219 1831 4219 
Q 1534 4219 1204 4116 
Q 875 4013 500 3803 
L 500 4441 
Q 881 4594 1212 4672 
Q 1544 4750 1819 4750 
Q 2544 4750 2975 4387 
Q 3406 4025 3406 3419 
Q 3406 3131 3298 2873 
Q 3191 2616 2906 2266 
Q 2828 2175 2409 1742 
Q 1991 1309 1228 531 
z
" transform="scale(0.015625)"/>
       </defs>
       <use xlink:href="#DejaVuSans-30"/>
       <use xlink:href="#DejaVuSans-2e" x="63.623047"/>
       <use xlink:href="#DejaVuSans-32" x="95.410156"/>
      </g>
     </g>
    </g>
    <g id="xtick_3">
     <g id="line2d_3">
      <g>
       <use xlink:href="#m5b5f9faf31" x="203.694351" y="307.584" style="stroke: #000000; stroke-width: 0.8"/>
      </g>
     </g>
     <g id="text_3">
      <!-- 0.4 -->
      <g transform="translate(195.742788 322.182437) scale(0.1 -0.1)">
       <defs>
        <path id="DejaVuSans-34" d="M 2419 4116 
L 825 1625 
L 2419 1625 
L 2419 4116 
z
M 2253 4666 
L 3047 4666 
L 3047 1625 
L 3713 1625 
L 3713 1100 
L 3047 1100 
L 3047 0 
L 2419 0 
L 2419 1100 
L 313 1100 
L 313 1709 
L 2253 4666 
z
" transform="scale(0.015625)"/>
       </defs>
       <use xlink:href="#DejaVuSans-30"/>
       <use xlink:href="#DejaVuSans-2e" x="63.623047"/>
       <use xlink:href="#DejaVuSans-34" x="95.410156"/>
      </g>
     </g>
    </g>
    <g id="xtick_4">
     <g id="line2d_4">
      <g>
       <use xlink:href="#m5b5f9faf31" x="268.625325" y="307.584" style="stroke: #000000; stroke-width: 0.8"/>
      </g>
     </g>
     <g id="text_4">
      <!-- 0.6 -->
      <g transform="translate(260.673762 322.182437) scale(0.1 -0.1)">
       <defs>
        <path id="DejaVuSans-36" d="M 2113 2584 
Q 1688 2584 1439 2293 
Q 1191 2003 1191 1497 
Q 1191 994 1439 701 
Q 1688 409 2113 409 
Q 2538 409 2786 701 
Q 3034 994 3034 1497 
Q 3034 2003 2786 2293 
Q 2538 2584 2113 2584 
z
M 3366 4563 
L 3366 3988 
Q 3128 4100 2886 4159 
Q 2644 4219 2406 4219 
Q 1781 4219 1451 3797 
Q 1122 3375 1075 2522 
Q 1259 2794 1537 2939 
Q 1816 3084 2150 3084 
Q 2853 3084 3261 2657 
Q 3669 2231 3669 1497 
Q 3669 778 3244 343 
Q 2819 -91 2113 -91 
Q 1303 -91 875 529 
Q 447 1150 447 2328 
Q 447 3434 972 4092 
Q 1497 4750 2381 4750 
Q 2619 4750 2861 4703 
Q 3103 4656 3366 4563 
z
" transform="scale(0.015625)"/>
       </defs>
       <use xlink:href="#DejaVuSans-30"/>
       <use xlink:href="#DejaVuSans-2e" x="63.623047"/>
       <use xlink:href="#DejaVuSans-36" x="95.410156"/>
      </g>
     </g>
    </g>
    <g id="xtick_5">
     <g id="line2d_5">
      <g>
       <use xlink:href="#m5b5f9faf31" x="333.556299" y="307.584" style="stroke: #000000; stroke-width: 0.8"/>
      </g>
     </g>
     <g id="text_5">
      <!-- 0.8 -->
      <g transform="translate(325.604736 322.182437) scale(0.1 -0.1)">
       <defs>
        <path id="DejaVuSans-38" d="M 2034 2216 
Q 1584 2216 1326 1975 
Q 1069 1734 1069 1313 
Q 1069 891 1326 650 
Q 1584 409 2034 409 
Q 2484 409 2743 651 
Q 3003 894 3003 1313 
Q 3003 1734 2745 1975 
Q 2488 2216 2034 2216 
z
M 1403 2484 
Q 997 2584 770 2862 
Q 544 3141 544 3541 
Q 544 4100 942 4425 
Q 1341 4750 2034 4750 
Q 2731 4750 3128 4425 
Q 3525 4100 3525 3541 
Q 3525 3141 3298 2862 
Q 3072 2584 2669 2484 
Q 3125 2378 3379 2068 
Q 3634 1759 3634 1313 
Q 3634 634 3220 271 
Q 2806 -91 2034 -91 
Q 1263 -91 848 271 
Q 434 634 434 1313 
Q 434 1759 690 2068 
Q 947 2378 1403 2484 
z
M 1172 3481 
Q 1172 3119 1398 2916 
Q 1625 2713 2034 2713 
Q 2441 2713 2670 2916 
Q 2900 3119 2900 3481 
Q 2900 3844 2670 4047 
Q 2441 4250 2034 4250 
Q 1625 4250 1398 4047 
Q 1172 3844 1172 3481 
z
" transform="scale(0.015625)"/>
       </defs>
       <use xlink:href="#DejaVuSans-30"/>
       <use xlink:href="#DejaVuSans-2e" x="63.623047"/>
       <use xlink:href="#DejaVuSans-38" x="95.410156"/>
      </g>
     </g>
    </g>
    <g id="xtick_6">
     <g id="line2d_6">
      <g>
       <use xlink:href="#m5b5f9faf31" x="398.487273" y="307.584" style="stroke: #000000; stroke-width: 0.8"/>
      </g>
     </g>
     <g id="text_6">
      <!-- 1.0 -->
      <g transform="translate(390.53571 322.182437) scale(0.1 -0.1)">
       <defs>
        <path id="DejaVuSans-31" d="M 794 531 
L 1825 531 
L 1825 4091 
L 703 3866 
L 703 4441 
L 1819 4666 
L 2450 4666 
L 2450 531 
L 3481 531 
L 3481 0 
L 794 0 
L 794 531 
z
" transform="scale(0.015625)"/>
       </defs>
       <use xlink:href="#DejaVuSans-31"/>
       <use xlink:href="#DejaVuSans-2e" x="63.623047"/>
       <use xlink:href="#DejaVuSans-30" x="95.410156"/>
      </g>
     </g>
    </g>
    <g id="text_7">
     <!-- n -->
     <g transform="translate(232.99125 335.860562) scale(0.1 -0.1)">
      <defs>
       <path id="DejaVuSans-6e" d="M 3513 2113 
L 3513 0 
L 2938 0 
L 2938 2094 
Q 2938 2591 2744 2837 
Q 2550 3084 2163 3084 
Q 1697 3084 1428 2787 
Q 1159 2491 1159 1978 
L 1159 0 
L 581 0 
L 581 3500 
L 1159 3500 
L 1159 2956 
Q 1366 3272 1645 3428 
Q 1925 3584 2291 3584 
Q 2894 3584 3203 3211 
Q 3513 2838 3513 2113 
z
" transform="scale(0.015625)"/>
      </defs>
      <use xlink:href="#DejaVuSans-6e"/>
     </g>
    </g>
    <g id="text_8">
     <!-- 1e6 -->
     <g transform="translate(395.841875 334.860562) scale(0.1 -0.1)">
      <defs>
       <path id="DejaVuSans-65" d="M 3597 1894 
L 3597 1613 
L 953 1613 
Q 991 1019 1311 708 
Q 1631 397 2203 397 
Q 2534 397 2845 478 
Q 3156 559 3463 722 
L 3463 178 
Q 3153 47 2828 -22 
Q 2503 -91 2169 -91 
Q 1331 -91 842 396 
Q 353 884 353 1716 
Q 353 2575 817 3079 
Q 1281 3584 2069 3584 
Q 2775 3584 3186 3129 
Q 3597 2675 3597 1894 
z
M 3022 2063 
Q 3016 2534 2758 2815 
Q 2500 3097 2075 3097 
Q 1594 3097 1305 2825 
Q 1016 2553 972 2059 
L 3022 2063 
z
" transform="scale(0.015625)"/>
      </defs>
      <use xlink:href="#DejaVuSans-31"/>
      <use xlink:href="#DejaVuSans-65" x="63.623047"/>
      <use xlink:href="#DejaVuSans-36" x="125.146484"/>
     </g>
    </g>
   </g>
   <g id="matplotlib.axis_2">
    <g id="ytick_1">
     <g id="line2d_7">
      <defs>
       <path id="m8a3437dfac" d="M 0 0 
L -3.5 0 
" style="stroke: #000000; stroke-width: 0.8"/>
      </defs>
      <g>
       <use xlink:href="#m8a3437dfac" x="57.6" y="295.488" style="stroke: #000000; stroke-width: 0.8"/>
      </g>
     </g>
     <g id="text_9">
      <!-- 0 -->
      <g transform="translate(44.2375 299.287219) scale(0.1 -0.1)">
       <use xlink:href="#DejaVuSans-30"/>
      </g>
     </g>
    </g>
    <g id="ytick_2">
     <g id="line2d_8">
      <g>
       <use xlink:href="#m8a3437dfac" x="57.6" y="243.976865" style="stroke: #000000; stroke-width: 0.8"/>
      </g>
     </g>
     <g id="text_10">
      <!-- 20 -->
      <g transform="translate(37.875 247.776084) scale(0.1 -0.1)">
       <use xlink:href="#DejaVuSans-32"/>
       <use xlink:href="#DejaVuSans-30" x="63.623047"/>
      </g>
     </g>
    </g>
    <g id="ytick_3">
     <g id="line2d_9">
      <g>
       <use xlink:href="#m8a3437dfac" x="57.6" y="192.46573" style="stroke: #000000; stroke-width: 0.8"/>
      </g>
     </g>
     <g id="text_11">
      <!-- 40 -->
      <g transform="translate(37.875 196.264949) scale(0.1 -0.1)">
       <use xlink:href="#DejaVuSans-34"/>
       <use xlink:href="#DejaVuSans-30" x="63.623047"/>
      </g>
     </g>
    </g>
    <g id="ytick_4">
     <g id="line2d_10">
      <g>
       <use xlink:href="#m8a3437dfac" x="57.6" y="140.954595" style="stroke: #000000; stroke-width: 0.8"/>
      </g>
     </g>
     <g id="text_12">
      <!-- 60 -->
      <g transform="translate(37.875 144.753814) scale(0.1 -0.1)">
       <use xlink:href="#DejaVuSans-36"/>
       <use xlink:href="#DejaVuSans-30" x="63.623047"/>
      </g>
     </g>
    </g>
    <g id="ytick_5">
     <g id="line2d_11">
      <g>
       <use xlink:href="#m8a3437dfac" x="57.6" y="89.44346" style="stroke: #000000; stroke-width: 0.8"/>
      </g>
     </g>
     <g id="text_13">
      <!-- 80 -->
      <g transform="translate(37.875 93.242679) scale(0.1 -0.1)">
       <use xlink:href="#DejaVuSans-38"/>
       <use xlink:href="#DejaVuSans-30" x="63.623047"/>
      </g>
     </g>
    </g>
    <g id="text_14">
     <!-- Hr (%) -->
     <g transform="translate(31.795312 190.585031) rotate(-90) scale(0.1 -0.1)">
      <defs>
       <path id="DejaVuSans-48" d="M 628 4666 
L 1259 4666 
L 1259 2753 
L 3553 2753 
L 3553 4666 
L 4184 4666 
L 4184 0 
L 3553 0 
L 3553 2222 
L 1259 2222 
L 1259 0 
L 628 0 
L 628 4666 
z
" transform="scale(0.015625)"/>
       <path id="DejaVuSans-72" d="M 2631 2963 
Q 2534 3019 2420 3045 
Q 2306 3072 2169 3072 
Q 1681 3072 1420 2755 
Q 1159 2438 1159 1844 
L 1159 0 
L 581 0 
L 581 3500 
L 1159 3500 
L 1159 2956 
Q 1341 3275 1631 3429 
Q 1922 3584 2338 3584 
Q 2397 3584 2469 3576 
Q 2541 3569 2628 3553 
L 2631 2963 
z
" transform="scale(0.015625)"/>
       <path id="DejaVuSans-20" transform="scale(0.015625)"/>
       <path id="DejaVuSans-28" d="M 1984 4856 
Q 1566 4138 1362 3434 
Q 1159 2731 1159 2009 
Q 1159 1288 1364 580 
Q 1569 -128 1984 -844 
L 1484 -844 
Q 1016 -109 783 600 
Q 550 1309 550 2009 
Q 550 2706 781 3412 
Q 1013 4119 1484 4856 
L 1984 4856 
z
" transform="scale(0.015625)"/>
       <path id="DejaVuSans-25" d="M 4653 2053 
Q 4381 2053 4226 1822 
Q 4072 1591 4072 1178 
Q 4072 772 4226 539 
Q 4381 306 4653 306 
Q 4919 306 5073 539 
Q 5228 772 5228 1178 
Q 5228 1588 5073 1820 
Q 4919 2053 4653 2053 
z
M 4653 2450 
Q 5147 2450 5437 2106 
Q 5728 1763 5728 1178 
Q 5728 594 5436 251 
Q 5144 -91 4653 -91 
Q 4153 -91 3862 251 
Q 3572 594 3572 1178 
Q 3572 1766 3864 2108 
Q 4156 2450 4653 2450 
z
M 1428 4353 
Q 1159 4353 1004 4120 
Q 850 3888 850 3481 
Q 850 3069 1003 2837 
Q 1156 2606 1428 2606 
Q 1700 2606 1854 2837 
Q 2009 3069 2009 3481 
Q 2009 3884 1853 4118 
Q 1697 4353 1428 4353 
z
M 4250 4750 
L 4750 4750 
L 1831 -91 
L 1331 -91 
L 4250 4750 
z
M 1428 4750 
Q 1922 4750 2215 4408 
Q 2509 4066 2509 3481 
Q 2509 2891 2217 2550 
Q 1925 2209 1428 2209 
Q 931 2209 642 2551 
Q 353 2894 353 3481 
Q 353 4063 643 4406 
Q 934 4750 1428 4750 
z
" transform="scale(0.015625)"/>
       <path id="DejaVuSans-29" d="M 513 4856 
L 1013 4856 
Q 1481 4119 1714 3412 
Q 1947 2706 1947 2009 
Q 1947 1309 1714 600 
Q 1481 -109 1013 -844 
L 513 -844 
Q 928 -128 1133 580 
Q 1338 1288 1338 2009 
Q 1338 2731 1133 3434 
Q 928 4138 513 4856 
z
" transform="scale(0.015625)"/>
      </defs>
      <use xlink:href="#DejaVuSans-48"/>
      <use xlink:href="#DejaVuSans-72" x="75.195312"/>
      <use xlink:href="#DejaVuSans-20" x="116.308594"/>
      <use xlink:href="#DejaVuSans-28" x="148.095703"/>
      <use xlink:href="#DejaVuSans-25" x="187.109375"/>
      <use xlink:href="#DejaVuSans-29" x="282.128906"/>
     </g>
    </g>
   </g>
   <g id="line2d_12">
    <path d="M 73.832727 295.488 
L 73.834351 295.488 
L 73.945707 189.653341 
L 73.946032 189.956592 
L 73.948629 190.878552 
L 74.030767 176.843501 
L 74.043428 177.226689 
L 74.045701 178.096008 
L 74.125241 170.855065 
L 74.144071 171.678651 
L 74.264518 164.580003 
L 74.270362 164.990577 
L 74.293737 165.984654 
L 74.368083 161.477831 
L 74.371005 161.894586 
L 74.52132 152.806285 
L 74.522294 152.886553 
L 74.611574 148.620071 
L 74.612224 148.635139 
L 74.764487 142.480186 
L 74.613522 148.665202 
L 74.765785 142.603525 
L 74.896946 139.838887 
L 74.899543 139.982687 
L 74.899868 140.029996 
L 74.990447 137.09776 
L 75.118036 134.800322 
L 75.127776 134.846607 
L 75.159267 135.067248 
L 75.230691 133.992338 
L 75.23199 134.022702 
L 75.397239 130.286798 
L 75.401784 130.339017 
L 75.493662 128.75141 
L 75.493986 128.783995 
L 75.651444 126.113651 
L 75.494636 128.798813 
L 75.652418 126.158355 
L 75.653392 126.203011 
L 75.750788 124.990328 
L 75.922531 122.237096 
L 75.922855 122.264006 
L 76.018629 121.055522 
L 76.019278 121.069079 
L 76.174788 119.29764 
L 76.020901 121.083831 
L 76.176411 119.31264 
L 76.179008 119.365108 
L 76.276729 118.504006 
L 76.43159 117.016879 
L 76.431914 117.039171 
L 76.439381 117.16542 
L 76.527038 115.953167 
L 76.6806 114.652911 
L 76.682548 114.659153 
L 76.685794 114.718382 
L 76.77962 113.777463 
L 76.923117 112.690843 
L 76.780269 113.789124 
L 76.931233 112.710906 
L 76.931558 112.730055 
L 77.027007 111.830046 
L 77.033175 111.89663 
L 77.200048 110.391587 
L 77.200372 110.409431 
L 77.290951 109.454076 
L 77.294197 109.459464 
L 77.297769 109.482272 
L 77.471134 108.095391 
L 77.471459 108.11211 
L 77.566258 107.293188 
L 77.72956 106.274808 
L 77.569505 107.322434 
L 77.731183 106.289249 
L 77.737676 106.325477 
L 77.827605 105.581244 
L 78.016879 104.219738 
L 77.828255 105.591178 
L 78.017853 104.24427 
L 78.018178 104.259105 
L 78.119146 103.945232 
L 78.123366 103.997227 
L 78.31686 102.656894 
L 78.318484 102.689394 
L 78.318808 102.703346 
L 78.408088 102.170472 
L 78.417503 102.18446 
L 78.604505 101.08586 
L 78.606452 101.095122 
L 78.63275 101.132325 
L 78.707745 100.708948 
L 78.927211 99.317631 
L 78.927536 99.330132 
L 79.02266 98.913698 
L 79.028828 98.953951 
L 79.197974 98.230214 
L 79.029478 98.962417 
L 79.199597 98.243136 
L 79.20609 98.263626 
L 79.294721 97.835758 
L 79.299591 97.843578 
L 79.499903 96.817792 
L 79.305759 97.852444 
L 79.501526 96.845181 
L 79.505097 96.881796 
L 79.594377 96.490794 
L 79.602494 96.495373 
L 79.790793 95.711135 
L 79.791118 95.72202 
L 79.884294 95.343475 
L 79.892086 95.393846 
L 80.09532 94.503782 
L 80.095644 94.5142 
L 80.095969 94.524618 
L 80.192392 94.061029 
L 80.206352 94.10864 
L 80.344979 93.696037 
L 80.345304 93.706097 
L 80.444324 93.338729 
L 80.639766 92.607782 
L 80.445622 93.340493 
L 80.641389 92.619309 
L 80.644311 92.644953 
L 80.740084 92.249505 
L 80.740409 92.259057 
L 80.945266 91.505505 
L 80.94624 91.509924 
L 80.946565 91.519233 
L 81.045909 91.244889 
L 81.048506 91.260464 
L 81.239079 90.678571 
L 81.239403 90.687549 
L 81.340046 90.436972 
L 81.34167 90.447893 
L 81.527697 89.928102 
L 81.52932 89.938864 
L 81.620873 89.660336 
L 81.628989 89.670835 
L 81.820211 89.102188 
L 81.630288 89.672942 
L 81.824756 89.114937 
L 81.826379 89.125465 
L 81.924101 88.827551 
L 81.92475 88.8338 
L 82.171163 87.991426 
L 82.373423 87.442306 
L 82.374072 87.448331 
L 82.374397 87.456239 
L 82.474715 87.200649 
L 82.47504 87.208473 
L 82.700675 86.5393 
L 82.477962 87.230507 
L 82.703272 86.543921 
L 82.703597 86.551567 
L 82.795474 86.249087 
L 82.801967 86.2514 
L 82.803591 86.251977 
L 83.013967 85.709449 
L 83.015915 85.717526 
L 83.115584 85.528737 
L 83.117532 85.536762 
L 83.365244 84.843563 
L 83.369139 84.850703 
L 83.462965 84.549876 
L 83.463614 84.564098 
L 83.466861 84.574421 
L 83.677237 84.078814 
L 83.677562 84.085786 
L 83.776257 83.821098 
L 83.776581 83.828008 
L 84.01293 83.25529 
L 84.016826 83.270794 
L 84.108703 83.060714 
L 84.114872 83.06617 
L 84.329469 82.621405 
L 84.329793 82.627989 
L 84.430112 82.410033 
L 84.624255 81.943042 
L 84.647955 81.970302 
L 84.648604 81.98312 
L 84.746001 81.712576 
L 84.746325 81.718935 
L 84.97261 81.26485 
L 84.974233 81.273546 
L 85.069682 81.0319 
L 85.07163 81.03187 
L 85.272266 80.69259 
L 85.072928 81.034329 
L 85.272591 80.698686 
L 85.274864 80.704808 
L 85.372909 80.493571 
L 85.665423 79.83715 
L 85.665748 79.843067 
L 85.76282 79.656247 
L 85.766716 79.656639 
L 86.02644 79.138216 
L 85.768014 79.659105 
L 86.028712 79.14425 
L 86.029037 79.150009 
L 86.132277 79.014784 
L 86.132926 79.019413 
L 86.135524 79.024332 
L 86.41213 78.473066 
L 86.416025 78.480449 
L 86.512448 78.284209 
L 86.75464 77.883804 
L 86.754965 77.889271 
L 86.851063 77.716356 
L 86.856257 77.72617 
L 86.860153 77.739944 
L 87.129617 77.247658 
L 87.130266 77.258315 
L 87.231883 77.103603 
L 87.233506 77.105098 
L 87.526994 76.583079 
L 87.527319 76.588268 
L 87.627637 76.428385 
L 87.628611 76.431729 
L 88.006834 75.693471 
L 88.008782 75.70008 
L 88.02534 75.709043 
L 88.112672 75.589266 
L 88.348047 75.272426 
L 88.348371 75.277351 
L 88.348696 75.282276 
L 88.451611 75.15661 
L 88.451936 75.161503 
L 88.710361 74.807086 
L 88.711335 74.815912 
L 88.813277 74.682137 
L 88.814576 74.684533 
L 89.074949 74.331011 
L 89.075273 74.335722 
L 89.175916 74.184131 
L 89.177864 74.184979 
L 89.461937 73.78821 
L 89.462262 73.792815 
L 89.564204 73.661425 
L 89.814188 73.369383 
L 89.814513 73.373895 
L 89.914831 73.241204 
L 89.916454 73.242839 
L 90.167737 72.94536 
L 90.170659 72.949334 
L 90.171958 72.956786 
L 90.270003 72.788566 
L 90.538493 72.468621 
L 90.540766 72.473932 
L 90.544661 72.48089 
L 90.639785 72.355005 
L 90.644006 72.366259 
L 90.647902 72.373199 
L 90.938468 72.013028 
L 90.943013 72.018636 
L 91.040085 71.889517 
L 91.453695 71.315481 
L 91.45402 71.319611 
L 91.55726 71.219492 
L 91.824776 70.933694 
L 91.829645 70.943349 
L 91.82997 70.947399 
L 91.934184 70.863569 
L 91.935158 70.871035 
L 92.193259 70.631157 
L 92.193583 70.635133 
L 92.295525 70.5225 
L 92.515641 70.344409 
L 92.518563 70.352766 
L 92.518888 70.356677 
L 92.619206 70.223592 
L 92.993533 69.797852 
L 92.993858 69.801676 
L 93.096773 69.700868 
L 93.473698 69.291298 
L 93.474996 69.297738 
L 93.576613 69.195599 
L 93.914254 68.865655 
L 93.914579 68.869319 
L 94.01717 68.770073 
L 94.304814 68.532838 
L 94.309684 68.541894 
L 94.410002 68.46581 
L 94.660636 68.291087 
L 94.663233 68.29533 
L 94.765175 68.227354 
L 94.766473 68.229469 
L 95.069052 67.971038 
L 95.073921 67.979897 
L 95.074246 67.983374 
L 95.173591 67.937518 
L 95.182032 67.945238 
L 95.182681 67.948242 
L 95.397278 67.831785 
L 95.397602 67.835212 
L 95.500518 67.747209 
L 95.784266 67.540848 
L 95.784916 67.543781 
L 95.78524 67.547152 
L 95.892376 67.501876 
L 96.123206 67.375727 
L 96.123531 67.379049 
L 96.225472 67.282336 
L 96.479352 67.130535 
L 96.483248 67.140279 
L 96.57058 67.06487 
L 96.58519 67.07189 
L 96.79232 66.983819 
L 96.808228 66.992819 
L 96.897833 66.923426 
L 96.903676 66.93058 
L 97.135805 66.799602 
L 97.136129 66.802788 
L 97.238395 66.751667 
L 97.242941 66.756787 
L 97.245863 66.763904 
L 97.439032 66.690914 
L 97.44098 66.695625 
L 97.542597 66.63583 
L 97.54487 66.636605 
L 97.804594 66.496526 
L 97.813684 66.503132 
L 97.910756 66.457402 
L 97.912054 66.459336 
L 98.160415 66.336522 
L 98.177297 66.340868 
L 98.262032 66.29025 
L 98.267227 66.291066 
L 98.469162 66.221533 
L 98.272097 66.299101 
L 98.470136 66.223809 
L 98.470461 66.22683 
L 98.552274 66.170394 
L 98.576298 66.17339 
L 98.577597 66.175288 
L 98.8331 66.047187 
L 98.833425 66.050166 
L 98.938938 65.995276 
L 99.184377 65.878607 
L 98.940561 65.996792 
L 99.185351 65.88413 
L 99.201583 65.88602 
L 99.292487 65.842045 
L 99.294759 65.846122 
L 99.512278 65.765974 
L 99.737589 65.685279 
L 99.737913 65.688159 
L 99.827518 65.640734 
L 99.844075 65.63917 
L 99.846997 65.642486 
L 100.106397 65.521666 
L 100.111266 65.526099 
L 100.189833 65.48826 
L 100.214182 65.488184 
L 100.458322 65.389396 
L 100.215805 65.492827 
L 100.459621 65.391197 
L 100.46092 65.399278 
L 100.565783 65.344709 
L 100.82291 65.238463 
L 100.836545 65.243253 
L 100.924202 65.210443 
L 100.931669 65.212183 
L 101.199185 65.098286 
L 101.201133 65.102463 
L 101.291387 65.064926 
L 101.308269 65.075644 
L 101.50988 65.032 
L 101.510204 65.034704 
L 101.612471 64.986101 
L 101.616366 64.988326 
L 101.866351 64.899179 
L 101.87187 64.902818 
L 101.973487 64.861882 
L 102.231587 64.767298 
L 102.234185 64.770733 
L 102.333204 64.721495 
L 102.33775 64.723091 
L 102.568904 64.653076 
L 102.569878 64.65508 
L 102.576696 64.660377 
L 102.676365 64.611503 
L 102.967255 64.485759 
L 102.969853 64.489131 
L 102.983488 64.496788 
L 103.076664 64.457898 
L 103.078287 64.462144 
L 103.319506 64.392573 
L 103.349049 64.394417 
L 103.426317 64.353581 
L 103.642213 64.305281 
L 103.642862 64.307512 
L 103.656173 64.312563 
L 103.749998 64.271754 
L 103.961998 64.227959 
L 103.963296 64.229601 
L 103.984074 64.236438 
L 104.064264 64.202623 
L 104.071731 64.204431 
L 104.343792 64.112676 
L 104.360674 64.114632 
L 104.446058 64.08804 
L 104.452551 64.087955 
L 104.453201 64.090132 
L 104.741494 63.986826 
L 104.741819 63.989257 
L 104.785972 63.965595 
L 104.849929 63.96044 
L 105.082706 63.908374 
L 105.083356 63.913185 
L 105.137248 63.889826 
L 105.19179 63.887342 
L 105.46937 63.79705 
L 105.47002 63.799162 
L 105.480733 63.800974 
L 105.552807 63.755377 
L 105.576507 63.759804 
L 105.859606 63.672489 
L 105.85993 63.674839 
L 105.962521 63.642089 
L 105.96804 63.64548 
L 106.201142 63.599803 
L 106.244646 63.601469 
L 106.298214 63.569417 
L 106.308928 63.568684 
L 106.577742 63.49612 
L 106.578067 63.49842 
L 106.684554 63.458819 
L 106.935512 63.404226 
L 106.981288 63.401843 
L 107.019273 63.377731 
L 107.043622 63.376699 
L 107.327046 63.298697 
L 107.327695 63.303198 
L 107.43548 63.274074 
L 107.707216 63.199144 
L 107.43613 63.276073 
L 107.710463 63.204128 
L 107.758837 63.207528 
L 107.804288 63.183557 
L 107.820521 63.191179 
L 108.145825 63.085741 
L 108.179265 63.088032 
L 108.24452 63.054908 
L 108.254585 63.062137 
L 108.574045 62.965842 
L 108.617873 62.965549 
L 108.678908 62.940899 
L 108.682804 62.942902 
L 108.968176 62.873036 
L 108.984084 62.873643 
L 109.071416 62.835559 
L 109.074663 62.835638 
L 109.338932 62.782164 
L 109.076611 62.839006 
L 109.339581 62.784065 
L 109.339906 62.786192 
L 109.423342 62.758469 
L 109.447367 62.755809 
L 109.720726 62.694875 
L 109.722025 62.698638 
L 109.737283 62.699757 
L 109.828187 62.658116 
L 110.094404 62.608028 
L 110.136284 62.609504 
L 110.20089 62.579461 
L 110.202838 62.58274 
L 110.522299 62.49801 
L 110.522948 62.499855 
L 110.566127 62.498292 
L 110.611579 62.481574 
L 110.632681 62.483402 
L 110.931689 62.416252 
L 110.98688 62.422642 
L 111.042071 62.404294 
L 111.381011 62.312552 
L 111.382959 62.315741 
L 111.399516 62.304994 
L 111.48977 62.290989 
L 111.790076 62.228243 
L 111.797868 62.232067 
L 111.888446 62.191807 
L 111.897212 62.195008 
L 112.261475 62.093401 
L 112.267968 62.095846 
L 112.367312 62.05308 
L 112.740016 61.948819 
L 112.742613 61.951514 
L 112.808843 61.921427 
L 112.848451 61.924934 
L 112.8491 61.926678 
L 113.227323 61.821541 
L 113.241608 61.825613 
L 113.333485 61.793323 
L 113.335109 61.794459 
L 113.642557 61.738298 
L 113.683139 61.739235 
L 113.750991 61.713431 
L 113.751641 61.715138 
L 114.085386 61.642587 
L 114.137655 61.649181 
L 114.195444 61.627655 
L 114.550292 61.546421 
L 114.630482 61.540998 
L 114.579186 61.539937 
L 114.660674 61.533779 
L 114.991822 61.469848 
L 115.004809 61.470548 
L 115.096361 61.434534 
L 115.098634 61.437292 
L 115.48757 61.34228 
L 115.508348 61.344654 
L 115.595031 61.312076 
L 115.86904 61.284995 
L 115.954424 61.277359 
L 115.931374 61.270279 
L 115.978449 61.266036 
L 115.979098 61.26766 
L 116.359593 61.18078 
L 116.414135 61.178493 
L 116.384916 61.174805 
L 116.469651 61.165875 
L 116.843654 61.088268 
L 116.848524 61.089535 
L 116.912481 61.062919 
L 116.951439 61.061412 
L 117.300768 60.998649 
L 117.301092 61.000401 
L 117.403034 60.969458 
L 117.408229 60.970549 
L 117.733857 60.92347 
L 117.738078 60.925069 
L 117.835799 60.89301 
L 117.841318 60.89393 
L 118.209801 60.825744 
L 118.21597 60.828215 
L 118.289017 60.80376 
L 118.318236 60.801895 
L 118.678278 60.741347 
L 118.693862 60.742743 
L 118.779246 60.708712 
L 118.78509 60.709472 
L 119.222075 60.611771 
L 119.312329 60.598019 
L 119.282461 60.596356 
L 119.331159 60.592314 
L 119.331809 60.593829 
L 119.720421 60.522179 
L 119.817817 60.514337 
L 119.830803 60.507962 
L 120.16325 60.46689 
L 120.247985 60.463583 
L 120.273957 60.454583 
L 120.683022 60.379298 
L 120.776198 60.366806 
L 120.717111 60.370111 
L 120.792756 60.362457 
L 121.308957 60.238342 
L 121.320644 60.239895 
L 121.401808 60.215896 
L 121.417392 60.215627 
L 121.880674 60.120848 
L 121.933268 60.119186 
L 121.990732 60.104866 
L 122.479662 60.000619 
L 122.576085 59.992989 
L 122.519595 59.991106 
L 122.590694 59.989809 
L 122.90074 59.971425 
L 122.965995 59.957471 
L 123.011447 59.959218 
L 123.362074 59.919774 
L 123.362724 59.922862 
L 123.366619 59.924508 
L 123.422135 59.906633 
L 123.470834 59.898551 
L 123.958465 59.803297 
L 124.045797 59.793568 
L 124.00067 59.791565 
L 124.067874 59.78396 
L 124.489925 59.719098 
L 124.49025 59.720609 
L 124.590244 59.712281 
L 124.515898 59.712883 
L 124.601282 59.709192 
L 125.031774 59.643676 
L 125.032099 59.645172 
L 125.032424 59.646667 
L 125.13956 59.617622 
L 125.644398 59.524138 
L 125.74634 59.504288 
L 125.707381 59.505982 
L 125.753157 59.501456 
L 126.253775 59.413509 
L 126.358314 59.410554 
L 126.366106 59.407369 
L 126.870944 59.319625 
L 126.976132 59.302467 
L 126.901786 59.30877 
L 126.980353 59.30077 
L 127.510514 59.206551 
L 127.613105 59.193954 
L 127.558238 59.193878 
L 127.620572 59.191003 
L 128.100087 59.12026 
L 128.118268 59.119326 
L 128.190666 59.09726 
L 128.208847 59.097872 
L 128.702647 59.024735 
L 128.784785 59.02364 
L 128.717581 59.020519 
L 128.814328 59.015349 
L 129.371761 58.91967 
L 129.481169 58.905454 
L 129.431172 58.904763 
L 129.482143 58.905087 
L 129.910363 58.86124 
L 129.973346 58.858612 
L 130.02107 58.846791 
L 130.719403 58.704699 
L 130.75479 58.69913 
L 130.821669 58.679161 
L 130.827513 58.679968 
L 131.428774 58.578068 
L 131.533637 58.573877 
L 131.541104 58.571206 
L 132.108276 58.485125 
L 132.21736 58.468207 
L 132.218334 58.467865 
L 132.684214 58.420387 
L 132.793948 58.413456 
L 132.796545 58.412554 
L 133.324758 58.345967 
L 133.426375 58.335012 
L 133.435466 58.3319 
L 134.032831 58.24476 
L 134.051985 58.239688 
L 134.144836 58.234766 
L 134.799665 58.130538 
L 134.909723 58.117416 
L 134.910697 58.117094 
L 135.575915 58.013383 
L 135.681428 58.01022 
L 135.68922 58.007691 
L 136.308986 57.922304 
L 136.405084 57.914321 
L 136.420342 57.90945 
L 136.971931 57.84882 
L 137.079392 57.838778 
L 137.083612 57.837449 
L 137.615722 57.785444 
L 137.718962 57.783465 
L 137.729351 57.780237 
L 138.156272 57.7629 
L 138.26633 57.753684 
L 138.268603 57.752985 
L 138.738703 57.724084 
L 138.84941 57.717392 
L 138.851683 57.7167 
L 139.267241 57.706063 
L 139.378273 57.718492 
L 139.385091 57.716434 
L 139.834413 57.695769 
L 139.946419 57.693905 
L 139.948692 57.693226 
L 140.41587 57.668854 
L 140.520409 57.6655 
L 140.529499 57.662811 
L 140.900904 57.668249 
L 141.004469 57.652758 
L 141.011287 57.650757 
L 141.505087 57.620549 
L 141.613846 57.60993 
L 141.617093 57.608987 
L 142.224198 57.548023 
L 142.337177 57.540084 
L 142.877403 57.500506 
L 142.98876 57.485925 
L 143.519246 57.451064 
L 143.633849 57.447767 
L 144.125376 57.425501 
L 144.239006 57.418981 
L 144.786049 57.381874 
L 144.901626 57.380834 
L 145.499316 57.331811 
L 145.611971 57.321167 
L 146.089863 57.306341 
L 146.207388 57.311851 
L 146.752484 57.280506 
L 146.868385 57.279569 
L 147.415754 57.249285 
L 147.531331 57.247356 
L 148.047857 57.226721 
L 148.16181 57.21964 
L 148.717295 57.189346 
L 148.830275 57.17929 
L 149.410433 57.144394 
L 149.526335 57.142593 
L 150.10909 57.108738 
L 150.221421 57.095863 
L 150.774958 57.071019 
L 150.888587 57.062329 
L 151.590491 57.002558 
L 152.115782 56.987816 
L 152.232983 56.989193 
L 152.784247 56.969454 
L 152.899174 56.963991 
L 153.425115 56.950642 
L 153.541991 56.95003 
L 154.175393 56.9125 
L 154.29032 56.906174 
L 154.924047 56.870288 
L 155.039299 56.865034 
L 155.694128 56.825945 
L 155.810679 56.823563 
L 156.47752 56.78344 
L 156.596344 56.787695 
L 157.154101 56.773873 
L 157.269678 56.768819 
L 157.908599 56.738057 
L 158.024176 56.732104 
L 158.66959 56.701441 
L 158.785167 56.695591 
L 159.506875 56.64977 
L 159.622127 56.642169 
L 160.165924 56.636669 
L 160.283774 56.636319 
L 161.083724 56.576002 
L 161.200275 56.572186 
L 161.962564 56.522916 
L 162.078141 56.515623 
L 162.721607 56.493041 
L 162.838159 56.488464 
L 163.445588 56.474654 
L 163.561814 56.468342 
L 164.268588 56.435356 
L 164.385139 56.430009 
L 165.078602 56.401227 
L 165.193854 56.391657 
L 165.793816 56.383066 
L 165.90777 56.37022 
L 166.717784 56.321057 
L 166.83466 56.31593 
L 167.56838 56.283537 
L 167.68623 56.280095 
L 168.416054 56.24991 
L 168.530982 56.239158 
L 169.192953 56.224313 
L 169.309504 56.216872 
L 170.229576 56.153383 
L 170.350023 56.155768 
L 171.087314 56.129385 
L 171.205489 56.125334 
L 172.118418 56.067796 
L 172.237242 56.065441 
L 173.143678 56.011076 
L 173.262502 56.007972 
L 174.120889 55.964149 
L 174.238739 55.957975 
L 175.150694 55.907141 
L 176.008757 55.867488 
L 176.127906 55.863763 
L 177.061288 55.812601 
L 177.178813 55.805213 
L 178.174855 55.745189 
L 178.293678 55.740136 
L 179.179012 55.701601 
L 179.299134 55.698805 
L 180.110122 55.674167 
L 180.232193 55.675816 
L 181.006819 55.659139 
L 181.127591 55.65711 
L 181.952863 55.633183 
L 182.074609 55.633359 
L 182.814822 55.624384 
L 182.936568 55.623802 
L 183.683598 55.614625 
L 183.806318 55.616183 
L 184.630292 55.59561 
L 184.753012 55.596422 
L 185.459136 55.596295 
L 185.582505 55.598494 
L 186.420439 55.578415 
L 186.544132 55.580564 
L 187.384015 55.561222 
L 187.50576 55.55926 
L 188.373563 55.536674 
L 188.495308 55.534026 
L 189.26961 55.527511 
L 189.391031 55.524218 
L 190.211434 55.511571 
L 190.334153 55.510279 
L 191.228902 55.48742 
L 191.351946 55.486116 
L 192.197023 55.471698 
L 192.320392 55.471079 
L 193.22553 55.44877 
L 193.349548 55.448784 
L 194.24592 55.429495 
L 194.36799 55.42565 
L 195.168914 55.421129 
L 195.293581 55.421766 
L 196.251313 55.395591 
L 196.375331 55.394294 
L 197.22333 55.385423 
L 197.344751 55.379097 
L 198.20184 55.369797 
L 198.326832 55.369753 
L 199.252423 55.351737 
L 199.376116 55.348561 
L 200.290344 55.333735 
L 200.412415 55.327523 
L 201.363978 55.308536 
L 201.48897 55.307243 
L 202.398328 55.295564 
L 202.524944 55.296673 
L 203.527153 55.273383 
L 203.649548 55.266695 
L 204.74396 55.23228 
L 204.868303 55.228626 
L 205.89129 55.205448 
L 206.017256 55.204169 
L 207.051931 55.180492 
L 207.176599 55.176281 
L 208.12102 55.165842 
L 208.246012 55.162258 
L 209.260558 55.143701 
L 209.387823 55.14358 
L 210.373475 55.13018 
L 210.501714 55.131174 
L 211.486068 55.11874 
L 211.612683 55.116298 
L 212.721055 55.08994 
L 212.847995 55.088107 
L 214.209597 55.0319 
L 214.335563 55.027877 
L 215.559512 54.990567 
L 215.687751 54.989883 
L 216.909752 54.954651 
L 217.03799 54.953421 
L 218.371673 54.906282 
L 218.501535 54.907228 
L 219.773532 54.869284 
L 219.898525 54.86166 
L 221.003325 54.845364 
L 221.133512 54.845743 
L 222.428885 54.808593 
L 222.559721 54.809489 
L 223.621991 54.80033 
L 223.750879 54.797541 
L 224.7427 54.797515 
L 224.873211 54.796782 
L 225.870551 54.796699 
L 226.003335 54.799017 
L 227.268515 54.770567 
L 227.4 54.770307 
L 228.504476 54.760896 
L 228.636935 54.76162 
L 229.701478 54.75719 
L 229.835885 54.760382 
L 230.849783 54.762486 
L 230.979645 54.758688 
L 232.14548 54.745165 
L 232.27729 54.743844 
L 233.497018 54.725917 
L 233.630452 54.726545 
L 234.739797 54.721448 
L 234.874854 54.723983 
L 236.111139 54.706326 
L 236.245222 54.706894 
L 237.428914 54.695923 
L 237.560399 54.692164 
L 238.675264 54.689395 
L 238.808047 54.687058 
L 239.955053 54.682109 
L 240.087837 54.679293 
L 241.274126 54.671007 
L 241.407884 54.669123 
L 242.754877 54.646048 
L 242.890258 54.646018 
L 244.232381 54.624786 
L 244.367437 54.623333 
L 245.863772 54.588489 
L 245.997205 54.584322 
L 247.308161 54.568863 
L 247.442893 54.566066 
L 248.854817 54.54224 
L 248.989549 54.539011 
L 250.328101 54.523451 
L 250.46543 54.523334 
L 251.847486 54.504909 
L 251.985464 54.504747 
L 253.381805 54.486236 
L 253.518484 54.483882 
L 255.0554 54.453786 
L 255.194353 54.454038 
L 256.781266 54.420876 
L 256.917621 54.416817 
L 258.329545 54.401248 
L 258.4659 54.396784 
L 260.00379 54.370817 
L 260.142093 54.368488 
L 261.60726 54.350675 
L 261.745888 54.347907 
L 263.336048 54.320471 
L 263.474026 54.316484 
L 265.022305 54.294015 
L 265.162231 54.292101 
L 266.65402 54.275678 
L 266.795894 54.275361 
L 268.300345 54.259432 
L 268.443193 54.259908 
L 269.751552 54.26141 
L 269.896024 54.263452 
L 271.386514 54.250709 
L 271.53131 54.252291 
L 272.885446 54.251748 
L 273.030567 54.253291 
L 274.463269 54.247187 
L 274.607091 54.246745 
L 276.104724 54.236326 
L 276.249195 54.235843 
L 277.756892 54.225605 
L 277.902987 54.226642 
L 279.330494 54.223722 
L 279.474316 54.221273 
L 281.117719 54.202256 
L 281.261866 54.199819 
L 282.811444 54.189628 
L 282.960136 54.191664 
L 284.528868 54.180932 
L 284.677235 54.182189 
L 286.177141 54.177665 
L 286.32421 54.176653 
L 287.978326 54.161289 
L 288.125719 54.160271 
L 289.711009 54.151492 
L 289.859701 54.151166 
L 291.51122 54.13836 
L 291.660237 54.138021 
L 293.342923 54.123881 
L 293.490641 54.121367 
L 295.176574 54.108367 
L 295.32624 54.107252 
L 297.07126 54.090936 
L 297.218978 54.087363 
L 299.076004 54.064427 
L 299.225345 54.0619 
L 301.010947 54.045175 
L 301.160612 54.042291 
L 302.979978 54.024583 
L 303.130618 54.022034 
L 305.09965 53.994958 
L 305.250615 53.992068 
L 307.083291 53.975939 
L 307.235554 53.973713 
L 309.081542 53.958023 
L 309.235104 53.956449 
L 310.826237 53.959299 
L 310.982721 53.960359 
L 312.644954 53.95909 
L 312.801762 53.959771 
L 314.59613 53.950762 
L 314.753263 53.951073 
L 316.539514 53.943426 
L 316.697621 53.94402 
L 318.623149 53.928403 
L 318.781905 53.929301 
L 320.476928 53.929884 
L 320.634386 53.928825 
L 322.432974 53.923416 
L 322.591405 53.922643 
L 324.303635 53.923833 
L 324.461742 53.922085 
L 326.477199 53.90474 
L 326.638877 53.90577 
L 328.429998 53.903747 
L 328.589079 53.901651 
L 330.429548 53.897579 
L 330.590901 53.89699 
L 332.285275 53.902651 
L 332.447927 53.90263 
L 334.561106 53.883194 
L 334.726355 53.884949 
L 336.887907 53.863847 
L 337.04991 53.861983 
L 339.124454 53.847731 
L 339.288405 53.847036 
L 341.406778 53.83104 
L 341.571378 53.83001 
L 343.51184 53.826001 
L 343.676116 53.824072 
L 345.987334 53.799106 
L 346.152908 53.797749 
L 348.557302 53.768771 
L 348.725798 53.769102 
L 350.869818 53.756705 
L 351.035392 53.75389 
L 352.994684 53.753072 
L 353.162531 53.751648 
L 355.320837 53.74056 
L 355.492579 53.741609 
L 357.523944 53.738641 
L 357.696336 53.739646 
L 359.769258 53.735296 
L 359.941649 53.735711 
L 361.853542 53.741127 
L 362.023336 53.738777 
L 364.14593 53.733522 
L 364.320919 53.734654 
L 366.550648 53.724546 
L 366.726936 53.726174 
L 368.857971 53.722343 
L 369.030362 53.720203 
L 371.408135 53.7042 
L 371.581825 53.702301 
L 373.888173 53.691162 
L 374.064461 53.690542 
L 376.344187 53.682075 
L 376.521124 53.681432 
L 378.944024 53.666537 
L 379.122259 53.666116 
L 381.631517 53.647872 
L 381.807155 53.644611 
L 384.100841 53.638682 
L 384.280376 53.637948 
L 386.777946 53.622687 
L 386.957155 53.620917 
L 389.571601 53.600913 
L 389.756654 53.602852 
L 392.353244 53.585099 
L 392.536674 53.585011 
L 395.113135 53.569577 
L 395.299487 53.570916 
L 397.589277 53.570593 
L 397.774331 53.570177 
L 398.487273 53.571894 
L 398.487273 53.571894 
" clip-path="url(#pb4806f6ea7)" style="fill: none; stroke: #1f77b4; stroke-width: 1.5; stroke-linecap: square"/>
   </g>
   <g id="line2d_13">
    <path d="M 57.6 57.941352 
L 414.72 57.941352 
" clip-path="url(#pb4806f6ea7)" style="fill: none; stroke: #008000; stroke-width: 1.5; stroke-linecap: square"/>
   </g>
   <g id="line2d_14">
    <path d="M 57.6 284.571416 
L 414.72 284.571416 
" clip-path="url(#pb4806f6ea7)" style="fill: none; stroke: #ff0000; stroke-width: 1.5; stroke-linecap: square"/>
   </g>
   <g id="patch_3">
    <path d="M 57.6 307.584 
L 57.6 41.472 
" style="fill: none; stroke: #000000; stroke-width: 0.8; stroke-linejoin: miter; stroke-linecap: square"/>
   </g>
   <g id="patch_4">
    <path d="M 414.72 307.584 
L 414.72 41.472 
" style="fill: none; stroke: #000000; stroke-width: 0.8; stroke-linejoin: miter; stroke-linecap: square"/>
   </g>
   <g id="patch_5">
    <path d="M 57.6 307.584 
L 414.72 307.584 
" style="fill: none; stroke: #000000; stroke-width: 0.8; stroke-linejoin: miter; stroke-linecap: square"/>
   </g>
   <g id="patch_6">
    <path d="M 57.6 41.472 
L 414.72 41.472 
" style="fill: none; stroke: #000000; stroke-width: 0.8; stroke-linejoin: miter; stroke-linecap: square"/>
   </g>
   <g id="text_15">
    <!-- Hit Rate utilizando a estratégia Fifo (75%) -->
    <g transform="translate(110.4975 35.472) scale(0.12 -0.12)">
     <defs>
      <path id="DejaVuSans-69" d="M 603 3500 
L 1178 3500 
L 1178 0 
L 603 0 
L 603 3500 
z
M 603 4863 
L 1178 4863 
L 1178 4134 
L 603 4134 
L 603 4863 
z
" transform="scale(0.015625)"/>
      <path id="DejaVuSans-74" d="M 1172 4494 
L 1172 3500 
L 2356 3500 
L 2356 3053 
L 1172 3053 
L 1172 1153 
Q 1172 725 1289 603 
Q 1406 481 1766 481 
L 2356 481 
L 2356 0 
L 1766 0 
Q 1100 0 847 248 
Q 594 497 594 1153 
L 594 3053 
L 172 3053 
L 172 3500 
L 594 3500 
L 594 4494 
L 1172 4494 
z
" transform="scale(0.015625)"/>
      <path id="DejaVuSans-52" d="M 2841 2188 
Q 3044 2119 3236 1894 
Q 3428 1669 3622 1275 
L 4263 0 
L 3584 0 
L 2988 1197 
Q 2756 1666 2539 1819 
Q 2322 1972 1947 1972 
L 1259 1972 
L 1259 0 
L 628 0 
L 628 4666 
L 2053 4666 
Q 2853 4666 3247 4331 
Q 3641 3997 3641 3322 
Q 3641 2881 3436 2590 
Q 3231 2300 2841 2188 
z
M 1259 4147 
L 1259 2491 
L 2053 2491 
Q 2509 2491 2742 2702 
Q 2975 2913 2975 3322 
Q 2975 3731 2742 3939 
Q 2509 4147 2053 4147 
L 1259 4147 
z
" transform="scale(0.015625)"/>
      <path id="DejaVuSans-61" d="M 2194 1759 
Q 1497 1759 1228 1600 
Q 959 1441 959 1056 
Q 959 750 1161 570 
Q 1363 391 1709 391 
Q 2188 391 2477 730 
Q 2766 1069 2766 1631 
L 2766 1759 
L 2194 1759 
z
M 3341 1997 
L 3341 0 
L 2766 0 
L 2766 531 
Q 2569 213 2275 61 
Q 1981 -91 1556 -91 
Q 1019 -91 701 211 
Q 384 513 384 1019 
Q 384 1609 779 1909 
Q 1175 2209 1959 2209 
L 2766 2209 
L 2766 2266 
Q 2766 2663 2505 2880 
Q 2244 3097 1772 3097 
Q 1472 3097 1187 3025 
Q 903 2953 641 2809 
L 641 3341 
Q 956 3463 1253 3523 
Q 1550 3584 1831 3584 
Q 2591 3584 2966 3190 
Q 3341 2797 3341 1997 
z
" transform="scale(0.015625)"/>
      <path id="DejaVuSans-75" d="M 544 1381 
L 544 3500 
L 1119 3500 
L 1119 1403 
Q 1119 906 1312 657 
Q 1506 409 1894 409 
Q 2359 409 2629 706 
Q 2900 1003 2900 1516 
L 2900 3500 
L 3475 3500 
L 3475 0 
L 2900 0 
L 2900 538 
Q 2691 219 2414 64 
Q 2138 -91 1772 -91 
Q 1169 -91 856 284 
Q 544 659 544 1381 
z
M 1991 3584 
L 1991 3584 
z
" transform="scale(0.015625)"/>
      <path id="DejaVuSans-6c" d="M 603 4863 
L 1178 4863 
L 1178 0 
L 603 0 
L 603 4863 
z
" transform="scale(0.015625)"/>
      <path id="DejaVuSans-7a" d="M 353 3500 
L 3084 3500 
L 3084 2975 
L 922 459 
L 3084 459 
L 3084 0 
L 275 0 
L 275 525 
L 2438 3041 
L 353 3041 
L 353 3500 
z
" transform="scale(0.015625)"/>
      <path id="DejaVuSans-64" d="M 2906 2969 
L 2906 4863 
L 3481 4863 
L 3481 0 
L 2906 0 
L 2906 525 
Q 2725 213 2448 61 
Q 2172 -91 1784 -91 
Q 1150 -91 751 415 
Q 353 922 353 1747 
Q 353 2572 751 3078 
Q 1150 3584 1784 3584 
Q 2172 3584 2448 3432 
Q 2725 3281 2906 2969 
z
M 947 1747 
Q 947 1113 1208 752 
Q 1469 391 1925 391 
Q 2381 391 2643 752 
Q 2906 1113 2906 1747 
Q 2906 2381 2643 2742 
Q 2381 3103 1925 3103 
Q 1469 3103 1208 2742 
Q 947 2381 947 1747 
z
" transform="scale(0.015625)"/>
      <path id="DejaVuSans-6f" d="M 1959 3097 
Q 1497 3097 1228 2736 
Q 959 2375 959 1747 
Q 959 1119 1226 758 
Q 1494 397 1959 397 
Q 2419 397 2687 759 
Q 2956 1122 2956 1747 
Q 2956 2369 2687 2733 
Q 2419 3097 1959 3097 
z
M 1959 3584 
Q 2709 3584 3137 3096 
Q 3566 2609 3566 1747 
Q 3566 888 3137 398 
Q 2709 -91 1959 -91 
Q 1206 -91 779 398 
Q 353 888 353 1747 
Q 353 2609 779 3096 
Q 1206 3584 1959 3584 
z
" transform="scale(0.015625)"/>
      <path id="DejaVuSans-73" d="M 2834 3397 
L 2834 2853 
Q 2591 2978 2328 3040 
Q 2066 3103 1784 3103 
Q 1356 3103 1142 2972 
Q 928 2841 928 2578 
Q 928 2378 1081 2264 
Q 1234 2150 1697 2047 
L 1894 2003 
Q 2506 1872 2764 1633 
Q 3022 1394 3022 966 
Q 3022 478 2636 193 
Q 2250 -91 1575 -91 
Q 1294 -91 989 -36 
Q 684 19 347 128 
L 347 722 
Q 666 556 975 473 
Q 1284 391 1588 391 
Q 1994 391 2212 530 
Q 2431 669 2431 922 
Q 2431 1156 2273 1281 
Q 2116 1406 1581 1522 
L 1381 1569 
Q 847 1681 609 1914 
Q 372 2147 372 2553 
Q 372 3047 722 3315 
Q 1072 3584 1716 3584 
Q 2034 3584 2315 3537 
Q 2597 3491 2834 3397 
z
" transform="scale(0.015625)"/>
      <path id="DejaVuSans-e9" d="M 3597 1894 
L 3597 1613 
L 953 1613 
Q 991 1019 1311 708 
Q 1631 397 2203 397 
Q 2534 397 2845 478 
Q 3156 559 3463 722 
L 3463 178 
Q 3153 47 2828 -22 
Q 2503 -91 2169 -91 
Q 1331 -91 842 396 
Q 353 884 353 1716 
Q 353 2575 817 3079 
Q 1281 3584 2069 3584 
Q 2775 3584 3186 3129 
Q 3597 2675 3597 1894 
z
M 3022 2063 
Q 3016 2534 2758 2815 
Q 2500 3097 2075 3097 
Q 1594 3097 1305 2825 
Q 1016 2553 972 2059 
L 3022 2063 
z
M 2466 5119 
L 3088 5119 
L 2070 3944 
L 1591 3944 
L 2466 5119 
z
" transform="scale(0.015625)"/>
      <path id="DejaVuSans-67" d="M 2906 1791 
Q 2906 2416 2648 2759 
Q 2391 3103 1925 3103 
Q 1463 3103 1205 2759 
Q 947 2416 947 1791 
Q 947 1169 1205 825 
Q 1463 481 1925 481 
Q 2391 481 2648 825 
Q 2906 1169 2906 1791 
z
M 3481 434 
Q 3481 -459 3084 -895 
Q 2688 -1331 1869 -1331 
Q 1566 -1331 1297 -1286 
Q 1028 -1241 775 -1147 
L 775 -588 
Q 1028 -725 1275 -790 
Q 1522 -856 1778 -856 
Q 2344 -856 2625 -561 
Q 2906 -266 2906 331 
L 2906 616 
Q 2728 306 2450 153 
Q 2172 0 1784 0 
Q 1141 0 747 490 
Q 353 981 353 1791 
Q 353 2603 747 3093 
Q 1141 3584 1784 3584 
Q 2172 3584 2450 3431 
Q 2728 3278 2906 2969 
L 2906 3500 
L 3481 3500 
L 3481 434 
z
" transform="scale(0.015625)"/>
      <path id="DejaVuSans-46" d="M 628 4666 
L 3309 4666 
L 3309 4134 
L 1259 4134 
L 1259 2759 
L 3109 2759 
L 3109 2228 
L 1259 2228 
L 1259 0 
L 628 0 
L 628 4666 
z
" transform="scale(0.015625)"/>
      <path id="DejaVuSans-66" d="M 2375 4863 
L 2375 4384 
L 1825 4384 
Q 1516 4384 1395 4259 
Q 1275 4134 1275 3809 
L 1275 3500 
L 2222 3500 
L 2222 3053 
L 1275 3053 
L 1275 0 
L 697 0 
L 697 3053 
L 147 3053 
L 147 3500 
L 697 3500 
L 697 3744 
Q 697 4328 969 4595 
Q 1241 4863 1831 4863 
L 2375 4863 
z
" transform="scale(0.015625)"/>
      <path id="DejaVuSans-37" d="M 525 4666 
L 3525 4666 
L 3525 4397 
L 1831 0 
L 1172 0 
L 2766 4134 
L 525 4134 
L 525 4666 
z
" transform="scale(0.015625)"/>
      <path id="DejaVuSans-35" d="M 691 4666 
L 3169 4666 
L 3169 4134 
L 1269 4134 
L 1269 2991 
Q 1406 3038 1543 3061 
Q 1681 3084 1819 3084 
Q 2600 3084 3056 2656 
Q 3513 2228 3513 1497 
Q 3513 744 3044 326 
Q 2575 -91 1722 -91 
Q 1428 -91 1123 -41 
Q 819 9 494 109 
L 494 744 
Q 775 591 1075 516 
Q 1375 441 1709 441 
Q 2250 441 2565 725 
Q 2881 1009 2881 1497 
Q 2881 1984 2565 2268 
Q 2250 2553 1709 2553 
Q 1456 2553 1204 2497 
Q 953 2441 691 2322 
L 691 4666 
z
" transform="scale(0.015625)"/>
     </defs>
     <use xlink:href="#DejaVuSans-48"/>
     <use xlink:href="#DejaVuSans-69" x="75.195312"/>
     <use xlink:href="#DejaVuSans-74" x="102.978516"/>
     <use xlink:href="#DejaVuSans-20" x="142.1875"/>
     <use xlink:href="#DejaVuSans-52" x="173.974609"/>
     <use xlink:href="#DejaVuSans-61" x="241.207031"/>
     <use xlink:href="#DejaVuSans-74" x="302.486328"/>
     <use xlink:href="#DejaVuSans-65" x="341.695312"/>
     <use xlink:href="#DejaVuSans-20" x="403.21875"/>
     <use xlink:href="#DejaVuSans-75" x="435.005859"/>
     <use xlink:href="#DejaVuSans-74" x="498.384766"/>
     <use xlink:href="#DejaVuSans-69" x="537.59375"/>
     <use xlink:href="#DejaVuSans-6c" x="565.376953"/>
     <use xlink:href="#DejaVuSans-69" x="593.160156"/>
     <use xlink:href="#DejaVuSans-7a" x="620.943359"/>
     <use xlink:href="#DejaVuSans-61" x="673.433594"/>
     <use xlink:href="#DejaVuSans-6e" x="734.712891"/>
     <use xlink:href="#DejaVuSans-64" x="798.091797"/>
     <use xlink:href="#DejaVuSans-6f" x="861.568359"/>
     <use xlink:href="#DejaVuSans-20" x="922.75"/>
     <use xlink:href="#DejaVuSans-61" x="954.537109"/>
     <use xlink:href="#DejaVuSans-20" x="1015.816406"/>
     <use xlink:href="#DejaVuSans-65" x="1047.603516"/>
     <use xlink:href="#DejaVuSans-73" x="1109.126953"/>
     <use xlink:href="#DejaVuSans-74" x="1161.226562"/>
     <use xlink:href="#DejaVuSans-72" x="1200.435547"/>
     <use xlink:href="#DejaVuSans-61" x="1241.548828"/>
     <use xlink:href="#DejaVuSans-74" x="1302.828125"/>
     <use xlink:href="#DejaVuSans-e9" x="1342.037109"/>
     <use xlink:href="#DejaVuSans-67" x="1403.560547"/>
     <use xlink:href="#DejaVuSans-69" x="1467.037109"/>
     <use xlink:href="#DejaVuSans-61" x="1494.820312"/>
     <use xlink:href="#DejaVuSans-20" x="1556.099609"/>
     <use xlink:href="#DejaVuSans-46" x="1587.886719"/>
     <use xlink:href="#DejaVuSans-69" x="1638.15625"/>
     <use xlink:href="#DejaVuSans-66" x="1665.939453"/>
     <use xlink:href="#DejaVuSans-6f" x="1701.144531"/>
     <use xlink:href="#DejaVuSans-20" x="1762.326172"/>
     <use xlink:href="#DejaVuSans-28" x="1794.113281"/>
     <use xlink:href="#DejaVuSans-37" x="1833.126953"/>
     <use xlink:href="#DejaVuSans-35" x="1896.75"/>
     <use xlink:href="#DejaVuSans-25" x="1960.373047"/>
     <use xlink:href="#DejaVuSans-29" x="2055.392578"/>
    </g>
   </g>
   <g id="legend_1">
    <g id="patch_7">
     <path d="M 286.805938 198.045187 
L 407.72 198.045187 
Q 409.72 198.045187 409.72 196.045187 
L 409.72 153.010812 
Q 409.72 151.010812 407.72 151.010812 
L 286.805938 151.010812 
Q 284.805938 151.010812 284.805938 153.010812 
L 284.805938 196.045187 
Q 284.805938 198.045187 286.805938 198.045187 
z
" style="fill: #ffffff; opacity: 0.8; stroke: #cccccc; stroke-linejoin: miter"/>
    </g>
    <g id="line2d_15">
     <path d="M 288.805938 159.10925 
L 298.805938 159.10925 
L 308.805938 159.10925 
" style="fill: none; stroke: #1f77b4; stroke-width: 1.5; stroke-linecap: square"/>
    </g>
    <g id="text_16">
     <!-- 75% -->
     <g transform="translate(316.805938 162.60925) scale(0.1 -0.1)">
      <use xlink:href="#DejaVuSans-37"/>
      <use xlink:href="#DejaVuSans-35" x="63.623047"/>
      <use xlink:href="#DejaVuSans-25" x="127.246094"/>
     </g>
    </g>
    <g id="line2d_16">
     <path d="M 288.805938 173.787375 
L 298.805938 173.787375 
L 308.805938 173.787375 
" style="fill: none; stroke: #008000; stroke-width: 1.5; stroke-linecap: square"/>
    </g>
    <g id="text_17">
     <!-- Média: 92.23 % -->
     <g transform="translate(316.805938 177.287375) scale(0.1 -0.1)">
      <defs>
       <path id="DejaVuSans-4d" d="M 628 4666 
L 1569 4666 
L 2759 1491 
L 3956 4666 
L 4897 4666 
L 4897 0 
L 4281 0 
L 4281 4097 
L 3078 897 
L 2444 897 
L 1241 4097 
L 1241 0 
L 628 0 
L 628 4666 
z
" transform="scale(0.015625)"/>
       <path id="DejaVuSans-3a" d="M 750 794 
L 1409 794 
L 1409 0 
L 750 0 
L 750 794 
z
M 750 3309 
L 1409 3309 
L 1409 2516 
L 750 2516 
L 750 3309 
z
" transform="scale(0.015625)"/>
       <path id="DejaVuSans-39" d="M 703 97 
L 703 672 
Q 941 559 1184 500 
Q 1428 441 1663 441 
Q 2288 441 2617 861 
Q 2947 1281 2994 2138 
Q 2813 1869 2534 1725 
Q 2256 1581 1919 1581 
Q 1219 1581 811 2004 
Q 403 2428 403 3163 
Q 403 3881 828 4315 
Q 1253 4750 1959 4750 
Q 2769 4750 3195 4129 
Q 3622 3509 3622 2328 
Q 3622 1225 3098 567 
Q 2575 -91 1691 -91 
Q 1453 -91 1209 -44 
Q 966 3 703 97 
z
M 1959 2075 
Q 2384 2075 2632 2365 
Q 2881 2656 2881 3163 
Q 2881 3666 2632 3958 
Q 2384 4250 1959 4250 
Q 1534 4250 1286 3958 
Q 1038 3666 1038 3163 
Q 1038 2656 1286 2365 
Q 1534 2075 1959 2075 
z
" transform="scale(0.015625)"/>
       <path id="DejaVuSans-33" d="M 2597 2516 
Q 3050 2419 3304 2112 
Q 3559 1806 3559 1356 
Q 3559 666 3084 287 
Q 2609 -91 1734 -91 
Q 1441 -91 1130 -33 
Q 819 25 488 141 
L 488 750 
Q 750 597 1062 519 
Q 1375 441 1716 441 
Q 2309 441 2620 675 
Q 2931 909 2931 1356 
Q 2931 1769 2642 2001 
Q 2353 2234 1838 2234 
L 1294 2234 
L 1294 2753 
L 1863 2753 
Q 2328 2753 2575 2939 
Q 2822 3125 2822 3475 
Q 2822 3834 2567 4026 
Q 2313 4219 1838 4219 
Q 1578 4219 1281 4162 
Q 984 4106 628 3988 
L 628 4550 
Q 988 4650 1302 4700 
Q 1616 4750 1894 4750 
Q 2613 4750 3031 4423 
Q 3450 4097 3450 3541 
Q 3450 3153 3228 2886 
Q 3006 2619 2597 2516 
z
" transform="scale(0.015625)"/>
      </defs>
      <use xlink:href="#DejaVuSans-4d"/>
      <use xlink:href="#DejaVuSans-e9" x="86.279297"/>
      <use xlink:href="#DejaVuSans-64" x="147.802734"/>
      <use xlink:href="#DejaVuSans-69" x="211.279297"/>
      <use xlink:href="#DejaVuSans-61" x="239.0625"/>
      <use xlink:href="#DejaVuSans-3a" x="300.341797"/>
      <use xlink:href="#DejaVuSans-20" x="334.033203"/>
      <use xlink:href="#DejaVuSans-39" x="365.820312"/>
      <use xlink:href="#DejaVuSans-32" x="429.443359"/>
      <use xlink:href="#DejaVuSans-2e" x="493.066406"/>
      <use xlink:href="#DejaVuSans-32" x="524.853516"/>
      <use xlink:href="#DejaVuSans-33" x="588.476562"/>
      <use xlink:href="#DejaVuSans-20" x="652.099609"/>
      <use xlink:href="#DejaVuSans-25" x="683.886719"/>
     </g>
    </g>
    <g id="line2d_17">
     <path d="M 288.805938 188.4655 
L 298.805938 188.4655 
L 308.805938 188.4655 
" style="fill: none; stroke: #ff0000; stroke-width: 1.5; stroke-linecap: square"/>
    </g>
    <g id="text_18">
     <!-- Des. pad.: 4.24 % -->
     <g transform="translate(316.805938 191.9655) scale(0.1 -0.1)">
      <defs>
       <path id="DejaVuSans-44" d="M 1259 4147 
L 1259 519 
L 2022 519 
Q 2988 519 3436 956 
Q 3884 1394 3884 2338 
Q 3884 3275 3436 3711 
Q 2988 4147 2022 4147 
L 1259 4147 
z
M 628 4666 
L 1925 4666 
Q 3281 4666 3915 4102 
Q 4550 3538 4550 2338 
Q 4550 1131 3912 565 
Q 3275 0 1925 0 
L 628 0 
L 628 4666 
z
" transform="scale(0.015625)"/>
       <path id="DejaVuSans-70" d="M 1159 525 
L 1159 -1331 
L 581 -1331 
L 581 3500 
L 1159 3500 
L 1159 2969 
Q 1341 3281 1617 3432 
Q 1894 3584 2278 3584 
Q 2916 3584 3314 3078 
Q 3713 2572 3713 1747 
Q 3713 922 3314 415 
Q 2916 -91 2278 -91 
Q 1894 -91 1617 61 
Q 1341 213 1159 525 
z
M 3116 1747 
Q 3116 2381 2855 2742 
Q 2594 3103 2138 3103 
Q 1681 3103 1420 2742 
Q 1159 2381 1159 1747 
Q 1159 1113 1420 752 
Q 1681 391 2138 391 
Q 2594 391 2855 752 
Q 3116 1113 3116 1747 
z
" transform="scale(0.015625)"/>
      </defs>
      <use xlink:href="#DejaVuSans-44"/>
      <use xlink:href="#DejaVuSans-65" x="77.001953"/>
      <use xlink:href="#DejaVuSans-73" x="138.525391"/>
      <use xlink:href="#DejaVuSans-2e" x="190.625"/>
      <use xlink:href="#DejaVuSans-20" x="222.412109"/>
      <use xlink:href="#DejaVuSans-70" x="254.199219"/>
      <use xlink:href="#DejaVuSans-61" x="317.675781"/>
      <use xlink:href="#DejaVuSans-64" x="378.955078"/>
      <use xlink:href="#DejaVuSans-2e" x="442.431641"/>
      <use xlink:href="#DejaVuSans-3a" x="474.21875"/>
      <use xlink:href="#DejaVuSans-20" x="507.910156"/>
      <use xlink:href="#DejaVuSans-34" x="539.697266"/>
      <use xlink:href="#DejaVuSans-2e" x="603.320312"/>
      <use xlink:href="#DejaVuSans-32" x="635.107422"/>
      <use xlink:href="#DejaVuSans-34" x="698.730469"/>
      <use xlink:href="#DejaVuSans-20" x="762.353516"/>
      <use xlink:href="#DejaVuSans-25" x="794.140625"/>
     </g>
    </g>
   </g>
  </g>
 </g>
 <defs>
  <clipPath id="pb4806f6ea7">
   <rect x="57.6" y="41.472" width="357.12" height="266.112"/>
  </clipPath>
 </defs>
</svg>
