<?xml version="1.0" encoding="utf-8" standalone="no"?>
<!DOCTYPE svg PUBLIC "-//W3C//DTD SVG 1.1//EN"
  "http://www.w3.org/Graphics/SVG/1.1/DTD/svg11.dtd">
<svg xmlns:xlink="http://www.w3.org/1999/xlink" width="460.8pt" height="345.6pt" viewBox="0 0 460.8 345.6" xmlns="http://www.w3.org/2000/svg" version="1.1">
 <metadata>
  <rdf:RDF xmlns:dc="http://purl.org/dc/elements/1.1/" xmlns:cc="http://creativecommons.org/ns#" xmlns:rdf="http://www.w3.org/1999/02/22-rdf-syntax-ns#">
   <cc:Work>
    <dc:type rdf:resource="http://purl.org/dc/dcmitype/StillImage"/>
    <dc:date>2023-02-20T21:36:24.399002</dc:date>
    <dc:format>image/svg+xml</dc:format>
    <dc:creator>
     <cc:Agent>
      <dc:title>Matplotlib v3.7.0, https://matplotlib.org/</dc:title>
     </cc:Agent>
    </dc:creator>
   </cc:Work>
  </rdf:RDF>
 </metadata>
 <defs>
  <style type="text/css">*{stroke-linejoin: round; stroke-linecap: butt}</style>
 </defs>
 <g id="figure_1">
  <g id="patch_1">
   <path d="M 0 345.6 
L 460.8 345.6 
L 460.8 0 
L 0 0 
z
" style="fill: #ffffff"/>
  </g>
  <g id="axes_1">
   <g id="patch_2">
    <path d="M 57.6 307.584 
L 414.72 307.584 
L 414.72 41.472 
L 57.6 41.472 
z
" style="fill: #ffffff"/>
   </g>
   <g id="matplotlib.axis_1">
    <g id="xtick_1">
     <g id="line2d_1">
      <defs>
       <path id="m39988338cf" d="M 0 0 
L 0 3.5 
" style="stroke: #000000; stroke-width: 0.8"/>
      </defs>
      <g>
       <use xlink:href="#m39988338cf" x="73.832403" y="307.584" style="stroke: #000000; stroke-width: 0.8"/>
      </g>
     </g>
     <g id="text_1">
      <!-- 0.0 -->
      <g transform="translate(65.88084 322.182437) scale(0.1 -0.1)">
       <defs>
        <path id="DejaVuSans-30" d="M 2034 4250 
Q 1547 4250 1301 3770 
Q 1056 3291 1056 2328 
Q 1056 1369 1301 889 
Q 1547 409 2034 409 
Q 2525 409 2770 889 
Q 3016 1369 3016 2328 
Q 3016 3291 2770 3770 
Q 2525 4250 2034 4250 
z
M 2034 4750 
Q 2819 4750 3233 4129 
Q 3647 3509 3647 2328 
Q 3647 1150 3233 529 
Q 2819 -91 2034 -91 
Q 1250 -91 836 529 
Q 422 1150 422 2328 
Q 422 3509 836 4129 
Q 1250 4750 2034 4750 
z
" transform="scale(0.015625)"/>
        <path id="DejaVuSans-2e" d="M 684 794 
L 1344 794 
L 1344 0 
L 684 0 
L 684 794 
z
" transform="scale(0.015625)"/>
       </defs>
       <use xlink:href="#DejaVuSans-30"/>
       <use xlink:href="#DejaVuSans-2e" x="63.623047"/>
       <use xlink:href="#DejaVuSans-30" x="95.410156"/>
      </g>
     </g>
    </g>
    <g id="xtick_2">
     <g id="line2d_2">
      <g>
       <use xlink:href="#m39988338cf" x="138.763377" y="307.584" style="stroke: #000000; stroke-width: 0.8"/>
      </g>
     </g>
     <g id="text_2">
      <!-- 0.2 -->
      <g transform="translate(130.811814 322.182437) scale(0.1 -0.1)">
       <defs>
        <path id="DejaVuSans-32" d="M 1228 531 
L 3431 531 
L 3431 0 
L 469 0 
L 469 531 
Q 828 903 1448 1529 
Q 2069 2156 2228 2338 
Q 2531 2678 2651 2914 
Q 2772 3150 2772 3378 
Q 2772 3750 2511 3984 
Q 2250 4219 1831 4219 
Q 1534 4219 1204 4116 
Q 875 4013 500 3803 
L 500 4441 
Q 881 4594 1212 4672 
Q 1544 4750 1819 4750 
Q 2544 4750 2975 4387 
Q 3406 4025 3406 3419 
Q 3406 3131 3298 2873 
Q 3191 2616 2906 2266 
Q 2828 2175 2409 1742 
Q 1991 1309 1228 531 
z
" transform="scale(0.015625)"/>
       </defs>
       <use xlink:href="#DejaVuSans-30"/>
       <use xlink:href="#DejaVuSans-2e" x="63.623047"/>
       <use xlink:href="#DejaVuSans-32" x="95.410156"/>
      </g>
     </g>
    </g>
    <g id="xtick_3">
     <g id="line2d_3">
      <g>
       <use xlink:href="#m39988338cf" x="203.694351" y="307.584" style="stroke: #000000; stroke-width: 0.8"/>
      </g>
     </g>
     <g id="text_3">
      <!-- 0.4 -->
      <g transform="translate(195.742788 322.182437) scale(0.1 -0.1)">
       <defs>
        <path id="DejaVuSans-34" d="M 2419 4116 
L 825 1625 
L 2419 1625 
L 2419 4116 
z
M 2253 4666 
L 3047 4666 
L 3047 1625 
L 3713 1625 
L 3713 1100 
L 3047 1100 
L 3047 0 
L 2419 0 
L 2419 1100 
L 313 1100 
L 313 1709 
L 2253 4666 
z
" transform="scale(0.015625)"/>
       </defs>
       <use xlink:href="#DejaVuSans-30"/>
       <use xlink:href="#DejaVuSans-2e" x="63.623047"/>
       <use xlink:href="#DejaVuSans-34" x="95.410156"/>
      </g>
     </g>
    </g>
    <g id="xtick_4">
     <g id="line2d_4">
      <g>
       <use xlink:href="#m39988338cf" x="268.625325" y="307.584" style="stroke: #000000; stroke-width: 0.8"/>
      </g>
     </g>
     <g id="text_4">
      <!-- 0.6 -->
      <g transform="translate(260.673762 322.182437) scale(0.1 -0.1)">
       <defs>
        <path id="DejaVuSans-36" d="M 2113 2584 
Q 1688 2584 1439 2293 
Q 1191 2003 1191 1497 
Q 1191 994 1439 701 
Q 1688 409 2113 409 
Q 2538 409 2786 701 
Q 3034 994 3034 1497 
Q 3034 2003 2786 2293 
Q 2538 2584 2113 2584 
z
M 3366 4563 
L 3366 3988 
Q 3128 4100 2886 4159 
Q 2644 4219 2406 4219 
Q 1781 4219 1451 3797 
Q 1122 3375 1075 2522 
Q 1259 2794 1537 2939 
Q 1816 3084 2150 3084 
Q 2853 3084 3261 2657 
Q 3669 2231 3669 1497 
Q 3669 778 3244 343 
Q 2819 -91 2113 -91 
Q 1303 -91 875 529 
Q 447 1150 447 2328 
Q 447 3434 972 4092 
Q 1497 4750 2381 4750 
Q 2619 4750 2861 4703 
Q 3103 4656 3366 4563 
z
" transform="scale(0.015625)"/>
       </defs>
       <use xlink:href="#DejaVuSans-30"/>
       <use xlink:href="#DejaVuSans-2e" x="63.623047"/>
       <use xlink:href="#DejaVuSans-36" x="95.410156"/>
      </g>
     </g>
    </g>
    <g id="xtick_5">
     <g id="line2d_5">
      <g>
       <use xlink:href="#m39988338cf" x="333.556299" y="307.584" style="stroke: #000000; stroke-width: 0.8"/>
      </g>
     </g>
     <g id="text_5">
      <!-- 0.8 -->
      <g transform="translate(325.604736 322.182437) scale(0.1 -0.1)">
       <defs>
        <path id="DejaVuSans-38" d="M 2034 2216 
Q 1584 2216 1326 1975 
Q 1069 1734 1069 1313 
Q 1069 891 1326 650 
Q 1584 409 2034 409 
Q 2484 409 2743 651 
Q 3003 894 3003 1313 
Q 3003 1734 2745 1975 
Q 2488 2216 2034 2216 
z
M 1403 2484 
Q 997 2584 770 2862 
Q 544 3141 544 3541 
Q 544 4100 942 4425 
Q 1341 4750 2034 4750 
Q 2731 4750 3128 4425 
Q 3525 4100 3525 3541 
Q 3525 3141 3298 2862 
Q 3072 2584 2669 2484 
Q 3125 2378 3379 2068 
Q 3634 1759 3634 1313 
Q 3634 634 3220 271 
Q 2806 -91 2034 -91 
Q 1263 -91 848 271 
Q 434 634 434 1313 
Q 434 1759 690 2068 
Q 947 2378 1403 2484 
z
M 1172 3481 
Q 1172 3119 1398 2916 
Q 1625 2713 2034 2713 
Q 2441 2713 2670 2916 
Q 2900 3119 2900 3481 
Q 2900 3844 2670 4047 
Q 2441 4250 2034 4250 
Q 1625 4250 1398 4047 
Q 1172 3844 1172 3481 
z
" transform="scale(0.015625)"/>
       </defs>
       <use xlink:href="#DejaVuSans-30"/>
       <use xlink:href="#DejaVuSans-2e" x="63.623047"/>
       <use xlink:href="#DejaVuSans-38" x="95.410156"/>
      </g>
     </g>
    </g>
    <g id="xtick_6">
     <g id="line2d_6">
      <g>
       <use xlink:href="#m39988338cf" x="398.487273" y="307.584" style="stroke: #000000; stroke-width: 0.8"/>
      </g>
     </g>
     <g id="text_6">
      <!-- 1.0 -->
      <g transform="translate(390.53571 322.182437) scale(0.1 -0.1)">
       <defs>
        <path id="DejaVuSans-31" d="M 794 531 
L 1825 531 
L 1825 4091 
L 703 3866 
L 703 4441 
L 1819 4666 
L 2450 4666 
L 2450 531 
L 3481 531 
L 3481 0 
L 794 0 
L 794 531 
z
" transform="scale(0.015625)"/>
       </defs>
       <use xlink:href="#DejaVuSans-31"/>
       <use xlink:href="#DejaVuSans-2e" x="63.623047"/>
       <use xlink:href="#DejaVuSans-30" x="95.410156"/>
      </g>
     </g>
    </g>
    <g id="text_7">
     <!-- n -->
     <g transform="translate(232.99125 335.860562) scale(0.1 -0.1)">
      <defs>
       <path id="DejaVuSans-6e" d="M 3513 2113 
L 3513 0 
L 2938 0 
L 2938 2094 
Q 2938 2591 2744 2837 
Q 2550 3084 2163 3084 
Q 1697 3084 1428 2787 
Q 1159 2491 1159 1978 
L 1159 0 
L 581 0 
L 581 3500 
L 1159 3500 
L 1159 2956 
Q 1366 3272 1645 3428 
Q 1925 3584 2291 3584 
Q 2894 3584 3203 3211 
Q 3513 2838 3513 2113 
z
" transform="scale(0.015625)"/>
      </defs>
      <use xlink:href="#DejaVuSans-6e"/>
     </g>
    </g>
    <g id="text_8">
     <!-- 1e6 -->
     <g transform="translate(395.841875 334.860562) scale(0.1 -0.1)">
      <defs>
       <path id="DejaVuSans-65" d="M 3597 1894 
L 3597 1613 
L 953 1613 
Q 991 1019 1311 708 
Q 1631 397 2203 397 
Q 2534 397 2845 478 
Q 3156 559 3463 722 
L 3463 178 
Q 3153 47 2828 -22 
Q 2503 -91 2169 -91 
Q 1331 -91 842 396 
Q 353 884 353 1716 
Q 353 2575 817 3079 
Q 1281 3584 2069 3584 
Q 2775 3584 3186 3129 
Q 3597 2675 3597 1894 
z
M 3022 2063 
Q 3016 2534 2758 2815 
Q 2500 3097 2075 3097 
Q 1594 3097 1305 2825 
Q 1016 2553 972 2059 
L 3022 2063 
z
" transform="scale(0.015625)"/>
      </defs>
      <use xlink:href="#DejaVuSans-31"/>
      <use xlink:href="#DejaVuSans-65" x="63.623047"/>
      <use xlink:href="#DejaVuSans-36" x="125.146484"/>
     </g>
    </g>
   </g>
   <g id="matplotlib.axis_2">
    <g id="ytick_1">
     <g id="line2d_7">
      <defs>
       <path id="m5fdc5229bd" d="M 0 0 
L -3.5 0 
" style="stroke: #000000; stroke-width: 0.8"/>
      </defs>
      <g>
       <use xlink:href="#m5fdc5229bd" x="57.6" y="295.488" style="stroke: #000000; stroke-width: 0.8"/>
      </g>
     </g>
     <g id="text_9">
      <!-- 0 -->
      <g transform="translate(44.2375 299.287219) scale(0.1 -0.1)">
       <use xlink:href="#DejaVuSans-30"/>
      </g>
     </g>
    </g>
    <g id="ytick_2">
     <g id="line2d_8">
      <g>
       <use xlink:href="#m5fdc5229bd" x="57.6" y="244.753533" style="stroke: #000000; stroke-width: 0.8"/>
      </g>
     </g>
     <g id="text_10">
      <!-- 20 -->
      <g transform="translate(37.875 248.552752) scale(0.1 -0.1)">
       <use xlink:href="#DejaVuSans-32"/>
       <use xlink:href="#DejaVuSans-30" x="63.623047"/>
      </g>
     </g>
    </g>
    <g id="ytick_3">
     <g id="line2d_9">
      <g>
       <use xlink:href="#m5fdc5229bd" x="57.6" y="194.019067" style="stroke: #000000; stroke-width: 0.8"/>
      </g>
     </g>
     <g id="text_11">
      <!-- 40 -->
      <g transform="translate(37.875 197.818285) scale(0.1 -0.1)">
       <use xlink:href="#DejaVuSans-34"/>
       <use xlink:href="#DejaVuSans-30" x="63.623047"/>
      </g>
     </g>
    </g>
    <g id="ytick_4">
     <g id="line2d_10">
      <g>
       <use xlink:href="#m5fdc5229bd" x="57.6" y="143.2846" style="stroke: #000000; stroke-width: 0.8"/>
      </g>
     </g>
     <g id="text_12">
      <!-- 60 -->
      <g transform="translate(37.875 147.083819) scale(0.1 -0.1)">
       <use xlink:href="#DejaVuSans-36"/>
       <use xlink:href="#DejaVuSans-30" x="63.623047"/>
      </g>
     </g>
    </g>
    <g id="ytick_5">
     <g id="line2d_11">
      <g>
       <use xlink:href="#m5fdc5229bd" x="57.6" y="92.550133" style="stroke: #000000; stroke-width: 0.8"/>
      </g>
     </g>
     <g id="text_13">
      <!-- 80 -->
      <g transform="translate(37.875 96.349352) scale(0.1 -0.1)">
       <use xlink:href="#DejaVuSans-38"/>
       <use xlink:href="#DejaVuSans-30" x="63.623047"/>
      </g>
     </g>
    </g>
    <g id="ytick_6">
     <g id="line2d_12">
      <g>
       <use xlink:href="#m5fdc5229bd" x="57.6" y="41.815667" style="stroke: #000000; stroke-width: 0.8"/>
      </g>
     </g>
     <g id="text_14">
      <!-- 100 -->
      <g transform="translate(31.5125 45.614885) scale(0.1 -0.1)">
       <use xlink:href="#DejaVuSans-31"/>
       <use xlink:href="#DejaVuSans-30" x="63.623047"/>
       <use xlink:href="#DejaVuSans-30" x="127.246094"/>
      </g>
     </g>
    </g>
    <g id="text_15">
     <!-- Hr (%) -->
     <g transform="translate(25.432812 190.585031) rotate(-90) scale(0.1 -0.1)">
      <defs>
       <path id="DejaVuSans-48" d="M 628 4666 
L 1259 4666 
L 1259 2753 
L 3553 2753 
L 3553 4666 
L 4184 4666 
L 4184 0 
L 3553 0 
L 3553 2222 
L 1259 2222 
L 1259 0 
L 628 0 
L 628 4666 
z
" transform="scale(0.015625)"/>
       <path id="DejaVuSans-72" d="M 2631 2963 
Q 2534 3019 2420 3045 
Q 2306 3072 2169 3072 
Q 1681 3072 1420 2755 
Q 1159 2438 1159 1844 
L 1159 0 
L 581 0 
L 581 3500 
L 1159 3500 
L 1159 2956 
Q 1341 3275 1631 3429 
Q 1922 3584 2338 3584 
Q 2397 3584 2469 3576 
Q 2541 3569 2628 3553 
L 2631 2963 
z
" transform="scale(0.015625)"/>
       <path id="DejaVuSans-20" transform="scale(0.015625)"/>
       <path id="DejaVuSans-28" d="M 1984 4856 
Q 1566 4138 1362 3434 
Q 1159 2731 1159 2009 
Q 1159 1288 1364 580 
Q 1569 -128 1984 -844 
L 1484 -844 
Q 1016 -109 783 600 
Q 550 1309 550 2009 
Q 550 2706 781 3412 
Q 1013 4119 1484 4856 
L 1984 4856 
z
" transform="scale(0.015625)"/>
       <path id="DejaVuSans-25" d="M 4653 2053 
Q 4381 2053 4226 1822 
Q 4072 1591 4072 1178 
Q 4072 772 4226 539 
Q 4381 306 4653 306 
Q 4919 306 5073 539 
Q 5228 772 5228 1178 
Q 5228 1588 5073 1820 
Q 4919 2053 4653 2053 
z
M 4653 2450 
Q 5147 2450 5437 2106 
Q 5728 1763 5728 1178 
Q 5728 594 5436 251 
Q 5144 -91 4653 -91 
Q 4153 -91 3862 251 
Q 3572 594 3572 1178 
Q 3572 1766 3864 2108 
Q 4156 2450 4653 2450 
z
M 1428 4353 
Q 1159 4353 1004 4120 
Q 850 3888 850 3481 
Q 850 3069 1003 2837 
Q 1156 2606 1428 2606 
Q 1700 2606 1854 2837 
Q 2009 3069 2009 3481 
Q 2009 3884 1853 4118 
Q 1697 4353 1428 4353 
z
M 4250 4750 
L 4750 4750 
L 1831 -91 
L 1331 -91 
L 4250 4750 
z
M 1428 4750 
Q 1922 4750 2215 4408 
Q 2509 4066 2509 3481 
Q 2509 2891 2217 2550 
Q 1925 2209 1428 2209 
Q 931 2209 642 2551 
Q 353 2894 353 3481 
Q 353 4063 643 4406 
Q 934 4750 1428 4750 
z
" transform="scale(0.015625)"/>
       <path id="DejaVuSans-29" d="M 513 4856 
L 1013 4856 
Q 1481 4119 1714 3412 
Q 1947 2706 1947 2009 
Q 1947 1309 1714 600 
Q 1481 -109 1013 -844 
L 513 -844 
Q 928 -128 1133 580 
Q 1338 1288 1338 2009 
Q 1338 2731 1133 3434 
Q 928 4138 513 4856 
z
" transform="scale(0.015625)"/>
      </defs>
      <use xlink:href="#DejaVuSans-48"/>
      <use xlink:href="#DejaVuSans-72" x="75.195312"/>
      <use xlink:href="#DejaVuSans-20" x="116.308594"/>
      <use xlink:href="#DejaVuSans-28" x="148.095703"/>
      <use xlink:href="#DejaVuSans-25" x="187.109375"/>
      <use xlink:href="#DejaVuSans-29" x="282.128906"/>
     </g>
    </g>
   </g>
   <g id="line2d_13">
    <path d="M 73.832727 295.488 
L 73.835649 295.488 
L 73.947655 206.631024 
L 74.074595 183.804073 
L 74.07492 183.953784 
L 74.155759 170.054042 
L 74.284322 161.995442 
L 74.157382 170.173867 
L 74.286919 162.033506 
L 74.292439 162.202537 
L 74.378147 156.270207 
L 74.512555 151.207318 
L 74.38529 156.430252 
L 74.512879 151.276187 
L 74.513529 151.413728 
L 74.608977 148.228611 
L 74.609626 148.24568 
L 74.728125 144.277951 
L 74.747605 144.526856 
L 74.748579 144.687396 
L 74.843378 142.371934 
L 74.8463 142.488319 
L 74.989473 139.283369 
L 74.996615 139.463594 
L 75.088817 137.737771 
L 75.089142 137.778534 
L 75.238158 134.694079 
L 75.093687 137.824505 
L 75.239457 134.783972 
L 75.240106 134.858114 
L 75.332957 132.777592 
L 75.470936 130.19378 
L 75.333931 132.828297 
L 75.48587 130.242295 
L 75.637159 127.438066 
L 75.646249 127.599239 
L 75.654041 127.639212 
L 75.739425 125.955579 
L 75.73975 125.98444 
L 75.742347 126.042472 
L 75.889091 124.277197 
L 75.896558 124.337986 
L 75.984215 123.004594 
L 75.985514 123.070385 
L 76.135504 121.068154 
L 76.146218 121.163917 
L 76.155308 121.207944 
L 76.239718 119.860796 
L 76.240043 119.884482 
L 76.390358 118.548488 
L 76.242965 119.960686 
L 76.391008 118.593397 
L 76.392956 118.599316 
L 76.565347 116.678691 
L 76.57184 116.741761 
L 76.668263 116.226992 
L 76.669237 116.230476 
L 76.815656 115.25585 
L 76.7043 116.239602 
L 76.815981 115.275464 
L 76.816306 115.295074 
L 76.912728 114.43863 
L 76.913377 114.450057 
L 77.087068 112.926925 
L 76.915325 114.484308 
L 77.087392 112.945136 
L 77.092262 113.01573 
L 77.187711 112.51204 
L 77.190957 112.541789 
L 77.192905 112.549807 
L 77.359128 111.340849 
L 77.359453 111.357801 
L 77.453928 110.49869 
L 77.63541 109.104998 
L 77.455876 110.507225 
L 77.636059 109.136818 
L 77.636708 109.168626 
L 77.737351 108.761371 
L 77.739949 108.801182 
L 77.899679 107.830818 
L 77.742546 108.84094 
L 77.906497 107.841634 
L 77.909418 107.875118 
L 78.006166 107.369886 
L 78.007464 107.388949 
L 78.19966 106.105978 
L 78.201608 106.133865 
L 78.297706 105.579591 
L 78.29868 105.584126 
L 78.485681 104.490362 
L 78.486655 104.512637 
L 78.581454 103.920037 
L 78.583077 103.933489 
L 78.750599 103.123721 
L 78.754495 103.142124 
L 78.757742 103.185308 
L 78.854813 102.720641 
L 78.859359 102.731105 
L 79.029153 101.94517 
L 79.029478 101.957261 
L 79.124602 101.374195 
L 79.128498 101.377035 
L 79.298617 100.668371 
L 79.306084 100.708455 
L 79.401208 100.412319 
L 79.402831 100.424813 
L 79.589832 99.579659 
L 79.414194 100.438292 
L 79.593403 99.586738 
L 79.593728 99.597778 
L 79.694046 99.255154 
L 79.694696 99.26284 
L 79.887865 98.46385 
L 79.890787 98.5045 
L 79.983314 98.080177 
L 79.987534 98.095118 
L 80.158627 97.536354 
L 79.993378 98.162045 
L 80.159277 97.543652 
L 80.159601 97.55381 
L 80.253102 97.191044 
L 80.259595 97.211984 
L 80.454713 96.425424 
L 80.459582 96.447431 
L 80.464452 96.494243 
L 80.558602 96.083938 
L 80.560875 96.090089 
L 80.764433 95.316042 
L 80.764758 95.325417 
L 80.864102 94.991047 
L 81.079998 94.191054 
L 81.080323 94.200072 
L 81.082271 94.220077 
L 81.178368 93.84843 
L 81.179018 93.855041 
L 81.386147 93.158528 
L 81.387121 93.173712 
L 81.390368 93.184341 
L 81.485817 92.844988 
L 81.686453 92.233449 
L 81.48679 92.860015 
L 81.687427 92.248167 
L 81.690024 92.262941 
L 81.787096 91.978617 
L 81.788395 91.991133 
L 81.983512 91.456875 
L 81.790992 92.016152 
L 81.983837 91.465001 
L 81.984162 91.473127 
L 82.07961 91.128082 
L 82.081558 91.136405 
L 82.314336 90.394525 
L 82.083181 91.136683 
L 82.316284 90.402786 
L 82.317907 90.422609 
L 82.416277 90.134206 
L 82.425368 90.15018 
L 82.641913 89.494921 
L 82.642237 89.502513 
L 82.740283 89.245745 
L 82.742556 89.252134 
L 82.743854 89.254463 
L 82.942218 88.79102 
L 82.954555 88.808744 
L 83.043511 88.569487 
L 83.249991 88.069087 
L 83.254536 88.072997 
L 83.254861 88.080144 
L 83.352582 87.830165 
L 83.354855 87.836481 
L 83.539908 87.476687 
L 83.357452 87.841225 
L 83.540557 87.482116 
L 83.540882 87.489072 
L 83.637954 87.19649 
L 83.638603 87.201883 
L 83.840538 86.78807 
L 83.860342 86.797807 
L 83.94248 86.595269 
L 83.944753 86.601494 
L 84.228826 85.829266 
L 84.22915 85.835813 
L 84.327521 85.595842 
L 84.328495 85.599626 
L 84.329793 85.602055 
L 84.54926 85.151069 
L 84.549585 85.157441 
L 84.645358 84.948722 
L 84.650552 84.958463 
L 84.889823 84.449422 
L 84.890472 84.454366 
L 84.890797 84.460562 
L 84.989492 84.223569 
L 85.191427 83.817662 
L 84.990141 84.228482 
L 85.208959 83.825328 
L 85.210582 83.833811 
L 85.308303 83.605182 
L 85.552443 83.128159 
L 85.310251 83.61244 
L 85.552768 83.134041 
L 85.553093 83.139923 
L 85.645944 82.961518 
L 85.65471 82.965842 
L 85.892357 82.523705 
L 85.894954 82.528594 
L 85.895279 82.534326 
L 85.992351 82.297312 
L 85.993325 82.300842 
L 85.994948 82.308981 
L 86.213116 81.95462 
L 86.215389 81.960555 
L 86.313759 81.776119 
L 86.54816 81.389224 
L 86.549134 81.39267 
L 86.551731 81.404013 
L 86.639063 81.217644 
L 86.650426 81.22769 
L 86.900086 80.808728 
L 86.901709 80.810186 
L 86.902034 80.815519 
L 87.002677 80.642554 
L 87.259479 80.212765 
L 87.008845 80.649379 
L 87.26305 80.214819 
L 87.263375 80.220023 
L 87.365316 80.070694 
L 87.365641 80.075861 
L 87.584458 79.78447 
L 87.586082 79.791965 
L 87.687374 79.656981 
L 87.690296 79.660888 
L 87.918203 79.34673 
L 87.920476 79.352367 
L 88.017548 79.165161 
L 88.017873 79.170112 
L 88.018522 79.174208 
L 88.276298 78.798263 
L 88.280194 78.805392 
L 88.380187 78.687007 
L 88.644781 78.317483 
L 88.645106 78.322243 
L 88.745424 78.165022 
L 89.046054 77.71198 
L 89.048652 77.716678 
L 89.0506 77.722906 
L 89.150269 77.580664 
L 89.445055 77.17439 
L 89.44538 77.17893 
L 89.546023 77.031047 
L 89.890806 76.510853 
L 89.896326 76.514314 
L 89.89665 76.518739 
L 89.996969 76.369599 
L 90.269029 76.048179 
L 90.269354 76.052513 
L 90.371296 75.926135 
L 90.623877 75.653359 
L 90.625176 75.655646 
L 90.626474 75.662837 
L 90.719326 75.535252 
L 90.727767 75.542778 
L 90.994958 75.252831 
L 90.995282 75.256997 
L 91.098198 75.14829 
L 91.330975 74.935489 
L 91.331625 74.938967 
L 91.331949 74.943059 
L 91.431943 74.801633 
L 91.728353 74.476175 
L 91.728678 74.480185 
L 91.729652 74.48761 
L 91.831269 74.376361 
L 91.832243 74.38375 
L 92.161443 74.014475 
L 92.161767 74.018398 
L 92.257216 73.90074 
L 92.263384 73.903407 
L 92.264683 73.905614 
L 92.576027 73.579083 
L 92.580572 73.58456 
L 92.676021 73.445492 
L 92.971457 73.163785 
L 92.971781 73.167557 
L 93.074372 73.064599 
L 93.4013 72.744542 
L 93.401624 72.748238 
L 93.501943 72.649092 
L 93.504215 72.649716 
L 93.505514 72.651867 
L 93.740564 72.482219 
L 93.740889 72.485856 
L 93.840233 72.370614 
L 93.842181 72.371755 
L 94.13015 72.128942 
L 94.131773 72.130575 
L 94.132098 72.134148 
L 94.235013 72.041761 
L 94.585641 71.717596 
L 94.585965 71.721097 
L 94.686933 71.6079 
L 95.007367 71.343745 
L 95.007692 71.347182 
L 95.101842 71.23969 
L 95.108984 71.241425 
L 95.466429 70.934156 
L 95.466754 70.937526 
L 95.56902 70.842189 
L 95.571293 70.846732 
L 95.943023 70.526261 
L 95.943347 70.529564 
L 96.045289 70.431155 
L 96.423836 70.122998 
L 96.424161 70.126237 
L 96.528051 70.051074 
L 96.840693 69.839213 
L 96.841018 69.842397 
L 96.944583 69.763132 
L 97.330273 69.46913 
L 97.331896 69.477733 
L 97.43611 69.414915 
L 97.74226 69.223411 
L 97.742584 69.226483 
L 97.751999 69.229466 
L 97.846474 69.173058 
L 97.848747 69.173899 
L 98.245475 68.887858 
L 98.2458 68.890871 
L 98.348715 68.810805 
L 98.350338 68.812377 
L 98.79544 68.482769 
L 98.800635 68.490414 
L 98.900628 68.423435 
L 99.23762 68.226091 
L 99.237945 68.228995 
L 99.334043 68.152067 
L 99.34086 68.151485 
L 99.775249 67.859715 
L 99.775573 67.862564 
L 99.879463 67.793454 
L 100.26353 67.55307 
L 99.880112 67.795968 
L 100.267101 67.562055 
L 100.271321 67.56729 
L 100.331382 67.524461 
L 100.373912 67.520501 
L 100.375211 67.522346 
L 100.848233 67.215519 
L 100.848558 67.218262 
L 100.953421 67.159518 
L 101.344955 66.945521 
L 101.346903 66.952721 
L 101.445273 66.904926 
L 101.452416 66.910365 
L 101.820899 66.721217 
L 101.821873 66.723293 
L 101.822198 66.725947 
L 101.925438 66.678375 
L 101.928035 66.679008 
L 102.358203 66.445534 
L 102.358527 66.448141 
L 102.46404 66.397635 
L 102.464365 66.400232 
L 102.960113 66.120348 
L 102.969203 66.124071 
L 103.05686 66.076522 
L 103.066275 66.07716 
L 103.513 65.850732 
L 103.513325 65.853244 
L 103.616565 65.786513 
L 103.964595 65.646304 
L 103.986347 65.653694 
L 104.072056 65.613363 
L 104.428202 65.470935 
L 104.428852 65.473124 
L 104.431124 65.479442 
L 104.534689 65.426443 
L 104.826554 65.339619 
L 104.854474 65.352959 
L 104.933365 65.314438 
L 104.935638 65.318017 
L 104.936612 65.319928 
L 105.438204 65.077194 
L 105.440801 65.080493 
L 105.541768 65.032386 
L 105.544041 65.033319 
L 105.947912 64.87469 
L 105.95895 64.877021 
L 106.053425 64.827294 
L 106.554367 64.605882 
L 106.554692 64.608172 
L 106.657283 64.55199 
L 106.658906 64.553374 
L 107.070568 64.403082 
L 107.103034 64.40827 
L 107.175107 64.376723 
L 107.179328 64.378807 
L 107.609495 64.220679 
L 107.638065 64.228542 
L 107.707216 64.187651 
L 107.717281 64.190728 
L 108.265947 63.960962 
L 108.267895 63.964492 
L 108.348085 63.934508 
L 108.374382 63.936743 
L 108.731827 63.837604 
L 108.841885 63.829537 
L 108.79968 63.823134 
L 108.842859 63.828924 
L 109.244133 63.702737 
L 108.843508 63.830868 
L 109.246081 63.706184 
L 109.314583 63.701059 
L 109.35484 63.683212 
L 109.775917 63.553052 
L 109.780462 63.557177 
L 109.882079 63.514167 
L 110.317442 63.379395 
L 110.317766 63.38146 
L 110.318416 63.385591 
L 110.425876 63.353756 
L 110.844032 63.235027 
L 110.844356 63.237064 
L 110.937208 63.198995 
L 110.950519 63.197983 
L 111.288809 63.127995 
L 111.289134 63.130009 
L 111.303418 63.132873 
L 111.392374 63.097734 
L 111.39627 63.097719 
L 111.896563 62.941325 
L 111.914744 62.944215 
L 112.003374 62.9081 
L 112.003699 62.910079 
L 112.497499 62.762085 
L 112.585156 62.759334 
L 112.506265 62.759467 
L 112.607882 62.749183 
L 113.092267 62.612573 
L 113.102656 62.61546 
L 113.200377 62.586841 
L 113.644829 62.477005 
L 113.647102 62.482031 
L 113.740927 62.452017 
L 113.753589 62.455786 
L 114.14707 62.376903 
L 114.16168 62.379665 
L 114.255505 62.352307 
L 114.25583 62.35418 
L 114.745409 62.229185 
L 114.760993 62.229461 
L 114.838261 62.205054 
L 114.853844 62.205339 
L 115.366474 62.072651 
L 115.366799 62.074476 
L 115.471338 62.037459 
L 115.472961 62.038648 
L 115.904427 61.952617 
L 116.00572 61.939402 
L 115.981695 61.933287 
L 116.014161 61.935375 
L 116.45212 61.846498 
L 116.452445 61.848278 
L 116.452769 61.850057 
L 116.533284 61.825782 
L 116.561204 61.826199 
L 117.163439 61.665921 
L 117.179672 61.666087 
L 117.269276 61.63841 
L 117.271224 61.639417 
L 117.787101 61.52292 
L 117.271874 61.641016 
L 117.787425 61.524648 
L 117.78775 61.526376 
L 117.881251 61.497624 
L 117.895211 61.496996 
L 118.4231 61.3822 
L 118.423424 61.383905 
L 118.530236 61.351884 
L 119.044489 61.248074 
L 119.049684 61.249484 
L 119.107148 61.232094 
L 119.153573 61.228559 
L 119.644127 61.137535 
L 119.751587 61.121014 
L 119.723342 61.120334 
L 119.75386 61.120058 
L 120.36551 60.983122 
L 120.446024 60.976516 
L 120.402196 60.975096 
L 120.475892 60.969543 
L 121.000859 60.873349 
L 121.001184 60.874964 
L 121.077153 60.849546 
L 121.108969 60.848931 
L 121.668674 60.743303 
L 121.776785 60.726389 
L 121.750812 60.726327 
L 121.778408 60.725748 
L 122.318309 60.630682 
L 122.342009 60.629978 
L 122.402394 60.611673 
L 122.427393 60.610478 
L 123.019563 60.499734 
L 123.100727 60.478983 
L 123.128972 60.481655 
L 123.627317 60.410619 
L 123.736401 60.394727 
L 123.737375 60.394364 
L 124.378569 60.27274 
L 124.478562 60.267195 
L 124.49025 60.264564 
L 125.13956 60.145052 
L 125.218451 60.137746 
L 125.249293 60.128357 
L 125.95282 59.994938 
L 125.978793 59.992201 
L 126.028465 59.974903 
L 126.06158 59.97285 
L 126.762509 59.845985 
L 126.864776 59.832957 
L 126.872567 59.83031 
L 127.49071 59.736358 
L 127.59395 59.727986 
L 127.602067 59.725283 
L 128.254623 59.62403 
L 128.362733 59.62346 
L 128.367928 59.621764 
L 129.007498 59.528802 
L 129.092233 59.519524 
L 129.117556 59.512905 
L 129.736673 59.430348 
L 129.849003 59.43031 
L 129.850626 59.4298 
L 130.342803 59.390063 
L 130.453835 59.378873 
L 130.45416 59.378772 
L 131.005749 59.323125 
L 131.115157 59.304064 
L 131.758623 59.223535 
L 131.863811 59.216107 
L 131.870629 59.214063 
L 132.423516 59.163739 
L 132.526107 59.158673 
L 132.535847 59.155795 
L 133.117628 59.099542 
L 133.217947 59.088373 
L 133.228336 59.085352 
L 133.725382 59.056161 
L 133.836739 59.046126 
L 133.837388 59.04594 
L 134.482478 58.975379 
L 134.573056 58.972839 
L 134.594808 58.966697 
L 135.241196 58.898818 
L 135.331775 58.891066 
L 135.352228 58.885389 
L 136.074585 58.799753 
L 136.183344 58.799186 
L 136.188864 58.797683 
L 136.91187 58.715318 
L 137.021928 58.70413 
L 137.023551 58.703696 
L 137.673186 58.644078 
L 137.785516 58.635123 
L 138.509821 58.55882 
L 138.624424 58.557169 
L 139.318536 58.491646 
L 139.431516 58.484268 
L 140.203546 58.402054 
L 140.315227 58.389056 
L 141.053817 58.318445 
L 141.167771 58.313755 
L 141.997588 58.224066 
L 142.110568 58.215008 
L 142.860846 58.14891 
L 142.972527 58.13563 
L 143.77897 58.059324 
L 143.892924 58.054063 
L 144.741896 57.971143 
L 144.856824 57.968192 
L 145.540222 57.925657 
L 145.651579 57.910998 
L 146.521329 57.829444 
L 146.633985 57.818239 
L 147.411858 57.760989 
L 147.52711 57.758403 
L 148.292322 57.706272 
L 148.406925 57.700626 
L 149.416602 57.598478 
L 149.531205 57.593079 
L 150.396735 57.525513 
L 150.511013 57.51821 
L 151.321352 57.465596 
L 151.434981 57.456477 
L 152.233307 57.408559 
L 152.348884 57.404487 
L 153.167989 57.354613 
L 153.286163 57.358451 
L 154.241622 57.284379 
L 154.355901 57.275721 
L 155.288634 57.208896 
L 155.403562 57.202352 
L 156.314219 57.143303 
L 156.427523 57.13125 
L 157.28169 57.085016 
L 157.399215 57.085223 
L 158.255006 57.041645 
L 158.369934 57.03361 
L 159.316952 56.975813 
L 159.433828 56.973394 
L 160.329226 56.92693 
L 160.445127 56.920972 
L 161.322994 56.880482 
L 161.438571 56.873769 
L 162.338839 56.831331 
L 162.455066 56.825578 
L 163.266703 56.800783 
L 163.38228 56.793398 
L 164.244239 56.761734 
L 164.359816 56.753569 
L 165.381505 56.697511 
L 165.496757 56.687784 
L 166.42527 56.648938 
L 166.541497 56.64189 
L 167.495333 56.601693 
L 167.613507 56.598869 
L 168.705646 56.538935 
L 168.823496 56.535407 
L 169.703635 56.511088 
L 169.821809 56.507582 
L 170.907131 56.453611 
L 171.023682 56.445378 
L 172.082057 56.398429 
L 173.26867 56.334561 
L 173.387819 56.332075 
L 174.398794 56.296698 
L 174.517293 56.291925 
L 175.603913 56.247415 
L 175.722736 56.243517 
L 176.915518 56.186824 
L 177.033043 56.179236 
L 178.161544 56.133594 
L 178.280367 56.128344 
L 179.191998 56.115499 
L 179.312121 56.113268 
L 180.461724 56.069568 
L 181.717164 56.013622 
L 181.836962 56.009312 
L 182.987214 55.969897 
L 183.107661 55.966354 
L 184.348492 55.91702 
L 184.468939 55.913578 
L 185.639319 55.875755 
L 185.759442 55.870966 
L 186.984689 55.828674 
L 187.105461 55.824639 
L 188.438818 55.771601 
L 188.561538 55.771029 
L 189.567968 55.75997 
L 189.691661 55.760721 
L 190.945479 55.721127 
L 191.064952 55.712576 
L 192.171375 55.693298 
L 192.290848 55.684864 
L 193.638166 55.638878 
L 193.760236 55.635109 
L 194.987107 55.605288 
L 195.110801 55.604126 
L 196.411693 55.567978 
L 196.533438 55.562387 
L 197.824266 55.529534 
L 197.94731 55.525891 
L 199.159896 55.503637 
L 199.282616 55.498782 
L 200.777327 55.447309 
L 200.901345 55.444375 
L 202.192497 55.417641 
L 203.400213 55.400818 
L 203.526504 55.400924 
L 205.004008 55.357775 
L 205.128676 55.354325 
L 206.273409 55.34737 
L 206.400998 55.349256 
L 207.779158 55.320067 
L 207.905124 55.317822 
L 209.300816 55.288749 
L 209.426132 55.284801 
L 210.770853 55.262593 
L 210.89552 55.256971 
L 212.326599 55.228091 
L 212.455162 55.228722 
L 213.839491 55.206099 
L 213.966106 55.202815 
L 215.558538 55.162224 
L 215.686452 55.160639 
L 217.128569 55.136109 
L 217.255185 55.131815 
L 218.806061 55.099002 
L 218.933326 55.095297 
L 220.502058 55.062756 
L 220.630297 55.06016 
L 222.305191 55.020579 
L 222.43343 55.016943 
L 224.104104 54.979785 
L 224.232992 54.976717 
L 225.720236 54.957917 
L 225.849124 54.954359 
L 227.540251 54.919642 
L 227.671736 54.919149 
L 229.268064 54.894253 
L 229.397601 54.890245 
L 230.923804 54.873314 
L 231.055289 54.871822 
L 232.762324 54.841445 
L 232.894784 54.840435 
L 234.596624 54.812183 
L 234.728759 54.810212 
L 236.530594 54.776144 
L 236.663377 54.774679 
L 238.284379 54.757116 
L 238.418137 54.756105 
L 240.176468 54.72923 
L 240.310226 54.727759 
L 242.073426 54.702088 
L 242.207833 54.700606 
L 243.897337 54.682528 
L 244.031095 54.679675 
L 245.660213 54.667947 
L 245.795594 54.666449 
L 247.807156 54.627214 
L 247.943511 54.626641 
L 249.644053 54.612808 
L 249.779434 54.609983 
L 251.673471 54.583473 
L 251.810475 54.582436 
L 253.634061 54.562882 
L 253.770741 54.560522 
L 255.58264 54.543576 
L 257.474729 54.522312 
L 257.61433 54.522518 
L 259.557714 54.499527 
L 261.473503 54.479752 
L 261.615052 54.480732 
L 263.619147 54.456779 
L 263.759722 54.456095 
L 266.028735 54.416133 
L 266.168337 54.41341 
L 268.181521 54.392667 
L 268.322746 54.391156 
L 270.143736 54.384419 
L 270.283337 54.380099 
L 272.483523 54.350388 
L 272.626696 54.349646 
L 274.650594 54.333233 
L 274.792469 54.330133 
L 276.904673 54.309871 
L 277.04882 54.308708 
L 279.113625 54.292973 
L 279.258746 54.292177 
L 281.459581 54.269799 
L 281.606 54.269743 
L 283.981175 54.238321 
L 284.127919 54.237876 
L 286.180712 54.227547 
L 286.326807 54.225602 
L 288.52959 54.207984 
L 288.679256 54.209317 
L 291.178774 54.176295 
L 291.326492 54.174337 
L 293.724393 54.149304 
L 293.873409 54.148063 
L 296.13528 54.132242 
L 296.284946 54.13099 
L 298.746804 54.105673 
L 298.898093 54.105096 
L 301.329433 54.083443 
L 301.480722 54.082164 
L 303.668896 54.075385 
L 303.821484 54.074771 
L 306.37879 54.04939 
L 306.533001 54.049423 
L 309.077321 54.026684 
L 309.230883 54.025365 
L 311.773256 54.004626 
L 311.929415 54.004933 
L 314.226348 53.998437 
L 314.382182 53.997734 
L 317.011237 53.975759 
L 317.167721 53.974708 
L 319.617242 53.963433 
L 319.773401 53.961413 
L 322.238181 53.950637 
L 322.397586 53.950806 
L 324.822433 53.943489 
L 324.983787 53.944879 
L 327.701797 53.924668 
L 327.862177 53.924155 
L 330.47435 53.910659 
L 330.63473 53.909198 
L 333.207295 53.899112 
L 333.368324 53.897326 
L 335.81265 53.894628 
L 335.974653 53.893132 
L 338.687794 53.879177 
L 338.849796 53.876774 
L 341.52755 53.865958 
L 341.694422 53.867059 
L 344.548463 53.849828 
L 344.715011 53.849726 
L 347.845983 53.821623 
L 348.014154 53.822068 
L 351.026302 53.801232 
L 351.193824 53.799931 
L 353.927742 53.792924 
L 354.096238 53.7916 
L 357.284999 53.76641 
L 357.454793 53.765353 
L 360.155922 53.762497 
L 360.327339 53.761961 
L 363.480712 53.741654 
L 363.655052 53.742437 
L 366.943806 53.718196 
L 367.117496 53.717605 
L 370.275738 53.700541 
L 370.450403 53.699651 
L 373.674875 53.681443 
L 373.849864 53.680012 
L 377.005185 53.666277 
L 377.18342 53.666373 
L 380.600413 53.643905 
L 380.780271 53.644218 
L 384.076492 53.628177 
L 384.254079 53.62593 
L 387.349338 53.619133 
L 387.531145 53.619118 
L 391.038391 53.598174 
L 391.218575 53.595896 
L 394.262864 53.59398 
L 394.444346 53.591936 
L 398.063923 53.569947 
L 398.248002 53.568862 
L 398.487273 53.570093 
L 398.487273 53.570093 
" clip-path="url(#pe281447775)" style="fill: none; stroke: #1f77b4; stroke-width: 1.5; stroke-linecap: square"/>
   </g>
   <g id="line2d_14">
    <path d="M 57.6 58.386061 
L 414.72 58.386061 
" clip-path="url(#pe281447775)" style="fill: none; stroke: #008000; stroke-width: 1.5; stroke-linecap: square"/>
   </g>
   <g id="line2d_15">
    <path d="M 57.6 283.901487 
L 414.72 283.901487 
" clip-path="url(#pe281447775)" style="fill: none; stroke: #ff0000; stroke-width: 1.5; stroke-linecap: square"/>
   </g>
   <g id="patch_3">
    <path d="M 57.6 307.584 
L 57.6 41.472 
" style="fill: none; stroke: #000000; stroke-width: 0.8; stroke-linejoin: miter; stroke-linecap: square"/>
   </g>
   <g id="patch_4">
    <path d="M 414.72 307.584 
L 414.72 41.472 
" style="fill: none; stroke: #000000; stroke-width: 0.8; stroke-linejoin: miter; stroke-linecap: square"/>
   </g>
   <g id="patch_5">
    <path d="M 57.6 307.584 
L 414.72 307.584 
" style="fill: none; stroke: #000000; stroke-width: 0.8; stroke-linejoin: miter; stroke-linecap: square"/>
   </g>
   <g id="patch_6">
    <path d="M 57.6 41.472 
L 414.72 41.472 
" style="fill: none; stroke: #000000; stroke-width: 0.8; stroke-linejoin: miter; stroke-linecap: square"/>
   </g>
   <g id="text_16">
    <!-- Hit Rate utilizando a estratégia LFU (75%) -->
    <g transform="translate(109.778437 35.472) scale(0.12 -0.12)">
     <defs>
      <path id="DejaVuSans-69" d="M 603 3500 
L 1178 3500 
L 1178 0 
L 603 0 
L 603 3500 
z
M 603 4863 
L 1178 4863 
L 1178 4134 
L 603 4134 
L 603 4863 
z
" transform="scale(0.015625)"/>
      <path id="DejaVuSans-74" d="M 1172 4494 
L 1172 3500 
L 2356 3500 
L 2356 3053 
L 1172 3053 
L 1172 1153 
Q 1172 725 1289 603 
Q 1406 481 1766 481 
L 2356 481 
L 2356 0 
L 1766 0 
Q 1100 0 847 248 
Q 594 497 594 1153 
L 594 3053 
L 172 3053 
L 172 3500 
L 594 3500 
L 594 4494 
L 1172 4494 
z
" transform="scale(0.015625)"/>
      <path id="DejaVuSans-52" d="M 2841 2188 
Q 3044 2119 3236 1894 
Q 3428 1669 3622 1275 
L 4263 0 
L 3584 0 
L 2988 1197 
Q 2756 1666 2539 1819 
Q 2322 1972 1947 1972 
L 1259 1972 
L 1259 0 
L 628 0 
L 628 4666 
L 2053 4666 
Q 2853 4666 3247 4331 
Q 3641 3997 3641 3322 
Q 3641 2881 3436 2590 
Q 3231 2300 2841 2188 
z
M 1259 4147 
L 1259 2491 
L 2053 2491 
Q 2509 2491 2742 2702 
Q 2975 2913 2975 3322 
Q 2975 3731 2742 3939 
Q 2509 4147 2053 4147 
L 1259 4147 
z
" transform="scale(0.015625)"/>
      <path id="DejaVuSans-61" d="M 2194 1759 
Q 1497 1759 1228 1600 
Q 959 1441 959 1056 
Q 959 750 1161 570 
Q 1363 391 1709 391 
Q 2188 391 2477 730 
Q 2766 1069 2766 1631 
L 2766 1759 
L 2194 1759 
z
M 3341 1997 
L 3341 0 
L 2766 0 
L 2766 531 
Q 2569 213 2275 61 
Q 1981 -91 1556 -91 
Q 1019 -91 701 211 
Q 384 513 384 1019 
Q 384 1609 779 1909 
Q 1175 2209 1959 2209 
L 2766 2209 
L 2766 2266 
Q 2766 2663 2505 2880 
Q 2244 3097 1772 3097 
Q 1472 3097 1187 3025 
Q 903 2953 641 2809 
L 641 3341 
Q 956 3463 1253 3523 
Q 1550 3584 1831 3584 
Q 2591 3584 2966 3190 
Q 3341 2797 3341 1997 
z
" transform="scale(0.015625)"/>
      <path id="DejaVuSans-75" d="M 544 1381 
L 544 3500 
L 1119 3500 
L 1119 1403 
Q 1119 906 1312 657 
Q 1506 409 1894 409 
Q 2359 409 2629 706 
Q 2900 1003 2900 1516 
L 2900 3500 
L 3475 3500 
L 3475 0 
L 2900 0 
L 2900 538 
Q 2691 219 2414 64 
Q 2138 -91 1772 -91 
Q 1169 -91 856 284 
Q 544 659 544 1381 
z
M 1991 3584 
L 1991 3584 
z
" transform="scale(0.015625)"/>
      <path id="DejaVuSans-6c" d="M 603 4863 
L 1178 4863 
L 1178 0 
L 603 0 
L 603 4863 
z
" transform="scale(0.015625)"/>
      <path id="DejaVuSans-7a" d="M 353 3500 
L 3084 3500 
L 3084 2975 
L 922 459 
L 3084 459 
L 3084 0 
L 275 0 
L 275 525 
L 2438 3041 
L 353 3041 
L 353 3500 
z
" transform="scale(0.015625)"/>
      <path id="DejaVuSans-64" d="M 2906 2969 
L 2906 4863 
L 3481 4863 
L 3481 0 
L 2906 0 
L 2906 525 
Q 2725 213 2448 61 
Q 2172 -91 1784 -91 
Q 1150 -91 751 415 
Q 353 922 353 1747 
Q 353 2572 751 3078 
Q 1150 3584 1784 3584 
Q 2172 3584 2448 3432 
Q 2725 3281 2906 2969 
z
M 947 1747 
Q 947 1113 1208 752 
Q 1469 391 1925 391 
Q 2381 391 2643 752 
Q 2906 1113 2906 1747 
Q 2906 2381 2643 2742 
Q 2381 3103 1925 3103 
Q 1469 3103 1208 2742 
Q 947 2381 947 1747 
z
" transform="scale(0.015625)"/>
      <path id="DejaVuSans-6f" d="M 1959 3097 
Q 1497 3097 1228 2736 
Q 959 2375 959 1747 
Q 959 1119 1226 758 
Q 1494 397 1959 397 
Q 2419 397 2687 759 
Q 2956 1122 2956 1747 
Q 2956 2369 2687 2733 
Q 2419 3097 1959 3097 
z
M 1959 3584 
Q 2709 3584 3137 3096 
Q 3566 2609 3566 1747 
Q 3566 888 3137 398 
Q 2709 -91 1959 -91 
Q 1206 -91 779 398 
Q 353 888 353 1747 
Q 353 2609 779 3096 
Q 1206 3584 1959 3584 
z
" transform="scale(0.015625)"/>
      <path id="DejaVuSans-73" d="M 2834 3397 
L 2834 2853 
Q 2591 2978 2328 3040 
Q 2066 3103 1784 3103 
Q 1356 3103 1142 2972 
Q 928 2841 928 2578 
Q 928 2378 1081 2264 
Q 1234 2150 1697 2047 
L 1894 2003 
Q 2506 1872 2764 1633 
Q 3022 1394 3022 966 
Q 3022 478 2636 193 
Q 2250 -91 1575 -91 
Q 1294 -91 989 -36 
Q 684 19 347 128 
L 347 722 
Q 666 556 975 473 
Q 1284 391 1588 391 
Q 1994 391 2212 530 
Q 2431 669 2431 922 
Q 2431 1156 2273 1281 
Q 2116 1406 1581 1522 
L 1381 1569 
Q 847 1681 609 1914 
Q 372 2147 372 2553 
Q 372 3047 722 3315 
Q 1072 3584 1716 3584 
Q 2034 3584 2315 3537 
Q 2597 3491 2834 3397 
z
" transform="scale(0.015625)"/>
      <path id="DejaVuSans-e9" d="M 3597 1894 
L 3597 1613 
L 953 1613 
Q 991 1019 1311 708 
Q 1631 397 2203 397 
Q 2534 397 2845 478 
Q 3156 559 3463 722 
L 3463 178 
Q 3153 47 2828 -22 
Q 2503 -91 2169 -91 
Q 1331 -91 842 396 
Q 353 884 353 1716 
Q 353 2575 817 3079 
Q 1281 3584 2069 3584 
Q 2775 3584 3186 3129 
Q 3597 2675 3597 1894 
z
M 3022 2063 
Q 3016 2534 2758 2815 
Q 2500 3097 2075 3097 
Q 1594 3097 1305 2825 
Q 1016 2553 972 2059 
L 3022 2063 
z
M 2466 5119 
L 3088 5119 
L 2070 3944 
L 1591 3944 
L 2466 5119 
z
" transform="scale(0.015625)"/>
      <path id="DejaVuSans-67" d="M 2906 1791 
Q 2906 2416 2648 2759 
Q 2391 3103 1925 3103 
Q 1463 3103 1205 2759 
Q 947 2416 947 1791 
Q 947 1169 1205 825 
Q 1463 481 1925 481 
Q 2391 481 2648 825 
Q 2906 1169 2906 1791 
z
M 3481 434 
Q 3481 -459 3084 -895 
Q 2688 -1331 1869 -1331 
Q 1566 -1331 1297 -1286 
Q 1028 -1241 775 -1147 
L 775 -588 
Q 1028 -725 1275 -790 
Q 1522 -856 1778 -856 
Q 2344 -856 2625 -561 
Q 2906 -266 2906 331 
L 2906 616 
Q 2728 306 2450 153 
Q 2172 0 1784 0 
Q 1141 0 747 490 
Q 353 981 353 1791 
Q 353 2603 747 3093 
Q 1141 3584 1784 3584 
Q 2172 3584 2450 3431 
Q 2728 3278 2906 2969 
L 2906 3500 
L 3481 3500 
L 3481 434 
z
" transform="scale(0.015625)"/>
      <path id="DejaVuSans-4c" d="M 628 4666 
L 1259 4666 
L 1259 531 
L 3531 531 
L 3531 0 
L 628 0 
L 628 4666 
z
" transform="scale(0.015625)"/>
      <path id="DejaVuSans-46" d="M 628 4666 
L 3309 4666 
L 3309 4134 
L 1259 4134 
L 1259 2759 
L 3109 2759 
L 3109 2228 
L 1259 2228 
L 1259 0 
L 628 0 
L 628 4666 
z
" transform="scale(0.015625)"/>
      <path id="DejaVuSans-55" d="M 556 4666 
L 1191 4666 
L 1191 1831 
Q 1191 1081 1462 751 
Q 1734 422 2344 422 
Q 2950 422 3222 751 
Q 3494 1081 3494 1831 
L 3494 4666 
L 4128 4666 
L 4128 1753 
Q 4128 841 3676 375 
Q 3225 -91 2344 -91 
Q 1459 -91 1007 375 
Q 556 841 556 1753 
L 556 4666 
z
" transform="scale(0.015625)"/>
      <path id="DejaVuSans-37" d="M 525 4666 
L 3525 4666 
L 3525 4397 
L 1831 0 
L 1172 0 
L 2766 4134 
L 525 4134 
L 525 4666 
z
" transform="scale(0.015625)"/>
      <path id="DejaVuSans-35" d="M 691 4666 
L 3169 4666 
L 3169 4134 
L 1269 4134 
L 1269 2991 
Q 1406 3038 1543 3061 
Q 1681 3084 1819 3084 
Q 2600 3084 3056 2656 
Q 3513 2228 3513 1497 
Q 3513 744 3044 326 
Q 2575 -91 1722 -91 
Q 1428 -91 1123 -41 
Q 819 9 494 109 
L 494 744 
Q 775 591 1075 516 
Q 1375 441 1709 441 
Q 2250 441 2565 725 
Q 2881 1009 2881 1497 
Q 2881 1984 2565 2268 
Q 2250 2553 1709 2553 
Q 1456 2553 1204 2497 
Q 953 2441 691 2322 
L 691 4666 
z
" transform="scale(0.015625)"/>
     </defs>
     <use xlink:href="#DejaVuSans-48"/>
     <use xlink:href="#DejaVuSans-69" x="75.195312"/>
     <use xlink:href="#DejaVuSans-74" x="102.978516"/>
     <use xlink:href="#DejaVuSans-20" x="142.1875"/>
     <use xlink:href="#DejaVuSans-52" x="173.974609"/>
     <use xlink:href="#DejaVuSans-61" x="241.207031"/>
     <use xlink:href="#DejaVuSans-74" x="302.486328"/>
     <use xlink:href="#DejaVuSans-65" x="341.695312"/>
     <use xlink:href="#DejaVuSans-20" x="403.21875"/>
     <use xlink:href="#DejaVuSans-75" x="435.005859"/>
     <use xlink:href="#DejaVuSans-74" x="498.384766"/>
     <use xlink:href="#DejaVuSans-69" x="537.59375"/>
     <use xlink:href="#DejaVuSans-6c" x="565.376953"/>
     <use xlink:href="#DejaVuSans-69" x="593.160156"/>
     <use xlink:href="#DejaVuSans-7a" x="620.943359"/>
     <use xlink:href="#DejaVuSans-61" x="673.433594"/>
     <use xlink:href="#DejaVuSans-6e" x="734.712891"/>
     <use xlink:href="#DejaVuSans-64" x="798.091797"/>
     <use xlink:href="#DejaVuSans-6f" x="861.568359"/>
     <use xlink:href="#DejaVuSans-20" x="922.75"/>
     <use xlink:href="#DejaVuSans-61" x="954.537109"/>
     <use xlink:href="#DejaVuSans-20" x="1015.816406"/>
     <use xlink:href="#DejaVuSans-65" x="1047.603516"/>
     <use xlink:href="#DejaVuSans-73" x="1109.126953"/>
     <use xlink:href="#DejaVuSans-74" x="1161.226562"/>
     <use xlink:href="#DejaVuSans-72" x="1200.435547"/>
     <use xlink:href="#DejaVuSans-61" x="1241.548828"/>
     <use xlink:href="#DejaVuSans-74" x="1302.828125"/>
     <use xlink:href="#DejaVuSans-e9" x="1342.037109"/>
     <use xlink:href="#DejaVuSans-67" x="1403.560547"/>
     <use xlink:href="#DejaVuSans-69" x="1467.037109"/>
     <use xlink:href="#DejaVuSans-61" x="1494.820312"/>
     <use xlink:href="#DejaVuSans-20" x="1556.099609"/>
     <use xlink:href="#DejaVuSans-4c" x="1587.886719"/>
     <use xlink:href="#DejaVuSans-46" x="1643.599609"/>
     <use xlink:href="#DejaVuSans-55" x="1701.119141"/>
     <use xlink:href="#DejaVuSans-20" x="1774.3125"/>
     <use xlink:href="#DejaVuSans-28" x="1806.099609"/>
     <use xlink:href="#DejaVuSans-37" x="1845.113281"/>
     <use xlink:href="#DejaVuSans-35" x="1908.736328"/>
     <use xlink:href="#DejaVuSans-25" x="1972.359375"/>
     <use xlink:href="#DejaVuSans-29" x="2067.378906"/>
    </g>
   </g>
   <g id="legend_1">
    <g id="patch_7">
     <path d="M 286.805938 198.045187 
L 407.72 198.045187 
Q 409.72 198.045187 409.72 196.045187 
L 409.72 153.010812 
Q 409.72 151.010812 407.72 151.010812 
L 286.805938 151.010812 
Q 284.805938 151.010812 284.805938 153.010812 
L 284.805938 196.045187 
Q 284.805938 198.045187 286.805938 198.045187 
z
" style="fill: #ffffff; opacity: 0.8; stroke: #cccccc; stroke-linejoin: miter"/>
    </g>
    <g id="line2d_16">
     <path d="M 288.805938 159.10925 
L 298.805938 159.10925 
L 308.805938 159.10925 
" style="fill: none; stroke: #1f77b4; stroke-width: 1.5; stroke-linecap: square"/>
    </g>
    <g id="text_17">
     <!-- 75% -->
     <g transform="translate(316.805938 162.60925) scale(0.1 -0.1)">
      <use xlink:href="#DejaVuSans-37"/>
      <use xlink:href="#DejaVuSans-35" x="63.623047"/>
      <use xlink:href="#DejaVuSans-25" x="127.246094"/>
     </g>
    </g>
    <g id="line2d_17">
     <path d="M 288.805938 173.787375 
L 298.805938 173.787375 
L 308.805938 173.787375 
" style="fill: none; stroke: #008000; stroke-width: 1.5; stroke-linecap: square"/>
    </g>
    <g id="text_18">
     <!-- Média: 93.47 % -->
     <g transform="translate(316.805938 177.287375) scale(0.1 -0.1)">
      <defs>
       <path id="DejaVuSans-4d" d="M 628 4666 
L 1569 4666 
L 2759 1491 
L 3956 4666 
L 4897 4666 
L 4897 0 
L 4281 0 
L 4281 4097 
L 3078 897 
L 2444 897 
L 1241 4097 
L 1241 0 
L 628 0 
L 628 4666 
z
" transform="scale(0.015625)"/>
       <path id="DejaVuSans-3a" d="M 750 794 
L 1409 794 
L 1409 0 
L 750 0 
L 750 794 
z
M 750 3309 
L 1409 3309 
L 1409 2516 
L 750 2516 
L 750 3309 
z
" transform="scale(0.015625)"/>
       <path id="DejaVuSans-39" d="M 703 97 
L 703 672 
Q 941 559 1184 500 
Q 1428 441 1663 441 
Q 2288 441 2617 861 
Q 2947 1281 2994 2138 
Q 2813 1869 2534 1725 
Q 2256 1581 1919 1581 
Q 1219 1581 811 2004 
Q 403 2428 403 3163 
Q 403 3881 828 4315 
Q 1253 4750 1959 4750 
Q 2769 4750 3195 4129 
Q 3622 3509 3622 2328 
Q 3622 1225 3098 567 
Q 2575 -91 1691 -91 
Q 1453 -91 1209 -44 
Q 966 3 703 97 
z
M 1959 2075 
Q 2384 2075 2632 2365 
Q 2881 2656 2881 3163 
Q 2881 3666 2632 3958 
Q 2384 4250 1959 4250 
Q 1534 4250 1286 3958 
Q 1038 3666 1038 3163 
Q 1038 2656 1286 2365 
Q 1534 2075 1959 2075 
z
" transform="scale(0.015625)"/>
       <path id="DejaVuSans-33" d="M 2597 2516 
Q 3050 2419 3304 2112 
Q 3559 1806 3559 1356 
Q 3559 666 3084 287 
Q 2609 -91 1734 -91 
Q 1441 -91 1130 -33 
Q 819 25 488 141 
L 488 750 
Q 750 597 1062 519 
Q 1375 441 1716 441 
Q 2309 441 2620 675 
Q 2931 909 2931 1356 
Q 2931 1769 2642 2001 
Q 2353 2234 1838 2234 
L 1294 2234 
L 1294 2753 
L 1863 2753 
Q 2328 2753 2575 2939 
Q 2822 3125 2822 3475 
Q 2822 3834 2567 4026 
Q 2313 4219 1838 4219 
Q 1578 4219 1281 4162 
Q 984 4106 628 3988 
L 628 4550 
Q 988 4650 1302 4700 
Q 1616 4750 1894 4750 
Q 2613 4750 3031 4423 
Q 3450 4097 3450 3541 
Q 3450 3153 3228 2886 
Q 3006 2619 2597 2516 
z
" transform="scale(0.015625)"/>
      </defs>
      <use xlink:href="#DejaVuSans-4d"/>
      <use xlink:href="#DejaVuSans-e9" x="86.279297"/>
      <use xlink:href="#DejaVuSans-64" x="147.802734"/>
      <use xlink:href="#DejaVuSans-69" x="211.279297"/>
      <use xlink:href="#DejaVuSans-61" x="239.0625"/>
      <use xlink:href="#DejaVuSans-3a" x="300.341797"/>
      <use xlink:href="#DejaVuSans-20" x="334.033203"/>
      <use xlink:href="#DejaVuSans-39" x="365.820312"/>
      <use xlink:href="#DejaVuSans-33" x="429.443359"/>
      <use xlink:href="#DejaVuSans-2e" x="493.066406"/>
      <use xlink:href="#DejaVuSans-34" x="524.853516"/>
      <use xlink:href="#DejaVuSans-37" x="588.476562"/>
      <use xlink:href="#DejaVuSans-20" x="652.099609"/>
      <use xlink:href="#DejaVuSans-25" x="683.886719"/>
     </g>
    </g>
    <g id="line2d_18">
     <path d="M 288.805938 188.4655 
L 298.805938 188.4655 
L 308.805938 188.4655 
" style="fill: none; stroke: #ff0000; stroke-width: 1.5; stroke-linecap: square"/>
    </g>
    <g id="text_19">
     <!-- Des. pad.: 4.57 % -->
     <g transform="translate(316.805938 191.9655) scale(0.1 -0.1)">
      <defs>
       <path id="DejaVuSans-44" d="M 1259 4147 
L 1259 519 
L 2022 519 
Q 2988 519 3436 956 
Q 3884 1394 3884 2338 
Q 3884 3275 3436 3711 
Q 2988 4147 2022 4147 
L 1259 4147 
z
M 628 4666 
L 1925 4666 
Q 3281 4666 3915 4102 
Q 4550 3538 4550 2338 
Q 4550 1131 3912 565 
Q 3275 0 1925 0 
L 628 0 
L 628 4666 
z
" transform="scale(0.015625)"/>
       <path id="DejaVuSans-70" d="M 1159 525 
L 1159 -1331 
L 581 -1331 
L 581 3500 
L 1159 3500 
L 1159 2969 
Q 1341 3281 1617 3432 
Q 1894 3584 2278 3584 
Q 2916 3584 3314 3078 
Q 3713 2572 3713 1747 
Q 3713 922 3314 415 
Q 2916 -91 2278 -91 
Q 1894 -91 1617 61 
Q 1341 213 1159 525 
z
M 3116 1747 
Q 3116 2381 2855 2742 
Q 2594 3103 2138 3103 
Q 1681 3103 1420 2742 
Q 1159 2381 1159 1747 
Q 1159 1113 1420 752 
Q 1681 391 2138 391 
Q 2594 391 2855 752 
Q 3116 1113 3116 1747 
z
" transform="scale(0.015625)"/>
      </defs>
      <use xlink:href="#DejaVuSans-44"/>
      <use xlink:href="#DejaVuSans-65" x="77.001953"/>
      <use xlink:href="#DejaVuSans-73" x="138.525391"/>
      <use xlink:href="#DejaVuSans-2e" x="190.625"/>
      <use xlink:href="#DejaVuSans-20" x="222.412109"/>
      <use xlink:href="#DejaVuSans-70" x="254.199219"/>
      <use xlink:href="#DejaVuSans-61" x="317.675781"/>
      <use xlink:href="#DejaVuSans-64" x="378.955078"/>
      <use xlink:href="#DejaVuSans-2e" x="442.431641"/>
      <use xlink:href="#DejaVuSans-3a" x="474.21875"/>
      <use xlink:href="#DejaVuSans-20" x="507.910156"/>
      <use xlink:href="#DejaVuSans-34" x="539.697266"/>
      <use xlink:href="#DejaVuSans-2e" x="603.320312"/>
      <use xlink:href="#DejaVuSans-35" x="635.107422"/>
      <use xlink:href="#DejaVuSans-37" x="698.730469"/>
      <use xlink:href="#DejaVuSans-20" x="762.353516"/>
      <use xlink:href="#DejaVuSans-25" x="794.140625"/>
     </g>
    </g>
   </g>
  </g>
 </g>
 <defs>
  <clipPath id="pe281447775">
   <rect x="57.6" y="41.472" width="357.12" height="266.112"/>
  </clipPath>
 </defs>
</svg>
