<?xml version="1.0" encoding="utf-8" standalone="no"?>
<!DOCTYPE svg PUBLIC "-//W3C//DTD SVG 1.1//EN"
  "http://www.w3.org/Graphics/SVG/1.1/DTD/svg11.dtd">
<svg xmlns:xlink="http://www.w3.org/1999/xlink" width="460.8pt" height="345.6pt" viewBox="0 0 460.8 345.6" xmlns="http://www.w3.org/2000/svg" version="1.1">
 <metadata>
  <rdf:RDF xmlns:dc="http://purl.org/dc/elements/1.1/" xmlns:cc="http://creativecommons.org/ns#" xmlns:rdf="http://www.w3.org/1999/02/22-rdf-syntax-ns#">
   <cc:Work>
    <dc:type rdf:resource="http://purl.org/dc/dcmitype/StillImage"/>
    <dc:date>2023-02-20T21:36:06.140068</dc:date>
    <dc:format>image/svg+xml</dc:format>
    <dc:creator>
     <cc:Agent>
      <dc:title>Matplotlib v3.7.0, https://matplotlib.org/</dc:title>
     </cc:Agent>
    </dc:creator>
   </cc:Work>
  </rdf:RDF>
 </metadata>
 <defs>
  <style type="text/css">*{stroke-linejoin: round; stroke-linecap: butt}</style>
 </defs>
 <g id="figure_1">
  <g id="patch_1">
   <path d="M 0 345.6 
L 460.8 345.6 
L 460.8 0 
L 0 0 
z
" style="fill: #ffffff"/>
  </g>
  <g id="axes_1">
   <g id="patch_2">
    <path d="M 57.6 307.584 
L 414.72 307.584 
L 414.72 41.472 
L 57.6 41.472 
z
" style="fill: #ffffff"/>
   </g>
   <g id="matplotlib.axis_1">
    <g id="xtick_1">
     <g id="line2d_1">
      <defs>
       <path id="mde6b98d850" d="M 0 0 
L 0 3.5 
" style="stroke: #000000; stroke-width: 0.8"/>
      </defs>
      <g>
       <use xlink:href="#mde6b98d850" x="73.832403" y="307.584" style="stroke: #000000; stroke-width: 0.8"/>
      </g>
     </g>
     <g id="text_1">
      <!-- 0.0 -->
      <g transform="translate(65.88084 322.182437) scale(0.1 -0.1)">
       <defs>
        <path id="DejaVuSans-30" d="M 2034 4250 
Q 1547 4250 1301 3770 
Q 1056 3291 1056 2328 
Q 1056 1369 1301 889 
Q 1547 409 2034 409 
Q 2525 409 2770 889 
Q 3016 1369 3016 2328 
Q 3016 3291 2770 3770 
Q 2525 4250 2034 4250 
z
M 2034 4750 
Q 2819 4750 3233 4129 
Q 3647 3509 3647 2328 
Q 3647 1150 3233 529 
Q 2819 -91 2034 -91 
Q 1250 -91 836 529 
Q 422 1150 422 2328 
Q 422 3509 836 4129 
Q 1250 4750 2034 4750 
z
" transform="scale(0.015625)"/>
        <path id="DejaVuSans-2e" d="M 684 794 
L 1344 794 
L 1344 0 
L 684 0 
L 684 794 
z
" transform="scale(0.015625)"/>
       </defs>
       <use xlink:href="#DejaVuSans-30"/>
       <use xlink:href="#DejaVuSans-2e" x="63.623047"/>
       <use xlink:href="#DejaVuSans-30" x="95.410156"/>
      </g>
     </g>
    </g>
    <g id="xtick_2">
     <g id="line2d_2">
      <g>
       <use xlink:href="#mde6b98d850" x="138.763377" y="307.584" style="stroke: #000000; stroke-width: 0.8"/>
      </g>
     </g>
     <g id="text_2">
      <!-- 0.2 -->
      <g transform="translate(130.811814 322.182437) scale(0.1 -0.1)">
       <defs>
        <path id="DejaVuSans-32" d="M 1228 531 
L 3431 531 
L 3431 0 
L 469 0 
L 469 531 
Q 828 903 1448 1529 
Q 2069 2156 2228 2338 
Q 2531 2678 2651 2914 
Q 2772 3150 2772 3378 
Q 2772 3750 2511 3984 
Q 2250 4219 1831 4219 
Q 1534 4219 1204 4116 
Q 875 4013 500 3803 
L 500 4441 
Q 881 4594 1212 4672 
Q 1544 4750 1819 4750 
Q 2544 4750 2975 4387 
Q 3406 4025 3406 3419 
Q 3406 3131 3298 2873 
Q 3191 2616 2906 2266 
Q 2828 2175 2409 1742 
Q 1991 1309 1228 531 
z
" transform="scale(0.015625)"/>
       </defs>
       <use xlink:href="#DejaVuSans-30"/>
       <use xlink:href="#DejaVuSans-2e" x="63.623047"/>
       <use xlink:href="#DejaVuSans-32" x="95.410156"/>
      </g>
     </g>
    </g>
    <g id="xtick_3">
     <g id="line2d_3">
      <g>
       <use xlink:href="#mde6b98d850" x="203.694351" y="307.584" style="stroke: #000000; stroke-width: 0.8"/>
      </g>
     </g>
     <g id="text_3">
      <!-- 0.4 -->
      <g transform="translate(195.742788 322.182437) scale(0.1 -0.1)">
       <defs>
        <path id="DejaVuSans-34" d="M 2419 4116 
L 825 1625 
L 2419 1625 
L 2419 4116 
z
M 2253 4666 
L 3047 4666 
L 3047 1625 
L 3713 1625 
L 3713 1100 
L 3047 1100 
L 3047 0 
L 2419 0 
L 2419 1100 
L 313 1100 
L 313 1709 
L 2253 4666 
z
" transform="scale(0.015625)"/>
       </defs>
       <use xlink:href="#DejaVuSans-30"/>
       <use xlink:href="#DejaVuSans-2e" x="63.623047"/>
       <use xlink:href="#DejaVuSans-34" x="95.410156"/>
      </g>
     </g>
    </g>
    <g id="xtick_4">
     <g id="line2d_4">
      <g>
       <use xlink:href="#mde6b98d850" x="268.625325" y="307.584" style="stroke: #000000; stroke-width: 0.8"/>
      </g>
     </g>
     <g id="text_4">
      <!-- 0.6 -->
      <g transform="translate(260.673762 322.182437) scale(0.1 -0.1)">
       <defs>
        <path id="DejaVuSans-36" d="M 2113 2584 
Q 1688 2584 1439 2293 
Q 1191 2003 1191 1497 
Q 1191 994 1439 701 
Q 1688 409 2113 409 
Q 2538 409 2786 701 
Q 3034 994 3034 1497 
Q 3034 2003 2786 2293 
Q 2538 2584 2113 2584 
z
M 3366 4563 
L 3366 3988 
Q 3128 4100 2886 4159 
Q 2644 4219 2406 4219 
Q 1781 4219 1451 3797 
Q 1122 3375 1075 2522 
Q 1259 2794 1537 2939 
Q 1816 3084 2150 3084 
Q 2853 3084 3261 2657 
Q 3669 2231 3669 1497 
Q 3669 778 3244 343 
Q 2819 -91 2113 -91 
Q 1303 -91 875 529 
Q 447 1150 447 2328 
Q 447 3434 972 4092 
Q 1497 4750 2381 4750 
Q 2619 4750 2861 4703 
Q 3103 4656 3366 4563 
z
" transform="scale(0.015625)"/>
       </defs>
       <use xlink:href="#DejaVuSans-30"/>
       <use xlink:href="#DejaVuSans-2e" x="63.623047"/>
       <use xlink:href="#DejaVuSans-36" x="95.410156"/>
      </g>
     </g>
    </g>
    <g id="xtick_5">
     <g id="line2d_5">
      <g>
       <use xlink:href="#mde6b98d850" x="333.556299" y="307.584" style="stroke: #000000; stroke-width: 0.8"/>
      </g>
     </g>
     <g id="text_5">
      <!-- 0.8 -->
      <g transform="translate(325.604736 322.182437) scale(0.1 -0.1)">
       <defs>
        <path id="DejaVuSans-38" d="M 2034 2216 
Q 1584 2216 1326 1975 
Q 1069 1734 1069 1313 
Q 1069 891 1326 650 
Q 1584 409 2034 409 
Q 2484 409 2743 651 
Q 3003 894 3003 1313 
Q 3003 1734 2745 1975 
Q 2488 2216 2034 2216 
z
M 1403 2484 
Q 997 2584 770 2862 
Q 544 3141 544 3541 
Q 544 4100 942 4425 
Q 1341 4750 2034 4750 
Q 2731 4750 3128 4425 
Q 3525 4100 3525 3541 
Q 3525 3141 3298 2862 
Q 3072 2584 2669 2484 
Q 3125 2378 3379 2068 
Q 3634 1759 3634 1313 
Q 3634 634 3220 271 
Q 2806 -91 2034 -91 
Q 1263 -91 848 271 
Q 434 634 434 1313 
Q 434 1759 690 2068 
Q 947 2378 1403 2484 
z
M 1172 3481 
Q 1172 3119 1398 2916 
Q 1625 2713 2034 2713 
Q 2441 2713 2670 2916 
Q 2900 3119 2900 3481 
Q 2900 3844 2670 4047 
Q 2441 4250 2034 4250 
Q 1625 4250 1398 4047 
Q 1172 3844 1172 3481 
z
" transform="scale(0.015625)"/>
       </defs>
       <use xlink:href="#DejaVuSans-30"/>
       <use xlink:href="#DejaVuSans-2e" x="63.623047"/>
       <use xlink:href="#DejaVuSans-38" x="95.410156"/>
      </g>
     </g>
    </g>
    <g id="xtick_6">
     <g id="line2d_6">
      <g>
       <use xlink:href="#mde6b98d850" x="398.487273" y="307.584" style="stroke: #000000; stroke-width: 0.8"/>
      </g>
     </g>
     <g id="text_6">
      <!-- 1.0 -->
      <g transform="translate(390.53571 322.182437) scale(0.1 -0.1)">
       <defs>
        <path id="DejaVuSans-31" d="M 794 531 
L 1825 531 
L 1825 4091 
L 703 3866 
L 703 4441 
L 1819 4666 
L 2450 4666 
L 2450 531 
L 3481 531 
L 3481 0 
L 794 0 
L 794 531 
z
" transform="scale(0.015625)"/>
       </defs>
       <use xlink:href="#DejaVuSans-31"/>
       <use xlink:href="#DejaVuSans-2e" x="63.623047"/>
       <use xlink:href="#DejaVuSans-30" x="95.410156"/>
      </g>
     </g>
    </g>
    <g id="text_7">
     <!-- n -->
     <g transform="translate(232.99125 335.860562) scale(0.1 -0.1)">
      <defs>
       <path id="DejaVuSans-6e" d="M 3513 2113 
L 3513 0 
L 2938 0 
L 2938 2094 
Q 2938 2591 2744 2837 
Q 2550 3084 2163 3084 
Q 1697 3084 1428 2787 
Q 1159 2491 1159 1978 
L 1159 0 
L 581 0 
L 581 3500 
L 1159 3500 
L 1159 2956 
Q 1366 3272 1645 3428 
Q 1925 3584 2291 3584 
Q 2894 3584 3203 3211 
Q 3513 2838 3513 2113 
z
" transform="scale(0.015625)"/>
      </defs>
      <use xlink:href="#DejaVuSans-6e"/>
     </g>
    </g>
    <g id="text_8">
     <!-- 1e6 -->
     <g transform="translate(395.841875 334.860562) scale(0.1 -0.1)">
      <defs>
       <path id="DejaVuSans-65" d="M 3597 1894 
L 3597 1613 
L 953 1613 
Q 991 1019 1311 708 
Q 1631 397 2203 397 
Q 2534 397 2845 478 
Q 3156 559 3463 722 
L 3463 178 
Q 3153 47 2828 -22 
Q 2503 -91 2169 -91 
Q 1331 -91 842 396 
Q 353 884 353 1716 
Q 353 2575 817 3079 
Q 1281 3584 2069 3584 
Q 2775 3584 3186 3129 
Q 3597 2675 3597 1894 
z
M 3022 2063 
Q 3016 2534 2758 2815 
Q 2500 3097 2075 3097 
Q 1594 3097 1305 2825 
Q 1016 2553 972 2059 
L 3022 2063 
z
" transform="scale(0.015625)"/>
      </defs>
      <use xlink:href="#DejaVuSans-31"/>
      <use xlink:href="#DejaVuSans-65" x="63.623047"/>
      <use xlink:href="#DejaVuSans-36" x="125.146484"/>
     </g>
    </g>
   </g>
   <g id="matplotlib.axis_2">
    <g id="ytick_1">
     <g id="line2d_7">
      <defs>
       <path id="m00fefb144e" d="M 0 0 
L -3.5 0 
" style="stroke: #000000; stroke-width: 0.8"/>
      </defs>
      <g>
       <use xlink:href="#m00fefb144e" x="57.6" y="295.488" style="stroke: #000000; stroke-width: 0.8"/>
      </g>
     </g>
     <g id="text_9">
      <!-- 0 -->
      <g transform="translate(44.2375 299.287219) scale(0.1 -0.1)">
       <use xlink:href="#DejaVuSans-30"/>
      </g>
     </g>
    </g>
    <g id="ytick_2">
     <g id="line2d_8">
      <g>
       <use xlink:href="#m00fefb144e" x="57.6" y="239.896551" style="stroke: #000000; stroke-width: 0.8"/>
      </g>
     </g>
     <g id="text_10">
      <!-- 20 -->
      <g transform="translate(37.875 243.695769) scale(0.1 -0.1)">
       <use xlink:href="#DejaVuSans-32"/>
       <use xlink:href="#DejaVuSans-30" x="63.623047"/>
      </g>
     </g>
    </g>
    <g id="ytick_3">
     <g id="line2d_9">
      <g>
       <use xlink:href="#m00fefb144e" x="57.6" y="184.305101" style="stroke: #000000; stroke-width: 0.8"/>
      </g>
     </g>
     <g id="text_11">
      <!-- 40 -->
      <g transform="translate(37.875 188.10432) scale(0.1 -0.1)">
       <use xlink:href="#DejaVuSans-34"/>
       <use xlink:href="#DejaVuSans-30" x="63.623047"/>
      </g>
     </g>
    </g>
    <g id="ytick_4">
     <g id="line2d_10">
      <g>
       <use xlink:href="#m00fefb144e" x="57.6" y="128.713652" style="stroke: #000000; stroke-width: 0.8"/>
      </g>
     </g>
     <g id="text_12">
      <!-- 60 -->
      <g transform="translate(37.875 132.51287) scale(0.1 -0.1)">
       <use xlink:href="#DejaVuSans-36"/>
       <use xlink:href="#DejaVuSans-30" x="63.623047"/>
      </g>
     </g>
    </g>
    <g id="ytick_5">
     <g id="line2d_11">
      <g>
       <use xlink:href="#m00fefb144e" x="57.6" y="73.122202" style="stroke: #000000; stroke-width: 0.8"/>
      </g>
     </g>
     <g id="text_13">
      <!-- 80 -->
      <g transform="translate(37.875 76.921421) scale(0.1 -0.1)">
       <use xlink:href="#DejaVuSans-38"/>
       <use xlink:href="#DejaVuSans-30" x="63.623047"/>
      </g>
     </g>
    </g>
    <g id="text_14">
     <!-- Hr (%) -->
     <g transform="translate(31.795312 190.585031) rotate(-90) scale(0.1 -0.1)">
      <defs>
       <path id="DejaVuSans-48" d="M 628 4666 
L 1259 4666 
L 1259 2753 
L 3553 2753 
L 3553 4666 
L 4184 4666 
L 4184 0 
L 3553 0 
L 3553 2222 
L 1259 2222 
L 1259 0 
L 628 0 
L 628 4666 
z
" transform="scale(0.015625)"/>
       <path id="DejaVuSans-72" d="M 2631 2963 
Q 2534 3019 2420 3045 
Q 2306 3072 2169 3072 
Q 1681 3072 1420 2755 
Q 1159 2438 1159 1844 
L 1159 0 
L 581 0 
L 581 3500 
L 1159 3500 
L 1159 2956 
Q 1341 3275 1631 3429 
Q 1922 3584 2338 3584 
Q 2397 3584 2469 3576 
Q 2541 3569 2628 3553 
L 2631 2963 
z
" transform="scale(0.015625)"/>
       <path id="DejaVuSans-20" transform="scale(0.015625)"/>
       <path id="DejaVuSans-28" d="M 1984 4856 
Q 1566 4138 1362 3434 
Q 1159 2731 1159 2009 
Q 1159 1288 1364 580 
Q 1569 -128 1984 -844 
L 1484 -844 
Q 1016 -109 783 600 
Q 550 1309 550 2009 
Q 550 2706 781 3412 
Q 1013 4119 1484 4856 
L 1984 4856 
z
" transform="scale(0.015625)"/>
       <path id="DejaVuSans-25" d="M 4653 2053 
Q 4381 2053 4226 1822 
Q 4072 1591 4072 1178 
Q 4072 772 4226 539 
Q 4381 306 4653 306 
Q 4919 306 5073 539 
Q 5228 772 5228 1178 
Q 5228 1588 5073 1820 
Q 4919 2053 4653 2053 
z
M 4653 2450 
Q 5147 2450 5437 2106 
Q 5728 1763 5728 1178 
Q 5728 594 5436 251 
Q 5144 -91 4653 -91 
Q 4153 -91 3862 251 
Q 3572 594 3572 1178 
Q 3572 1766 3864 2108 
Q 4156 2450 4653 2450 
z
M 1428 4353 
Q 1159 4353 1004 4120 
Q 850 3888 850 3481 
Q 850 3069 1003 2837 
Q 1156 2606 1428 2606 
Q 1700 2606 1854 2837 
Q 2009 3069 2009 3481 
Q 2009 3884 1853 4118 
Q 1697 4353 1428 4353 
z
M 4250 4750 
L 4750 4750 
L 1831 -91 
L 1331 -91 
L 4250 4750 
z
M 1428 4750 
Q 1922 4750 2215 4408 
Q 2509 4066 2509 3481 
Q 2509 2891 2217 2550 
Q 1925 2209 1428 2209 
Q 931 2209 642 2551 
Q 353 2894 353 3481 
Q 353 4063 643 4406 
Q 934 4750 1428 4750 
z
" transform="scale(0.015625)"/>
       <path id="DejaVuSans-29" d="M 513 4856 
L 1013 4856 
Q 1481 4119 1714 3412 
Q 1947 2706 1947 2009 
Q 1947 1309 1714 600 
Q 1481 -109 1013 -844 
L 513 -844 
Q 928 -128 1133 580 
Q 1338 1288 1338 2009 
Q 1338 2731 1133 3434 
Q 928 4138 513 4856 
z
" transform="scale(0.015625)"/>
      </defs>
      <use xlink:href="#DejaVuSans-48"/>
      <use xlink:href="#DejaVuSans-72" x="75.195312"/>
      <use xlink:href="#DejaVuSans-20" x="116.308594"/>
      <use xlink:href="#DejaVuSans-28" x="148.095703"/>
      <use xlink:href="#DejaVuSans-25" x="187.109375"/>
      <use xlink:href="#DejaVuSans-29" x="282.128906"/>
     </g>
    </g>
   </g>
   <g id="line2d_12">
    <path d="M 73.832727 295.488 
L 73.837272 295.488 
L 73.950252 178.77667 
L 74.068427 167.995213 
L 73.973303 179.298019 
L 74.068751 168.170581 
L 74.069401 168.519875 
L 74.166797 161.23654 
L 74.292763 153.86123 
L 74.294386 153.968276 
L 74.298932 154.380177 
L 74.383017 149.86792 
L 74.392757 150.144558 
L 74.539176 140.286688 
L 74.396003 150.341449 
L 74.543397 140.700479 
L 74.543721 140.771158 
L 74.632352 136.026534 
L 74.633002 136.043153 
L 74.649559 136.181819 
L 74.777473 131.1016 
L 74.917075 127.132458 
L 74.779746 131.114928 
L 74.919347 127.401514 
L 75.057975 124.61868 
L 75.058299 124.663943 
L 75.149852 121.944567 
L 75.298869 118.594925 
L 75.30244 118.656352 
L 75.452755 115.957698 
L 75.597876 113.79588 
L 75.456002 116.038801 
L 75.598525 113.811586 
L 75.599824 113.894031 
L 75.693974 112.219485 
L 75.843964 110.048564 
L 75.701116 112.2439 
L 75.846886 110.093563 
L 75.979021 108.767665 
L 75.851431 110.153367 
L 75.985189 108.841595 
L 75.985514 108.869743 
L 76.080313 107.466364 
L 76.242316 105.35206 
L 76.243614 105.379616 
L 76.244588 105.418971 
L 76.337115 104.009544 
L 76.490677 102.510231 
L 76.491001 102.5338 
L 76.660796 100.49354 
L 76.494897 102.544994 
L 76.663068 100.586342 
L 76.664367 100.611989 
L 76.752349 99.375609 
L 76.756894 99.402694 
L 76.941622 97.324453 
L 76.941947 97.345144 
L 77.038045 96.444372 
L 77.038694 96.456537 
L 77.190957 95.323312 
L 77.19323 95.378116 
L 77.196152 95.417808 
L 77.295821 94.895998 
L 77.44711 93.879739 
L 77.451006 93.897293 
L 77.451655 93.933462 
L 77.549701 93.229128 
L 77.550675 93.282112 
L 77.735403 91.777548 
L 77.738975 91.825177 
L 77.833449 91.13089 
L 77.834099 91.1415 
L 78.002919 90.044161 
L 77.835397 91.185252 
L 78.003893 90.048864 
L 78.009412 90.082672 
L 78.098692 89.346952 
L 78.100965 89.372141 
L 78.285369 88.099264 
L 78.287317 88.108921 
L 78.47237 86.927678 
L 78.475292 86.961752 
L 78.567169 86.433958 
L 78.573662 86.491864 
L 78.762611 85.349758 
L 78.76391 85.386798 
L 78.860657 84.834922 
L 78.861631 84.839832 
L 79.047658 83.632769 
L 79.060645 83.658444 
L 79.062268 83.672429 
L 79.158041 83.143778 
L 79.159015 83.148723 
L 79.337251 82.286349 
L 79.16843 83.151326 
L 79.338549 82.303855 
L 79.346666 82.339437 
L 79.43692 81.939801 
L 79.440166 81.950789 
L 79.624895 81.064728 
L 79.44114 81.955692 
L 79.627492 81.067397 
L 79.627817 81.07941 
L 79.730408 80.815525 
L 79.731706 80.816891 
L 79.929421 79.859842 
L 79.93007 79.882804 
L 79.933642 79.905471 
L 80.030064 79.488324 
L 80.233623 78.561232 
L 80.233947 78.572234 
L 80.333292 78.180766 
L 80.505034 77.512282 
L 80.514774 77.519388 
L 80.523539 77.548694 
L 80.614443 77.156701 
L 80.801119 76.362274 
L 80.810859 76.409479 
L 80.811184 76.419671 
L 80.907282 76.027928 
L 80.909879 76.031962 
L 80.910528 76.039344 
L 81.133891 75.102226 
L 81.134215 75.112025 
L 81.234534 74.794895 
L 81.237131 74.799184 
L 81.409523 74.306063 
L 81.410821 74.32015 
L 81.507893 73.94287 
L 81.725087 73.076467 
L 81.733853 73.106213 
L 81.734502 73.113066 
L 81.922802 72.555557 
L 81.923127 72.564503 
L 82.023445 72.276068 
L 82.16467 71.846354 
L 82.190642 71.904304 
L 82.190967 71.912988 
L 82.292259 71.68852 
L 82.293558 71.690873 
L 82.437705 71.454773 
L 82.294856 71.693226 
L 82.4416 71.461817 
L 82.441925 71.470265 
L 82.544841 71.30955 
L 82.547438 71.324587 
L 82.721453 70.941508 
L 82.722427 70.955959 
L 82.820473 70.734605 
L 82.824693 70.749776 
L 82.933128 70.502378 
L 82.830862 70.763437 
L 82.97306 70.537518 
L 82.977281 70.562394 
L 83.075651 70.408043 
L 83.079547 70.424801 
L 83.240576 70.133332 
L 83.242199 70.133848 
L 83.243498 70.145767 
L 83.340245 69.971039 
L 83.346738 69.982675 
L 83.470432 69.740199 
L 83.356803 69.993572 
L 83.498677 69.765019 
L 83.515234 69.796855 
L 83.604839 69.650045 
L 83.605488 69.66505 
L 83.74509 69.47704 
L 83.752232 69.485123 
L 83.757751 69.492601 
L 83.81976 69.305508 
L 83.855797 69.31743 
L 84.00384 69.131485 
L 84.004164 69.13871 
L 84.105781 68.926886 
L 84.257395 68.664152 
L 84.118768 68.940956 
L 84.268758 68.677653 
L 84.269083 68.684709 
L 84.3707 68.482588 
L 84.521989 68.267975 
L 84.525235 68.277889 
L 84.52556 68.284787 
L 84.632372 68.208964 
L 84.633345 68.212749 
L 84.798595 67.950981 
L 84.646981 68.223946 
L 84.801192 67.955496 
L 84.82684 67.985607 
L 84.908328 67.875112 
L 85.067734 67.650767 
L 84.909302 67.878833 
L 85.069682 67.65814 
L 85.125847 67.704493 
L 85.154092 67.635113 
L 85.180389 67.654191 
L 85.364144 67.325003 
L 85.181038 67.659275 
L 85.366741 67.329438 
L 85.369987 67.354533 
L 85.469332 67.19284 
L 85.470955 67.193667 
L 85.642048 66.94028 
L 85.642697 66.945205 
L 85.658281 66.97929 
L 85.73912 66.855772 
L 85.749834 66.872007 
L 85.893331 66.733877 
L 85.753729 66.878592 
L 85.896578 66.735596 
L 85.918329 66.751571 
L 85.998844 66.670603 
L 86.005012 66.682769 
L 86.126758 66.614415 
L 86.02157 66.704843 
L 86.132602 66.627778 
L 86.133576 66.638563 
L 86.238115 66.530256 
L 86.238764 66.534965 
L 86.368626 66.459233 
L 86.240387 66.535827 
L 86.3696 66.469828 
L 86.389728 66.506363 
L 86.474788 66.36243 
L 86.551406 66.344972 
L 86.506279 66.383499 
L 86.589066 66.363565 
L 86.59491 66.404843 
L 86.693605 66.247297 
L 86.69393 66.253083 
L 86.810806 66.168925 
L 86.702371 66.263198 
L 86.825415 66.183689 
L 86.82574 66.189419 
L 86.881256 66.099964 
L 86.932227 66.110755 
L 87.045207 66.043673 
L 87.059167 66.060696 
L 87.083516 66.087293 
L 87.121176 66.010799 
L 87.168251 66.022369 
L 87.188379 66.077664 
L 87.277659 65.990206 
L 87.424403 65.86537 
L 87.425702 65.867391 
L 87.427325 65.881533 
L 87.531215 65.778344 
L 87.532189 65.788088 
L 87.671141 65.642625 
L 87.532838 65.792388 
L 87.683803 65.657281 
L 87.711074 65.686254 
L 87.788017 65.601805 
L 87.791913 65.607782 
L 87.926644 65.506742 
L 87.798081 65.631779 
L 87.93119 65.523279 
L 87.931514 65.528574 
L 88.034755 65.40205 
L 88.183122 65.271837 
L 88.048065 65.414357 
L 88.187342 65.27666 
L 88.187667 65.281867 
L 88.292855 65.209095 
L 88.294478 65.209983 
L 88.463948 65.033953 
L 88.481155 65.045918 
L 88.569461 64.9449 
L 88.569786 64.949979 
L 88.717504 64.800702 
L 88.726269 64.815295 
L 88.731464 64.829093 
L 88.819445 64.707977 
L 88.831133 64.719347 
L 88.957748 64.652465 
L 88.83373 64.729224 
L 88.964241 64.662063 
L 88.975929 64.667401 
L 89.069105 64.580515 
L 89.070404 64.588349 
L 89.200266 64.496044 
L 89.210655 64.511261 
L 89.212278 64.518037 
L 89.305129 64.446026 
L 89.318765 64.462989 
L 89.445705 64.3993 
L 89.325258 64.472443 
L 89.451224 64.411627 
L 89.468106 64.430267 
L 89.559334 64.364779 
L 89.757698 64.121401 
L 89.758023 64.126118 
L 89.862561 64.030537 
L 89.86386 64.0324 
L 90.008007 63.947153 
L 90.008332 63.9518 
L 90.114169 63.877283 
L 90.147933 63.891991 
L 90.277795 63.745384 
L 90.334285 63.76764 
L 90.359933 63.723188 
L 90.388827 63.740682 
L 90.574205 63.530853 
L 90.57875 63.539922 
L 90.579075 63.544419 
L 90.6255 63.481694 
L 90.68686 63.496445 
L 90.81445 63.464613 
L 90.688159 63.498258 
L 90.815748 63.466414 
L 90.816073 63.47085 
L 90.911846 63.408731 
L 90.924183 63.428413 
L 91.049175 63.35727 
L 90.927105 63.431126 
L 91.064109 63.369923 
L 91.064434 63.374296 
L 91.164752 63.254736 
L 91.167025 63.259153 
L 91.346884 63.067783 
L 91.168648 63.260076 
L 91.351104 63.082568 
L 91.420905 63.086496 
L 91.459214 63.038681 
L 91.624139 62.900866 
L 91.461487 63.043053 
L 91.626736 62.909458 
L 91.634528 62.914942 
L 91.729002 62.836715 
L 91.732898 62.841978 
L 91.916328 62.671796 
L 91.738742 62.847349 
L 91.916978 62.675165 
L 91.918276 62.681903 
L 92.01827 62.567617 
L 92.020867 62.581032 
L 92.181896 62.461084 
L 92.027685 62.58399 
L 92.186766 62.463913 
L 92.18709 62.468035 
L 92.282539 62.382289 
L 92.291954 62.388745 
L 92.462398 62.254439 
L 92.293577 62.389688 
L 92.464346 62.259449 
L 92.466618 62.26368 
L 92.568235 62.189638 
L 92.570832 62.197895 
L 92.725043 62.110334 
L 92.57278 62.207698 
L 92.725368 62.114344 
L 92.732186 62.122135 
L 92.829258 62.032034 
L 92.830232 62.034503 
L 92.84614 62.044729 
L 93.032167 61.843731 
L 93.035738 61.854287 
L 93.135407 61.746974 
L 93.321434 61.579584 
L 93.32598 61.587831 
L 93.326304 61.591726 
L 93.40552 61.547105 
L 93.43409 61.547402 
L 93.601287 61.439882 
L 93.435388 61.54909 
L 93.60291 61.440841 
L 93.60356 61.448527 
L 93.705826 61.390538 
L 93.710046 61.390305 
L 93.860362 61.304435 
L 93.713942 61.399867 
L 93.866855 61.312769 
L 93.874322 61.327975 
L 93.973666 61.259802 
L 94.155797 61.116566 
L 94.158395 61.124316 
L 94.158719 61.128059 
L 94.263258 61.050739 
L 94.409028 60.996795 
L 94.409678 60.999809 
L 94.419417 61.014311 
L 94.514541 60.949574 
L 94.516489 60.949847 
L 94.672648 60.866986 
L 94.53467 60.964025 
L 94.676544 60.871874 
L 94.788225 60.882041 
L 94.712905 60.839617 
L 94.788874 60.880698 
L 94.811276 60.89463 
L 94.928151 60.846876 
L 94.928476 60.850487 
L 95.015484 60.804615 
L 95.035937 60.805432 
L 95.03756 60.806375 
L 95.202485 60.71731 
L 95.231704 60.721597 
L 95.300531 60.684009 
L 95.311893 60.694791 
L 95.463832 60.637738 
L 95.571293 60.657111 
L 95.524218 60.596778 
L 95.576487 60.650959 
L 95.586227 60.656542 
L 95.71966 60.612147 
L 95.728426 60.615507 
L 95.800499 60.564524 
L 95.82777 60.576812 
L 95.866729 60.562134 
L 95.932309 60.614106 
L 95.932634 60.617556 
L 96.022888 60.564309 
L 96.041068 60.585967 
L 96.187812 60.541506 
L 96.29365 60.591949 
L 96.303065 60.581938 
L 96.447536 60.526379 
L 96.309233 60.586183 
L 96.451432 60.534932 
L 96.505974 60.566803 
L 96.564737 60.554798 
L 96.720896 60.489932 
L 96.722194 60.491438 
L 96.805631 60.512172 
L 96.741024 60.483699 
L 96.833876 60.494701 
L 96.958218 60.47831 
L 96.836473 60.501619 
L 96.963413 60.484271 
L 97.066328 60.53093 
L 96.985814 60.469995 
L 97.078341 60.520356 
L 97.227033 60.470845 
L 97.227682 60.477367 
L 97.230279 60.48417 
L 97.323455 60.417517 
L 97.333844 60.425437 
L 97.490003 60.371163 
L 97.538701 60.374517 
L 97.589023 60.325548 
L 97.597139 60.326121 
L 97.735442 60.293697 
L 97.599412 60.329623 
L 97.739987 60.29689 
L 97.839007 60.31596 
L 97.762064 60.283833 
L 97.852318 60.303521 
L 98.04289 60.183019 
L 97.853292 60.305543 
L 98.044838 60.187041 
L 98.060746 60.200004 
L 98.123405 60.141948 
L 98.152624 60.150122 
L 98.291576 60.125677 
L 98.157818 60.15957 
L 98.291901 60.128801 
L 98.303263 60.138522 
L 98.387674 60.083929 
L 98.399361 60.089398 
L 98.56526 60.004602 
L 98.400011 60.091946 
L 98.57013 60.01448 
L 98.572727 60.020963 
L 98.627918 59.991894 
L 98.680188 60.00063 
L 98.830828 59.961297 
L 98.831152 59.964356 
L 98.936016 59.91651 
L 98.937639 59.917364 
L 99.090876 59.871001 
L 98.938613 59.919314 
L 99.091525 59.873485 
L 99.162625 59.890011 
L 99.198012 59.852261 
L 99.201259 59.857516 
L 99.364236 59.799397 
L 99.476891 59.824846 
L 99.367157 59.798094 
L 99.478189 59.822705 
L 99.615518 59.786442 
L 99.480137 59.826529 
L 99.623959 59.793606 
L 99.652204 59.806789 
L 99.725576 59.763665 
L 99.733368 59.775349 
L 99.870697 59.75702 
L 99.739212 59.783236 
L 99.871022 59.759959 
L 99.871346 59.762898 
L 99.977184 59.709289 
L 100.113864 59.68565 
L 100.119707 59.690011 
L 100.204767 59.694326 
L 100.15964 59.674051 
L 100.229765 59.674908 
L 100.368393 59.617972 
L 100.381704 59.641058 
L 100.391119 59.646517 
L 100.452479 59.607067 
L 100.489489 59.606198 
L 100.630065 59.550483 
L 100.506696 59.619653 
L 100.6437 59.569502 
L 100.690126 59.587553 
L 100.74272 59.555656 
L 100.754408 59.560876 
L 100.882646 59.558446 
L 100.75668 59.564031 
L 100.884594 59.562092 
L 100.884919 59.564923 
L 100.982965 59.526135 
L 100.992055 59.525369 
L 101.132631 59.500846 
L 101.135228 59.506769 
L 101.135553 59.509575 
L 101.173213 59.484758 
L 101.244961 59.490166 
L 101.38294 59.473276 
L 101.385861 59.475379 
L 101.388783 59.48403 
L 101.491699 59.435593 
L 101.492998 59.436888 
L 101.626755 59.384567 
L 101.496893 59.440773 
L 101.647209 59.402455 
L 101.655 59.41019 
L 101.738112 59.353368 
L 101.75402 59.361859 
L 101.756293 59.364918 
L 101.945566 59.272649 
L 101.965046 59.282239 
L 102.005628 59.254128 
L 102.056274 59.265585 
L 102.063092 59.271489 
L 102.222497 59.215122 
L 102.264378 59.223546 
L 102.324439 59.192667 
L 102.33223 59.197109 
L 102.353658 59.229086 
L 102.453327 59.2163 
L 102.453651 59.21898 
L 102.501051 59.190974 
L 102.562411 59.193087 
L 102.727335 59.142671 
L 102.728634 59.147047 
L 102.810122 59.14524 
L 102.835121 59.115594 
L 102.837393 59.121669 
L 103.001019 59.073982 
L 102.853301 59.136185 
L 103.003617 59.07647 
L 103.016603 59.085813 
L 103.071794 59.056754 
L 103.11335 59.059458 
L 103.115298 59.06594 
L 103.302299 58.983043 
L 103.41463 58.993415 
L 103.332817 58.973809 
L 103.415279 58.992505 
L 103.621435 58.893384 
L 103.63572 58.906866 
L 103.72922 58.861978 
L 103.920767 58.784806 
L 103.923364 58.790242 
L 104.011995 58.740834 
L 104.026929 58.741372 
L 104.182763 58.711146 
L 104.029526 58.743805 
L 104.184062 58.712357 
L 104.19088 58.717971 
L 104.291198 58.677124 
L 104.471057 58.61819 
L 104.521703 58.635657 
L 104.489562 58.611049 
L 104.582738 58.615696 
L 104.765519 58.556716 
L 104.778505 58.562828 
L 104.871031 58.519009 
L 104.872655 58.519773 
L 104.873629 58.521394 
L 105.009659 58.522001 
L 105.035307 58.523012 
L 105.110627 58.484886 
L 105.116795 58.485465 
L 105.306718 58.416095 
L 105.307043 58.41854 
L 105.307368 58.420985 
L 105.389505 58.374606 
L 105.414828 58.387574 
L 105.415478 58.389591 
L 105.573585 58.362333 
L 105.685591 58.366073 
L 105.577805 58.359748 
L 105.685915 58.365657 
L 105.882656 58.292372 
L 105.989792 58.29688 
L 105.901486 58.285322 
L 105.994662 58.293513 
L 106.16608 58.242071 
L 106.169651 58.248738 
L 106.191078 58.25524 
L 106.243672 58.222567 
L 106.279709 58.235777 
L 106.462165 58.176866 
L 106.280358 58.237744 
L 106.463464 58.18078 
L 106.463788 58.183141 
L 106.568002 58.125395 
L 106.568976 58.126944 
L 106.744615 58.083036 
L 106.806948 58.083004 
L 106.773834 58.071721 
L 106.853699 58.061118 
L 107.061478 57.973341 
L 107.063426 57.979117 
L 107.072516 57.981629 
L 107.13485 57.943851 
L 107.170237 57.941556 
L 107.337435 57.909577 
L 107.338084 57.911488 
L 107.367952 57.913195 
L 107.434182 57.857771 
L 107.443272 57.862973 
L 107.58612 57.860714 
L 107.587419 57.861836 
L 107.654947 57.872027 
L 107.596184 57.859383 
L 107.697152 57.845732 
L 107.818898 57.868593 
L 107.819222 57.870863 
L 107.918891 57.879983 
L 107.869544 57.853643 
L 107.931228 57.870678 
L 108.063687 57.883297 
L 108.064012 57.885551 
L 108.08479 57.890051 
L 108.171798 57.856116 
L 108.173421 57.859465 
L 108.338995 57.830709 
L 108.429898 57.836979 
L 108.345163 57.828736 
L 108.451001 57.830657 
L 108.577291 57.845202 
L 108.580213 57.849603 
L 108.5932 57.855309 
L 108.687025 57.814074 
L 108.845781 57.79637 
L 108.687674 57.815913 
L 108.84643 57.798201 
L 108.860066 57.805712 
L 108.948372 57.768677 
L 108.95519 57.776282 
L 109.120114 57.746736 
L 109.123361 57.750708 
L 109.209395 57.752378 
L 109.133425 57.744354 
L 109.232445 57.731286 
L 109.400941 57.70322 
L 109.401266 57.705391 
L 109.43925 57.713221 
L 109.490546 57.675662 
L 109.5097 57.679402 
L 109.716505 57.611479 
L 109.826563 57.604251 
L 109.770398 57.59155 
L 109.827537 57.603167 
L 109.997332 57.579712 
L 110.012266 57.580641 
L 110.053173 57.560323 
L 110.106741 57.560915 
L 110.251861 57.559986 
L 110.252835 57.563871 
L 110.314195 57.541062 
L 110.367114 57.576969 
L 110.550219 57.539471 
L 110.653135 57.562439 
L 110.665472 57.558831 
L 110.845655 57.520006 
L 110.847928 57.522426 
L 110.952142 57.514685 
L 110.894678 57.498764 
L 110.95831 57.510472 
L 111.119664 57.492356 
L 111.121287 57.497876 
L 111.229397 57.486097 
L 111.17518 57.476444 
L 111.231345 57.484015 
L 111.392699 57.473352 
L 111.393348 57.477467 
L 111.48977 57.44228 
L 111.501133 57.449406 
L 111.641384 57.451693 
L 111.503081 57.452132 
L 111.64528 57.457126 
L 111.696575 57.457852 
L 111.689108 57.439506 
L 111.755987 57.447651 
L 111.892018 57.459099 
L 111.760857 57.454422 
L 111.893966 57.461797 
L 111.993635 57.459188 
L 111.962143 57.440099 
L 112.004348 57.450346 
L 112.007595 57.454042 
L 112.174467 57.430915 
L 112.209206 57.43007 
L 112.249787 57.406714 
L 112.282578 57.405565 
L 112.487435 57.34832 
L 112.489707 57.350648 
L 112.500421 57.351284 
L 112.586454 57.316438 
L 112.598142 57.325394 
L 112.79326 57.2836 
L 112.822154 57.284229 
L 112.891305 57.253123 
L 112.901694 57.258729 
L 113.112395 57.201845 
L 113.114343 57.206769 
L 113.207195 57.175087 
L 113.220505 57.175436 
L 113.39452 57.156163 
L 113.394845 57.158119 
L 113.497111 57.108276 
L 113.499384 57.110558 
L 113.655868 57.106854 
L 113.500358 57.114136 
L 113.656192 57.108797 
L 113.764952 57.113994 
L 113.659439 57.107837 
L 113.768847 57.110133 
L 113.958121 57.078613 
L 114.051947 57.089564 
L 113.975003 57.075469 
L 114.070452 57.078099 
L 114.252908 57.046931 
L 114.25583 57.050772 
L 114.350629 57.05853 
L 114.36816 57.05034 
L 114.530488 57.04349 
L 114.370108 57.052893 
L 114.531462 57.044761 
L 114.611002 57.04514 
L 114.545747 57.04198 
L 114.642494 57.03676 
L 114.81521 57.022199 
L 114.865532 57.026549 
L 114.925593 57.010546 
L 114.926567 57.011807 
L 115.137592 56.960845 
L 115.249274 56.959105 
L 115.148306 56.954989 
L 115.249923 56.958487 
L 115.432704 56.934928 
L 115.433028 56.93679 
L 115.496661 56.939417 
L 115.458351 56.93016 
L 115.542437 56.917801 
L 115.71353 56.907724 
L 115.744697 56.923657 
L 115.824237 56.896317 
L 116.003122 56.879123 
L 116.071624 56.881538 
L 116.020004 56.874072 
L 116.114154 56.869701 
L 116.317388 56.8302 
L 116.317713 56.832024 
L 116.423875 56.835762 
L 116.323557 56.830866 
L 116.430368 56.831889 
L 116.642692 56.786631 
L 116.674833 56.790882 
L 116.744959 56.760371 
L 116.751127 56.763143 
L 116.910533 56.766699 
L 116.928064 56.775865 
L 116.98358 56.740013 
L 117.017669 56.736228 
L 117.175776 56.738954 
L 117.022214 56.744638 
L 117.1761 56.740742 
L 117.24655 56.735315 
L 117.231941 56.72356 
L 117.285184 56.721225 
L 117.489717 56.678176 
L 117.492639 56.681757 
L 117.601398 56.66488 
L 117.572829 56.649179 
L 117.602048 56.664299 
L 117.784179 56.649962 
L 117.784504 56.651726 
L 117.889367 56.613914 
L 117.89099 56.61657 
L 118.100068 56.576701 
L 118.100393 56.578453 
L 118.210775 56.572833 
L 118.114678 56.569932 
L 118.212074 56.571691 
L 118.382843 56.567883 
L 118.478291 56.571338 
L 118.494848 56.562927 
L 118.6812 56.54159 
L 118.682499 56.544485 
L 118.741586 56.545398 
L 118.704575 56.535346 
L 118.791583 56.524091 
L 118.981506 56.50397 
L 118.98248 56.505128 
L 119.082798 56.498493 
L 119.045463 56.486761 
L 119.092863 56.491821 
L 119.095785 56.495287 
L 119.286357 56.470894 
L 119.395116 56.469049 
L 119.290578 56.469264 
L 119.398363 56.466275 
L 119.615232 56.425727 
L 119.619778 56.427778 
L 119.649646 56.40636 
L 119.722693 56.397573 
L 119.9045 56.373471 
L 119.910019 56.384486 
L 119.932096 56.387412 
L 119.981118 56.367645 
L 120.019428 56.366693 
L 120.020077 56.368101 
L 120.206429 56.354087 
L 120.216818 56.360955 
L 120.315838 56.336479 
L 120.550888 56.284175 
L 120.61452 56.295119 
L 120.662894 56.2782 
L 120.867751 56.251413 
L 120.885282 56.254247 
L 120.951512 56.228545 
L 120.97716 56.232376 
L 121.162862 56.223524 
L 121.229741 56.222237 
L 121.177796 56.218943 
L 121.272271 56.20467 
L 121.462194 56.192554 
L 121.564785 56.203986 
L 121.475829 56.187172 
L 121.576797 56.199926 
L 121.577446 56.20129 
L 121.73393 56.214369 
L 121.831327 56.207316 
L 121.769642 56.198727 
L 121.844313 56.200614 
L 122.019626 56.198506 
L 122.020276 56.199857 
L 122.139099 56.228033 
L 122.290389 56.239436 
L 122.294609 56.245375 
L 122.408563 56.253014 
L 122.409212 56.252496 
L 122.41116 56.256516 
L 122.607576 56.235628 
L 122.625432 56.228861 
L 122.72218 56.242726 
L 122.922492 56.222631 
L 122.923141 56.223957 
L 122.959502 56.237567 
L 123.034822 56.216829 
L 123.235134 56.198793 
L 123.235459 56.200365 
L 123.350711 56.219704 
L 123.251042 56.195475 
L 123.352335 56.218436 
L 123.512714 56.233408 
L 123.552322 56.244321 
L 123.519207 56.230166 
L 123.622772 56.218542 
L 123.623421 56.21985 
L 123.80815 56.214072 
L 123.912364 56.21466 
L 123.829577 56.206518 
L 123.920805 56.211745 
L 124.1143 56.201083 
L 124.171114 56.187913 
L 124.225332 56.1893 
L 124.411683 56.186031 
L 124.485705 56.193677 
L 124.524663 56.183545 
L 124.525637 56.186363 
L 124.732442 56.164046 
L 124.840553 56.158237 
L 124.769453 56.148376 
L 124.844124 56.155533 
L 125.090212 56.107415 
L 125.202543 56.109137 
L 125.203841 56.108161 
L 125.408049 56.091892 
L 125.408374 56.093399 
L 125.504796 56.094788 
L 125.426879 56.084815 
L 125.520704 56.088157 
L 125.716147 56.080317 
L 125.827179 56.077832 
L 125.721991 56.077715 
L 125.828802 56.076629 
L 126.026517 56.063743 
L 126.027815 56.066242 
L 126.137224 56.059822 
L 126.139497 56.058148 
L 126.330069 56.050647 
L 126.331692 56.052894 
L 126.441426 56.044586 
L 126.443049 56.043397 
L 126.631673 56.040832 
L 126.631998 56.042304 
L 126.732316 56.039212 
L 126.743355 56.032884 
L 126.966717 56.0052 
L 126.967042 56.006663 
L 127.085541 56.034582 
L 126.980677 56.001886 
L 127.08684 56.033643 
L 127.290398 56.022075 
L 127.386171 56.034121 
L 127.298515 56.019608 
L 127.405326 56.027092 
L 127.611157 56.015669 
L 127.623819 56.016676 
L 127.716345 55.977385 
L 127.716995 55.978597 
L 127.913736 55.972217 
L 128.021196 55.959265 
L 127.925423 55.968916 
L 128.024118 55.957193 
L 128.236118 55.941809 
L 128.333839 55.935856 
L 128.347474 55.931216 
L 128.576681 55.905607 
L 128.665961 55.905662 
L 128.687713 55.893735 
L 128.904258 55.877255 
L 129.018536 55.881243 
L 128.917893 55.872677 
L 129.018861 55.881017 
L 129.229562 55.868728 
L 129.342866 55.871757 
L 129.257482 55.860813 
L 129.34384 55.871085 
L 129.548373 55.864769 
L 129.580189 55.863934 
L 129.637004 55.841078 
L 129.657132 55.843429 
L 129.878222 55.825932 
L 129.982436 55.820749 
L 129.884391 55.823328 
L 129.989903 55.815658 
L 130.224304 55.78934 
L 130.286963 55.794831 
L 130.33631 55.780578 
L 130.575256 55.751504 
L 130.682392 55.752493 
L 130.688885 55.749715 
L 130.885302 55.751001 
L 130.999255 55.752163 
L 130.99958 55.751946 
L 131.191451 55.756246 
L 131.213203 55.760627 
L 131.30086 55.736861 
L 131.513833 55.719387 
L 131.516431 55.725489 
L 131.621294 55.709274 
L 131.556363 55.7147 
L 131.626164 55.707618 
L 131.863162 55.683882 
L 131.974843 55.688199 
L 131.891732 55.675987 
L 131.977765 55.686282 
L 132.206647 55.668077 
L 132.320276 55.669586 
L 132.320925 55.669162 
L 132.567663 55.639542 
L 132.674799 55.646835 
L 132.682916 55.643112 
L 132.684214 55.645338 
L 132.929004 55.615727 
L 133.038737 55.607631 
L 133.04101 55.606169 
L 133.273787 55.587622 
L 133.359172 55.583061 
L 133.385144 55.575557 
L 133.601364 55.56777 
L 133.711098 55.558346 
L 133.713045 55.557109 
L 133.936408 55.546415 
L 134.046466 55.548866 
L 133.945498 55.543668 
L 134.050687 55.546201 
L 134.275997 55.534382 
L 134.39125 55.538052 
L 134.615586 55.528423 
L 134.713632 55.510214 
L 134.636689 55.519688 
L 134.724345 55.506496 
L 134.982446 55.476072 
L 135.09153 55.471846 
L 134.999003 55.470226 
L 135.095101 55.469634 
L 135.318464 55.460965 
L 135.429496 55.457054 
L 135.330151 55.456691 
L 135.431768 55.455655 
L 135.635327 55.459234 
L 135.635976 55.460296 
L 135.747658 55.474956 
L 135.753826 55.472633 
L 135.98563 55.460346 
L 136.101531 55.470903 
L 136.014849 55.452682 
L 136.10283 55.470111 
L 136.31905 55.467361 
L 136.431381 55.46848 
L 136.33301 55.463219 
L 136.433653 55.467103 
L 136.673573 55.451507 
L 136.7898 55.458902 
L 136.790124 55.458706 
L 136.994008 55.464861 
L 137.103416 55.463446 
L 137.107637 55.460916 
L 137.254381 55.501212 
L 137.370932 55.519616 
L 137.373529 55.518063 
L 137.3771 55.524449 
L 137.623189 55.498122 
L 137.643967 55.491416 
L 137.735844 55.490499 
L 137.977712 55.475387 
L 138.086796 55.48119 
L 137.982257 55.474105 
L 138.092964 55.477547 
L 138.320872 55.470778 
L 138.434501 55.4683 
L 138.435151 55.467919 
L 138.635463 55.47598 
L 138.636112 55.478385 
L 138.750715 55.485067 
L 138.640657 55.477116 
L 138.752663 55.483928 
L 138.978298 55.479914 
L 139.087058 55.487192 
L 138.987713 55.477201 
L 139.094525 55.484232 
L 139.346781 55.464818 
L 139.421452 55.456027 
L 139.36204 55.460116 
L 139.456515 55.44539 
L 139.650009 55.461435 
L 139.763963 55.457468 
L 140.026609 55.433766 
L 140.140238 55.431416 
L 140.042517 55.427385 
L 140.140887 55.431044 
L 140.384703 55.419653 
L 140.496384 55.438752 
L 140.389898 55.418052 
L 140.503851 55.434506 
L 140.735655 55.429967 
L 140.856427 55.450538 
L 141.115177 55.430783 
L 141.228806 55.425797 
L 141.490478 55.403276 
L 141.491452 55.405399 
L 141.606055 55.405265 
L 141.606704 55.404903 
L 141.889478 55.373502 
L 142.00538 55.37535 
L 142.232963 55.376085 
L 142.34854 55.383366 
L 142.350164 55.38247 
L 142.616056 55.360783 
L 142.616381 55.361917 
L 142.732282 55.366384 
L 142.732932 55.366027 
L 142.943633 55.376027 
L 143.036484 55.373497 
L 143.056288 55.366582 
L 143.294909 55.362621 
L 143.402695 55.368863 
L 143.410811 55.364449 
L 143.635148 55.368257 
L 143.744881 55.372116 
L 143.750725 55.368953 
L 144.004605 55.356796 
L 144.114988 55.348747 
L 144.117585 55.347349 
L 144.363998 55.340615 
L 144.467563 55.337558 
L 144.477627 55.333449 
L 144.721118 55.328356 
L 144.828254 55.324702 
L 144.834747 55.321246 
L 145.05811 55.328164 
L 145.170116 55.321948 
L 145.06785 55.324263 
L 145.171739 55.321088 
L 145.412958 55.318546 
L 145.522366 55.327591 
L 145.530158 55.323484 
L 145.778519 55.317195 
L 145.894746 55.331386 
L 145.897992 55.329683 
L 146.142133 55.326858 
L 146.241802 55.303497 
L 146.159989 55.320023 
L 146.249593 55.299433 
L 146.496331 55.295374 
L 146.612233 55.304668 
L 146.614505 55.303489 
L 146.825206 55.318083 
L 146.825531 55.319151 
L 146.831699 55.317194 
L 146.938186 55.307826 
L 147.204728 55.294811 
L 147.314461 55.283855 
L 147.317059 55.282521 
L 147.556654 55.283458 
L 147.667361 55.269629 
L 147.668335 55.269131 
L 147.887477 55.281749 
L 148.008249 55.298144 
L 148.008573 55.297979 
L 148.262129 55.292986 
L 148.36894 55.294564 
L 148.377381 55.290288 
L 148.60464 55.296211 
L 148.605289 55.298297 
L 148.717295 55.308085 
L 148.723788 55.306015 
L 149.029938 55.275826 
L 149.145839 55.277649 
L 149.146489 55.277323 
L 149.384785 55.281292 
L 149.498739 55.282877 
L 149.501336 55.281581 
L 149.736062 55.288484 
L 149.851314 55.287032 
L 149.851964 55.286709 
L 150.154867 55.259831 
L 150.261354 55.262757 
L 150.270769 55.258109 
L 150.549322 55.243456 
L 150.665549 55.249831 
L 150.667497 55.248874 
L 150.9467 55.235183 
L 151.061628 55.231655 
L 151.061952 55.231496 
L 151.325572 55.225516 
L 151.438877 55.216994 
L 151.439201 55.216836 
L 151.720028 55.20261 
L 151.720353 55.203611 
L 151.836579 55.201851 
L 152.08916 55.201343 
L 152.089485 55.20234 
L 152.205062 55.203205 
L 152.206361 55.20258 
L 152.494979 55.187108 
L 152.608284 55.190223 
L 152.612179 55.188361 
L 152.880344 55.18276 
L 152.994623 55.179702 
L 152.995921 55.179085 
L 153.291357 55.160623 
L 153.408882 55.166284 
L 153.409856 55.165824 
L 153.659191 55.170361 
L 153.769249 55.170467 
L 153.775093 55.167716 
L 154.040986 55.162206 
L 154.041635 55.164152 
L 154.158835 55.165414 
L 154.472127 55.141177 
L 154.588678 55.15059 
L 154.591925 55.149077 
L 154.842234 55.154261 
L 154.962031 55.163219 
L 154.962356 55.163068 
L 155.23182 55.160438 
L 155.349345 55.165965 
L 155.350643 55.165365 
L 155.619133 55.163188 
L 155.730814 55.15925 
L 155.734385 55.157609 
L 156.076247 55.121901 
L 156.193772 55.123044 
L 156.457392 55.124334 
L 156.578163 55.134898 
L 156.847952 55.133351 
L 156.9671 55.138074 
L 157.252796 55.130434 
L 157.365776 55.11847 
L 157.366101 55.118324 
L 157.626799 55.121998 
L 157.739129 55.123296 
L 157.743999 55.121114 
L 158.011839 55.122646 
L 158.128066 55.12434 
L 158.129689 55.123616 
L 158.377725 55.133939 
L 158.491354 55.123973 
L 158.491679 55.123829 
L 158.813412 55.099373 
L 158.814061 55.10121 
L 158.923795 55.099422 
L 158.929963 55.096699 
L 159.212738 55.091714 
L 159.213062 55.092629 
L 159.326691 55.096537 
L 159.331561 55.094397 
L 159.632516 55.082537 
L 159.749392 55.08502 
L 159.751015 55.084311 
L 160.001324 55.095656 
L 160.119823 55.097404 
L 160.4711 55.064871 
L 160.58895 55.065892 
L 160.589274 55.065752 
L 160.873023 55.063654 
L 160.985353 55.05773 
L 160.988275 55.056472 
L 161.275919 55.052742 
L 161.389873 55.048225 
L 161.392146 55.047251 
L 161.661934 55.052222 
L 161.771018 55.05083 
L 161.778485 55.047645 
L 162.054766 55.048808 
L 162.055091 55.049693 
L 162.169694 55.040858 
L 162.170019 55.04072 
L 162.462858 55.036929 
L 162.582006 55.044533 
L 162.583629 55.043847 
L 162.823874 55.062231 
L 162.936529 55.049213 
L 162.937178 55.04894 
L 163.273196 55.026035 
L 163.273521 55.026907 
L 163.386176 55.021053 
L 163.389098 55.01983 
L 163.742972 54.991715 
L 163.861146 54.991657 
L 163.861471 54.991522 
L 164.212423 54.964875 
L 164.325078 54.966139 
L 164.330597 54.963856 
L 164.596489 54.973504 
L 164.716287 54.976774 
L 165.033799 54.965143 
L 165.150026 54.960978 
L 165.150675 54.960712 
L 165.447734 54.958531 
L 165.563636 54.955509 
L 165.564935 54.95498 
L 165.872058 54.948734 
L 165.98796 54.953573 
L 165.992181 54.951859 
L 166.266189 54.960034 
L 166.384688 54.971587 
L 166.388909 54.96988 
L 166.726875 54.952184 
L 166.84375 54.948821 
L 166.8444 54.94856 
L 167.182041 54.932124 
L 167.301514 54.939348 
L 167.303462 54.938569 
L 167.614481 54.932864 
L 167.730707 54.932698 
L 167.73298 54.931793 
L 168.039779 54.928769 
L 168.157304 54.930008 
L 168.159252 54.929235 
L 168.459882 54.928672 
L 168.578706 54.928439 
L 168.579031 54.928311 
L 168.891673 54.923977 
L 169.01212 54.926906 
L 169.334178 54.918909 
L 169.453002 54.917748 
L 169.794863 54.903045 
L 169.913687 54.901909 
L 170.205552 54.906712 
L 170.325998 54.908688 
L 170.612669 54.91639 
L 170.732142 54.915928 
L 171.016215 54.924575 
L 171.136012 54.924907 
L 171.507093 54.901098 
L 171.628514 54.905451 
L 171.944078 54.90297 
L 172.062577 54.900145 
L 172.375869 54.89947 
L 172.495342 54.898121 
L 172.8648 54.876263 
L 172.984273 54.87495 
L 173.298863 54.87478 
L 173.418661 54.874258 
L 173.762795 54.86305 
L 173.880645 54.85786 
L 174.193612 54.859248 
L 174.311786 54.853964 
L 174.596833 54.866596 
L 174.720202 54.873714 
L 175.039663 54.873537 
L 175.160109 54.873677 
L 175.437365 54.889901 
L 175.555539 54.884645 
L 175.896427 54.877478 
L 176.018497 54.881434 
L 176.334386 54.883417 
L 176.455158 54.883426 
L 176.820394 54.868372 
L 176.93727 54.859306 
L 177.321337 54.837618 
L 177.440485 54.833909 
L 177.775204 54.830988 
L 177.893703 54.825801 
L 178.284588 54.80373 
L 178.403736 54.799231 
L 178.728066 54.800998 
L 178.851111 54.805451 
L 179.249138 54.781987 
L 179.367637 54.776073 
L 179.674435 54.784917 
L 179.79748 54.789348 
L 180.185118 54.77064 
L 180.302967 54.762475 
L 180.660088 54.754583 
L 180.779236 54.749395 
L 181.155511 54.735781 
L 181.273685 54.728456 
L 181.642169 54.717665 
L 181.760992 54.711841 
L 182.138566 54.698868 
L 182.260961 54.70019 
L 182.659962 54.680831 
L 182.781707 54.680731 
L 183.156684 54.669695 
L 183.276157 54.664608 
L 183.656977 54.652523 
L 183.778722 54.652456 
L 184.126103 54.651719 
L 184.243953 54.642338 
L 184.604644 54.637991 
L 184.727039 54.638537 
L 185.069225 54.640394 
L 185.188049 54.63321 
L 185.522444 54.638473 
L 185.642891 54.634817 
L 186.078253 54.606673 
L 186.204219 54.614097 
L 186.557443 54.613974 
L 186.681462 54.617201 
L 187.073969 54.605 
L 187.197013 54.606153 
L 187.589521 54.594046 
L 187.71289 54.5951 
L 188.083971 54.590824 
L 188.20247 54.58162 
L 188.584588 54.573842 
L 188.708931 54.576951 
L 189.117672 54.561452 
L 189.240067 54.560494 
L 189.605303 54.559813 
L 189.728672 54.560107 
L 190.124426 54.549713 
L 190.243899 54.541952 
L 190.602643 54.544166 
L 190.725038 54.542466 
L 191.09969 54.539648 
L 191.219812 54.533295 
L 191.637318 54.517824 
L 191.75809 54.512084 
L 192.221048 54.483329 
L 192.338573 54.471049 
L 192.747313 54.459423 
L 192.873604 54.464971 
L 193.303122 54.447752 
L 193.421297 54.436173 
L 193.776144 54.442853 
L 193.903409 54.449574 
L 194.283255 54.448524 
L 194.408897 54.451966 
L 194.820884 54.441851 
L 194.942305 54.43614 
L 195.355915 54.42563 
L 195.478959 54.423176 
L 195.814003 54.437251 
L 195.936073 54.432873 
L 196.332801 54.429017 
L 196.453248 54.421474 
L 196.803226 54.431694 
L 196.932114 54.439974 
L 197.357088 54.428418 
L 197.483054 54.430968 
L 197.814202 54.44741 
L 197.94244 54.454346 
L 198.317092 54.45848 
L 198.440136 54.454605 
L 198.792387 54.466064 
L 198.91608 54.463447 
L 199.223853 54.487943 
L 199.345274 54.480949 
L 199.689733 54.495258 
L 199.817322 54.500083 
L 200.212103 54.49956 
L 200.331576 54.488186 
L 200.743563 54.483402 
L 200.867905 54.48133 
L 201.33833 54.459656 
L 201.464621 54.461295 
L 201.871414 54.458843 
L 201.994782 54.454277 
L 202.391835 54.455356 
L 202.517477 54.455069 
L 202.914854 54.456049 
L 203.039522 54.453945 
L 203.512544 54.434081 
L 203.638185 54.433122 
L 204.144972 54.404562 
L 204.581308 54.396076 
L 204.708248 54.397553 
L 205.142636 54.39036 
L 205.269576 54.39115 
L 205.761104 54.368048 
L 205.885446 54.364113 
L 206.319835 54.357776 
L 206.44158 54.349144 
L 206.871748 54.344728 
L 206.993493 54.335466 
L 207.43405 54.328926 
L 207.561639 54.330257 
L 208.021351 54.31851 
L 208.148291 54.318678 
L 208.584302 54.31416 
L 208.711242 54.313663 
L 209.128749 54.314877 
L 209.253741 54.310912 
L 209.680013 54.309756 
L 209.80468 54.305236 
L 210.290039 54.28884 
L 210.413408 54.281406 
L 210.851367 54.278534 
L 210.978957 54.278562 
L 211.392567 54.282215 
L 211.519832 54.281671 
L 211.984737 54.272307 
L 212.110379 54.26829 
L 212.525288 54.272901 
L 212.652228 54.271156 
L 213.118757 54.262123 
L 213.245697 54.260394 
L 213.684955 54.259241 
L 213.811246 54.255759 
L 214.236219 54.259004 
L 214.365107 54.259994 
L 214.786509 54.264144 
L 214.916046 54.265596 
L 215.38777 54.257291 
L 215.514385 54.253768 
L 215.94228 54.257495 
L 216.070844 54.25729 
L 216.542242 54.249795 
L 216.668858 54.245675 
L 217.151295 54.236052 
L 217.281157 54.237423 
L 217.764893 54.228164 
L 217.893456 54.227361 
L 218.348947 54.22597 
L 218.480432 54.229422 
L 218.975855 54.217934 
L 219.104419 54.216525 
L 219.616399 54.201584 
L 219.745287 54.200114 
L 220.273501 54.181849 
L 220.402714 54.180937 
L 220.892618 54.172365 
L 221.021506 54.170934 
L 221.552316 54.152898 
L 221.68575 54.158298 
L 222.149357 54.157584 
L 222.275647 54.151348 
L 222.711334 54.158132 
L 222.841196 54.157097 
L 223.280779 54.162884 
L 223.410966 54.162372 
L 223.852496 54.168248 
L 223.983657 54.169299 
L 224.480703 54.162226 
L 224.611864 54.16268 
L 225.050473 54.170409 
L 225.180984 54.169818 
L 225.66959 54.165431 
L 225.801075 54.1658 
L 226.291953 54.161489 
L 226.423763 54.162373 
L 226.94386 54.15169 
L 227.073073 54.148489 
L 227.547718 54.148722 
L 227.679852 54.149533 
L 228.196703 54.140335 
L 228.327214 54.138613 
L 228.799587 54.140577 
L 228.932696 54.142322 
L 229.427794 54.139499 
L 229.560903 54.141237 
L 230.062819 54.136831 
L 230.191707 54.131473 
L 230.743296 54.116107 
L 230.87608 54.116777 
L 231.429292 54.101724 
L 231.563049 54.103894 
L 232.069186 54.100398 
L 232.196776 54.092588 
L 232.809399 54.064654 
L 232.939911 54.061343 
L 233.455787 54.056349 
L 233.591493 54.060343 
L 234.101526 54.057267 
L 234.231712 54.052938 
L 234.712851 54.057017 
L 234.847907 54.059446 
L 235.33911 54.061772 
L 235.479361 54.071946 
L 236.04978 54.05638 
L 236.184511 54.057751 
L 236.711102 54.052681 
L 236.847781 54.056934 
L 237.336062 54.060996 
L 237.470145 54.060843 
L 237.986021 54.059286 
L 238.120428 54.059612 
L 238.661628 54.053001 
L 238.790841 54.045728 
L 239.35574 54.033961 
L 239.485602 54.027135 
L 239.980376 54.031424 
L 240.11316 54.028868 
L 240.697863 54.014004 
L 240.831297 54.011871 
L 241.308864 54.020997 
L 241.444894 54.022608 
L 241.938694 54.028682 
L 242.072777 54.026949 
L 242.613652 54.022807 
L 242.745137 54.017373 
L 243.267831 54.017724 
L 243.399966 54.012708 
L 243.925258 54.013046 
L 244.057067 54.007592 
L 244.610279 54.002509 
L 244.747608 54.004355 
L 245.396918 53.979402 
L 245.529053 53.973952 
L 246.101094 53.966086 
L 246.236476 53.964693 
L 246.8017 53.958325 
L 246.936431 53.956037 
L 247.530225 53.944252 
L 247.664957 53.941467 
L 248.219792 53.93843 
L 248.352251 53.932514 
L 248.846051 53.942727 
L 248.982731 53.942134 
L 249.454779 53.957308 
L 249.594056 53.960275 
L 250.123244 53.964048 
L 250.264793 53.969598 
L 250.834562 53.964973 
L 250.970918 53.963417 
L 251.492638 53.969191 
L 251.632889 53.972422 
L 252.24811 53.959553 
L 252.391607 53.96717 
L 252.890926 53.978453 
L 253.032801 53.983337 
L 253.593155 53.982656 
L 253.72951 53.980108 
L 254.339861 53.969345 
L 254.481735 53.973697 
L 254.982028 53.985632 
L 255.120981 53.986064 
L 255.701788 53.982275 
L 255.838468 53.979196 
L 256.446871 53.970431 
L 256.581603 53.964799 
L 257.140983 53.966351 
L 257.277338 53.962389 
L 257.862366 53.959355 
L 258.003267 53.961374 
L 258.582126 53.96006 
L 258.720429 53.95819 
L 259.348636 53.947202 
L 259.483044 53.939794 
L 260.009634 53.949748 
L 260.150534 53.950783 
L 260.818998 53.93303 
L 260.958925 53.932333 
L 261.529992 53.934083 
L 261.670893 53.93464 
L 262.320852 53.921618 
L 262.462077 53.922119 
L 263.081843 53.915475 
L 263.22534 53.918878 
L 263.816537 53.918217 
L 263.960034 53.92113 
L 264.550257 53.921123 
L 264.69278 53.92279 
L 265.321637 53.915907 
L 265.460914 53.913008 
L 266.115418 53.901802 
L 266.254046 53.897641 
L 266.891992 53.890118 
L 267.032893 53.888824 
L 267.59974 53.895165 
L 267.73642 53.888148 
L 268.308462 53.893496 
L 268.456179 53.900208 
L 269.130812 53.886856 
L 269.278855 53.893485 
L 269.853494 53.899214 
L 269.995044 53.897353 
L 270.582344 53.901168 
L 270.720972 53.895727 
L 271.305351 53.900528 
L 271.447874 53.899413 
L 272.148155 53.883383 
L 272.286782 53.877543 
L 272.877005 53.882199 
L 273.020827 53.882228 
L 273.612348 53.887069 
L 273.757144 53.88782 
L 274.387624 53.886014 
L 274.529173 53.882854 
L 275.193417 53.875423 
L 275.338213 53.875729 
L 275.945967 53.878953 
L 276.087842 53.875765 
L 276.739099 53.871184 
L 276.884545 53.871819 
L 277.48191 53.877771 
L 277.628329 53.87911 
L 278.32796 53.866839 
L 278.471782 53.865114 
L 279.195438 53.849131 
L 279.344455 53.853094 
L 279.980453 53.853097 
L 280.126548 53.853183 
L 280.793714 53.848151 
L 280.935263 53.842937 
L 281.633596 53.832946 
L 281.779366 53.832234 
L 282.483867 53.82168 
L 282.634182 53.825807 
L 283.287388 53.824634 
L 283.433807 53.824251 
L 284.085065 53.823853 
L 284.232783 53.824535 
L 284.904818 53.820992 
L 285.049615 53.817903 
L 285.667757 53.824052 
L 285.818073 53.827264 
L 286.48881 53.824809 
L 286.636203 53.824266 
L 287.298499 53.823688 
L 287.449139 53.826398 
L 288.175067 53.815462 
L 288.32311 53.81524 
L 289.035402 53.807103 
L 289.189289 53.813028 
L 289.861649 53.812054 
L 290.014886 53.816808 
L 290.637574 53.824556 
L 290.785941 53.82386 
L 291.492066 53.81806 
L 291.640758 53.817317 
L 292.31117 53.817904 
L 292.45694 53.813522 
L 293.193582 53.803574 
L 293.343897 53.804223 
L 293.987038 53.810158 
L 294.135406 53.808254 
L 294.860685 53.801081 
L 295.013273 53.803394 
L 295.72589 53.798741 
L 295.871335 53.793273 
L 296.635248 53.780728 
L 296.783616 53.778056 
L 297.468313 53.779256 
L 297.616355 53.775842 
L 298.332219 53.772414 
L 298.48221 53.770712 
L 299.185088 53.769802 
L 299.340922 53.774371 
L 300.042826 53.774009 
L 300.197037 53.776426 
L 300.961924 53.766405 
L 301.111914 53.763932 
L 301.883944 53.753254 
L 302.036207 53.752812 
L 302.780316 53.747025 
L 302.937773 53.752069 
L 303.662403 53.749769 
L 303.81564 53.749964 
L 304.553905 53.74593 
L 304.705194 53.743696 
L 305.426253 53.742778 
L 305.574295 53.736778 
L 306.2986 53.735767 
L 306.457681 53.741266 
L 307.1927 53.738969 
L 307.34756 53.739689 
L 308.061801 53.741003 
L 308.216986 53.741669 
L 308.895515 53.749242 
L 309.053622 53.752519 
L 309.870129 53.738855 
L 310.026612 53.740082 
L 310.862599 53.724304 
L 311.020381 53.72686 
L 311.74566 53.728409 
L 311.897598 53.724639 
L 312.551129 53.737446 
L 312.703067 53.733305 
L 313.48094 53.727631 
L 313.635801 53.726082 
L 314.449386 53.715457 
L 314.608142 53.717834 
L 315.37173 53.715142 
L 315.53211 53.71876 
L 316.342773 53.709424 
L 316.502503 53.712013 
L 317.261546 53.711147 
L 317.41803 53.710132 
L 318.247848 53.699169 
L 318.405955 53.699402 
L 319.210449 53.692619 
L 319.367258 53.691208 
L 320.129547 53.69104 
L 320.284732 53.688043 
L 321.070072 53.684879 
L 321.231101 53.687244 
L 321.948588 53.694346 
L 322.107994 53.694752 
L 322.920281 53.688403 
L 323.074492 53.68341 
L 323.819899 53.687514 
L 323.987096 53.694732 
L 324.781527 53.692082 
L 324.942556 53.69297 
L 325.742505 53.689902 
L 325.906456 53.693591 
L 326.794062 53.678358 
L 326.959961 53.683544 
L 327.798869 53.675695 
L 327.959249 53.675255 
L 328.81861 53.664919 
L 328.973471 53.658903 
L 329.832507 53.649413 
L 329.992238 53.647676 
L 330.821406 53.642809 
L 330.988603 53.647754 
L 331.740179 53.654121 
L 331.902507 53.654128 
L 332.724208 53.651015 
L 332.890432 53.654313 
L 333.765052 53.644205 
L 333.930626 53.646543 
L 334.83901 53.632522 
L 335.004259 53.634212 
L 335.851284 53.629088 
L 336.020429 53.634022 
L 336.850896 53.631534 
L 337.01647 53.633167 
L 337.762203 53.642964 
L 337.92875 53.645134 
L 338.800773 53.637987 
L 338.964075 53.63685 
L 339.803957 53.634459 
L 339.966609 53.632399 
L 340.772727 53.634936 
L 340.934405 53.631663 
L 341.805454 53.625781 
L 341.974924 53.629219 
L 342.781367 53.632709 
L 342.947915 53.633168 
L 343.824483 53.62759 
L 343.991356 53.628008 
L 344.862405 53.623536 
L 345.033498 53.627385 
L 345.9013 53.623695 
L 346.0659 53.621429 
L 346.869746 53.626886 
L 347.037268 53.626883 
L 347.952145 53.618011 
L 348.117394 53.61568 
L 348.948186 53.618234 
L 349.118305 53.619863 
L 350.019223 53.613557 
L 350.19064 53.615993 
L 351.052274 53.615488 
L 351.218498 53.613384 
L 352.104481 53.610056 
L 352.270704 53.607639 
L 353.243695 53.593432 
L 353.411866 53.592074 
L 354.335509 53.584964 
L 354.505628 53.584974 
L 355.427973 53.578401 
L 355.594196 53.57475 
L 356.434727 53.578988 
L 356.605171 53.578641 
L 357.520373 53.573682 
L 357.691466 53.573575 
L 358.562515 53.574872 
L 358.735556 53.576102 
L 359.529338 53.587452 
L 359.698483 53.585374 
L 360.655241 53.576481 
L 360.825685 53.574883 
L 361.73764 53.572295 
L 361.907435 53.569847 
L 362.759329 53.575088 
L 362.938214 53.580253 
L 363.830041 53.580792 
L 363.999186 53.577504 
L 364.864066 53.582006 
L 365.036134 53.580847 
L 365.910429 53.58447 
L 366.086067 53.58596 
L 366.932443 53.593298 
L 367.107107 53.593667 
L 367.984 53.597522 
L 368.161911 53.600249 
L 369.000494 53.609363 
L 369.175483 53.609375 
L 370.075102 53.611302 
L 370.253987 53.614187 
L 371.176656 53.613599 
L 371.354242 53.615113 
L 372.231459 53.620625 
L 372.405799 53.619197 
L 373.290808 53.62404 
L 373.466447 53.623363 
L 374.438788 53.617989 
L 374.61118 53.614107 
L 375.468918 53.62309 
L 375.65462 53.629586 
L 376.569173 53.632015 
L 376.74189 53.627816 
L 377.664559 53.629575 
L 377.84182 53.628711 
L 378.79728 53.626875 
L 378.971944 53.623662 
L 379.922533 53.623013 
L 380.103041 53.624134 
L 381.04032 53.625343 
L 381.221802 53.626931 
L 382.255179 53.617173 
L 382.435687 53.617704 
L 383.413222 53.615105 
L 383.588861 53.611541 
L 384.547567 53.611448 
L 384.725802 53.60963 
L 385.700091 53.608319 
L 385.881573 53.608737 
L 386.84872 53.608545 
L 387.029553 53.607884 
L 388.06228 53.60074 
L 388.247333 53.603046 
L 389.165782 53.609302 
L 389.34629 53.607824 
L 390.263116 53.6148 
L 390.444273 53.613535 
L 391.399083 53.616438 
L 391.581539 53.615881 
L 392.627902 53.608686 
L 392.813604 53.610315 
L 393.755753 53.61548 
L 393.939183 53.6151 
L 394.98587 53.608767 
L 395.167677 53.606608 
L 396.233519 53.598744 
L 396.415975 53.596806 
L 397.507789 53.58639 
L 397.691868 53.585401 
L 398.487273 53.582122 
L 398.487273 53.582122 
" clip-path="url(#pdcc1952352)" style="fill: none; stroke: #1f77b4; stroke-width: 1.5; stroke-linecap: square"/>
   </g>
   <g id="line2d_13">
    <path d="M 57.6 56.103421 
L 414.72 56.103421 
" clip-path="url(#pdcc1952352)" style="fill: none; stroke: #008000; stroke-width: 1.5; stroke-linecap: square"/>
   </g>
   <g id="line2d_14">
    <path d="M 57.6 286.918133 
L 414.72 286.918133 
" clip-path="url(#pdcc1952352)" style="fill: none; stroke: #ff0000; stroke-width: 1.5; stroke-linecap: square"/>
   </g>
   <g id="patch_3">
    <path d="M 57.6 307.584 
L 57.6 41.472 
" style="fill: none; stroke: #000000; stroke-width: 0.8; stroke-linejoin: miter; stroke-linecap: square"/>
   </g>
   <g id="patch_4">
    <path d="M 414.72 307.584 
L 414.72 41.472 
" style="fill: none; stroke: #000000; stroke-width: 0.8; stroke-linejoin: miter; stroke-linecap: square"/>
   </g>
   <g id="patch_5">
    <path d="M 57.6 307.584 
L 414.72 307.584 
" style="fill: none; stroke: #000000; stroke-width: 0.8; stroke-linejoin: miter; stroke-linecap: square"/>
   </g>
   <g id="patch_6">
    <path d="M 57.6 41.472 
L 414.72 41.472 
" style="fill: none; stroke: #000000; stroke-width: 0.8; stroke-linejoin: miter; stroke-linecap: square"/>
   </g>
   <g id="text_15">
    <!-- Hit Rate utilizando a estratgia Fifo (50%) -->
    <g transform="translate(110.4975 35.472) scale(0.12 -0.12)">
     <defs>
      <path id="DejaVuSans-69" d="M 603 3500 
L 1178 3500 
L 1178 0 
L 603 0 
L 603 3500 
z
M 603 4863 
L 1178 4863 
L 1178 4134 
L 603 4134 
L 603 4863 
z
" transform="scale(0.015625)"/>
      <path id="DejaVuSans-74" d="M 1172 4494 
L 1172 3500 
L 2356 3500 
L 2356 3053 
L 1172 3053 
L 1172 1153 
Q 1172 725 1289 603 
Q 1406 481 1766 481 
L 2356 481 
L 2356 0 
L 1766 0 
Q 1100 0 847 248 
Q 594 497 594 1153 
L 594 3053 
L 172 3053 
L 172 3500 
L 594 3500 
L 594 4494 
L 1172 4494 
z
" transform="scale(0.015625)"/>
      <path id="DejaVuSans-52" d="M 2841 2188 
Q 3044 2119 3236 1894 
Q 3428 1669 3622 1275 
L 4263 0 
L 3584 0 
L 2988 1197 
Q 2756 1666 2539 1819 
Q 2322 1972 1947 1972 
L 1259 1972 
L 1259 0 
L 628 0 
L 628 4666 
L 2053 4666 
Q 2853 4666 3247 4331 
Q 3641 3997 3641 3322 
Q 3641 2881 3436 2590 
Q 3231 2300 2841 2188 
z
M 1259 4147 
L 1259 2491 
L 2053 2491 
Q 2509 2491 2742 2702 
Q 2975 2913 2975 3322 
Q 2975 3731 2742 3939 
Q 2509 4147 2053 4147 
L 1259 4147 
z
" transform="scale(0.015625)"/>
      <path id="DejaVuSans-61" d="M 2194 1759 
Q 1497 1759 1228 1600 
Q 959 1441 959 1056 
Q 959 750 1161 570 
Q 1363 391 1709 391 
Q 2188 391 2477 730 
Q 2766 1069 2766 1631 
L 2766 1759 
L 2194 1759 
z
M 3341 1997 
L 3341 0 
L 2766 0 
L 2766 531 
Q 2569 213 2275 61 
Q 1981 -91 1556 -91 
Q 1019 -91 701 211 
Q 384 513 384 1019 
Q 384 1609 779 1909 
Q 1175 2209 1959 2209 
L 2766 2209 
L 2766 2266 
Q 2766 2663 2505 2880 
Q 2244 3097 1772 3097 
Q 1472 3097 1187 3025 
Q 903 2953 641 2809 
L 641 3341 
Q 956 3463 1253 3523 
Q 1550 3584 1831 3584 
Q 2591 3584 2966 3190 
Q 3341 2797 3341 1997 
z
" transform="scale(0.015625)"/>
      <path id="DejaVuSans-75" d="M 544 1381 
L 544 3500 
L 1119 3500 
L 1119 1403 
Q 1119 906 1312 657 
Q 1506 409 1894 409 
Q 2359 409 2629 706 
Q 2900 1003 2900 1516 
L 2900 3500 
L 3475 3500 
L 3475 0 
L 2900 0 
L 2900 538 
Q 2691 219 2414 64 
Q 2138 -91 1772 -91 
Q 1169 -91 856 284 
Q 544 659 544 1381 
z
M 1991 3584 
L 1991 3584 
z
" transform="scale(0.015625)"/>
      <path id="DejaVuSans-6c" d="M 603 4863 
L 1178 4863 
L 1178 0 
L 603 0 
L 603 4863 
z
" transform="scale(0.015625)"/>
      <path id="DejaVuSans-7a" d="M 353 3500 
L 3084 3500 
L 3084 2975 
L 922 459 
L 3084 459 
L 3084 0 
L 275 0 
L 275 525 
L 2438 3041 
L 353 3041 
L 353 3500 
z
" transform="scale(0.015625)"/>
      <path id="DejaVuSans-64" d="M 2906 2969 
L 2906 4863 
L 3481 4863 
L 3481 0 
L 2906 0 
L 2906 525 
Q 2725 213 2448 61 
Q 2172 -91 1784 -91 
Q 1150 -91 751 415 
Q 353 922 353 1747 
Q 353 2572 751 3078 
Q 1150 3584 1784 3584 
Q 2172 3584 2448 3432 
Q 2725 3281 2906 2969 
z
M 947 1747 
Q 947 1113 1208 752 
Q 1469 391 1925 391 
Q 2381 391 2643 752 
Q 2906 1113 2906 1747 
Q 2906 2381 2643 2742 
Q 2381 3103 1925 3103 
Q 1469 3103 1208 2742 
Q 947 2381 947 1747 
z
" transform="scale(0.015625)"/>
      <path id="DejaVuSans-6f" d="M 1959 3097 
Q 1497 3097 1228 2736 
Q 959 2375 959 1747 
Q 959 1119 1226 758 
Q 1494 397 1959 397 
Q 2419 397 2687 759 
Q 2956 1122 2956 1747 
Q 2956 2369 2687 2733 
Q 2419 3097 1959 3097 
z
M 1959 3584 
Q 2709 3584 3137 3096 
Q 3566 2609 3566 1747 
Q 3566 888 3137 398 
Q 2709 -91 1959 -91 
Q 1206 -91 779 398 
Q 353 888 353 1747 
Q 353 2609 779 3096 
Q 1206 3584 1959 3584 
z
" transform="scale(0.015625)"/>
      <path id="DejaVuSans-73" d="M 2834 3397 
L 2834 2853 
Q 2591 2978 2328 3040 
Q 2066 3103 1784 3103 
Q 1356 3103 1142 2972 
Q 928 2841 928 2578 
Q 928 2378 1081 2264 
Q 1234 2150 1697 2047 
L 1894 2003 
Q 2506 1872 2764 1633 
Q 3022 1394 3022 966 
Q 3022 478 2636 193 
Q 2250 -91 1575 -91 
Q 1294 -91 989 -36 
Q 684 19 347 128 
L 347 722 
Q 666 556 975 473 
Q 1284 391 1588 391 
Q 1994 391 2212 530 
Q 2431 669 2431 922 
Q 2431 1156 2273 1281 
Q 2116 1406 1581 1522 
L 1381 1569 
Q 847 1681 609 1914 
Q 372 2147 372 2553 
Q 372 3047 722 3315 
Q 1072 3584 1716 3584 
Q 2034 3584 2315 3537 
Q 2597 3491 2834 3397 
z
" transform="scale(0.015625)"/>
      <path id="DejaVuSans-e9" d="M 3597 1894 
L 3597 1613 
L 953 1613 
Q 991 1019 1311 708 
Q 1631 397 2203 397 
Q 2534 397 2845 478 
Q 3156 559 3463 722 
L 3463 178 
Q 3153 47 2828 -22 
Q 2503 -91 2169 -91 
Q 1331 -91 842 396 
Q 353 884 353 1716 
Q 353 2575 817 3079 
Q 1281 3584 2069 3584 
Q 2775 3584 3186 3129 
Q 3597 2675 3597 1894 
z
M 3022 2063 
Q 3016 2534 2758 2815 
Q 2500 3097 2075 3097 
Q 1594 3097 1305 2825 
Q 1016 2553 972 2059 
L 3022 2063 
z
M 2466 5119 
L 3088 5119 
L 2070 3944 
L 1591 3944 
L 2466 5119 
z
" transform="scale(0.015625)"/>
      <path id="DejaVuSans-67" d="M 2906 1791 
Q 2906 2416 2648 2759 
Q 2391 3103 1925 3103 
Q 1463 3103 1205 2759 
Q 947 2416 947 1791 
Q 947 1169 1205 825 
Q 1463 481 1925 481 
Q 2391 481 2648 825 
Q 2906 1169 2906 1791 
z
M 3481 434 
Q 3481 -459 3084 -895 
Q 2688 -1331 1869 -1331 
Q 1566 -1331 1297 -1286 
Q 1028 -1241 775 -1147 
L 775 -588 
Q 1028 -725 1275 -790 
Q 1522 -856 1778 -856 
Q 2344 -856 2625 -561 
Q 2906 -266 2906 331 
L 2906 616 
Q 2728 306 2450 153 
Q 2172 0 1784 0 
Q 1141 0 747 490 
Q 353 981 353 1791 
Q 353 2603 747 3093 
Q 1141 3584 1784 3584 
Q 2172 3584 2450 3431 
Q 2728 3278 2906 2969 
L 2906 3500 
L 3481 3500 
L 3481 434 
z
" transform="scale(0.015625)"/>
      <path id="DejaVuSans-46" d="M 628 4666 
L 3309 4666 
L 3309 4134 
L 1259 4134 
L 1259 2759 
L 3109 2759 
L 3109 2228 
L 1259 2228 
L 1259 0 
L 628 0 
L 628 4666 
z
" transform="scale(0.015625)"/>
      <path id="DejaVuSans-66" d="M 2375 4863 
L 2375 4384 
L 1825 4384 
Q 1516 4384 1395 4259 
Q 1275 4134 1275 3809 
L 1275 3500 
L 2222 3500 
L 2222 3053 
L 1275 3053 
L 1275 0 
L 697 0 
L 697 3053 
L 147 3053 
L 147 3500 
L 697 3500 
L 697 3744 
Q 697 4328 969 4595 
Q 1241 4863 1831 4863 
L 2375 4863 
z
" transform="scale(0.015625)"/>
      <path id="DejaVuSans-35" d="M 691 4666 
L 3169 4666 
L 3169 4134 
L 1269 4134 
L 1269 2991 
Q 1406 3038 1543 3061 
Q 1681 3084 1819 3084 
Q 2600 3084 3056 2656 
Q 3513 2228 3513 1497 
Q 3513 744 3044 326 
Q 2575 -91 1722 -91 
Q 1428 -91 1123 -41 
Q 819 9 494 109 
L 494 744 
Q 775 591 1075 516 
Q 1375 441 1709 441 
Q 2250 441 2565 725 
Q 2881 1009 2881 1497 
Q 2881 1984 2565 2268 
Q 2250 2553 1709 2553 
Q 1456 2553 1204 2497 
Q 953 2441 691 2322 
L 691 4666 
z
" transform="scale(0.015625)"/>
     </defs>
     <use xlink:href="#DejaVuSans-48"/>
     <use xlink:href="#DejaVuSans-69" x="75.195312"/>
     <use xlink:href="#DejaVuSans-74" x="102.978516"/>
     <use xlink:href="#DejaVuSans-20" x="142.1875"/>
     <use xlink:href="#DejaVuSans-52" x="173.974609"/>
     <use xlink:href="#DejaVuSans-61" x="241.207031"/>
     <use xlink:href="#DejaVuSans-74" x="302.486328"/>
     <use xlink:href="#DejaVuSans-65" x="341.695312"/>
     <use xlink:href="#DejaVuSans-20" x="403.21875"/>
     <use xlink:href="#DejaVuSans-75" x="435.005859"/>
     <use xlink:href="#DejaVuSans-74" x="498.384766"/>
     <use xlink:href="#DejaVuSans-69" x="537.59375"/>
     <use xlink:href="#DejaVuSans-6c" x="565.376953"/>
     <use xlink:href="#DejaVuSans-69" x="593.160156"/>
     <use xlink:href="#DejaVuSans-7a" x="620.943359"/>
     <use xlink:href="#DejaVuSans-61" x="673.433594"/>
     <use xlink:href="#DejaVuSans-6e" x="734.712891"/>
     <use xlink:href="#DejaVuSans-64" x="798.091797"/>
     <use xlink:href="#DejaVuSans-6f" x="861.568359"/>
     <use xlink:href="#DejaVuSans-20" x="922.75"/>
     <use xlink:href="#DejaVuSans-61" x="954.537109"/>
     <use xlink:href="#DejaVuSans-20" x="1015.816406"/>
     <use xlink:href="#DejaVuSans-65" x="1047.603516"/>
     <use xlink:href="#DejaVuSans-73" x="1109.126953"/>
     <use xlink:href="#DejaVuSans-74" x="1161.226562"/>
     <use xlink:href="#DejaVuSans-72" x="1200.435547"/>
     <use xlink:href="#DejaVuSans-61" x="1241.548828"/>
     <use xlink:href="#DejaVuSans-74" x="1302.828125"/>
     <use xlink:href="#DejaVuSans-e9" x="1342.037109"/>
     <use xlink:href="#DejaVuSans-67" x="1403.560547"/>
     <use xlink:href="#DejaVuSans-69" x="1467.037109"/>
     <use xlink:href="#DejaVuSans-61" x="1494.820312"/>
     <use xlink:href="#DejaVuSans-20" x="1556.099609"/>
     <use xlink:href="#DejaVuSans-46" x="1587.886719"/>
     <use xlink:href="#DejaVuSans-69" x="1638.15625"/>
     <use xlink:href="#DejaVuSans-66" x="1665.939453"/>
     <use xlink:href="#DejaVuSans-6f" x="1701.144531"/>
     <use xlink:href="#DejaVuSans-20" x="1762.326172"/>
     <use xlink:href="#DejaVuSans-28" x="1794.113281"/>
     <use xlink:href="#DejaVuSans-35" x="1833.126953"/>
     <use xlink:href="#DejaVuSans-30" x="1896.75"/>
     <use xlink:href="#DejaVuSans-25" x="1960.373047"/>
     <use xlink:href="#DejaVuSans-29" x="2055.392578"/>
    </g>
   </g>
   <g id="legend_1">
    <g id="patch_7">
     <path d="M 286.805938 198.045187 
L 407.72 198.045187 
Q 409.72 198.045187 409.72 196.045187 
L 409.72 153.010812 
Q 409.72 151.010812 407.72 151.010812 
L 286.805938 151.010812 
Q 284.805938 151.010812 284.805938 153.010812 
L 284.805938 196.045187 
Q 284.805938 198.045187 286.805938 198.045187 
z
" style="fill: #ffffff; opacity: 0.8; stroke: #cccccc; stroke-linejoin: miter"/>
    </g>
    <g id="line2d_15">
     <path d="M 288.805938 159.10925 
L 298.805938 159.10925 
L 308.805938 159.10925 
" style="fill: none; stroke: #1f77b4; stroke-width: 1.5; stroke-linecap: square"/>
    </g>
    <g id="text_16">
     <!-- 50% -->
     <g transform="translate(316.805938 162.60925) scale(0.1 -0.1)">
      <use xlink:href="#DejaVuSans-35"/>
      <use xlink:href="#DejaVuSans-30" x="63.623047"/>
      <use xlink:href="#DejaVuSans-25" x="127.246094"/>
     </g>
    </g>
    <g id="line2d_16">
     <path d="M 288.805938 173.787375 
L 298.805938 173.787375 
L 308.805938 173.787375 
" style="fill: none; stroke: #008000; stroke-width: 1.5; stroke-linecap: square"/>
    </g>
    <g id="text_17">
     <!-- Mdia: 86.12 % -->
     <g transform="translate(316.805938 177.287375) scale(0.1 -0.1)">
      <defs>
       <path id="DejaVuSans-4d" d="M 628 4666 
L 1569 4666 
L 2759 1491 
L 3956 4666 
L 4897 4666 
L 4897 0 
L 4281 0 
L 4281 4097 
L 3078 897 
L 2444 897 
L 1241 4097 
L 1241 0 
L 628 0 
L 628 4666 
z
" transform="scale(0.015625)"/>
       <path id="DejaVuSans-3a" d="M 750 794 
L 1409 794 
L 1409 0 
L 750 0 
L 750 794 
z
M 750 3309 
L 1409 3309 
L 1409 2516 
L 750 2516 
L 750 3309 
z
" transform="scale(0.015625)"/>
      </defs>
      <use xlink:href="#DejaVuSans-4d"/>
      <use xlink:href="#DejaVuSans-e9" x="86.279297"/>
      <use xlink:href="#DejaVuSans-64" x="147.802734"/>
      <use xlink:href="#DejaVuSans-69" x="211.279297"/>
      <use xlink:href="#DejaVuSans-61" x="239.0625"/>
      <use xlink:href="#DejaVuSans-3a" x="300.341797"/>
      <use xlink:href="#DejaVuSans-20" x="334.033203"/>
      <use xlink:href="#DejaVuSans-38" x="365.820312"/>
      <use xlink:href="#DejaVuSans-36" x="429.443359"/>
      <use xlink:href="#DejaVuSans-2e" x="493.066406"/>
      <use xlink:href="#DejaVuSans-31" x="524.853516"/>
      <use xlink:href="#DejaVuSans-32" x="588.476562"/>
      <use xlink:href="#DejaVuSans-20" x="652.099609"/>
      <use xlink:href="#DejaVuSans-25" x="683.886719"/>
     </g>
    </g>
    <g id="line2d_17">
     <path d="M 288.805938 188.4655 
L 298.805938 188.4655 
L 308.805938 188.4655 
" style="fill: none; stroke: #ff0000; stroke-width: 1.5; stroke-linecap: square"/>
    </g>
    <g id="text_18">
     <!-- Des. pad.: 3.08 % -->
     <g transform="translate(316.805938 191.9655) scale(0.1 -0.1)">
      <defs>
       <path id="DejaVuSans-44" d="M 1259 4147 
L 1259 519 
L 2022 519 
Q 2988 519 3436 956 
Q 3884 1394 3884 2338 
Q 3884 3275 3436 3711 
Q 2988 4147 2022 4147 
L 1259 4147 
z
M 628 4666 
L 1925 4666 
Q 3281 4666 3915 4102 
Q 4550 3538 4550 2338 
Q 4550 1131 3912 565 
Q 3275 0 1925 0 
L 628 0 
L 628 4666 
z
" transform="scale(0.015625)"/>
       <path id="DejaVuSans-70" d="M 1159 525 
L 1159 -1331 
L 581 -1331 
L 581 3500 
L 1159 3500 
L 1159 2969 
Q 1341 3281 1617 3432 
Q 1894 3584 2278 3584 
Q 2916 3584 3314 3078 
Q 3713 2572 3713 1747 
Q 3713 922 3314 415 
Q 2916 -91 2278 -91 
Q 1894 -91 1617 61 
Q 1341 213 1159 525 
z
M 3116 1747 
Q 3116 2381 2855 2742 
Q 2594 3103 2138 3103 
Q 1681 3103 1420 2742 
Q 1159 2381 1159 1747 
Q 1159 1113 1420 752 
Q 1681 391 2138 391 
Q 2594 391 2855 752 
Q 3116 1113 3116 1747 
z
" transform="scale(0.015625)"/>
       <path id="DejaVuSans-33" d="M 2597 2516 
Q 3050 2419 3304 2112 
Q 3559 1806 3559 1356 
Q 3559 666 3084 287 
Q 2609 -91 1734 -91 
Q 1441 -91 1130 -33 
Q 819 25 488 141 
L 488 750 
Q 750 597 1062 519 
Q 1375 441 1716 441 
Q 2309 441 2620 675 
Q 2931 909 2931 1356 
Q 2931 1769 2642 2001 
Q 2353 2234 1838 2234 
L 1294 2234 
L 1294 2753 
L 1863 2753 
Q 2328 2753 2575 2939 
Q 2822 3125 2822 3475 
Q 2822 3834 2567 4026 
Q 2313 4219 1838 4219 
Q 1578 4219 1281 4162 
Q 984 4106 628 3988 
L 628 4550 
Q 988 4650 1302 4700 
Q 1616 4750 1894 4750 
Q 2613 4750 3031 4423 
Q 3450 4097 3450 3541 
Q 3450 3153 3228 2886 
Q 3006 2619 2597 2516 
z
" transform="scale(0.015625)"/>
      </defs>
      <use xlink:href="#DejaVuSans-44"/>
      <use xlink:href="#DejaVuSans-65" x="77.001953"/>
      <use xlink:href="#DejaVuSans-73" x="138.525391"/>
      <use xlink:href="#DejaVuSans-2e" x="190.625"/>
      <use xlink:href="#DejaVuSans-20" x="222.412109"/>
      <use xlink:href="#DejaVuSans-70" x="254.199219"/>
      <use xlink:href="#DejaVuSans-61" x="317.675781"/>
      <use xlink:href="#DejaVuSans-64" x="378.955078"/>
      <use xlink:href="#DejaVuSans-2e" x="442.431641"/>
      <use xlink:href="#DejaVuSans-3a" x="474.21875"/>
      <use xlink:href="#DejaVuSans-20" x="507.910156"/>
      <use xlink:href="#DejaVuSans-33" x="539.697266"/>
      <use xlink:href="#DejaVuSans-2e" x="603.320312"/>
      <use xlink:href="#DejaVuSans-30" x="635.107422"/>
      <use xlink:href="#DejaVuSans-38" x="698.730469"/>
      <use xlink:href="#DejaVuSans-20" x="762.353516"/>
      <use xlink:href="#DejaVuSans-25" x="794.140625"/>
     </g>
    </g>
   </g>
  </g>
 </g>
 <defs>
  <clipPath id="pdcc1952352">
   <rect x="57.6" y="41.472" width="357.12" height="266.112"/>
  </clipPath>
 </defs>
</svg>
