<?xml version="1.0" encoding="utf-8" standalone="no"?>
<!DOCTYPE svg PUBLIC "-//W3C//DTD SVG 1.1//EN"
  "http://www.w3.org/Graphics/SVG/1.1/DTD/svg11.dtd">
<svg xmlns:xlink="http://www.w3.org/1999/xlink" width="460.8pt" height="345.6pt" viewBox="0 0 460.8 345.6" xmlns="http://www.w3.org/2000/svg" version="1.1">
 <metadata>
  <rdf:RDF xmlns:dc="http://purl.org/dc/elements/1.1/" xmlns:cc="http://creativecommons.org/ns#" xmlns:rdf="http://www.w3.org/1999/02/22-rdf-syntax-ns#">
   <cc:Work>
    <dc:type rdf:resource="http://purl.org/dc/dcmitype/StillImage"/>
    <dc:date>2023-02-20T21:36:54.730969</dc:date>
    <dc:format>image/svg+xml</dc:format>
    <dc:creator>
     <cc:Agent>
      <dc:title>Matplotlib v3.7.0, https://matplotlib.org/</dc:title>
     </cc:Agent>
    </dc:creator>
   </cc:Work>
  </rdf:RDF>
 </metadata>
 <defs>
  <style type="text/css">*{stroke-linejoin: round; stroke-linecap: butt}</style>
 </defs>
 <g id="figure_1">
  <g id="patch_1">
   <path d="M 0 345.6 
L 460.8 345.6 
L 460.8 0 
L 0 0 
z
" style="fill: #ffffff"/>
  </g>
  <g id="axes_1">
   <g id="patch_2">
    <path d="M 57.6 307.584 
L 414.72 307.584 
L 414.72 41.472 
L 57.6 41.472 
z
" style="fill: #ffffff"/>
   </g>
   <g id="matplotlib.axis_1">
    <g id="xtick_1">
     <g id="line2d_1">
      <defs>
       <path id="mf21fcf6e7f" d="M 0 0 
L 0 3.5 
" style="stroke: #000000; stroke-width: 0.8"/>
      </defs>
      <g>
       <use xlink:href="#mf21fcf6e7f" x="73.832403" y="307.584" style="stroke: #000000; stroke-width: 0.8"/>
      </g>
     </g>
     <g id="text_1">
      <!-- 0.0 -->
      <g transform="translate(65.88084 322.182437) scale(0.1 -0.1)">
       <defs>
        <path id="DejaVuSans-30" d="M 2034 4250 
Q 1547 4250 1301 3770 
Q 1056 3291 1056 2328 
Q 1056 1369 1301 889 
Q 1547 409 2034 409 
Q 2525 409 2770 889 
Q 3016 1369 3016 2328 
Q 3016 3291 2770 3770 
Q 2525 4250 2034 4250 
z
M 2034 4750 
Q 2819 4750 3233 4129 
Q 3647 3509 3647 2328 
Q 3647 1150 3233 529 
Q 2819 -91 2034 -91 
Q 1250 -91 836 529 
Q 422 1150 422 2328 
Q 422 3509 836 4129 
Q 1250 4750 2034 4750 
z
" transform="scale(0.015625)"/>
        <path id="DejaVuSans-2e" d="M 684 794 
L 1344 794 
L 1344 0 
L 684 0 
L 684 794 
z
" transform="scale(0.015625)"/>
       </defs>
       <use xlink:href="#DejaVuSans-30"/>
       <use xlink:href="#DejaVuSans-2e" x="63.623047"/>
       <use xlink:href="#DejaVuSans-30" x="95.410156"/>
      </g>
     </g>
    </g>
    <g id="xtick_2">
     <g id="line2d_2">
      <g>
       <use xlink:href="#mf21fcf6e7f" x="138.763377" y="307.584" style="stroke: #000000; stroke-width: 0.8"/>
      </g>
     </g>
     <g id="text_2">
      <!-- 0.2 -->
      <g transform="translate(130.811814 322.182437) scale(0.1 -0.1)">
       <defs>
        <path id="DejaVuSans-32" d="M 1228 531 
L 3431 531 
L 3431 0 
L 469 0 
L 469 531 
Q 828 903 1448 1529 
Q 2069 2156 2228 2338 
Q 2531 2678 2651 2914 
Q 2772 3150 2772 3378 
Q 2772 3750 2511 3984 
Q 2250 4219 1831 4219 
Q 1534 4219 1204 4116 
Q 875 4013 500 3803 
L 500 4441 
Q 881 4594 1212 4672 
Q 1544 4750 1819 4750 
Q 2544 4750 2975 4387 
Q 3406 4025 3406 3419 
Q 3406 3131 3298 2873 
Q 3191 2616 2906 2266 
Q 2828 2175 2409 1742 
Q 1991 1309 1228 531 
z
" transform="scale(0.015625)"/>
       </defs>
       <use xlink:href="#DejaVuSans-30"/>
       <use xlink:href="#DejaVuSans-2e" x="63.623047"/>
       <use xlink:href="#DejaVuSans-32" x="95.410156"/>
      </g>
     </g>
    </g>
    <g id="xtick_3">
     <g id="line2d_3">
      <g>
       <use xlink:href="#mf21fcf6e7f" x="203.694351" y="307.584" style="stroke: #000000; stroke-width: 0.8"/>
      </g>
     </g>
     <g id="text_3">
      <!-- 0.4 -->
      <g transform="translate(195.742788 322.182437) scale(0.1 -0.1)">
       <defs>
        <path id="DejaVuSans-34" d="M 2419 4116 
L 825 1625 
L 2419 1625 
L 2419 4116 
z
M 2253 4666 
L 3047 4666 
L 3047 1625 
L 3713 1625 
L 3713 1100 
L 3047 1100 
L 3047 0 
L 2419 0 
L 2419 1100 
L 313 1100 
L 313 1709 
L 2253 4666 
z
" transform="scale(0.015625)"/>
       </defs>
       <use xlink:href="#DejaVuSans-30"/>
       <use xlink:href="#DejaVuSans-2e" x="63.623047"/>
       <use xlink:href="#DejaVuSans-34" x="95.410156"/>
      </g>
     </g>
    </g>
    <g id="xtick_4">
     <g id="line2d_4">
      <g>
       <use xlink:href="#mf21fcf6e7f" x="268.625325" y="307.584" style="stroke: #000000; stroke-width: 0.8"/>
      </g>
     </g>
     <g id="text_4">
      <!-- 0.6 -->
      <g transform="translate(260.673762 322.182437) scale(0.1 -0.1)">
       <defs>
        <path id="DejaVuSans-36" d="M 2113 2584 
Q 1688 2584 1439 2293 
Q 1191 2003 1191 1497 
Q 1191 994 1439 701 
Q 1688 409 2113 409 
Q 2538 409 2786 701 
Q 3034 994 3034 1497 
Q 3034 2003 2786 2293 
Q 2538 2584 2113 2584 
z
M 3366 4563 
L 3366 3988 
Q 3128 4100 2886 4159 
Q 2644 4219 2406 4219 
Q 1781 4219 1451 3797 
Q 1122 3375 1075 2522 
Q 1259 2794 1537 2939 
Q 1816 3084 2150 3084 
Q 2853 3084 3261 2657 
Q 3669 2231 3669 1497 
Q 3669 778 3244 343 
Q 2819 -91 2113 -91 
Q 1303 -91 875 529 
Q 447 1150 447 2328 
Q 447 3434 972 4092 
Q 1497 4750 2381 4750 
Q 2619 4750 2861 4703 
Q 3103 4656 3366 4563 
z
" transform="scale(0.015625)"/>
       </defs>
       <use xlink:href="#DejaVuSans-30"/>
       <use xlink:href="#DejaVuSans-2e" x="63.623047"/>
       <use xlink:href="#DejaVuSans-36" x="95.410156"/>
      </g>
     </g>
    </g>
    <g id="xtick_5">
     <g id="line2d_5">
      <g>
       <use xlink:href="#mf21fcf6e7f" x="333.556299" y="307.584" style="stroke: #000000; stroke-width: 0.8"/>
      </g>
     </g>
     <g id="text_5">
      <!-- 0.8 -->
      <g transform="translate(325.604736 322.182437) scale(0.1 -0.1)">
       <defs>
        <path id="DejaVuSans-38" d="M 2034 2216 
Q 1584 2216 1326 1975 
Q 1069 1734 1069 1313 
Q 1069 891 1326 650 
Q 1584 409 2034 409 
Q 2484 409 2743 651 
Q 3003 894 3003 1313 
Q 3003 1734 2745 1975 
Q 2488 2216 2034 2216 
z
M 1403 2484 
Q 997 2584 770 2862 
Q 544 3141 544 3541 
Q 544 4100 942 4425 
Q 1341 4750 2034 4750 
Q 2731 4750 3128 4425 
Q 3525 4100 3525 3541 
Q 3525 3141 3298 2862 
Q 3072 2584 2669 2484 
Q 3125 2378 3379 2068 
Q 3634 1759 3634 1313 
Q 3634 634 3220 271 
Q 2806 -91 2034 -91 
Q 1263 -91 848 271 
Q 434 634 434 1313 
Q 434 1759 690 2068 
Q 947 2378 1403 2484 
z
M 1172 3481 
Q 1172 3119 1398 2916 
Q 1625 2713 2034 2713 
Q 2441 2713 2670 2916 
Q 2900 3119 2900 3481 
Q 2900 3844 2670 4047 
Q 2441 4250 2034 4250 
Q 1625 4250 1398 4047 
Q 1172 3844 1172 3481 
z
" transform="scale(0.015625)"/>
       </defs>
       <use xlink:href="#DejaVuSans-30"/>
       <use xlink:href="#DejaVuSans-2e" x="63.623047"/>
       <use xlink:href="#DejaVuSans-38" x="95.410156"/>
      </g>
     </g>
    </g>
    <g id="xtick_6">
     <g id="line2d_6">
      <g>
       <use xlink:href="#mf21fcf6e7f" x="398.487273" y="307.584" style="stroke: #000000; stroke-width: 0.8"/>
      </g>
     </g>
     <g id="text_6">
      <!-- 1.0 -->
      <g transform="translate(390.53571 322.182437) scale(0.1 -0.1)">
       <defs>
        <path id="DejaVuSans-31" d="M 794 531 
L 1825 531 
L 1825 4091 
L 703 3866 
L 703 4441 
L 1819 4666 
L 2450 4666 
L 2450 531 
L 3481 531 
L 3481 0 
L 794 0 
L 794 531 
z
" transform="scale(0.015625)"/>
       </defs>
       <use xlink:href="#DejaVuSans-31"/>
       <use xlink:href="#DejaVuSans-2e" x="63.623047"/>
       <use xlink:href="#DejaVuSans-30" x="95.410156"/>
      </g>
     </g>
    </g>
    <g id="text_7">
     <!-- n -->
     <g transform="translate(232.99125 335.860562) scale(0.1 -0.1)">
      <defs>
       <path id="DejaVuSans-6e" d="M 3513 2113 
L 3513 0 
L 2938 0 
L 2938 2094 
Q 2938 2591 2744 2837 
Q 2550 3084 2163 3084 
Q 1697 3084 1428 2787 
Q 1159 2491 1159 1978 
L 1159 0 
L 581 0 
L 581 3500 
L 1159 3500 
L 1159 2956 
Q 1366 3272 1645 3428 
Q 1925 3584 2291 3584 
Q 2894 3584 3203 3211 
Q 3513 2838 3513 2113 
z
" transform="scale(0.015625)"/>
      </defs>
      <use xlink:href="#DejaVuSans-6e"/>
     </g>
    </g>
    <g id="text_8">
     <!-- 1e6 -->
     <g transform="translate(395.841875 334.860562) scale(0.1 -0.1)">
      <defs>
       <path id="DejaVuSans-65" d="M 3597 1894 
L 3597 1613 
L 953 1613 
Q 991 1019 1311 708 
Q 1631 397 2203 397 
Q 2534 397 2845 478 
Q 3156 559 3463 722 
L 3463 178 
Q 3153 47 2828 -22 
Q 2503 -91 2169 -91 
Q 1331 -91 842 396 
Q 353 884 353 1716 
Q 353 2575 817 3079 
Q 1281 3584 2069 3584 
Q 2775 3584 3186 3129 
Q 3597 2675 3597 1894 
z
M 3022 2063 
Q 3016 2534 2758 2815 
Q 2500 3097 2075 3097 
Q 1594 3097 1305 2825 
Q 1016 2553 972 2059 
L 3022 2063 
z
" transform="scale(0.015625)"/>
      </defs>
      <use xlink:href="#DejaVuSans-31"/>
      <use xlink:href="#DejaVuSans-65" x="63.623047"/>
      <use xlink:href="#DejaVuSans-36" x="125.146484"/>
     </g>
    </g>
   </g>
   <g id="matplotlib.axis_2">
    <g id="ytick_1">
     <g id="line2d_7">
      <defs>
       <path id="ma59c133b08" d="M 0 0 
L -3.5 0 
" style="stroke: #000000; stroke-width: 0.8"/>
      </defs>
      <g>
       <use xlink:href="#ma59c133b08" x="57.6" y="295.488" style="stroke: #000000; stroke-width: 0.8"/>
      </g>
     </g>
     <g id="text_9">
      <!-- 0 -->
      <g transform="translate(44.2375 299.287219) scale(0.1 -0.1)">
       <use xlink:href="#DejaVuSans-30"/>
      </g>
     </g>
    </g>
    <g id="ytick_2">
     <g id="line2d_8">
      <g>
       <use xlink:href="#ma59c133b08" x="57.6" y="241.604594" style="stroke: #000000; stroke-width: 0.8"/>
      </g>
     </g>
     <g id="text_10">
      <!-- 20 -->
      <g transform="translate(37.875 245.403812) scale(0.1 -0.1)">
       <use xlink:href="#DejaVuSans-32"/>
       <use xlink:href="#DejaVuSans-30" x="63.623047"/>
      </g>
     </g>
    </g>
    <g id="ytick_3">
     <g id="line2d_9">
      <g>
       <use xlink:href="#ma59c133b08" x="57.6" y="187.721187" style="stroke: #000000; stroke-width: 0.8"/>
      </g>
     </g>
     <g id="text_11">
      <!-- 40 -->
      <g transform="translate(37.875 191.520406) scale(0.1 -0.1)">
       <use xlink:href="#DejaVuSans-34"/>
       <use xlink:href="#DejaVuSans-30" x="63.623047"/>
      </g>
     </g>
    </g>
    <g id="ytick_4">
     <g id="line2d_10">
      <g>
       <use xlink:href="#ma59c133b08" x="57.6" y="133.837781" style="stroke: #000000; stroke-width: 0.8"/>
      </g>
     </g>
     <g id="text_12">
      <!-- 60 -->
      <g transform="translate(37.875 137.637) scale(0.1 -0.1)">
       <use xlink:href="#DejaVuSans-36"/>
       <use xlink:href="#DejaVuSans-30" x="63.623047"/>
      </g>
     </g>
    </g>
    <g id="ytick_5">
     <g id="line2d_11">
      <g>
       <use xlink:href="#ma59c133b08" x="57.6" y="79.954375" style="stroke: #000000; stroke-width: 0.8"/>
      </g>
     </g>
     <g id="text_13">
      <!-- 80 -->
      <g transform="translate(37.875 83.753593) scale(0.1 -0.1)">
       <use xlink:href="#DejaVuSans-38"/>
       <use xlink:href="#DejaVuSans-30" x="63.623047"/>
      </g>
     </g>
    </g>
    <g id="text_14">
     <!-- Hr (%) -->
     <g transform="translate(31.795312 190.585031) rotate(-90) scale(0.1 -0.1)">
      <defs>
       <path id="DejaVuSans-48" d="M 628 4666 
L 1259 4666 
L 1259 2753 
L 3553 2753 
L 3553 4666 
L 4184 4666 
L 4184 0 
L 3553 0 
L 3553 2222 
L 1259 2222 
L 1259 0 
L 628 0 
L 628 4666 
z
" transform="scale(0.015625)"/>
       <path id="DejaVuSans-72" d="M 2631 2963 
Q 2534 3019 2420 3045 
Q 2306 3072 2169 3072 
Q 1681 3072 1420 2755 
Q 1159 2438 1159 1844 
L 1159 0 
L 581 0 
L 581 3500 
L 1159 3500 
L 1159 2956 
Q 1341 3275 1631 3429 
Q 1922 3584 2338 3584 
Q 2397 3584 2469 3576 
Q 2541 3569 2628 3553 
L 2631 2963 
z
" transform="scale(0.015625)"/>
       <path id="DejaVuSans-20" transform="scale(0.015625)"/>
       <path id="DejaVuSans-28" d="M 1984 4856 
Q 1566 4138 1362 3434 
Q 1159 2731 1159 2009 
Q 1159 1288 1364 580 
Q 1569 -128 1984 -844 
L 1484 -844 
Q 1016 -109 783 600 
Q 550 1309 550 2009 
Q 550 2706 781 3412 
Q 1013 4119 1484 4856 
L 1984 4856 
z
" transform="scale(0.015625)"/>
       <path id="DejaVuSans-25" d="M 4653 2053 
Q 4381 2053 4226 1822 
Q 4072 1591 4072 1178 
Q 4072 772 4226 539 
Q 4381 306 4653 306 
Q 4919 306 5073 539 
Q 5228 772 5228 1178 
Q 5228 1588 5073 1820 
Q 4919 2053 4653 2053 
z
M 4653 2450 
Q 5147 2450 5437 2106 
Q 5728 1763 5728 1178 
Q 5728 594 5436 251 
Q 5144 -91 4653 -91 
Q 4153 -91 3862 251 
Q 3572 594 3572 1178 
Q 3572 1766 3864 2108 
Q 4156 2450 4653 2450 
z
M 1428 4353 
Q 1159 4353 1004 4120 
Q 850 3888 850 3481 
Q 850 3069 1003 2837 
Q 1156 2606 1428 2606 
Q 1700 2606 1854 2837 
Q 2009 3069 2009 3481 
Q 2009 3884 1853 4118 
Q 1697 4353 1428 4353 
z
M 4250 4750 
L 4750 4750 
L 1831 -91 
L 1331 -91 
L 4250 4750 
z
M 1428 4750 
Q 1922 4750 2215 4408 
Q 2509 4066 2509 3481 
Q 2509 2891 2217 2550 
Q 1925 2209 1428 2209 
Q 931 2209 642 2551 
Q 353 2894 353 3481 
Q 353 4063 643 4406 
Q 934 4750 1428 4750 
z
" transform="scale(0.015625)"/>
       <path id="DejaVuSans-29" d="M 513 4856 
L 1013 4856 
Q 1481 4119 1714 3412 
Q 1947 2706 1947 2009 
Q 1947 1309 1714 600 
Q 1481 -109 1013 -844 
L 513 -844 
Q 928 -128 1133 580 
Q 1338 1288 1338 2009 
Q 1338 2731 1133 3434 
Q 928 4138 513 4856 
z
" transform="scale(0.015625)"/>
      </defs>
      <use xlink:href="#DejaVuSans-48"/>
      <use xlink:href="#DejaVuSans-72" x="75.195312"/>
      <use xlink:href="#DejaVuSans-20" x="116.308594"/>
      <use xlink:href="#DejaVuSans-28" x="148.095703"/>
      <use xlink:href="#DejaVuSans-25" x="187.109375"/>
      <use xlink:href="#DejaVuSans-29" x="282.128906"/>
     </g>
    </g>
   </g>
   <g id="line2d_12">
    <path d="M 73.832727 295.488 
L 73.834026 295.488 
L 73.937266 194.247438 
L 73.945707 194.843707 
L 73.946032 195.132086 
L 74.034013 174.684879 
L 74.034338 174.879409 
L 74.034663 175.073314 
L 74.119398 159.406464 
L 74.249259 149.965005 
L 74.120371 159.563154 
L 74.249909 150.1915 
L 74.252831 150.577448 
L 74.345682 144.921393 
L 74.349578 145.040926 
L 74.477816 139.966442 
L 74.478141 140.044672 
L 74.572291 136.416048 
L 74.574564 136.549637 
L 74.697283 133.716376 
L 74.586251 136.809378 
L 74.703127 133.898076 
L 74.706049 134.138246 
L 74.798251 131.699838 
L 74.802147 131.726475 
L 74.94045 128.010414 
L 74.80377 131.730005 
L 74.946293 128.103832 
L 74.946618 128.152618 
L 75.041093 126.034676 
L 75.043365 126.063774 
L 75.200823 122.227403 
L 75.201148 122.268509 
L 75.297245 120.435612 
L 75.297895 120.453491 
L 75.301791 120.500894 
L 75.458599 117.257444 
L 75.463793 117.396049 
L 75.55632 115.792067 
L 75.71183 113.161374 
L 75.564761 115.859812 
L 75.715076 113.289969 
L 75.720595 113.405638 
L 75.810849 111.985508 
L 75.812797 112.03351 
L 75.961165 110.109685 
L 75.813447 112.04949 
L 75.966684 110.138264 
L 75.967333 110.194644 
L 76.061483 108.956441 
L 76.06408 108.977562 
L 76.157581 108.352081 
L 76.18615 108.542536 
L 76.1868 108.5941 
L 76.287767 107.83665 
L 76.288741 107.875452 
L 76.442628 106.202343 
L 76.302377 107.884212 
L 76.448472 106.223956 
L 76.448796 106.247444 
L 76.544894 105.180374 
L 76.716312 103.389592 
L 76.716636 103.411217 
L 76.719558 103.484432 
L 76.813384 102.69093 
L 76.817279 102.737449 
L 76.957206 101.683541 
L 76.967919 101.704143 
L 76.968244 101.724208 
L 77.063693 100.761643 
L 77.064017 100.781207 
L 77.235435 99.356719 
L 77.06564 100.797805 
L 77.236409 99.361447 
L 77.239006 99.382599 
L 77.339649 98.924805 
L 77.52243 97.401883 
L 77.523079 97.413034 
L 77.524053 97.441601 
L 77.609437 96.870235 
L 77.624696 96.908272 
L 77.781504 96.044528 
L 77.781829 96.060924 
L 77.885069 95.702385 
L 77.886693 95.760807 
L 77.89838 95.840148 
L 78.059409 94.692742 
L 78.060708 94.713041 
L 78.15291 94.138907 
L 78.159078 94.163161 
L 78.291213 93.714595 
L 78.159727 94.173158 
L 78.296407 93.753449 
L 78.299978 93.777661 
L 78.391531 93.031903 
L 78.39283 93.051196 
L 78.575935 91.959199 
L 78.576909 91.964109 
L 78.764235 90.880042 
L 78.764559 90.893511 
L 78.861631 90.372761 
L 78.86293 90.373549 
L 78.868449 90.40729 
L 79.047983 89.416843 
L 79.049282 89.434608 
L 79.142133 88.787774 
L 79.143107 88.792742 
L 79.152522 88.79683 
L 79.331731 87.88196 
L 79.485943 87.340792 
L 79.489514 87.348499 
L 79.489838 87.360444 
L 79.584962 86.81829 
L 79.586261 86.819781 
L 79.773911 85.990494 
L 79.774561 85.998667 
L 79.774885 86.010112 
L 79.87358 85.595524 
L 79.87423 85.603605 
L 80.030389 85.133843 
L 79.875853 85.616561 
L 80.031363 85.152784 
L 80.032337 85.185828 
L 80.130058 84.740739 
L 80.307644 84.10424 
L 80.136551 84.749684 
L 80.308293 84.111928 
L 80.308618 84.122525 
L 80.40504 83.643487 
L 80.604379 82.865804 
L 80.612495 82.901023 
L 80.700801 82.526922 
L 80.705022 82.543161 
L 80.88553 81.928744 
L 80.88975 81.944915 
L 81.052402 81.534192 
L 81.052727 81.543813 
L 81.151747 81.21159 
L 81.152721 81.216203 
L 81.40238 80.160054 
L 81.40303 80.166969 
L 81.408873 80.194513 
L 81.499777 79.769561 
L 81.500426 79.776421 
L 81.506919 79.787969 
L 81.678662 79.303323 
L 81.678986 79.312268 
L 81.775084 78.954413 
L 81.777357 78.961305 
L 81.961761 78.396342 
L 81.969877 78.419394 
L 81.974747 78.441798 
L 82.063702 78.120218 
L 82.071169 78.157978 
L 82.072793 78.158332 
L 82.300051 77.421456 
L 82.300376 77.429817 
L 82.39485 77.05722 
L 82.397447 77.072396 
L 82.620161 76.406873 
L 82.620485 76.414967 
L 82.62081 76.42306 
L 82.718206 76.235358 
L 82.725024 76.255915 
L 82.944491 75.651919 
L 82.949361 75.663812 
L 83.04903 75.497624 
L 83.222071 75.108389 
L 83.050653 75.498409 
L 83.230512 75.129495 
L 83.230836 75.137107 
L 83.313299 74.86717 
L 83.33083 74.878402 
L 83.533415 74.382095 
L 83.538934 74.39067 
L 83.759375 73.855131 
L 83.760349 73.868064 
L 83.861641 73.65568 
L 83.863264 73.665419 
L 84.082082 73.144277 
L 84.084354 73.159438 
L 84.185322 72.979001 
L 84.185646 72.985979 
L 84.381089 72.614251 
L 84.387582 72.627053 
L 84.485952 72.484526 
L 84.658669 72.212654 
L 84.499263 72.508608 
L 84.659318 72.217966 
L 84.659643 72.224661 
L 84.759961 72.001057 
L 84.760286 72.007697 
L 84.937547 71.739144 
L 84.943066 71.755821 
L 85.040138 71.570846 
L 85.243697 71.203763 
L 85.244346 71.216525 
L 85.342716 70.997871 
L 85.344664 71.005465 
L 85.526471 70.740685 
L 85.526796 70.746924 
L 85.626465 70.547362 
L 85.627763 70.54988 
L 85.801454 70.306342 
L 85.629387 70.551174 
L 85.804051 70.311358 
L 85.807298 70.321277 
L 85.905343 70.128543 
L 86.065073 69.953667 
L 86.065723 69.958488 
L 86.075462 69.980729 
L 86.164093 69.792807 
L 86.167989 69.793179 
L 86.351419 69.54381 
L 86.352718 69.546287 
L 86.353692 69.556876 
L 86.445894 69.384622 
L 86.454984 69.388077 
L 86.629648 69.179607 
L 86.63257 69.190267 
L 86.721526 69.103044 
L 86.737109 69.112081 
L 86.944239 68.792373 
L 86.945862 68.800425 
L 86.946187 68.806038 
L 87.029948 68.687242 
L 87.050726 68.693042 
L 87.179614 68.641887 
L 87.054946 68.705898 
L 87.179938 68.647405 
L 87.185457 68.662559 
L 87.28188 68.493778 
L 87.472452 68.260163 
L 87.515307 68.275055 
L 87.571147 68.179914 
L 87.579588 68.192234 
L 87.580887 68.194617 
L 87.785095 67.916619 
L 87.78542 67.921914 
L 87.877946 67.758306 
L 87.886712 67.763423 
L 88.05813 67.599202 
L 88.058454 67.604403 
L 88.160071 67.47466 
L 88.161695 67.476073 
L 88.16559 67.483127 
L 88.341878 67.293444 
L 88.381161 67.308392 
L 88.447066 67.218188 
L 88.44869 67.225587 
L 88.617185 67.034615 
L 88.450313 67.227 
L 88.627574 67.053147 
L 88.627899 67.058159 
L 88.721724 66.92324 
L 88.73049 66.928559 
L 88.896389 66.780527 
L 88.898661 66.785997 
L 88.904505 66.816638 
L 89.003849 66.69396 
L 89.159034 66.550866 
L 89.006771 66.697666 
L 89.166826 66.570226 
L 89.167151 66.575072 
L 89.231757 66.461939 
L 89.272988 66.495703 
L 89.463561 66.29942 
L 89.28078 66.503623 
L 89.464859 66.301673 
L 89.46908 66.307596 
L 89.5681 66.187802 
L 89.745036 66.027559 
L 89.585631 66.198681 
L 89.74666 66.034476 
L 89.746984 66.039157 
L 89.808019 65.946682 
L 89.851848 65.946786 
L 90.048589 65.743473 
L 90.051835 65.746318 
L 90.05216 65.750916 
L 90.139492 65.677868 
L 90.158322 65.680405 
L 90.37162 65.449867 
L 90.398891 65.46424 
L 90.4609 65.401499 
L 90.480055 65.408787 
L 90.676147 65.226043 
L 90.698872 65.235516 
L 90.778088 65.160827 
L 90.782633 65.160666 
L 90.981647 64.977354 
L 91.007944 64.989082 
L 91.084887 64.901699 
L 91.087484 64.905993 
L 91.264746 64.777024 
L 91.267668 64.790605 
L 91.36896 64.681673 
L 91.584531 64.473945 
L 91.584856 64.478169 
L 91.689719 64.399573 
L 91.690368 64.403078 
L 91.851397 64.278955 
L 91.69394 64.405208 
L 91.866331 64.286116 
L 91.897174 64.293499 
L 91.971195 64.205027 
L 91.978013 64.214801 
L 92.147807 64.090414 
L 92.148456 64.098617 
L 92.250398 63.987865 
L 92.251047 63.991278 
L 92.460125 63.814521 
L 92.536094 63.820218 
L 92.567911 63.779455 
L 92.568884 63.782163 
L 92.7192 63.727479 
L 92.732511 63.733354 
L 92.820492 63.632547 
L 92.822765 63.632658 
L 92.824388 63.634053 
L 93.022103 63.48405 
L 93.033466 63.489241 
L 93.119174 63.427264 
L 93.128914 63.431073 
L 93.279229 63.367184 
L 93.283775 63.371959 
L 93.284099 63.375833 
L 93.386041 63.311069 
L 93.389937 63.312595 
L 93.390911 63.315213 
L 93.546745 63.251521 
L 93.54707 63.255346 
L 93.649336 63.169383 
L 93.651284 63.17015 
L 93.661997 63.176572 
L 93.809066 63.109188 
L 93.818806 63.11302 
L 93.91328 63.025862 
L 93.916527 63.032954 
L 94.097684 62.918344 
L 94.107099 62.931432 
L 94.2006 62.865286 
L 94.20482 62.870544 
L 94.356759 62.802681 
L 94.216508 62.883772 
L 94.364226 62.810623 
L 94.364551 62.814302 
L 94.466492 62.734508 
L 94.469414 62.742032 
L 94.618106 62.698522 
L 94.619729 62.699869 
L 94.724593 62.704416 
L 94.645702 62.683578 
L 94.730761 62.697789 
L 94.840819 62.664121 
L 94.734982 62.707132 
L 94.859 62.694878 
L 94.859974 62.701502 
L 94.946657 62.613255 
L 94.963214 62.613597 
L 95.138203 62.518731 
L 95.141125 62.526047 
L 95.14145 62.529597 
L 95.213198 62.472705 
L 95.24891 62.485519 
L 95.253456 62.490042 
L 95.418056 62.414936 
L 95.421627 62.421078 
L 95.52227 62.337095 
L 95.69596 62.261017 
L 95.696285 62.26448 
L 95.786864 62.206787 
L 95.803096 62.215919 
L 96.004382 62.096862 
L 96.047561 62.105585 
L 96.027433 62.079151 
L 96.11444 62.083788 
L 96.11931 62.087693 
L 96.303389 61.987271 
L 96.320272 61.999203 
L 96.396241 61.963519 
L 96.414421 61.984976 
L 96.416694 61.989108 
L 96.584541 61.920195 
L 96.604345 61.942793 
L 96.689729 61.854712 
L 96.692651 61.861616 
L 96.88582 61.751423 
L 96.886145 61.754715 
L 96.917636 61.717404 
L 96.993606 61.713777 
L 97.163076 61.649823 
L 97.1634 61.653077 
L 97.170218 61.657673 
L 97.23385 61.605759 
L 97.270861 61.613088 
L 97.27216 61.618582 
L 97.442928 61.55041 
L 97.500392 61.552963 
L 97.550064 61.508155 
L 97.791607 61.344382 
L 97.819852 61.346604 
L 97.89712 61.302398 
L 97.899068 61.303181 
L 98.065616 61.24151 
L 98.069837 61.249821 
L 98.070161 61.252958 
L 98.129573 61.224529 
L 98.179245 61.228253 
L 98.331184 61.203006 
L 98.331508 61.206111 
L 98.436697 61.15544 
L 98.437995 61.157143 
L 98.439294 61.158846 
L 98.677266 61.00935 
L 98.713627 61.035631 
L 98.789596 61.016816 
L 98.917835 60.984615 
L 98.790246 61.019412 
L 98.934068 61.003852 
L 99.017504 61.00273 
L 98.984389 60.979169 
L 99.043477 60.98409 
L 99.257749 60.875628 
L 99.266514 60.884267 
L 99.361638 60.809367 
L 99.362288 60.81191 
L 99.566171 60.720206 
L 99.566496 60.723168 
L 99.671684 60.6735 
L 99.672982 60.675146 
L 99.828492 60.639739 
L 99.830765 60.64681 
L 99.832713 60.650948 
L 99.930434 60.605254 
L 99.938225 60.608349 
L 99.938875 60.61084 
L 100.164185 60.491348 
L 100.171003 60.495721 
L 100.268399 60.4483 
L 100.270997 60.448231 
L 100.272945 60.452314 
L 100.449881 60.394644 
L 100.450206 60.397512 
L 100.552797 60.341006 
L 100.555719 60.343805 
L 100.710904 60.324908 
L 100.772913 60.333726 
L 100.808625 60.301337 
L 100.819988 60.30313 
L 101.013482 60.236428 
L 101.080037 60.242859 
L 101.120294 60.205267 
L 101.121592 60.206848 
L 101.273856 60.192748 
L 101.27418 60.195532 
L 101.316061 60.172174 
L 101.383264 60.174711 
L 101.557929 60.133378 
L 101.558253 60.136133 
L 101.664415 60.087905 
L 101.812783 60.073208 
L 101.814406 60.077487 
L 101.820574 60.085619 
L 101.89557 60.04147 
L 101.922516 60.046249 
L 102.091986 60.012735 
L 102.128347 60.02476 
L 102.118607 60.002436 
L 102.203018 60.006304 
L 102.393915 59.947923 
L 102.394239 59.9506 
L 102.400083 59.952855 
L 102.496506 59.909064 
L 102.501051 59.909801 
L 102.681559 59.864826 
L 102.682533 59.866717 
L 102.682858 59.869369 
L 102.727985 59.846855 
L 102.792266 59.850411 
L 102.980566 59.800237 
L 103.088352 59.79855 
L 103.072768 59.780628 
L 103.091598 59.794807 
L 103.28282 59.742157 
L 103.283145 59.744756 
L 103.388008 59.702226 
L 103.389631 59.703338 
L 103.548388 59.682605 
L 103.55066 59.685921 
L 103.573386 59.695527 
L 103.624681 59.666992 
L 103.660718 59.673321 
L 103.867199 59.605397 
L 103.870445 59.610509 
L 103.967842 59.580477 
L 103.975958 59.580159 
L 104.178867 59.517511 
L 104.179841 59.51932 
L 104.191853 59.526253 
L 104.285029 59.498568 
L 104.289899 59.50471 
L 104.500276 59.426521 
L 104.294769 59.513722 
L 104.502873 59.435103 
L 104.508067 59.440859 
L 104.584037 59.395398 
L 104.610009 59.398537 
L 104.767142 59.390416 
L 104.771038 59.397529 
L 104.872005 59.356753 
L 104.875577 59.364194 
L 105.065824 59.315424 
L 104.876875 59.365619 
L 105.066474 59.320333 
L 105.068746 59.323515 
L 105.166467 59.267265 
L 105.171662 59.270135 
L 105.330743 59.232978 
L 105.172636 59.271894 
L 105.344378 59.246386 
L 105.352495 59.251718 
L 105.3947 59.223976 
L 105.453462 59.225987 
L 105.616114 59.215931 
L 105.618062 59.219404 
L 105.718056 59.162083 
L 105.720653 59.162131 
L 105.902135 59.133058 
L 105.933952 59.132987 
L 106.01057 59.10591 
L 106.013167 59.10868 
L 106.215103 59.053918 
L 106.29789 59.056025 
L 106.286851 59.040293 
L 106.32581 59.043833 
L 106.483592 59.03987 
L 106.499825 59.050263 
L 106.555016 59.018695 
L 106.594949 59.034602 
L 106.780327 59.003109 
L 106.782924 59.008477 
L 106.878048 58.977189 
L 106.889411 58.981753 
L 106.892008 58.987105 
L 107.067646 58.960532 
L 107.174782 58.959783 
L 107.094593 58.954925 
L 107.179003 58.955621 
L 107.348473 58.930268 
L 107.183873 58.966555 
L 107.352693 58.939178 
L 107.408859 58.938903 
L 107.461128 58.913826 
L 107.676374 58.854843 
L 107.676699 58.857113 
L 107.770849 58.853786 
L 107.714359 58.849068 
L 107.786432 58.841316 
L 107.931878 58.852879 
L 107.988692 58.857249 
L 107.944539 58.848404 
L 108.042585 58.843951 
L 108.045831 58.848511 
L 108.214327 58.832885 
L 108.306529 58.841676 
L 108.230885 58.827287 
L 108.325359 58.826322 
L 108.545151 58.770109 
L 108.602615 58.768895 
L 108.645794 58.750952 
L 108.654559 58.752773 
L 108.655533 58.754371 
L 108.84708 58.722961 
L 108.847404 58.725156 
L 108.88896 58.701418 
L 108.956813 58.705619 
L 109.134399 58.690112 
L 109.241535 58.685285 
L 109.202252 58.676995 
L 109.245756 58.683868 
L 109.471716 58.626804 
L 109.527232 58.634981 
L 109.582423 58.616514 
L 109.800266 58.567739 
L 109.859029 58.580287 
L 109.809357 58.564391 
L 109.909675 58.549196 
L 110.124597 58.499055 
L 109.910974 58.552875 
L 110.125571 58.503005 
L 110.201215 58.507699 
L 110.236278 58.493276 
L 110.443732 58.452903 
L 110.444382 58.454718 
L 110.543401 58.453144 
L 110.555414 58.447315 
L 110.825526 58.355142 
L 110.868706 58.367098 
L 110.932663 58.332641 
L 110.934286 58.333587 
L 111.125832 58.313294 
L 111.126157 58.315358 
L 111.220956 58.275712 
L 111.232644 58.277341 
L 111.439773 58.244158 
L 111.458928 58.251026 
L 111.520613 58.216923 
L 111.547559 58.214828 
L 111.548857 58.21836 
L 111.715081 58.215836 
L 111.757611 58.21669 
L 111.823191 58.188827 
L 111.991037 58.191961 
L 112.024152 58.189302 
L 112.07772 58.167186 
L 112.099148 58.165214 
L 112.302706 58.138632 
L 112.405622 58.141509 
L 112.359196 58.127937 
L 112.415037 58.138217 
L 112.644243 58.09082 
L 112.754301 58.08118 
L 112.737744 58.07232 
L 112.75495 58.080646 
L 112.97604 58.040624 
L 112.998441 58.049138 
L 113.061749 58.019829 
L 113.085124 58.020858 
L 113.310759 57.980048 
L 113.317902 57.989782 
L 113.383807 57.95871 
L 113.41887 57.954771 
L 113.612039 57.938468 
L 113.612689 57.940147 
L 113.647102 57.94116 
L 113.697748 57.920418 
L 113.721448 57.919037 
L 113.952602 57.875071 
L 113.959745 57.880309 
L 114.01104 57.85276 
L 114.06266 57.859812 
L 114.259076 57.845998 
L 114.270439 57.850048 
L 114.329526 57.827439 
L 114.367836 57.82332 
L 114.641844 57.749439 
L 114.750604 57.742192 
L 114.649312 57.747929 
L 114.752876 57.740433 
L 115.015198 57.674637 
L 115.015847 57.676263 
L 115.113243 57.680092 
L 115.128177 57.675015 
L 115.367123 57.630082 
L 115.377188 57.630858 
L 115.474584 57.601152 
L 115.665806 57.595023 
L 115.714179 57.615001 
L 115.778136 57.594012 
L 116.027471 57.544552 
L 116.112531 57.549503 
L 116.138828 57.538206 
L 116.336868 57.525352 
L 116.337517 57.526929 
L 116.446601 57.516194 
L 116.394331 57.5096 
L 116.448224 57.514996 
L 116.668665 57.489989 
L 116.708273 57.493605 
L 116.768983 57.469546 
L 116.778398 57.472846 
L 117.051758 57.409826 
L 117.052082 57.411614 
L 117.07773 57.395049 
L 117.160842 57.389469 
L 117.161491 57.391019 
L 117.412449 57.343126 
L 117.431604 57.347442 
L 117.484522 57.323552 
L 117.521533 57.323104 
L 117.705288 57.325784 
L 117.705937 57.327315 
L 117.748792 57.334657 
L 117.817294 57.319772 
L 118.012087 57.31662 
L 118.124742 57.318115 
L 118.047149 57.301733 
L 118.125067 57.317886 
L 118.392582 57.26181 
L 118.393231 57.263319 
L 118.488031 57.255862 
L 118.443553 57.249701 
L 118.503614 57.250857 
L 118.734768 57.224754 
L 118.820802 57.242946 
L 118.849696 57.236539 
L 119.085071 57.194274 
L 118.850346 57.238032 
L 119.088967 57.205123 
L 119.180195 57.211927 
L 119.10455 57.202135 
L 119.201947 57.204708 
L 119.380182 57.215381 
L 119.480176 57.219971 
L 119.386675 57.212862 
L 119.492838 57.213249 
L 119.709382 57.199714 
L 119.726914 57.201163 
L 119.790221 57.177313 
L 119.819116 57.182495 
L 120.061633 57.149835 
L 120.061958 57.151509 
L 120.17234 57.151088 
L 120.174613 57.149563 
L 120.3983 57.131757 
L 120.50219 57.131959 
L 120.510306 57.126558 
L 120.796976 57.069227 
L 120.838207 57.071809 
L 120.902489 57.046197 
L 120.905411 57.046132 
L 121.10832 57.040846 
L 121.109294 57.043908 
L 121.217404 57.041541 
L 121.12228 57.039102 
L 121.2213 57.038995 
L 121.440117 57.025265 
L 121.440767 57.026681 
L 121.550825 57.026771 
L 121.457324 57.019592 
L 121.553422 57.025086 
L 121.775811 57.01286 
L 121.886843 57.005073 
L 121.831976 56.998521 
L 121.887492 57.004655 
L 122.106309 56.994895 
L 122.216367 56.995056 
L 122.116049 56.99228 
L 122.219289 56.993189 
L 122.492324 56.949103 
L 122.604979 56.949516 
L 122.504336 56.945077 
L 122.605628 56.949105 
L 122.894247 56.897601 
L 123.002681 56.886543 
L 123.004954 56.885119 
L 123.242277 56.864571 
L 123.242601 56.866139 
L 123.329284 56.868757 
L 123.259483 56.85916 
L 123.354283 56.858509 
L 123.585112 56.845764 
L 123.67212 56.839423 
L 123.606864 56.841102 
L 123.695819 56.83357 
L 123.882496 56.848154 
L 123.98671 56.841754 
L 123.993853 56.839117 
L 124.271433 56.798116 
L 124.381166 56.791975 
L 124.383114 56.790791 
L 124.385062 56.794798 
L 124.613294 56.780727 
L 124.707444 56.794385 
L 124.63115 56.77682 
L 124.728222 56.786998 
L 124.993465 56.755976 
L 125.095731 56.749361 
L 125.105146 56.74714 
L 125.352858 56.726977 
L 125.467461 56.731777 
L 125.727834 56.704352 
L 125.728159 56.705846 
L 125.83075 56.704279 
L 125.84049 56.700224 
L 126.114174 56.667034 
L 126.224881 56.659145 
L 126.143393 56.658305 
L 126.225855 56.658577 
L 126.472593 56.643149 
L 126.580378 56.635399 
L 126.496292 56.636034 
L 126.583949 56.63333 
L 126.806662 56.631977 
L 126.820947 56.628691 
L 126.919318 56.628086 
L 127.148199 56.623229 
L 127.25566 56.620714 
L 127.192677 56.609237 
L 127.26053 56.61793 
L 127.510839 56.602585 
L 127.623169 56.59899 
L 127.623819 56.598622 
L 127.828676 56.609153 
L 127.913736 56.612877 
L 127.940682 56.6009 
L 128.22508 56.566701 
L 128.305919 56.571222 
L 128.338059 56.562865 
L 128.608822 56.53829 
L 128.715958 56.545751 
L 128.723425 56.541605 
L 128.977954 56.526269 
L 129.091259 56.523971 
L 129.39124 56.485491 
L 129.464287 56.484861 
L 129.404226 56.481531 
L 129.502272 56.473536 
L 129.790565 56.441951 
L 129.901273 56.433464 
L 129.902247 56.432936 
L 130.168464 56.413668 
L 130.284365 56.424194 
L 130.285015 56.423845 
L 130.526883 56.419321 
L 130.636291 56.410141 
L 130.638564 56.408928 
L 130.896989 56.395693 
L 131.010618 56.398148 
L 131.011592 56.397632 
L 131.311573 56.36414 
L 131.42293 56.360241 
L 131.323586 56.360853 
L 131.424553 56.359388 
L 131.726482 56.323804 
L 131.726807 56.325145 
L 131.835566 56.306116 
L 131.817386 56.30202 
L 131.836216 56.305777 
L 132.098537 56.294254 
L 132.204374 56.306885 
L 132.214439 56.301673 
L 132.497213 56.279706 
L 132.611816 56.286282 
L 132.61279 56.285782 
L 132.895889 56.263873 
L 132.96569 56.260775 
L 133.006921 56.250087 
L 133.007895 56.252546 
L 133.264372 56.24298 
L 133.297163 56.241051 
L 133.373132 56.220185 
L 133.664023 56.196404 
L 133.757523 56.196107 
L 133.777002 56.190695 
L 134.078932 56.163153 
L 134.189639 56.170272 
L 134.194509 56.167844 
L 134.477608 56.149942 
L 134.581497 56.158975 
L 134.593185 56.154627 
L 134.886024 56.13354 
L 134.95485 56.132602 
L 134.996406 56.117897 
L 135.321386 56.080006 
L 135.32171 56.08127 
L 135.365539 56.079795 
L 135.431119 56.060626 
L 135.74506 56.030054 
L 135.857716 56.024997 
L 135.752852 56.027697 
L 135.858365 56.024683 
L 136.145035 56.009001 
L 136.165488 56.001984 
L 136.257366 55.999967 
L 136.522284 55.994877 
L 136.633641 55.984993 
L 136.63429 55.984684 
L 136.87421 55.992936 
L 136.972905 55.99465 
L 136.987839 55.988959 
L 137.267692 55.97831 
L 137.383269 55.984478 
L 137.383918 55.984173 
L 137.688444 55.963427 
L 137.797853 55.946483 
L 137.798502 55.94618 
L 138.053032 55.94899 
L 138.161467 55.953015 
L 138.168609 55.951057 
L 138.467291 55.934772 
L 138.577674 55.935194 
L 138.581895 55.933247 
L 138.841943 55.934884 
L 138.952975 55.92829 
L 138.954923 55.927397 
L 139.278929 55.897197 
L 139.279903 55.899426 
L 139.38574 55.887293 
L 139.331198 55.885413 
L 139.390935 55.88493 
L 139.676631 55.873796 
L 139.67728 55.876159 
L 139.778897 55.863391 
L 139.787987 55.860611 
L 140.083099 55.848056 
L 140.191209 55.840405 
L 140.195429 55.838512 
L 140.511968 55.817883 
L 140.626571 55.828391 
L 140.629817 55.826945 
L 140.940512 55.809093 
L 141.046674 55.814175 
L 141.056089 55.81001 
L 141.287244 55.828692 
L 141.396977 55.812726 
L 141.397951 55.812297 
L 141.698581 55.800411 
L 141.785264 55.8114 
L 141.813834 55.800188 
L 142.102452 55.794937 
L 142.215757 55.796851 
L 142.218029 55.795863 
L 142.530672 55.780268 
L 142.64008 55.772435 
L 142.643327 55.771034 
L 142.945256 55.761515 
L 143.060509 55.761361 
L 143.344257 55.759704 
L 143.442952 55.760332 
L 143.458535 55.754944 
L 143.78319 55.737214 
L 143.894547 55.725019 
L 143.895196 55.724744 
L 144.224396 55.705351 
L 144.336727 55.699076 
L 144.338025 55.69853 
L 144.666901 55.68075 
L 144.782153 55.681963 
L 144.782803 55.681692 
L 145.11947 55.660867 
L 145.234722 55.664555 
L 145.236021 55.664016 
L 145.550287 55.652642 
L 145.550611 55.653728 
L 145.665864 55.652535 
L 145.995713 55.634892 
L 145.996038 55.635972 
L 146.114212 55.6433 
L 146.413544 55.640645 
L 146.527173 55.636537 
L 146.528147 55.636141 
L 146.902799 55.603059 
L 147.015129 55.606732 
L 147.01935 55.605029 
L 147.298553 55.611845 
L 147.405689 55.605682 
L 147.411858 55.603206 
L 147.758914 55.582881 
L 147.877088 55.593663 
L 147.878062 55.593274 
L 148.17642 55.593624 
L 148.290049 55.587336 
L 148.290698 55.587079 
L 148.633859 55.569772 
L 148.75041 55.575251 
L 148.751708 55.57474 
L 149.144216 55.539436 
L 149.258495 55.535376 
L 149.259144 55.535122 
L 149.552307 55.538871 
L 149.659443 55.538762 
L 149.66756 55.535609 
L 149.979553 55.533197 
L 150.089936 55.530696 
L 150.094481 55.52894 
L 150.474976 55.500242 
L 150.592177 55.514562 
L 150.595748 55.513192 
L 150.917156 55.50844 
L 151.030136 55.497082 
L 151.375894 55.483185 
L 151.479459 55.478876 
L 151.489848 55.474942 
L 151.803464 55.474461 
L 151.915795 55.463526 
L 151.916444 55.463282 
L 152.233307 55.461633 
L 152.347586 55.46453 
L 152.350508 55.463436 
L 152.660553 55.465448 
L 152.775805 55.462421 
L 152.77613 55.4623 
L 153.093643 55.462639 
L 153.20857 55.458651 
L 153.20922 55.458411 
L 153.601403 55.431255 
L 153.716006 55.436216 
L 153.719577 55.434903 
L 154.015013 55.444523 
L 154.130915 55.442429 
L 154.13124 55.44231 
L 154.517579 55.418752 
L 154.632507 55.421391 
L 154.635104 55.420448 
L 155.044818 55.389776 
L 155.16072 55.393164 
L 155.162668 55.392462 
L 155.535697 55.37528 
L 155.64965 55.372952 
L 155.651923 55.372138 
L 155.947359 55.383887 
L 156.062287 55.37802 
L 156.062611 55.377905 
L 156.416485 55.368829 
L 156.533686 55.37173 
L 156.53466 55.371385 
L 156.843406 55.379365 
L 156.959633 55.377319 
L 156.959957 55.377204 
L 157.313182 55.369505 
L 157.426487 55.368507 
L 157.429733 55.36737 
L 157.805034 55.352054 
L 157.805359 55.352983 
L 157.920287 55.345207 
L 158.272537 55.340138 
L 158.388114 55.334267 
L 158.722509 55.335426 
L 158.84393 55.346101 
L 159.232542 55.329645 
L 159.347794 55.322942 
L 159.776663 55.292993 
L 159.891266 55.283553 
L 160.285397 55.266725 
L 160.407468 55.278095 
L 160.826922 55.252895 
L 160.94607 55.256157 
L 161.282737 55.259822 
L 161.398639 55.254151 
L 161.821664 55.230153 
L 161.940488 55.231531 
L 162.325204 55.220402 
L 162.443703 55.220904 
L 162.831016 55.210016 
L 162.94919 55.209655 
L 163.347542 55.196262 
L 163.463119 55.188958 
L 163.926726 55.154653 
L 164.043602 55.149938 
L 164.496496 55.120449 
L 164.613047 55.114949 
L 164.986075 55.112199 
L 165.101003 55.102464 
L 165.47046 55.100911 
L 165.586687 55.094643 
L 165.96913 55.089988 
L 166.085681 55.083666 
L 166.460982 55.081318 
L 166.577209 55.074199 
L 166.995689 55.0594 
L 167.116785 55.0649 
L 167.557017 55.043502 
L 167.674542 55.03984 
L 168.151135 55.008453 
L 168.270284 55.008065 
L 168.680323 54.99824 
L 168.802068 55.004444 
L 169.165682 55.009692 
L 169.286778 55.014214 
L 169.753307 54.988339 
L 169.871806 54.986357 
L 170.331842 54.963624 
L 170.446121 54.950271 
L 170.864276 54.9412 
L 170.984074 54.941613 
L 171.357752 54.945791 
L 171.479497 54.950995 
L 171.935313 54.931825 
L 172.058357 54.939305 
L 172.522613 54.917834 
L 172.641112 54.914221 
L 173.083292 54.900285 
L 173.200817 54.894356 
L 173.634232 54.883993 
L 173.754029 54.883588 
L 174.14881 54.885293 
L 174.268283 54.88324 
L 174.670855 54.882711 
L 174.78838 54.876029 
L 175.189653 54.876764 
L 175.312373 54.882439 
L 175.765915 54.86837 
L 175.882791 54.860245 
L 176.311336 54.854226 
L 176.431133 54.852161 
L 176.838575 54.852952 
L 176.961619 54.858475 
L 177.396008 54.851746 
L 177.518727 54.856487 
L 177.992399 54.839788 
L 178.116417 54.846674 
L 178.57905 54.833981 
L 178.701769 54.837855 
L 179.173168 54.823709 
L 179.292966 54.820905 
L 179.804297 54.796085 
L 179.925069 54.794714 
L 180.294202 54.809322 
L 180.413025 54.803544 
L 180.842219 54.802736 
L 180.961043 54.796995 
L 181.389262 54.796478 
L 181.512307 54.800207 
L 181.978186 54.790485 
L 182.099932 54.790505 
L 182.575876 54.779024 
L 182.699245 54.782646 
L 183.107985 54.789713 
L 183.23103 54.792592 
L 183.707298 54.781931 
L 183.825797 54.774061 
L 184.350764 54.751686 
L 184.472185 54.750252 
L 184.945857 54.742136 
L 185.066304 54.738612 
L 185.538352 54.731005 
L 185.662695 54.735117 
L 186.097732 54.737792 
L 186.219478 54.736312 
L 186.72529 54.721771 
L 186.846386 54.718934 
L 187.423947 54.686465 
L 187.544719 54.682225 
L 188.01839 54.676908 
L 188.139487 54.673385 
L 188.551149 54.684352 
L 188.671596 54.679476 
L 189.175785 54.668171 
L 189.297206 54.664612 
L 189.783214 54.658669 
L 189.905284 54.656486 
L 190.32344 54.667254 
L 190.448107 54.670435 
L 190.980217 54.65402 
L 191.104235 54.655119 
L 191.55096 54.660329 
L 191.674653 54.660752 
L 192.173973 54.653946 
L 192.625243 54.658755 
L 192.746664 54.653838 
L 193.220335 54.653994 
L 193.345977 54.657611 
L 193.844971 54.652448 
L 193.967691 54.65019 
L 194.453374 54.648238 
L 194.579016 54.651099 
L 195.079958 54.646278 
L 195.202678 54.643329 
L 195.722126 54.634944 
L 195.846468 54.635227 
L 196.363968 54.628089 
L 196.486688 54.624476 
L 197.040549 54.608995 
L 197.167164 54.61303 
L 197.729142 54.596522 
L 197.856082 54.600473 
L 198.378776 54.593809 
L 198.502795 54.592096 
L 199.030359 54.585091 
L 199.154052 54.582771 
L 199.653696 54.582862 
L 199.779987 54.58483 
L 200.298785 54.581285 
L 200.422154 54.577684 
L 201.050361 54.549673 
L 201.176327 54.550351 
L 201.701619 54.546223 
L 201.825962 54.543844 
L 202.433716 54.522189 
L 202.557734 54.51924 
L 203.13562 54.505066 
L 203.262235 54.506309 
L 203.819018 54.497556 
L 203.94401 54.495793 
L 204.469302 54.494651 
L 204.60241 54.507188 
L 205.159518 54.499117 
L 205.282562 54.493134 
L 205.784154 54.497781 
L 205.907198 54.491165 
L 206.422426 54.493534 
L 206.546444 54.488723 
L 207.198675 54.462551 
L 207.327888 54.467175 
L 207.995703 54.438616 
L 208.124266 54.44142 
L 208.734618 54.425878 
L 208.859934 54.422882 
L 209.503725 54.401169 
L 209.629366 54.398145 
L 210.157255 54.401378 
L 210.283546 54.399516 
L 210.853315 54.394706 
L 211.377633 54.399295 
L 211.506521 54.401364 
L 212.062005 54.40015 
L 212.188945 54.398181 
L 212.870721 54.371885 
L 213.001881 54.377267 
L 213.580416 54.372744 
L 213.703785 54.36404 
L 214.287514 54.359171 
L 214.41413 54.356092 
L 215.044934 54.342472 
L 215.175121 54.345517 
L 215.752357 54.343301 
L 215.881245 54.34351 
L 216.472442 54.338546 
L 216.60068 54.337661 
L 217.202266 54.331308 
L 217.327583 54.324915 
L 217.940531 54.317027 
L 218.064874 54.309049 
L 218.693406 54.298836 
L 218.824242 54.301114 
L 219.399855 54.301847 
L 219.531665 54.305724 
L 220.126757 54.303274 
L 220.254022 54.299046 
L 220.863723 54.294426 
L 220.992611 54.292887 
L 221.651661 54.279487 
L 221.78412 54.2832 
L 222.410379 54.276726 
L 222.544786 54.283583 
L 223.182409 54.27558 
L 223.310972 54.272387 
L 223.944374 54.265848 
L 224.071638 54.260595 
L 224.801138 54.236199 
L 224.932948 54.237678 
L 225.508561 54.243237 
L 225.639397 54.243156 
L 226.317601 54.230283 
L 226.448761 54.230154 
L 227.128264 54.217739 
L 227.260723 54.219093 
L 227.94055 54.207301 
L 228.069763 54.203578 
L 228.785627 54.18594 
L 228.915814 54.183206 
L 229.596615 54.172643 
L 229.727775 54.171443 
L 230.355983 54.170983 
L 230.486494 54.168231 
L 231.219889 54.149564 
L 231.353322 54.150767 
L 232.044837 54.140264 
L 232.175673 54.137509 
L 232.818814 54.136205 
L 232.947702 54.129963 
L 233.576884 54.131695 
L 233.706745 54.126956 
L 234.393391 54.119195 
L 234.533641 54.12955 
L 235.27353 54.113108 
L 235.408911 54.116138 
L 236.099777 54.108852 
L 236.234833 54.110849 
L 236.935763 54.102429 
L 237.071469 54.104845 
L 237.741232 54.102357 
L 237.876613 54.104284 
L 238.733701 54.070497 
L 238.868433 54.070959 
L 239.591764 54.060642 
L 239.726171 54.060109 
L 240.381 54.061925 
L 240.513135 54.058102 
L 241.268931 54.043562 
L 241.40626 54.046737 
L 242.061739 54.049519 
L 242.194847 54.046621 
L 242.922399 54.037982 
L 243.058429 54.03876 
L 243.777864 54.032049 
L 243.912921 54.030931 
L 244.611253 54.028252 
L 244.748582 54.030353 
L 245.479056 54.022965 
L 245.615735 54.023638 
L 246.325106 54.020748 
L 246.465033 54.02596 
L 247.129276 54.030858 
L 247.265631 54.030562 
L 247.955198 54.031856 
L 248.093826 54.034207 
L 248.78599 54.035565 
L 248.923644 54.036559 
L 249.676843 54.028692 
L 249.818068 54.034089 
L 250.558606 54.02877 
L 250.702753 54.037634 
L 251.43907 54.033484 
L 251.577697 54.034804 
L 252.319858 54.030259 
L 252.459785 54.032841 
L 253.227594 54.024818 
L 253.366546 54.025594 
L 254.160652 54.014051 
L 254.297981 54.012659 
L 255.081373 54.003366 
L 255.217403 53.999778 
L 255.981965 53.994435 
L 256.120918 53.994262 
L 256.849119 53.994992 
L 256.989694 53.99696 
L 257.697766 54.001209 
L 257.838667 54.003114 
L 258.565894 54.004897 
L 258.709066 54.009286 
L 259.44376 54.010383 
L 259.587907 54.016013 
L 260.36091 54.011808 
L 260.502135 54.013161 
L 261.317993 54.003068 
L 261.454673 53.998105 
L 262.176056 54.003061 
L 262.316631 54.002647 
L 263.147098 53.991467 
L 263.2867 53.989822 
L 264.156126 53.973961 
L 264.297026 53.973525 
L 265.099248 53.968078 
L 265.244044 53.972107 
L 266.079057 53.962389 
L 266.217684 53.958204 
L 267.006271 53.955748 
L 267.145223 53.951993 
L 267.982508 53.943482 
L 268.123084 53.941323 
L 268.938292 53.936501 
L 269.080166 53.935517 
L 269.932385 53.925931 
L 270.075883 53.926511 
L 270.884923 53.923558 
L 271.02355 53.917728 
L 271.800774 53.920183 
L 271.946544 53.923092 
L 272.736754 53.924136 
L 272.877979 53.921072 
L 273.802921 53.903792 
L 273.946743 53.903458 
L 274.771366 53.900673 
L 274.916162 53.901077 
L 275.816105 53.888372 
L 275.964797 53.893007 
L 276.719295 53.901201 
L 276.863442 53.900397 
L 277.642289 53.905631 
L 277.782865 53.900169 
L 278.628591 53.896718 
L 278.773062 53.895455 
L 279.571713 53.89883 
L 279.721379 53.903241 
L 280.514186 53.907781 
L 280.656385 53.903444 
L 281.510552 53.900581 
L 281.655997 53.899623 
L 282.533215 53.894134 
L 282.682231 53.896898 
L 283.60555 53.885751 
L 283.749696 53.882484 
L 284.691845 53.869389 
L 284.843134 53.873915 
L 285.720352 53.870267 
L 285.869693 53.872138 
L 286.767363 53.866255 
L 286.911186 53.861451 
L 287.824115 53.85407 
L 287.976703 53.85878 
L 288.897099 53.851295 
L 289.048389 53.854526 
L 289.940216 53.851173 
L 290.089232 53.851445 
L 291.011901 53.844579 
L 291.161242 53.844812 
L 291.978074 53.852282 
L 292.130662 53.855701 
L 293.077356 53.847035 
L 293.226697 53.846467 
L 294.301954 53.822087 
L 294.451295 53.821143 
L 295.470387 53.804836 
L 295.618754 53.802453 
L 296.638819 53.786589 
L 296.790758 53.787709 
L 297.640704 53.793833 
L 297.792643 53.794553 
L 298.625058 53.803175 
L 298.777646 53.804194 
L 299.714924 53.800251 
L 299.868811 53.802269 
L 300.803492 53.799441 
L 300.959651 53.803483 
L 301.944979 53.794891 
L 302.098865 53.796126 
L 303.069583 53.790137 
L 303.220548 53.78791 
L 304.223082 53.778538 
L 304.377618 53.779694 
L 305.310026 53.779174 
L 305.463263 53.778591 
L 306.374894 53.781306 
L 306.52943 53.781698 
L 307.53164 53.774021 
L 307.688448 53.77639 
L 308.675399 53.771318 
L 308.832856 53.773974 
L 309.862012 53.764354 
L 310.018496 53.765634 
L 311.0259 53.759375 
L 311.185306 53.763259 
L 312.174529 53.75952 
L 312.331662 53.760715 
L 313.382245 53.750278 
L 313.538729 53.750453 
L 314.487046 53.752598 
L 314.643205 53.752081 
L 315.653531 53.747473 
L 315.808066 53.74498 
L 316.806705 53.742474 
L 316.96189 53.740281 
L 317.994292 53.734339 
L 318.152724 53.735016 
L 319.162725 53.732363 
L 319.319533 53.731084 
L 320.377584 53.723424 
L 320.53634 53.723712 
L 321.536926 53.723241 
L 321.69276 53.720324 
L 322.736526 53.715423 
L 322.899178 53.718792 
L 323.970214 53.711608 
L 324.127023 53.708968 
L 325.078586 53.715348 
L 325.237018 53.713931 
L 326.258382 53.713311 
L 326.417787 53.712142 
L 327.513173 53.703811 
L 327.676474 53.70602 
L 328.681281 53.708263 
L 328.842959 53.708576 
L 329.87666 53.708022 
L 330.039312 53.708912 
L 331.089246 53.707294 
L 331.248003 53.704181 
L 332.399229 53.692104 
L 332.558959 53.689589 
L 333.591686 53.690905 
L 333.755961 53.692293 
L 334.837711 53.689074 
L 335.001987 53.690122 
L 336.290217 53.665535 
L 336.454168 53.665627 
L 337.483973 53.668982 
L 337.645651 53.666657 
L 338.729674 53.664674 
L 338.897521 53.66766 
L 339.959467 53.668629 
L 340.124391 53.668616 
L 341.238932 53.664803 
L 341.40548 53.665934 
L 342.388859 53.67595 
L 342.553784 53.674958 
L 343.670597 53.671892 
L 343.838768 53.67349 
L 344.977657 53.668521 
L 345.143556 53.667765 
L 346.274653 53.664275 
L 346.438929 53.661765 
L 347.504446 53.665566 
L 347.672292 53.6659 
L 348.828388 53.660896 
L 348.997534 53.661737 
L 350.088374 53.663923 
L 350.260116 53.666714 
L 351.477572 53.656601 
L 351.648341 53.65822 
L 352.847291 53.65065 
L 353.012865 53.647138 
L 354.132275 53.648099 
L 354.299797 53.645973 
L 355.479917 53.641301 
L 355.649387 53.640551 
L 356.863921 53.63319 
L 357.029495 53.628812 
L 358.267079 53.619919 
L 358.441744 53.622681 
L 359.629331 53.61929 
L 359.803671 53.621458 
L 360.975675 53.619887 
L 361.147742 53.619828 
L 362.276567 53.623001 
L 362.448634 53.622335 
L 363.588822 53.625007 
L 363.762188 53.625123 
L 364.953671 53.623218 
L 365.126063 53.622226 
L 366.296119 53.622957 
L 366.47825 53.629422 
L 367.627204 53.632696 
L 367.801868 53.632685 
L 368.947575 53.636828 
L 369.118344 53.633327 
L 370.264376 53.637714 
L 370.437417 53.635787 
L 371.595461 53.63962 
L 371.772397 53.640275 
L 373.158024 53.623402 
L 373.335611 53.624296 
L 374.561832 53.623053 
L 374.738444 53.622578 
L 375.942914 53.623621 
L 376.121149 53.624158 
L 377.418146 53.617367 
L 377.598654 53.619139 
L 378.880716 53.614325 
L 379.062523 53.616832 
L 380.33517 53.613467 
L 380.513405 53.612862 
L 381.72729 53.615353 
L 381.908772 53.61673 
L 383.172978 53.614996 
L 383.348291 53.611264 
L 384.639444 53.607736 
L 384.819627 53.607251 
L 386.194216 53.596962 
L 386.377646 53.598718 
L 387.645748 53.598412 
L 387.828204 53.598852 
L 389.079749 53.600548 
L 389.2661 53.603694 
L 390.703997 53.589446 
L 390.888401 53.590546 
L 392.189293 53.589091 
L 392.374995 53.590897 
L 393.623293 53.59452 
L 393.810944 53.59724 
L 395.215076 53.587746 
L 395.399805 53.587987 
L 396.795496 53.579841 
L 396.979576 53.579057 
L 398.371371 53.571858 
L 398.487273 53.571739 
L 398.487273 53.571739 
" clip-path="url(#pc7b306cc4b)" style="fill: none; stroke: #1f77b4; stroke-width: 1.5; stroke-linecap: square"/>
   </g>
   <g id="line2d_13">
    <path d="M 57.6 56.47174 
L 414.72 56.47174 
" clip-path="url(#pc7b306cc4b)" style="fill: none; stroke: #008000; stroke-width: 1.5; stroke-linecap: square"/>
   </g>
   <g id="line2d_14">
    <path d="M 57.6 286.43066 
L 414.72 286.43066 
" clip-path="url(#pc7b306cc4b)" style="fill: none; stroke: #ff0000; stroke-width: 1.5; stroke-linecap: square"/>
   </g>
   <g id="patch_3">
    <path d="M 57.6 307.584 
L 57.6 41.472 
" style="fill: none; stroke: #000000; stroke-width: 0.8; stroke-linejoin: miter; stroke-linecap: square"/>
   </g>
   <g id="patch_4">
    <path d="M 414.72 307.584 
L 414.72 41.472 
" style="fill: none; stroke: #000000; stroke-width: 0.8; stroke-linejoin: miter; stroke-linecap: square"/>
   </g>
   <g id="patch_5">
    <path d="M 57.6 307.584 
L 414.72 307.584 
" style="fill: none; stroke: #000000; stroke-width: 0.8; stroke-linejoin: miter; stroke-linecap: square"/>
   </g>
   <g id="patch_6">
    <path d="M 57.6 41.472 
L 414.72 41.472 
" style="fill: none; stroke: #000000; stroke-width: 0.8; stroke-linejoin: miter; stroke-linecap: square"/>
   </g>
   <g id="text_15">
    <!-- Hit Rate utilizando a estratgia LFU (50%) -->
    <g transform="translate(109.778437 35.472) scale(0.12 -0.12)">
     <defs>
      <path id="DejaVuSans-69" d="M 603 3500 
L 1178 3500 
L 1178 0 
L 603 0 
L 603 3500 
z
M 603 4863 
L 1178 4863 
L 1178 4134 
L 603 4134 
L 603 4863 
z
" transform="scale(0.015625)"/>
      <path id="DejaVuSans-74" d="M 1172 4494 
L 1172 3500 
L 2356 3500 
L 2356 3053 
L 1172 3053 
L 1172 1153 
Q 1172 725 1289 603 
Q 1406 481 1766 481 
L 2356 481 
L 2356 0 
L 1766 0 
Q 1100 0 847 248 
Q 594 497 594 1153 
L 594 3053 
L 172 3053 
L 172 3500 
L 594 3500 
L 594 4494 
L 1172 4494 
z
" transform="scale(0.015625)"/>
      <path id="DejaVuSans-52" d="M 2841 2188 
Q 3044 2119 3236 1894 
Q 3428 1669 3622 1275 
L 4263 0 
L 3584 0 
L 2988 1197 
Q 2756 1666 2539 1819 
Q 2322 1972 1947 1972 
L 1259 1972 
L 1259 0 
L 628 0 
L 628 4666 
L 2053 4666 
Q 2853 4666 3247 4331 
Q 3641 3997 3641 3322 
Q 3641 2881 3436 2590 
Q 3231 2300 2841 2188 
z
M 1259 4147 
L 1259 2491 
L 2053 2491 
Q 2509 2491 2742 2702 
Q 2975 2913 2975 3322 
Q 2975 3731 2742 3939 
Q 2509 4147 2053 4147 
L 1259 4147 
z
" transform="scale(0.015625)"/>
      <path id="DejaVuSans-61" d="M 2194 1759 
Q 1497 1759 1228 1600 
Q 959 1441 959 1056 
Q 959 750 1161 570 
Q 1363 391 1709 391 
Q 2188 391 2477 730 
Q 2766 1069 2766 1631 
L 2766 1759 
L 2194 1759 
z
M 3341 1997 
L 3341 0 
L 2766 0 
L 2766 531 
Q 2569 213 2275 61 
Q 1981 -91 1556 -91 
Q 1019 -91 701 211 
Q 384 513 384 1019 
Q 384 1609 779 1909 
Q 1175 2209 1959 2209 
L 2766 2209 
L 2766 2266 
Q 2766 2663 2505 2880 
Q 2244 3097 1772 3097 
Q 1472 3097 1187 3025 
Q 903 2953 641 2809 
L 641 3341 
Q 956 3463 1253 3523 
Q 1550 3584 1831 3584 
Q 2591 3584 2966 3190 
Q 3341 2797 3341 1997 
z
" transform="scale(0.015625)"/>
      <path id="DejaVuSans-75" d="M 544 1381 
L 544 3500 
L 1119 3500 
L 1119 1403 
Q 1119 906 1312 657 
Q 1506 409 1894 409 
Q 2359 409 2629 706 
Q 2900 1003 2900 1516 
L 2900 3500 
L 3475 3500 
L 3475 0 
L 2900 0 
L 2900 538 
Q 2691 219 2414 64 
Q 2138 -91 1772 -91 
Q 1169 -91 856 284 
Q 544 659 544 1381 
z
M 1991 3584 
L 1991 3584 
z
" transform="scale(0.015625)"/>
      <path id="DejaVuSans-6c" d="M 603 4863 
L 1178 4863 
L 1178 0 
L 603 0 
L 603 4863 
z
" transform="scale(0.015625)"/>
      <path id="DejaVuSans-7a" d="M 353 3500 
L 3084 3500 
L 3084 2975 
L 922 459 
L 3084 459 
L 3084 0 
L 275 0 
L 275 525 
L 2438 3041 
L 353 3041 
L 353 3500 
z
" transform="scale(0.015625)"/>
      <path id="DejaVuSans-64" d="M 2906 2969 
L 2906 4863 
L 3481 4863 
L 3481 0 
L 2906 0 
L 2906 525 
Q 2725 213 2448 61 
Q 2172 -91 1784 -91 
Q 1150 -91 751 415 
Q 353 922 353 1747 
Q 353 2572 751 3078 
Q 1150 3584 1784 3584 
Q 2172 3584 2448 3432 
Q 2725 3281 2906 2969 
z
M 947 1747 
Q 947 1113 1208 752 
Q 1469 391 1925 391 
Q 2381 391 2643 752 
Q 2906 1113 2906 1747 
Q 2906 2381 2643 2742 
Q 2381 3103 1925 3103 
Q 1469 3103 1208 2742 
Q 947 2381 947 1747 
z
" transform="scale(0.015625)"/>
      <path id="DejaVuSans-6f" d="M 1959 3097 
Q 1497 3097 1228 2736 
Q 959 2375 959 1747 
Q 959 1119 1226 758 
Q 1494 397 1959 397 
Q 2419 397 2687 759 
Q 2956 1122 2956 1747 
Q 2956 2369 2687 2733 
Q 2419 3097 1959 3097 
z
M 1959 3584 
Q 2709 3584 3137 3096 
Q 3566 2609 3566 1747 
Q 3566 888 3137 398 
Q 2709 -91 1959 -91 
Q 1206 -91 779 398 
Q 353 888 353 1747 
Q 353 2609 779 3096 
Q 1206 3584 1959 3584 
z
" transform="scale(0.015625)"/>
      <path id="DejaVuSans-73" d="M 2834 3397 
L 2834 2853 
Q 2591 2978 2328 3040 
Q 2066 3103 1784 3103 
Q 1356 3103 1142 2972 
Q 928 2841 928 2578 
Q 928 2378 1081 2264 
Q 1234 2150 1697 2047 
L 1894 2003 
Q 2506 1872 2764 1633 
Q 3022 1394 3022 966 
Q 3022 478 2636 193 
Q 2250 -91 1575 -91 
Q 1294 -91 989 -36 
Q 684 19 347 128 
L 347 722 
Q 666 556 975 473 
Q 1284 391 1588 391 
Q 1994 391 2212 530 
Q 2431 669 2431 922 
Q 2431 1156 2273 1281 
Q 2116 1406 1581 1522 
L 1381 1569 
Q 847 1681 609 1914 
Q 372 2147 372 2553 
Q 372 3047 722 3315 
Q 1072 3584 1716 3584 
Q 2034 3584 2315 3537 
Q 2597 3491 2834 3397 
z
" transform="scale(0.015625)"/>
      <path id="DejaVuSans-e9" d="M 3597 1894 
L 3597 1613 
L 953 1613 
Q 991 1019 1311 708 
Q 1631 397 2203 397 
Q 2534 397 2845 478 
Q 3156 559 3463 722 
L 3463 178 
Q 3153 47 2828 -22 
Q 2503 -91 2169 -91 
Q 1331 -91 842 396 
Q 353 884 353 1716 
Q 353 2575 817 3079 
Q 1281 3584 2069 3584 
Q 2775 3584 3186 3129 
Q 3597 2675 3597 1894 
z
M 3022 2063 
Q 3016 2534 2758 2815 
Q 2500 3097 2075 3097 
Q 1594 3097 1305 2825 
Q 1016 2553 972 2059 
L 3022 2063 
z
M 2466 5119 
L 3088 5119 
L 2070 3944 
L 1591 3944 
L 2466 5119 
z
" transform="scale(0.015625)"/>
      <path id="DejaVuSans-67" d="M 2906 1791 
Q 2906 2416 2648 2759 
Q 2391 3103 1925 3103 
Q 1463 3103 1205 2759 
Q 947 2416 947 1791 
Q 947 1169 1205 825 
Q 1463 481 1925 481 
Q 2391 481 2648 825 
Q 2906 1169 2906 1791 
z
M 3481 434 
Q 3481 -459 3084 -895 
Q 2688 -1331 1869 -1331 
Q 1566 -1331 1297 -1286 
Q 1028 -1241 775 -1147 
L 775 -588 
Q 1028 -725 1275 -790 
Q 1522 -856 1778 -856 
Q 2344 -856 2625 -561 
Q 2906 -266 2906 331 
L 2906 616 
Q 2728 306 2450 153 
Q 2172 0 1784 0 
Q 1141 0 747 490 
Q 353 981 353 1791 
Q 353 2603 747 3093 
Q 1141 3584 1784 3584 
Q 2172 3584 2450 3431 
Q 2728 3278 2906 2969 
L 2906 3500 
L 3481 3500 
L 3481 434 
z
" transform="scale(0.015625)"/>
      <path id="DejaVuSans-4c" d="M 628 4666 
L 1259 4666 
L 1259 531 
L 3531 531 
L 3531 0 
L 628 0 
L 628 4666 
z
" transform="scale(0.015625)"/>
      <path id="DejaVuSans-46" d="M 628 4666 
L 3309 4666 
L 3309 4134 
L 1259 4134 
L 1259 2759 
L 3109 2759 
L 3109 2228 
L 1259 2228 
L 1259 0 
L 628 0 
L 628 4666 
z
" transform="scale(0.015625)"/>
      <path id="DejaVuSans-55" d="M 556 4666 
L 1191 4666 
L 1191 1831 
Q 1191 1081 1462 751 
Q 1734 422 2344 422 
Q 2950 422 3222 751 
Q 3494 1081 3494 1831 
L 3494 4666 
L 4128 4666 
L 4128 1753 
Q 4128 841 3676 375 
Q 3225 -91 2344 -91 
Q 1459 -91 1007 375 
Q 556 841 556 1753 
L 556 4666 
z
" transform="scale(0.015625)"/>
      <path id="DejaVuSans-35" d="M 691 4666 
L 3169 4666 
L 3169 4134 
L 1269 4134 
L 1269 2991 
Q 1406 3038 1543 3061 
Q 1681 3084 1819 3084 
Q 2600 3084 3056 2656 
Q 3513 2228 3513 1497 
Q 3513 744 3044 326 
Q 2575 -91 1722 -91 
Q 1428 -91 1123 -41 
Q 819 9 494 109 
L 494 744 
Q 775 591 1075 516 
Q 1375 441 1709 441 
Q 2250 441 2565 725 
Q 2881 1009 2881 1497 
Q 2881 1984 2565 2268 
Q 2250 2553 1709 2553 
Q 1456 2553 1204 2497 
Q 953 2441 691 2322 
L 691 4666 
z
" transform="scale(0.015625)"/>
     </defs>
     <use xlink:href="#DejaVuSans-48"/>
     <use xlink:href="#DejaVuSans-69" x="75.195312"/>
     <use xlink:href="#DejaVuSans-74" x="102.978516"/>
     <use xlink:href="#DejaVuSans-20" x="142.1875"/>
     <use xlink:href="#DejaVuSans-52" x="173.974609"/>
     <use xlink:href="#DejaVuSans-61" x="241.207031"/>
     <use xlink:href="#DejaVuSans-74" x="302.486328"/>
     <use xlink:href="#DejaVuSans-65" x="341.695312"/>
     <use xlink:href="#DejaVuSans-20" x="403.21875"/>
     <use xlink:href="#DejaVuSans-75" x="435.005859"/>
     <use xlink:href="#DejaVuSans-74" x="498.384766"/>
     <use xlink:href="#DejaVuSans-69" x="537.59375"/>
     <use xlink:href="#DejaVuSans-6c" x="565.376953"/>
     <use xlink:href="#DejaVuSans-69" x="593.160156"/>
     <use xlink:href="#DejaVuSans-7a" x="620.943359"/>
     <use xlink:href="#DejaVuSans-61" x="673.433594"/>
     <use xlink:href="#DejaVuSans-6e" x="734.712891"/>
     <use xlink:href="#DejaVuSans-64" x="798.091797"/>
     <use xlink:href="#DejaVuSans-6f" x="861.568359"/>
     <use xlink:href="#DejaVuSans-20" x="922.75"/>
     <use xlink:href="#DejaVuSans-61" x="954.537109"/>
     <use xlink:href="#DejaVuSans-20" x="1015.816406"/>
     <use xlink:href="#DejaVuSans-65" x="1047.603516"/>
     <use xlink:href="#DejaVuSans-73" x="1109.126953"/>
     <use xlink:href="#DejaVuSans-74" x="1161.226562"/>
     <use xlink:href="#DejaVuSans-72" x="1200.435547"/>
     <use xlink:href="#DejaVuSans-61" x="1241.548828"/>
     <use xlink:href="#DejaVuSans-74" x="1302.828125"/>
     <use xlink:href="#DejaVuSans-e9" x="1342.037109"/>
     <use xlink:href="#DejaVuSans-67" x="1403.560547"/>
     <use xlink:href="#DejaVuSans-69" x="1467.037109"/>
     <use xlink:href="#DejaVuSans-61" x="1494.820312"/>
     <use xlink:href="#DejaVuSans-20" x="1556.099609"/>
     <use xlink:href="#DejaVuSans-4c" x="1587.886719"/>
     <use xlink:href="#DejaVuSans-46" x="1643.599609"/>
     <use xlink:href="#DejaVuSans-55" x="1701.119141"/>
     <use xlink:href="#DejaVuSans-20" x="1774.3125"/>
     <use xlink:href="#DejaVuSans-28" x="1806.099609"/>
     <use xlink:href="#DejaVuSans-35" x="1845.113281"/>
     <use xlink:href="#DejaVuSans-30" x="1908.736328"/>
     <use xlink:href="#DejaVuSans-25" x="1972.359375"/>
     <use xlink:href="#DejaVuSans-29" x="2067.378906"/>
    </g>
   </g>
   <g id="legend_1">
    <g id="patch_7">
     <path d="M 286.805938 198.045187 
L 407.72 198.045187 
Q 409.72 198.045187 409.72 196.045187 
L 409.72 153.010812 
Q 409.72 151.010812 407.72 151.010812 
L 286.805938 151.010812 
Q 284.805938 151.010812 284.805938 153.010812 
L 284.805938 196.045187 
Q 284.805938 198.045187 286.805938 198.045187 
z
" style="fill: #ffffff; opacity: 0.8; stroke: #cccccc; stroke-linejoin: miter"/>
    </g>
    <g id="line2d_15">
     <path d="M 288.805938 159.10925 
L 298.805938 159.10925 
L 308.805938 159.10925 
" style="fill: none; stroke: #1f77b4; stroke-width: 1.5; stroke-linecap: square"/>
    </g>
    <g id="text_16">
     <!-- 50% -->
     <g transform="translate(316.805938 162.60925) scale(0.1 -0.1)">
      <use xlink:href="#DejaVuSans-35"/>
      <use xlink:href="#DejaVuSans-30" x="63.623047"/>
      <use xlink:href="#DejaVuSans-25" x="127.246094"/>
     </g>
    </g>
    <g id="line2d_16">
     <path d="M 288.805938 173.787375 
L 298.805938 173.787375 
L 308.805938 173.787375 
" style="fill: none; stroke: #008000; stroke-width: 1.5; stroke-linecap: square"/>
    </g>
    <g id="text_17">
     <!-- Mdia: 88.72 % -->
     <g transform="translate(316.805938 177.287375) scale(0.1 -0.1)">
      <defs>
       <path id="DejaVuSans-4d" d="M 628 4666 
L 1569 4666 
L 2759 1491 
L 3956 4666 
L 4897 4666 
L 4897 0 
L 4281 0 
L 4281 4097 
L 3078 897 
L 2444 897 
L 1241 4097 
L 1241 0 
L 628 0 
L 628 4666 
z
" transform="scale(0.015625)"/>
       <path id="DejaVuSans-3a" d="M 750 794 
L 1409 794 
L 1409 0 
L 750 0 
L 750 794 
z
M 750 3309 
L 1409 3309 
L 1409 2516 
L 750 2516 
L 750 3309 
z
" transform="scale(0.015625)"/>
       <path id="DejaVuSans-37" d="M 525 4666 
L 3525 4666 
L 3525 4397 
L 1831 0 
L 1172 0 
L 2766 4134 
L 525 4134 
L 525 4666 
z
" transform="scale(0.015625)"/>
      </defs>
      <use xlink:href="#DejaVuSans-4d"/>
      <use xlink:href="#DejaVuSans-e9" x="86.279297"/>
      <use xlink:href="#DejaVuSans-64" x="147.802734"/>
      <use xlink:href="#DejaVuSans-69" x="211.279297"/>
      <use xlink:href="#DejaVuSans-61" x="239.0625"/>
      <use xlink:href="#DejaVuSans-3a" x="300.341797"/>
      <use xlink:href="#DejaVuSans-20" x="334.033203"/>
      <use xlink:href="#DejaVuSans-38" x="365.820312"/>
      <use xlink:href="#DejaVuSans-38" x="429.443359"/>
      <use xlink:href="#DejaVuSans-2e" x="493.066406"/>
      <use xlink:href="#DejaVuSans-37" x="524.853516"/>
      <use xlink:href="#DejaVuSans-32" x="588.476562"/>
      <use xlink:href="#DejaVuSans-20" x="652.099609"/>
      <use xlink:href="#DejaVuSans-25" x="683.886719"/>
     </g>
    </g>
    <g id="line2d_17">
     <path d="M 288.805938 188.4655 
L 298.805938 188.4655 
L 308.805938 188.4655 
" style="fill: none; stroke: #ff0000; stroke-width: 1.5; stroke-linecap: square"/>
    </g>
    <g id="text_18">
     <!-- Des. pad.: 3.36 % -->
     <g transform="translate(316.805938 191.9655) scale(0.1 -0.1)">
      <defs>
       <path id="DejaVuSans-44" d="M 1259 4147 
L 1259 519 
L 2022 519 
Q 2988 519 3436 956 
Q 3884 1394 3884 2338 
Q 3884 3275 3436 3711 
Q 2988 4147 2022 4147 
L 1259 4147 
z
M 628 4666 
L 1925 4666 
Q 3281 4666 3915 4102 
Q 4550 3538 4550 2338 
Q 4550 1131 3912 565 
Q 3275 0 1925 0 
L 628 0 
L 628 4666 
z
" transform="scale(0.015625)"/>
       <path id="DejaVuSans-70" d="M 1159 525 
L 1159 -1331 
L 581 -1331 
L 581 3500 
L 1159 3500 
L 1159 2969 
Q 1341 3281 1617 3432 
Q 1894 3584 2278 3584 
Q 2916 3584 3314 3078 
Q 3713 2572 3713 1747 
Q 3713 922 3314 415 
Q 2916 -91 2278 -91 
Q 1894 -91 1617 61 
Q 1341 213 1159 525 
z
M 3116 1747 
Q 3116 2381 2855 2742 
Q 2594 3103 2138 3103 
Q 1681 3103 1420 2742 
Q 1159 2381 1159 1747 
Q 1159 1113 1420 752 
Q 1681 391 2138 391 
Q 2594 391 2855 752 
Q 3116 1113 3116 1747 
z
" transform="scale(0.015625)"/>
       <path id="DejaVuSans-33" d="M 2597 2516 
Q 3050 2419 3304 2112 
Q 3559 1806 3559 1356 
Q 3559 666 3084 287 
Q 2609 -91 1734 -91 
Q 1441 -91 1130 -33 
Q 819 25 488 141 
L 488 750 
Q 750 597 1062 519 
Q 1375 441 1716 441 
Q 2309 441 2620 675 
Q 2931 909 2931 1356 
Q 2931 1769 2642 2001 
Q 2353 2234 1838 2234 
L 1294 2234 
L 1294 2753 
L 1863 2753 
Q 2328 2753 2575 2939 
Q 2822 3125 2822 3475 
Q 2822 3834 2567 4026 
Q 2313 4219 1838 4219 
Q 1578 4219 1281 4162 
Q 984 4106 628 3988 
L 628 4550 
Q 988 4650 1302 4700 
Q 1616 4750 1894 4750 
Q 2613 4750 3031 4423 
Q 3450 4097 3450 3541 
Q 3450 3153 3228 2886 
Q 3006 2619 2597 2516 
z
" transform="scale(0.015625)"/>
      </defs>
      <use xlink:href="#DejaVuSans-44"/>
      <use xlink:href="#DejaVuSans-65" x="77.001953"/>
      <use xlink:href="#DejaVuSans-73" x="138.525391"/>
      <use xlink:href="#DejaVuSans-2e" x="190.625"/>
      <use xlink:href="#DejaVuSans-20" x="222.412109"/>
      <use xlink:href="#DejaVuSans-70" x="254.199219"/>
      <use xlink:href="#DejaVuSans-61" x="317.675781"/>
      <use xlink:href="#DejaVuSans-64" x="378.955078"/>
      <use xlink:href="#DejaVuSans-2e" x="442.431641"/>
      <use xlink:href="#DejaVuSans-3a" x="474.21875"/>
      <use xlink:href="#DejaVuSans-20" x="507.910156"/>
      <use xlink:href="#DejaVuSans-33" x="539.697266"/>
      <use xlink:href="#DejaVuSans-2e" x="603.320312"/>
      <use xlink:href="#DejaVuSans-33" x="635.107422"/>
      <use xlink:href="#DejaVuSans-36" x="698.730469"/>
      <use xlink:href="#DejaVuSans-20" x="762.353516"/>
      <use xlink:href="#DejaVuSans-25" x="794.140625"/>
     </g>
    </g>
   </g>
  </g>
 </g>
 <defs>
  <clipPath id="pc7b306cc4b">
   <rect x="57.6" y="41.472" width="357.12" height="266.112"/>
  </clipPath>
 </defs>
</svg>
