<?xml version="1.0" encoding="utf-8" standalone="no"?>
<!DOCTYPE svg PUBLIC "-//W3C//DTD SVG 1.1//EN"
  "http://www.w3.org/Graphics/SVG/1.1/DTD/svg11.dtd">
<svg xmlns:xlink="http://www.w3.org/1999/xlink" width="460.8pt" height="345.6pt" viewBox="0 0 460.8 345.6" xmlns="http://www.w3.org/2000/svg" version="1.1">
 <metadata>
  <rdf:RDF xmlns:dc="http://purl.org/dc/elements/1.1/" xmlns:cc="http://creativecommons.org/ns#" xmlns:rdf="http://www.w3.org/1999/02/22-rdf-syntax-ns#">
   <cc:Work>
    <dc:type rdf:resource="http://purl.org/dc/dcmitype/StillImage"/>
    <dc:date>2023-02-20T21:35:18.738477</dc:date>
    <dc:format>image/svg+xml</dc:format>
    <dc:creator>
     <cc:Agent>
      <dc:title>Matplotlib v3.7.0, https://matplotlib.org/</dc:title>
     </cc:Agent>
    </dc:creator>
   </cc:Work>
  </rdf:RDF>
 </metadata>
 <defs>
  <style type="text/css">*{stroke-linejoin: round; stroke-linecap: butt}</style>
 </defs>
 <g id="figure_1">
  <g id="patch_1">
   <path d="M 0 345.6 
L 460.8 345.6 
L 460.8 0 
L 0 0 
z
" style="fill: #ffffff"/>
  </g>
  <g id="axes_1">
   <g id="patch_2">
    <path d="M 57.6 307.584 
L 414.72 307.584 
L 414.72 41.472 
L 57.6 41.472 
z
" style="fill: #ffffff"/>
   </g>
   <g id="matplotlib.axis_1">
    <g id="xtick_1">
     <g id="line2d_1">
      <defs>
       <path id="ma4bce8ce45" d="M 0 0 
L 0 3.5 
" style="stroke: #000000; stroke-width: 0.8"/>
      </defs>
      <g>
       <use xlink:href="#ma4bce8ce45" x="73.832403" y="307.584" style="stroke: #000000; stroke-width: 0.8"/>
      </g>
     </g>
     <g id="text_1">
      <!-- 0.0 -->
      <g transform="translate(65.88084 322.182437) scale(0.1 -0.1)">
       <defs>
        <path id="DejaVuSans-30" d="M 2034 4250 
Q 1547 4250 1301 3770 
Q 1056 3291 1056 2328 
Q 1056 1369 1301 889 
Q 1547 409 2034 409 
Q 2525 409 2770 889 
Q 3016 1369 3016 2328 
Q 3016 3291 2770 3770 
Q 2525 4250 2034 4250 
z
M 2034 4750 
Q 2819 4750 3233 4129 
Q 3647 3509 3647 2328 
Q 3647 1150 3233 529 
Q 2819 -91 2034 -91 
Q 1250 -91 836 529 
Q 422 1150 422 2328 
Q 422 3509 836 4129 
Q 1250 4750 2034 4750 
z
" transform="scale(0.015625)"/>
        <path id="DejaVuSans-2e" d="M 684 794 
L 1344 794 
L 1344 0 
L 684 0 
L 684 794 
z
" transform="scale(0.015625)"/>
       </defs>
       <use xlink:href="#DejaVuSans-30"/>
       <use xlink:href="#DejaVuSans-2e" x="63.623047"/>
       <use xlink:href="#DejaVuSans-30" x="95.410156"/>
      </g>
     </g>
    </g>
    <g id="xtick_2">
     <g id="line2d_2">
      <g>
       <use xlink:href="#ma4bce8ce45" x="138.763377" y="307.584" style="stroke: #000000; stroke-width: 0.8"/>
      </g>
     </g>
     <g id="text_2">
      <!-- 0.2 -->
      <g transform="translate(130.811814 322.182437) scale(0.1 -0.1)">
       <defs>
        <path id="DejaVuSans-32" d="M 1228 531 
L 3431 531 
L 3431 0 
L 469 0 
L 469 531 
Q 828 903 1448 1529 
Q 2069 2156 2228 2338 
Q 2531 2678 2651 2914 
Q 2772 3150 2772 3378 
Q 2772 3750 2511 3984 
Q 2250 4219 1831 4219 
Q 1534 4219 1204 4116 
Q 875 4013 500 3803 
L 500 4441 
Q 881 4594 1212 4672 
Q 1544 4750 1819 4750 
Q 2544 4750 2975 4387 
Q 3406 4025 3406 3419 
Q 3406 3131 3298 2873 
Q 3191 2616 2906 2266 
Q 2828 2175 2409 1742 
Q 1991 1309 1228 531 
z
" transform="scale(0.015625)"/>
       </defs>
       <use xlink:href="#DejaVuSans-30"/>
       <use xlink:href="#DejaVuSans-2e" x="63.623047"/>
       <use xlink:href="#DejaVuSans-32" x="95.410156"/>
      </g>
     </g>
    </g>
    <g id="xtick_3">
     <g id="line2d_3">
      <g>
       <use xlink:href="#ma4bce8ce45" x="203.694351" y="307.584" style="stroke: #000000; stroke-width: 0.8"/>
      </g>
     </g>
     <g id="text_3">
      <!-- 0.4 -->
      <g transform="translate(195.742788 322.182437) scale(0.1 -0.1)">
       <defs>
        <path id="DejaVuSans-34" d="M 2419 4116 
L 825 1625 
L 2419 1625 
L 2419 4116 
z
M 2253 4666 
L 3047 4666 
L 3047 1625 
L 3713 1625 
L 3713 1100 
L 3047 1100 
L 3047 0 
L 2419 0 
L 2419 1100 
L 313 1100 
L 313 1709 
L 2253 4666 
z
" transform="scale(0.015625)"/>
       </defs>
       <use xlink:href="#DejaVuSans-30"/>
       <use xlink:href="#DejaVuSans-2e" x="63.623047"/>
       <use xlink:href="#DejaVuSans-34" x="95.410156"/>
      </g>
     </g>
    </g>
    <g id="xtick_4">
     <g id="line2d_4">
      <g>
       <use xlink:href="#ma4bce8ce45" x="268.625325" y="307.584" style="stroke: #000000; stroke-width: 0.8"/>
      </g>
     </g>
     <g id="text_4">
      <!-- 0.6 -->
      <g transform="translate(260.673762 322.182437) scale(0.1 -0.1)">
       <defs>
        <path id="DejaVuSans-36" d="M 2113 2584 
Q 1688 2584 1439 2293 
Q 1191 2003 1191 1497 
Q 1191 994 1439 701 
Q 1688 409 2113 409 
Q 2538 409 2786 701 
Q 3034 994 3034 1497 
Q 3034 2003 2786 2293 
Q 2538 2584 2113 2584 
z
M 3366 4563 
L 3366 3988 
Q 3128 4100 2886 4159 
Q 2644 4219 2406 4219 
Q 1781 4219 1451 3797 
Q 1122 3375 1075 2522 
Q 1259 2794 1537 2939 
Q 1816 3084 2150 3084 
Q 2853 3084 3261 2657 
Q 3669 2231 3669 1497 
Q 3669 778 3244 343 
Q 2819 -91 2113 -91 
Q 1303 -91 875 529 
Q 447 1150 447 2328 
Q 447 3434 972 4092 
Q 1497 4750 2381 4750 
Q 2619 4750 2861 4703 
Q 3103 4656 3366 4563 
z
" transform="scale(0.015625)"/>
       </defs>
       <use xlink:href="#DejaVuSans-30"/>
       <use xlink:href="#DejaVuSans-2e" x="63.623047"/>
       <use xlink:href="#DejaVuSans-36" x="95.410156"/>
      </g>
     </g>
    </g>
    <g id="xtick_5">
     <g id="line2d_5">
      <g>
       <use xlink:href="#ma4bce8ce45" x="333.556299" y="307.584" style="stroke: #000000; stroke-width: 0.8"/>
      </g>
     </g>
     <g id="text_5">
      <!-- 0.8 -->
      <g transform="translate(325.604736 322.182437) scale(0.1 -0.1)">
       <defs>
        <path id="DejaVuSans-38" d="M 2034 2216 
Q 1584 2216 1326 1975 
Q 1069 1734 1069 1313 
Q 1069 891 1326 650 
Q 1584 409 2034 409 
Q 2484 409 2743 651 
Q 3003 894 3003 1313 
Q 3003 1734 2745 1975 
Q 2488 2216 2034 2216 
z
M 1403 2484 
Q 997 2584 770 2862 
Q 544 3141 544 3541 
Q 544 4100 942 4425 
Q 1341 4750 2034 4750 
Q 2731 4750 3128 4425 
Q 3525 4100 3525 3541 
Q 3525 3141 3298 2862 
Q 3072 2584 2669 2484 
Q 3125 2378 3379 2068 
Q 3634 1759 3634 1313 
Q 3634 634 3220 271 
Q 2806 -91 2034 -91 
Q 1263 -91 848 271 
Q 434 634 434 1313 
Q 434 1759 690 2068 
Q 947 2378 1403 2484 
z
M 1172 3481 
Q 1172 3119 1398 2916 
Q 1625 2713 2034 2713 
Q 2441 2713 2670 2916 
Q 2900 3119 2900 3481 
Q 2900 3844 2670 4047 
Q 2441 4250 2034 4250 
Q 1625 4250 1398 4047 
Q 1172 3844 1172 3481 
z
" transform="scale(0.015625)"/>
       </defs>
       <use xlink:href="#DejaVuSans-30"/>
       <use xlink:href="#DejaVuSans-2e" x="63.623047"/>
       <use xlink:href="#DejaVuSans-38" x="95.410156"/>
      </g>
     </g>
    </g>
    <g id="xtick_6">
     <g id="line2d_6">
      <g>
       <use xlink:href="#ma4bce8ce45" x="398.487273" y="307.584" style="stroke: #000000; stroke-width: 0.8"/>
      </g>
     </g>
     <g id="text_6">
      <!-- 1.0 -->
      <g transform="translate(390.53571 322.182437) scale(0.1 -0.1)">
       <defs>
        <path id="DejaVuSans-31" d="M 794 531 
L 1825 531 
L 1825 4091 
L 703 3866 
L 703 4441 
L 1819 4666 
L 2450 4666 
L 2450 531 
L 3481 531 
L 3481 0 
L 794 0 
L 794 531 
z
" transform="scale(0.015625)"/>
       </defs>
       <use xlink:href="#DejaVuSans-31"/>
       <use xlink:href="#DejaVuSans-2e" x="63.623047"/>
       <use xlink:href="#DejaVuSans-30" x="95.410156"/>
      </g>
     </g>
    </g>
    <g id="text_7">
     <!-- n -->
     <g transform="translate(232.99125 335.860562) scale(0.1 -0.1)">
      <defs>
       <path id="DejaVuSans-6e" d="M 3513 2113 
L 3513 0 
L 2938 0 
L 2938 2094 
Q 2938 2591 2744 2837 
Q 2550 3084 2163 3084 
Q 1697 3084 1428 2787 
Q 1159 2491 1159 1978 
L 1159 0 
L 581 0 
L 581 3500 
L 1159 3500 
L 1159 2956 
Q 1366 3272 1645 3428 
Q 1925 3584 2291 3584 
Q 2894 3584 3203 3211 
Q 3513 2838 3513 2113 
z
" transform="scale(0.015625)"/>
      </defs>
      <use xlink:href="#DejaVuSans-6e"/>
     </g>
    </g>
    <g id="text_8">
     <!-- 1e6 -->
     <g transform="translate(395.841875 334.860562) scale(0.1 -0.1)">
      <defs>
       <path id="DejaVuSans-65" d="M 3597 1894 
L 3597 1613 
L 953 1613 
Q 991 1019 1311 708 
Q 1631 397 2203 397 
Q 2534 397 2845 478 
Q 3156 559 3463 722 
L 3463 178 
Q 3153 47 2828 -22 
Q 2503 -91 2169 -91 
Q 1331 -91 842 396 
Q 353 884 353 1716 
Q 353 2575 817 3079 
Q 1281 3584 2069 3584 
Q 2775 3584 3186 3129 
Q 3597 2675 3597 1894 
z
M 3022 2063 
Q 3016 2534 2758 2815 
Q 2500 3097 2075 3097 
Q 1594 3097 1305 2825 
Q 1016 2553 972 2059 
L 3022 2063 
z
" transform="scale(0.015625)"/>
      </defs>
      <use xlink:href="#DejaVuSans-31"/>
      <use xlink:href="#DejaVuSans-65" x="63.623047"/>
      <use xlink:href="#DejaVuSans-36" x="125.146484"/>
     </g>
    </g>
   </g>
   <g id="matplotlib.axis_2">
    <g id="ytick_1">
     <g id="line2d_7">
      <defs>
       <path id="m47570cbdd7" d="M 0 0 
L -3.5 0 
" style="stroke: #000000; stroke-width: 0.8"/>
      </defs>
      <g>
       <use xlink:href="#m47570cbdd7" x="57.6" y="295.488" style="stroke: #000000; stroke-width: 0.8"/>
      </g>
     </g>
     <g id="text_9">
      <!-- 0 -->
      <g transform="translate(44.2375 299.287219) scale(0.1 -0.1)">
       <use xlink:href="#DejaVuSans-30"/>
      </g>
     </g>
    </g>
    <g id="ytick_2">
     <g id="line2d_8">
      <g>
       <use xlink:href="#m47570cbdd7" x="57.6" y="259.272431" style="stroke: #000000; stroke-width: 0.8"/>
      </g>
     </g>
     <g id="text_10">
      <!-- 5000 -->
      <g transform="translate(25.15 263.07165) scale(0.1 -0.1)">
       <defs>
        <path id="DejaVuSans-35" d="M 691 4666 
L 3169 4666 
L 3169 4134 
L 1269 4134 
L 1269 2991 
Q 1406 3038 1543 3061 
Q 1681 3084 1819 3084 
Q 2600 3084 3056 2656 
Q 3513 2228 3513 1497 
Q 3513 744 3044 326 
Q 2575 -91 1722 -91 
Q 1428 -91 1123 -41 
Q 819 9 494 109 
L 494 744 
Q 775 591 1075 516 
Q 1375 441 1709 441 
Q 2250 441 2565 725 
Q 2881 1009 2881 1497 
Q 2881 1984 2565 2268 
Q 2250 2553 1709 2553 
Q 1456 2553 1204 2497 
Q 953 2441 691 2322 
L 691 4666 
z
" transform="scale(0.015625)"/>
       </defs>
       <use xlink:href="#DejaVuSans-35"/>
       <use xlink:href="#DejaVuSans-30" x="63.623047"/>
       <use xlink:href="#DejaVuSans-30" x="127.246094"/>
       <use xlink:href="#DejaVuSans-30" x="190.869141"/>
      </g>
     </g>
    </g>
    <g id="ytick_3">
     <g id="line2d_9">
      <g>
       <use xlink:href="#m47570cbdd7" x="57.6" y="223.056862" style="stroke: #000000; stroke-width: 0.8"/>
      </g>
     </g>
     <g id="text_11">
      <!-- 10000 -->
      <g transform="translate(18.7875 226.856081) scale(0.1 -0.1)">
       <use xlink:href="#DejaVuSans-31"/>
       <use xlink:href="#DejaVuSans-30" x="63.623047"/>
       <use xlink:href="#DejaVuSans-30" x="127.246094"/>
       <use xlink:href="#DejaVuSans-30" x="190.869141"/>
       <use xlink:href="#DejaVuSans-30" x="254.492188"/>
      </g>
     </g>
    </g>
    <g id="ytick_4">
     <g id="line2d_10">
      <g>
       <use xlink:href="#m47570cbdd7" x="57.6" y="186.841293" style="stroke: #000000; stroke-width: 0.8"/>
      </g>
     </g>
     <g id="text_12">
      <!-- 15000 -->
      <g transform="translate(18.7875 190.640512) scale(0.1 -0.1)">
       <use xlink:href="#DejaVuSans-31"/>
       <use xlink:href="#DejaVuSans-35" x="63.623047"/>
       <use xlink:href="#DejaVuSans-30" x="127.246094"/>
       <use xlink:href="#DejaVuSans-30" x="190.869141"/>
       <use xlink:href="#DejaVuSans-30" x="254.492188"/>
      </g>
     </g>
    </g>
    <g id="ytick_5">
     <g id="line2d_11">
      <g>
       <use xlink:href="#m47570cbdd7" x="57.6" y="150.625725" style="stroke: #000000; stroke-width: 0.8"/>
      </g>
     </g>
     <g id="text_13">
      <!-- 20000 -->
      <g transform="translate(18.7875 154.424943) scale(0.1 -0.1)">
       <use xlink:href="#DejaVuSans-32"/>
       <use xlink:href="#DejaVuSans-30" x="63.623047"/>
       <use xlink:href="#DejaVuSans-30" x="127.246094"/>
       <use xlink:href="#DejaVuSans-30" x="190.869141"/>
       <use xlink:href="#DejaVuSans-30" x="254.492188"/>
      </g>
     </g>
    </g>
    <g id="ytick_6">
     <g id="line2d_12">
      <g>
       <use xlink:href="#m47570cbdd7" x="57.6" y="114.410156" style="stroke: #000000; stroke-width: 0.8"/>
      </g>
     </g>
     <g id="text_14">
      <!-- 25000 -->
      <g transform="translate(18.7875 118.209374) scale(0.1 -0.1)">
       <use xlink:href="#DejaVuSans-32"/>
       <use xlink:href="#DejaVuSans-35" x="63.623047"/>
       <use xlink:href="#DejaVuSans-30" x="127.246094"/>
       <use xlink:href="#DejaVuSans-30" x="190.869141"/>
       <use xlink:href="#DejaVuSans-30" x="254.492188"/>
      </g>
     </g>
    </g>
    <g id="ytick_7">
     <g id="line2d_13">
      <g>
       <use xlink:href="#m47570cbdd7" x="57.6" y="78.194587" style="stroke: #000000; stroke-width: 0.8"/>
      </g>
     </g>
     <g id="text_15">
      <!-- 30000 -->
      <g transform="translate(18.7875 81.993806) scale(0.1 -0.1)">
       <defs>
        <path id="DejaVuSans-33" d="M 2597 2516 
Q 3050 2419 3304 2112 
Q 3559 1806 3559 1356 
Q 3559 666 3084 287 
Q 2609 -91 1734 -91 
Q 1441 -91 1130 -33 
Q 819 25 488 141 
L 488 750 
Q 750 597 1062 519 
Q 1375 441 1716 441 
Q 2309 441 2620 675 
Q 2931 909 2931 1356 
Q 2931 1769 2642 2001 
Q 2353 2234 1838 2234 
L 1294 2234 
L 1294 2753 
L 1863 2753 
Q 2328 2753 2575 2939 
Q 2822 3125 2822 3475 
Q 2822 3834 2567 4026 
Q 2313 4219 1838 4219 
Q 1578 4219 1281 4162 
Q 984 4106 628 3988 
L 628 4550 
Q 988 4650 1302 4700 
Q 1616 4750 1894 4750 
Q 2613 4750 3031 4423 
Q 3450 4097 3450 3541 
Q 3450 3153 3228 2886 
Q 3006 2619 2597 2516 
z
" transform="scale(0.015625)"/>
       </defs>
       <use xlink:href="#DejaVuSans-33"/>
       <use xlink:href="#DejaVuSans-30" x="63.623047"/>
       <use xlink:href="#DejaVuSans-30" x="127.246094"/>
       <use xlink:href="#DejaVuSans-30" x="190.869141"/>
       <use xlink:href="#DejaVuSans-30" x="254.492188"/>
      </g>
     </g>
    </g>
    <g id="ytick_8">
     <g id="line2d_14">
      <g>
       <use xlink:href="#m47570cbdd7" x="57.6" y="41.979018" style="stroke: #000000; stroke-width: 0.8"/>
      </g>
     </g>
     <g id="text_16">
      <!-- 35000 -->
      <g transform="translate(18.7875 45.778237) scale(0.1 -0.1)">
       <use xlink:href="#DejaVuSans-33"/>
       <use xlink:href="#DejaVuSans-35" x="63.623047"/>
       <use xlink:href="#DejaVuSans-30" x="127.246094"/>
       <use xlink:href="#DejaVuSans-30" x="190.869141"/>
       <use xlink:href="#DejaVuSans-30" x="254.492188"/>
      </g>
     </g>
    </g>
    <g id="text_17">
     <!-- Ts -->
     <g transform="translate(12.707813 179.361594) rotate(-90) scale(0.1 -0.1)">
      <defs>
       <path id="DejaVuSans-54" d="M -19 4666 
L 3928 4666 
L 3928 4134 
L 2272 4134 
L 2272 0 
L 1638 0 
L 1638 4134 
L -19 4134 
L -19 4666 
z
" transform="scale(0.015625)"/>
       <path id="DejaVuSans-73" d="M 2834 3397 
L 2834 2853 
Q 2591 2978 2328 3040 
Q 2066 3103 1784 3103 
Q 1356 3103 1142 2972 
Q 928 2841 928 2578 
Q 928 2378 1081 2264 
Q 1234 2150 1697 2047 
L 1894 2003 
Q 2506 1872 2764 1633 
Q 3022 1394 3022 966 
Q 3022 478 2636 193 
Q 2250 -91 1575 -91 
Q 1294 -91 989 -36 
Q 684 19 347 128 
L 347 722 
Q 666 556 975 473 
Q 1284 391 1588 391 
Q 1994 391 2212 530 
Q 2431 669 2431 922 
Q 2431 1156 2273 1281 
Q 2116 1406 1581 1522 
L 1381 1569 
Q 847 1681 609 1914 
Q 372 2147 372 2553 
Q 372 3047 722 3315 
Q 1072 3584 1716 3584 
Q 2034 3584 2315 3537 
Q 2597 3491 2834 3397 
z
" transform="scale(0.015625)"/>
      </defs>
      <use xlink:href="#DejaVuSans-54"/>
      <use xlink:href="#DejaVuSans-73" x="44.583984"/>
     </g>
    </g>
   </g>
   <g id="line2d_15">
    <path d="M 73.832727 286.796263 
L 73.944084 295.488 
L 74.666766 295.488 
L 74.66709 294.763689 
L 74.777798 295.488 
L 74.830716 295.488 
L 74.831041 294.763689 
L 74.941748 295.488 
L 75.254391 295.488 
L 75.254716 294.763689 
L 75.365423 295.488 
L 75.419965 295.488 
L 75.42029 294.763689 
L 75.530997 295.488 
L 75.584565 295.488 
L 75.670923 294.763689 
L 75.695597 295.488 
L 75.821238 295.488 
L 75.821563 294.763689 
L 75.93227 295.488 
L 76.841953 295.488 
L 76.842278 294.763689 
L 76.952985 295.488 
L 77.605542 295.488 
L 77.605866 294.763689 
L 77.716573 295.488 
L 79.415492 295.488 
L 79.415817 294.763689 
L 79.526524 295.488 
L 80.251154 295.488 
L 80.251479 294.763689 
L 80.362186 295.488 
L 82.608148 295.488 
L 82.608473 294.763689 
L 82.71918 295.488 
L 82.953257 295.488 
L 82.953581 294.763689 
L 83.064289 295.488 
L 84.094743 295.488 
L 84.095068 54.292311 
L 84.205775 295.488 
L 85.276162 295.488 
L 85.276487 294.763689 
L 85.387194 295.488 
L 87.660103 295.488 
L 87.749708 294.763689 
L 87.771135 295.488 
L 87.999043 295.488 
L 87.999367 294.763689 
L 88.110074 295.488 
L 88.531477 295.488 
L 88.531801 294.763689 
L 88.642508 295.488 
L 88.760683 295.488 
L 88.761008 294.039377 
L 88.871715 295.488 
L 89.067482 295.488 
L 89.165203 294.039377 
L 89.178514 295.488 
L 91.635177 295.488 
L 91.635502 294.763689 
L 91.746209 295.488 
L 92.538042 295.488 
L 92.635114 294.763689 
L 92.649074 295.488 
L 96.605643 295.488 
L 96.605968 294.763689 
L 96.716675 295.488 
L 97.971791 295.488 
L 97.972115 294.763689 
L 98.082823 295.488 
L 98.920757 295.488 
L 98.921082 294.763689 
L 99.031789 295.488 
L 101.869922 295.488 
L 101.870247 294.763689 
L 101.980954 295.488 
L 102.012445 295.488 
L 102.01277 294.763689 
L 102.123477 295.488 
L 103.286391 295.488 
L 103.286716 294.763689 
L 103.397423 295.488 
L 104.095106 295.488 
L 104.095431 294.763689 
L 104.206138 295.488 
L 105.918043 295.488 
L 105.918368 293.315066 
L 106.029075 295.488 
L 106.936161 295.488 
L 106.936486 294.763689 
L 107.047193 295.488 
L 107.805587 295.488 
L 107.805912 294.763689 
L 107.916619 295.488 
L 107.998756 295.488 
L 107.999081 294.763689 
L 108.109788 295.488 
L 108.223093 295.488 
L 108.223418 294.763689 
L 108.334125 295.488 
L 108.61625 295.488 
L 108.616575 294.763689 
L 108.727282 295.488 
L 109.436328 295.488 
L 109.436653 294.763689 
L 109.54736 295.488 
L 110.831046 295.488 
L 110.83137 294.763689 
L 110.942078 295.488 
L 111.488796 295.488 
L 111.489121 294.763689 
L 111.599828 295.488 
L 112.211478 295.488 
L 112.211803 294.763689 
L 112.32251 295.488 
L 113.70067 295.488 
L 113.700995 294.763689 
L 113.811702 295.488 
L 114.286023 295.488 
L 114.286347 294.039377 
L 114.397055 295.488 
L 115.094413 295.488 
L 115.189213 294.763689 
L 115.205445 295.488 
L 115.458351 295.488 
L 115.458676 294.039377 
L 115.569383 295.488 
L 116.24564 295.488 
L 116.245964 294.763689 
L 116.356671 295.488 
L 116.899494 295.488 
L 116.899819 294.763689 
L 117.010526 295.488 
L 117.332259 295.488 
L 117.332584 294.763689 
L 117.443291 295.488 
L 117.738078 295.488 
L 117.812424 294.763689 
L 117.84911 295.488 
L 118.029943 295.488 
L 118.030267 294.763689 
L 118.140975 295.488 
L 118.395179 295.488 
L 118.395504 294.763689 
L 118.506211 295.488 
L 118.661396 295.488 
L 118.661721 294.763689 
L 118.772428 295.488 
L 119.082149 295.488 
L 119.082474 294.763689 
L 119.193181 295.488 
L 119.277267 295.488 
L 119.277591 294.763689 
L 119.388299 295.488 
L 119.398038 295.488 
L 119.485695 294.763689 
L 119.50907 295.488 
L 119.93307 295.488 
L 119.945731 294.763689 
L 120.044101 295.488 
L 120.107734 295.488 
L 120.108058 294.763689 
L 120.218766 295.488 
L 121.206691 295.488 
L 121.207015 294.763689 
L 121.317723 295.488 
L 123.406227 295.488 
L 123.406552 294.763689 
L 123.517259 295.488 
L 125.095731 295.488 
L 125.096056 294.763689 
L 125.206763 295.488 
L 125.613556 295.488 
L 125.61388 294.763689 
L 125.724588 295.488 
L 127.013792 295.488 
L 127.014117 294.763689 
L 127.124824 295.488 
L 127.739396 295.488 
L 127.739721 294.763689 
L 127.850428 295.488 
L 128.838677 295.488 
L 128.839002 294.763689 
L 128.949709 295.488 
L 130.17658 295.488 
L 130.235667 294.763689 
L 130.287612 295.488 
L 131.577466 295.488 
L 131.687199 294.763689 
L 131.688498 295.488 
L 132.466695 295.488 
L 132.46702 294.763689 
L 132.577727 295.488 
L 133.465658 295.488 
L 133.465983 294.763689 
L 133.57669 295.488 
L 134.80908 295.488 
L 134.809405 294.763689 
L 134.920112 295.488 
L 135.085686 295.488 
L 135.086011 294.763689 
L 135.196718 295.488 
L 137.052445 295.488 
L 137.05277 294.763689 
L 137.163477 295.488 
L 137.848824 295.488 
L 137.849149 294.763689 
L 137.959856 295.488 
L 139.712667 295.488 
L 139.712992 294.763689 
L 139.823699 295.488 
L 139.861684 295.488 
L 139.862009 294.763689 
L 139.972716 295.488 
L 140.817143 295.488 
L 140.817468 294.763689 
L 140.928175 295.488 
L 141.514827 295.488 
L 141.515151 294.763689 
L 141.625859 295.488 
L 142.058299 295.488 
L 142.058624 294.763689 
L 142.169331 295.488 
L 142.314127 295.488 
L 142.314452 294.039377 
L 142.425159 295.488 
L 142.893961 295.488 
L 142.894285 294.763689 
L 143.004993 295.488 
L 145.047396 295.488 
L 145.047721 294.763689 
L 145.158428 295.488 
L 147.095319 295.488 
L 147.095644 294.763689 
L 147.206351 295.488 
L 148.757228 295.488 
L 148.757552 294.763689 
L 148.868259 295.488 
L 150.195773 295.488 
L 150.196098 294.763689 
L 150.306805 295.488 
L 150.446407 295.488 
L 150.446731 294.763689 
L 150.557439 295.488 
L 151.938196 295.488 
L 151.938521 294.763689 
L 152.049228 295.488 
L 152.195647 295.488 
L 152.195972 294.763689 
L 152.306679 295.488 
L 155.210392 295.488 
L 155.210717 294.763689 
L 155.321424 295.488 
L 155.70679 295.488 
L 155.707114 294.763689 
L 155.817822 295.488 
L 156.593747 295.488 
L 156.594071 294.763689 
L 156.704779 295.488 
L 157.364153 295.488 
L 157.364477 294.763689 
L 157.475185 295.488 
L 157.70569 295.488 
L 157.706014 294.763689 
L 157.816722 295.488 
L 160.789586 295.488 
L 160.789911 294.763689 
L 160.900618 295.488 
L 161.458051 295.488 
L 161.458375 294.763689 
L 161.569083 295.488 
L 162.200212 295.488 
L 162.200536 294.763689 
L 162.311244 295.488 
L 164.872446 295.488 
L 164.872771 294.763689 
L 164.983478 295.488 
L 165.029904 295.488 
L 165.030228 294.039377 
L 165.140936 295.488 
L 165.28703 295.488 
L 165.287355 294.763689 
L 165.398062 295.488 
L 165.924003 295.488 
L 165.924328 294.763689 
L 166.035035 295.488 
L 167.736227 295.488 
L 167.776808 294.039377 
L 167.847259 295.488 
L 167.86966 295.488 
L 167.869984 294.763689 
L 167.980692 295.488 
L 168.762785 295.488 
L 168.76311 294.763689 
L 168.873817 295.488 
L 170.62046 295.488 
L 170.620785 294.763689 
L 170.731492 295.488 
L 171.619423 295.488 
L 171.619748 294.763689 
L 171.730455 295.488 
L 172.621308 295.488 
L 172.621633 294.039377 
L 172.73234 295.488 
L 173.017063 295.488 
L 173.017387 294.763689 
L 173.128095 295.488 
L 173.462489 295.488 
L 173.550795 294.763689 
L 173.573521 295.488 
L 173.817012 295.488 
L 173.817337 294.763689 
L 173.928044 295.488 
L 174.411455 295.488 
L 174.41178 294.763689 
L 174.522487 295.488 
L 175.637027 295.488 
L 175.637352 294.763689 
L 175.748059 295.488 
L 176.317179 295.488 
L 176.317504 294.763689 
L 176.428211 295.488 
L 177.408669 295.488 
L 177.408994 294.763689 
L 177.519701 295.488 
L 177.860589 295.488 
L 177.860913 294.763689 
L 177.971621 295.488 
L 178.403736 295.488 
L 178.404061 294.763689 
L 178.514768 295.488 
L 179.472175 295.488 
L 179.511134 294.763689 
L 179.583207 295.488 
L 179.929939 295.488 
L 179.930263 294.763689 
L 180.040971 295.488 
L 181.01039 295.488 
L 181.010715 294.763689 
L 181.121422 295.488 
L 181.23213 295.488 
L 181.232454 294.763689 
L 181.343161 295.488 
L 182.543086 295.488 
L 182.543411 294.763689 
L 182.654118 295.488 
L 184.564062 295.488 
L 184.602372 294.763689 
L 184.675094 295.488 
L 185.563675 295.488 
L 185.626009 294.763689 
L 185.674707 295.488 
L 185.683148 295.488 
L 185.683472 294.763689 
L 185.79418 295.488 
L 187.914501 295.488 
L 187.914825 294.763689 
L 188.025533 295.488 
L 188.604068 295.488 
L 188.604392 294.039377 
L 188.7151 295.488 
L 188.740423 295.488 
L 188.740747 294.763689 
L 188.851455 295.488 
L 189.842626 295.488 
L 189.872819 294.763689 
L 189.953658 295.488 
L 190.072806 295.488 
L 190.073131 294.763689 
L 190.183838 295.488 
L 193.432984 295.488 
L 193.532004 294.763689 
L 193.544016 295.488 
L 193.594338 295.488 
L 193.594662 294.763689 
L 193.70537 295.488 
L 194.01509 295.488 
L 194.015415 294.763689 
L 194.126122 295.488 
L 194.380002 295.488 
L 194.380327 294.763689 
L 194.491034 295.488 
L 197.64603 295.488 
L 197.646355 294.763689 
L 197.757062 295.488 
L 198.978089 295.488 
L 198.978414 294.763689 
L 199.089121 295.488 
L 201.943162 295.488 
L 201.943487 294.763689 
L 202.054194 295.488 
L 202.492803 295.488 
L 202.493128 294.763689 
L 202.603835 295.488 
L 203.364826 295.488 
L 203.365151 294.763689 
L 203.475858 295.488 
L 205.680914 295.488 
L 205.681238 294.763689 
L 205.791946 295.488 
L 205.945183 295.488 
L 205.945508 294.763689 
L 206.056215 295.488 
L 206.591571 295.488 
L 206.612673 294.763689 
L 206.702603 295.488 
L 207.02466 295.488 
L 207.024985 294.763689 
L 207.135692 295.488 
L 208.245038 295.488 
L 208.245363 294.763689 
L 208.35607 295.488 
L 210.024796 295.488 
L 210.025121 294.763689 
L 210.135828 295.488 
L 211.382503 295.488 
L 211.382827 294.763689 
L 211.493535 295.488 
L 212.508406 295.488 
L 212.50873 294.763689 
L 212.619438 295.488 
L 212.952534 295.488 
L 212.952858 294.763689 
L 213.063566 295.488 
L 213.350885 295.488 
L 213.35121 294.763689 
L 213.461917 295.488 
L 214.976757 295.488 
L 214.977081 294.763689 
L 215.087789 295.488 
L 215.338747 295.488 
L 215.339072 294.763689 
L 215.449779 295.488 
L 216.310114 295.488 
L 216.32862 294.763689 
L 216.421146 295.488 
L 217.061366 295.488 
L 217.06169 294.763689 
L 217.172398 295.488 
L 217.815214 295.488 
L 217.815539 294.763689 
L 217.926246 295.488 
L 219.558286 295.488 
L 219.558611 294.763689 
L 219.669318 295.488 
L 220.663411 295.488 
L 220.663736 294.763689 
L 220.774443 295.488 
L 220.869567 295.488 
L 220.869892 294.763689 
L 220.980599 295.488 
L 221.248439 295.488 
L 221.248764 294.763689 
L 221.359471 295.488 
L 221.402651 295.488 
L 221.402975 294.763689 
L 221.513683 295.488 
L 221.594197 295.488 
L 221.594522 294.763689 
L 221.705229 295.488 
L 223.780098 295.488 
L 223.780423 294.763689 
L 223.89113 295.488 
L 224.133647 295.488 
L 224.133972 294.763689 
L 224.244679 295.488 
L 224.338505 295.488 
L 224.338829 294.763689 
L 224.449537 295.488 
L 224.742051 295.488 
L 224.742375 294.763689 
L 224.853083 295.488 
L 226.582194 295.488 
L 226.582519 294.763689 
L 226.693226 295.488 
L 228.286957 295.488 
L 228.324617 294.763689 
L 228.397989 295.488 
L 228.896984 295.488 
L 228.897308 294.763689 
L 229.008016 295.488 
L 230.83842 295.488 
L 230.838744 294.763689 
L 230.949452 295.488 
L 231.493249 295.488 
L 231.493573 294.763689 
L 231.604281 295.488 
L 231.638694 295.488 
L 231.639019 294.763689 
L 231.749726 295.488 
L 231.950038 295.488 
L 231.950363 293.315066 
L 232.06107 295.488 
L 233.534029 295.488 
L 233.534354 294.763689 
L 233.645061 295.488 
L 234.175547 295.488 
L 234.175872 294.763689 
L 234.286579 295.488 
L 234.709604 295.488 
L 234.709929 294.763689 
L 234.820636 295.488 
L 236.577993 295.488 
L 236.578318 294.763689 
L 236.689025 295.488 
L 237.687663 295.488 
L 237.687988 294.763689 
L 237.798695 295.488 
L 238.571699 295.488 
L 238.572023 294.763689 
L 238.682731 295.488 
L 239.324573 295.488 
L 239.324898 294.039377 
L 239.435605 295.488 
L 239.968689 295.488 
L 240.038489 294.763689 
L 240.079721 295.488 
L 240.664749 295.488 
L 240.665073 294.763689 
L 240.775781 295.488 
L 240.884865 295.488 
L 240.885189 294.763689 
L 240.995897 295.488 
L 244.19602 295.488 
L 244.244718 294.763689 
L 244.307052 295.488 
L 246.346209 295.488 
L 246.346534 294.763689 
L 246.457241 295.488 
L 247.498734 295.488 
L 247.499058 294.763689 
L 247.609766 295.488 
L 248.305501 295.488 
L 248.305826 294.039377 
L 248.416533 295.488 
L 249.126878 295.488 
L 249.127202 294.763689 
L 249.23791 295.488 
L 249.83495 295.488 
L 249.835275 294.763689 
L 249.945982 295.488 
L 251.417318 295.488 
L 251.417643 53.568 
L 251.52835 295.488 
L 252.588673 295.488 
L 252.588997 294.763689 
L 252.699705 295.488 
L 253.804181 295.488 
L 253.804505 294.763689 
L 253.915213 295.488 
L 256.57998 295.488 
L 256.580304 294.763689 
L 256.691012 295.488 
L 258.907106 295.488 
L 258.90743 294.763689 
L 259.018138 295.488 
L 259.74017 295.488 
L 259.740495 294.763689 
L 259.851202 295.488 
L 260.010608 295.488 
L 260.010932 294.763689 
L 260.12164 295.488 
L 261.062165 295.488 
L 261.062489 294.763689 
L 261.173197 295.488 
L 261.260529 295.488 
L 261.260854 294.763689 
L 261.371561 295.488 
L 261.961783 295.488 
L 261.962108 294.763689 
L 262.072815 295.488 
L 262.455259 295.488 
L 262.478634 294.763689 
L 262.566291 295.488 
L 264.690832 295.488 
L 264.793423 294.039377 
L 264.801864 295.488 
L 265.000553 295.488 
L 265.000878 228.127042 
L 265.111585 295.488 
L 265.518702 295.488 
L 265.519027 294.763689 
L 265.629734 295.488 
L 265.786542 295.488 
L 265.786867 294.763689 
L 265.897574 295.488 
L 266.115418 295.488 
L 266.115743 294.763689 
L 266.22645 295.488 
L 266.462799 295.488 
L 266.463123 294.039377 
L 266.573831 295.488 
L 267.029321 295.488 
L 267.029646 294.763689 
L 267.140353 295.488 
L 267.715317 295.488 
L 267.715642 294.763689 
L 267.826349 295.488 
L 268.8133 295.488 
L 268.813625 294.763689 
L 268.924332 295.488 
L 268.946408 295.488 
L 268.946733 294.763689 
L 269.05744 295.488 
L 269.195419 295.488 
L 269.195743 294.763689 
L 269.306451 295.488 
L 270.67552 295.488 
L 270.675845 294.763689 
L 270.786552 295.488 
L 271.96927 295.488 
L 271.969595 294.763689 
L 272.080302 295.488 
L 272.512093 295.488 
L 272.512417 294.763689 
L 272.623125 295.488 
L 273.166597 295.488 
L 273.166922 293.315066 
L 273.277629 295.488 
L 274.091863 295.488 
L 274.170105 294.763689 
L 274.202895 295.488 
L 275.110306 295.488 
L 275.11063 294.763689 
L 275.221338 295.488 
L 275.232701 295.488 
L 275.233025 294.763689 
L 275.343733 295.488 
L 275.594366 295.488 
L 275.594691 294.763689 
L 275.705398 295.488 
L 275.965771 295.488 
L 276.074531 294.763689 
L 276.076803 295.488 
L 276.094984 295.488 
L 276.095309 294.763689 
L 276.206016 295.488 
L 277.533205 295.488 
L 277.560476 294.763689 
L 277.644237 295.488 
L 277.987397 295.488 
L 277.987722 294.763689 
L 278.098429 295.488 
L 279.924288 295.488 
L 279.924613 294.763689 
L 280.03532 295.488 
L 280.108692 295.488 
L 280.109017 294.763689 
L 280.219724 295.488 
L 280.770663 295.488 
L 280.770988 294.763689 
L 280.881695 295.488 
L 280.90507 295.488 
L 280.905395 294.763689 
L 281.016102 295.488 
L 281.113174 295.488 
L 281.113499 294.763689 
L 281.224206 295.488 
L 283.829237 295.488 
L 283.829562 294.039377 
L 283.940269 295.488 
L 284.378553 295.488 
L 284.378878 294.039377 
L 284.489585 295.488 
L 284.92657 295.488 
L 284.926895 294.763689 
L 285.037602 295.488 
L 286.719639 295.488 
L 286.719964 294.763689 
L 286.830671 295.488 
L 287.951704 295.488 
L 288.041959 224.505485 
L 288.062736 295.488 
L 289.831131 295.488 
L 289.831456 294.763689 
L 289.942163 295.488 
L 291.146633 295.488 
L 291.146958 294.763689 
L 291.257665 295.488 
L 291.429407 295.488 
L 291.429732 294.763689 
L 291.540439 295.488 
L 292.632578 295.488 
L 292.632903 294.763689 
L 292.74361 295.488 
L 293.315003 295.488 
L 293.315328 232.47291 
L 293.426035 295.488 
L 293.774714 295.488 
L 293.775039 294.763689 
L 293.885746 295.488 
L 294.745757 295.488 
L 294.746082 294.763689 
L 294.856789 295.488 
L 294.915876 295.488 
L 294.916201 294.763689 
L 295.026908 295.488 
L 295.344096 295.488 
L 295.34442 294.763689 
L 295.455128 295.488 
L 296.103139 295.488 
L 296.103464 294.763689 
L 296.214171 295.488 
L 296.442079 295.488 
L 296.442403 294.763689 
L 296.553111 295.488 
L 296.776148 295.488 
L 296.776473 294.763689 
L 296.88718 295.488 
L 298.341959 295.488 
L 298.342284 294.763689 
L 298.452991 295.488 
L 298.643888 295.488 
L 298.644213 294.763689 
L 298.75492 295.488 
L 299.07016 295.488 
L 299.070484 294.763689 
L 299.181192 295.488 
L 299.207164 295.488 
L 299.207489 294.763689 
L 299.318196 295.488 
L 300.516173 295.488 
L 300.516497 294.763689 
L 300.627205 295.488 
L 300.905109 295.488 
L 300.905434 294.763689 
L 301.016141 295.488 
L 301.388845 295.488 
L 301.400532 294.039377 
L 301.499877 295.488 
L 301.723564 295.488 
L 301.723889 294.763689 
L 301.834596 295.488 
L 303.728957 295.488 
L 303.729282 294.763689 
L 303.839989 295.488 
L 304.654224 295.488 
L 304.654548 294.763689 
L 304.765256 295.488 
L 305.79571 295.488 
L 305.796035 294.763689 
L 305.906742 295.488 
L 305.934013 295.488 
L 305.934338 294.763689 
L 306.045045 295.488 
L 306.136598 295.488 
L 306.136922 294.763689 
L 306.24763 295.488 
L 308.921487 295.488 
L 308.921812 294.763689 
L 309.032519 295.488 
L 309.946098 295.488 
L 309.946423 294.763689 
L 310.05713 295.488 
L 311.361269 295.488 
L 311.361593 294.763689 
L 311.4723 295.488 
L 312.103754 295.488 
L 312.104079 294.763689 
L 312.214786 295.488 
L 312.62937 295.488 
L 312.629695 294.039377 
L 312.740402 295.488 
L 312.759557 295.488 
L 312.759882 294.763689 
L 312.870589 295.488 
L 312.958246 295.488 
L 312.95857 294.763689 
L 313.069278 295.488 
L 314.002985 295.488 
L 314.00331 294.763689 
L 314.114017 295.488 
L 314.51594 295.488 
L 314.516265 294.763689 
L 314.626972 295.488 
L 315.61652 295.488 
L 315.616845 294.763689 
L 315.727552 295.488 
L 316.168758 295.488 
L 316.169082 294.763689 
L 316.27979 295.488 
L 316.704763 295.488 
L 316.705088 294.763689 
L 316.815795 295.488 
L 319.694834 295.488 
L 319.695159 294.763689 
L 319.805866 295.488 
L 322.511865 295.488 
L 322.54011 294.763689 
L 322.622897 295.488 
L 322.707307 295.488 
L 322.707632 294.763689 
L 322.818339 295.488 
L 322.892036 295.488 
L 322.89236 294.763689 
L 323.003067 295.488 
L 323.223183 295.488 
L 323.300451 294.763689 
L 323.334215 295.488 
L 324.000732 295.488 
L 324.001057 294.763689 
L 324.111764 295.488 
L 325.853213 295.488 
L 325.853537 294.763689 
L 325.964245 295.488 
L 327.466423 295.488 
L 327.466747 294.763689 
L 327.577455 295.488 
L 328.347861 295.488 
L 328.348185 294.763689 
L 328.458893 295.488 
L 328.459867 295.488 
L 328.460191 294.763689 
L 328.570899 295.488 
L 329.08223 295.488 
L 329.099112 294.763689 
L 329.193262 295.488 
L 329.920164 295.488 
L 329.920489 294.763689 
L 330.031196 295.488 
L 330.329879 295.488 
L 330.35715 294.763689 
L 330.440911 295.488 
L 331.470391 295.488 
L 331.470716 294.763689 
L 331.581423 295.488 
L 331.758035 295.488 
L 331.75836 294.039377 
L 331.869067 295.488 
L 332.197293 295.488 
L 332.247615 294.763689 
L 332.308325 295.488 
L 332.829072 295.488 
L 332.829396 294.763689 
L 332.940104 295.488 
L 336.937579 295.488 
L 336.937904 294.763689 
L 337.048611 295.488 
L 337.143735 295.488 
L 337.14406 294.763689 
L 337.254767 295.488 
L 337.675195 295.488 
L 337.67552 294.763689 
L 337.786227 295.488 
L 338.161853 295.488 
L 338.162177 294.763689 
L 338.272885 295.488 
L 340.66689 295.488 
L 340.734743 294.763689 
L 340.777922 295.488 
L 341.388597 295.488 
L 341.388922 294.039377 
L 341.499629 295.488 
L 341.514888 295.488 
L 341.515213 294.763689 
L 341.62592 295.488 
L 342.184002 295.488 
L 342.184327 294.763689 
L 342.295034 295.488 
L 343.250168 295.488 
L 343.250493 294.763689 
L 343.3612 295.488 
L 345.40263 295.488 
L 345.402955 294.763689 
L 345.513662 295.488 
L 345.935714 295.488 
L 345.936038 294.763689 
L 346.046746 295.488 
L 346.34348 295.488 
L 346.343805 294.763689 
L 346.454512 295.488 
L 347.073954 295.488 
L 347.074278 294.763689 
L 347.184985 295.488 
L 348.06545 295.488 
L 348.065774 294.763689 
L 348.176481 295.488 
L 348.71898 295.488 
L 348.719304 294.763689 
L 348.830012 295.488 
L 349.193625 295.488 
L 349.19395 294.763689 
L 349.304657 295.488 
L 349.468283 295.488 
L 349.468608 294.763689 
L 349.579315 295.488 
L 352.253822 295.488 
L 352.262588 294.763689 
L 352.364854 295.488 
L 352.55218 295.488 
L 352.552504 294.763689 
L 352.663212 295.488 
L 354.403687 295.488 
L 354.413102 294.763689 
L 354.514719 295.488 
L 354.72542 295.488 
L 354.725744 294.763689 
L 354.836451 295.488 
L 358.032354 295.488 
L 358.032679 294.763689 
L 358.143386 295.488 
L 359.524143 295.488 
L 359.524468 294.763689 
L 359.635175 295.488 
L 359.676406 295.488 
L 359.676731 294.763689 
L 359.787438 295.488 
L 360.408178 295.488 
L 360.408503 294.763689 
L 360.51921 295.488 
L 362.679139 295.488 
L 362.679464 294.763689 
L 362.790171 295.488 
L 363.279101 295.488 
L 363.279426 294.763689 
L 363.390133 295.488 
L 363.75115 295.488 
L 363.751474 294.763689 
L 363.862182 295.488 
L 363.965746 295.488 
L 363.966071 294.763689 
L 364.076778 295.488 
L 364.179694 295.488 
L 364.180019 294.763689 
L 364.290726 295.488 
L 365.433186 295.488 
L 365.433511 294.763689 
L 365.544218 295.488 
L 368.241126 295.488 
L 368.241451 294.763689 
L 368.352158 295.488 
L 368.716746 295.488 
L 368.71707 294.763689 
L 368.827778 295.488 
L 369.599482 295.488 
L 369.599807 294.763689 
L 369.710514 295.488 
L 371.323075 295.488 
L 371.3234 294.763689 
L 371.434107 295.488 
L 371.813953 295.488 
L 371.814278 294.763689 
L 371.924985 295.488 
L 372.506117 295.488 
L 372.506442 294.763689 
L 372.617149 295.488 
L 373.840774 295.488 
L 373.841098 294.763689 
L 373.951806 295.488 
L 374.88389 295.488 
L 374.884214 294.763689 
L 374.994922 295.488 
L 375.42444 295.488 
L 375.478333 294.763689 
L 375.535472 295.488 
L 376.713969 295.488 
L 376.714294 294.763689 
L 376.825001 295.488 
L 377.836301 295.488 
L 377.836626 229.575665 
L 377.947333 295.488 
L 380.424774 295.488 
L 380.425099 294.039377 
L 380.535806 295.488 
L 381.136093 295.488 
L 381.136418 294.763689 
L 381.247125 295.488 
L 381.447762 295.488 
L 381.448087 294.763689 
L 381.558794 295.488 
L 381.595155 295.488 
L 381.59548 294.763689 
L 381.706187 295.488 
L 382.251607 295.488 
L 382.251932 294.763689 
L 382.362639 295.488 
L 384.003445 295.488 
L 384.00377 294.039377 
L 384.114477 295.488 
L 385.476404 295.488 
L 385.476729 294.763689 
L 385.587436 295.488 
L 386.011111 295.488 
L 386.011435 294.039377 
L 386.122143 295.488 
L 386.598736 295.488 
L 386.599061 294.763689 
L 386.709768 295.488 
L 386.739636 295.488 
L 386.739961 294.763689 
L 386.850668 295.488 
L 388.428816 295.488 
L 388.42914 294.763689 
L 388.539848 295.488 
L 389.913138 295.488 
L 389.922877 294.763689 
L 390.02417 295.488 
L 390.783862 295.488 
L 390.784187 294.763689 
L 390.894894 295.488 
L 391.155592 295.488 
L 391.155916 294.763689 
L 391.266624 295.488 
L 391.695493 295.488 
L 391.806849 294.763689 
L 391.918206 295.488 
L 397.741865 295.488 
L 397.74219 294.763689 
L 397.852897 295.488 
L 397.860364 295.488 
L 397.860689 294.763689 
L 397.971396 295.488 
L 398.322348 295.488 
L 398.322673 294.763689 
L 398.43338 295.488 
L 398.487273 295.488 
L 398.487273 295.488 
" clip-path="url(#p59317feda9)" style="fill: none; stroke: #1f77b4; stroke-width: 1.5; stroke-linecap: square"/>
   </g>
   <g id="line2d_16">
    <path d="M 57.6 295.486945 
L 414.72 295.486945 
" clip-path="url(#p59317feda9)" style="fill: none; stroke: #008000; stroke-width: 1.5; stroke-linecap: square"/>
   </g>
   <g id="line2d_17">
    <path d="M 57.6 295.120694 
L 414.72 295.120694 
" clip-path="url(#p59317feda9)" style="fill: none; stroke: #ff0000; stroke-width: 1.5; stroke-linecap: square"/>
   </g>
   <g id="patch_3">
    <path d="M 57.6 307.584 
L 57.6 41.472 
" style="fill: none; stroke: #000000; stroke-width: 0.8; stroke-linejoin: miter; stroke-linecap: square"/>
   </g>
   <g id="patch_4">
    <path d="M 414.72 307.584 
L 414.72 41.472 
" style="fill: none; stroke: #000000; stroke-width: 0.8; stroke-linejoin: miter; stroke-linecap: square"/>
   </g>
   <g id="patch_5">
    <path d="M 57.6 307.584 
L 414.72 307.584 
" style="fill: none; stroke: #000000; stroke-width: 0.8; stroke-linejoin: miter; stroke-linecap: square"/>
   </g>
   <g id="patch_6">
    <path d="M 57.6 41.472 
L 414.72 41.472 
" style="fill: none; stroke: #000000; stroke-width: 0.8; stroke-linejoin: miter; stroke-linecap: square"/>
   </g>
   <g id="text_18">
    <!-- Tempo de serviço utilizando somente cache em memória -->
    <g transform="translate(64.565625 35.472) scale(0.12 -0.12)">
     <defs>
      <path id="DejaVuSans-6d" d="M 3328 2828 
Q 3544 3216 3844 3400 
Q 4144 3584 4550 3584 
Q 5097 3584 5394 3201 
Q 5691 2819 5691 2113 
L 5691 0 
L 5113 0 
L 5113 2094 
Q 5113 2597 4934 2840 
Q 4756 3084 4391 3084 
Q 3944 3084 3684 2787 
Q 3425 2491 3425 1978 
L 3425 0 
L 2847 0 
L 2847 2094 
Q 2847 2600 2669 2842 
Q 2491 3084 2119 3084 
Q 1678 3084 1418 2786 
Q 1159 2488 1159 1978 
L 1159 0 
L 581 0 
L 581 3500 
L 1159 3500 
L 1159 2956 
Q 1356 3278 1631 3431 
Q 1906 3584 2284 3584 
Q 2666 3584 2933 3390 
Q 3200 3197 3328 2828 
z
" transform="scale(0.015625)"/>
      <path id="DejaVuSans-70" d="M 1159 525 
L 1159 -1331 
L 581 -1331 
L 581 3500 
L 1159 3500 
L 1159 2969 
Q 1341 3281 1617 3432 
Q 1894 3584 2278 3584 
Q 2916 3584 3314 3078 
Q 3713 2572 3713 1747 
Q 3713 922 3314 415 
Q 2916 -91 2278 -91 
Q 1894 -91 1617 61 
Q 1341 213 1159 525 
z
M 3116 1747 
Q 3116 2381 2855 2742 
Q 2594 3103 2138 3103 
Q 1681 3103 1420 2742 
Q 1159 2381 1159 1747 
Q 1159 1113 1420 752 
Q 1681 391 2138 391 
Q 2594 391 2855 752 
Q 3116 1113 3116 1747 
z
" transform="scale(0.015625)"/>
      <path id="DejaVuSans-6f" d="M 1959 3097 
Q 1497 3097 1228 2736 
Q 959 2375 959 1747 
Q 959 1119 1226 758 
Q 1494 397 1959 397 
Q 2419 397 2687 759 
Q 2956 1122 2956 1747 
Q 2956 2369 2687 2733 
Q 2419 3097 1959 3097 
z
M 1959 3584 
Q 2709 3584 3137 3096 
Q 3566 2609 3566 1747 
Q 3566 888 3137 398 
Q 2709 -91 1959 -91 
Q 1206 -91 779 398 
Q 353 888 353 1747 
Q 353 2609 779 3096 
Q 1206 3584 1959 3584 
z
" transform="scale(0.015625)"/>
      <path id="DejaVuSans-20" transform="scale(0.015625)"/>
      <path id="DejaVuSans-64" d="M 2906 2969 
L 2906 4863 
L 3481 4863 
L 3481 0 
L 2906 0 
L 2906 525 
Q 2725 213 2448 61 
Q 2172 -91 1784 -91 
Q 1150 -91 751 415 
Q 353 922 353 1747 
Q 353 2572 751 3078 
Q 1150 3584 1784 3584 
Q 2172 3584 2448 3432 
Q 2725 3281 2906 2969 
z
M 947 1747 
Q 947 1113 1208 752 
Q 1469 391 1925 391 
Q 2381 391 2643 752 
Q 2906 1113 2906 1747 
Q 2906 2381 2643 2742 
Q 2381 3103 1925 3103 
Q 1469 3103 1208 2742 
Q 947 2381 947 1747 
z
" transform="scale(0.015625)"/>
      <path id="DejaVuSans-72" d="M 2631 2963 
Q 2534 3019 2420 3045 
Q 2306 3072 2169 3072 
Q 1681 3072 1420 2755 
Q 1159 2438 1159 1844 
L 1159 0 
L 581 0 
L 581 3500 
L 1159 3500 
L 1159 2956 
Q 1341 3275 1631 3429 
Q 1922 3584 2338 3584 
Q 2397 3584 2469 3576 
Q 2541 3569 2628 3553 
L 2631 2963 
z
" transform="scale(0.015625)"/>
      <path id="DejaVuSans-76" d="M 191 3500 
L 800 3500 
L 1894 563 
L 2988 3500 
L 3597 3500 
L 2284 0 
L 1503 0 
L 191 3500 
z
" transform="scale(0.015625)"/>
      <path id="DejaVuSans-69" d="M 603 3500 
L 1178 3500 
L 1178 0 
L 603 0 
L 603 3500 
z
M 603 4863 
L 1178 4863 
L 1178 4134 
L 603 4134 
L 603 4863 
z
" transform="scale(0.015625)"/>
      <path id="DejaVuSans-e7" d="M 3122 3366 
L 3122 2828 
Q 2878 2963 2633 3030 
Q 2388 3097 2138 3097 
Q 1578 3097 1268 2742 
Q 959 2388 959 1747 
Q 959 1106 1268 751 
Q 1578 397 2138 397 
Q 2388 397 2633 464 
Q 2878 531 3122 666 
L 3122 134 
Q 2881 22 2623 -34 
Q 2366 -91 2075 -91 
Q 1284 -91 818 406 
Q 353 903 353 1747 
Q 353 2603 823 3093 
Q 1294 3584 2113 3584 
Q 2378 3584 2631 3529 
Q 2884 3475 3122 3366 
z
M 2311 0 
Q 2482 -194 2566 -358 
Q 2651 -522 2651 -672 
Q 2651 -950 2463 -1092 
Q 2276 -1234 1907 -1234 
Q 1764 -1234 1628 -1215 
Q 1492 -1197 1357 -1159 
L 1357 -750 
Q 1464 -803 1579 -826 
Q 1695 -850 1842 -850 
Q 2026 -850 2120 -775 
Q 2214 -700 2214 -556 
Q 2214 -463 2146 -327 
Q 2079 -191 1939 0 
L 2311 0 
z
" transform="scale(0.015625)"/>
      <path id="DejaVuSans-75" d="M 544 1381 
L 544 3500 
L 1119 3500 
L 1119 1403 
Q 1119 906 1312 657 
Q 1506 409 1894 409 
Q 2359 409 2629 706 
Q 2900 1003 2900 1516 
L 2900 3500 
L 3475 3500 
L 3475 0 
L 2900 0 
L 2900 538 
Q 2691 219 2414 64 
Q 2138 -91 1772 -91 
Q 1169 -91 856 284 
Q 544 659 544 1381 
z
M 1991 3584 
L 1991 3584 
z
" transform="scale(0.015625)"/>
      <path id="DejaVuSans-74" d="M 1172 4494 
L 1172 3500 
L 2356 3500 
L 2356 3053 
L 1172 3053 
L 1172 1153 
Q 1172 725 1289 603 
Q 1406 481 1766 481 
L 2356 481 
L 2356 0 
L 1766 0 
Q 1100 0 847 248 
Q 594 497 594 1153 
L 594 3053 
L 172 3053 
L 172 3500 
L 594 3500 
L 594 4494 
L 1172 4494 
z
" transform="scale(0.015625)"/>
      <path id="DejaVuSans-6c" d="M 603 4863 
L 1178 4863 
L 1178 0 
L 603 0 
L 603 4863 
z
" transform="scale(0.015625)"/>
      <path id="DejaVuSans-7a" d="M 353 3500 
L 3084 3500 
L 3084 2975 
L 922 459 
L 3084 459 
L 3084 0 
L 275 0 
L 275 525 
L 2438 3041 
L 353 3041 
L 353 3500 
z
" transform="scale(0.015625)"/>
      <path id="DejaVuSans-61" d="M 2194 1759 
Q 1497 1759 1228 1600 
Q 959 1441 959 1056 
Q 959 750 1161 570 
Q 1363 391 1709 391 
Q 2188 391 2477 730 
Q 2766 1069 2766 1631 
L 2766 1759 
L 2194 1759 
z
M 3341 1997 
L 3341 0 
L 2766 0 
L 2766 531 
Q 2569 213 2275 61 
Q 1981 -91 1556 -91 
Q 1019 -91 701 211 
Q 384 513 384 1019 
Q 384 1609 779 1909 
Q 1175 2209 1959 2209 
L 2766 2209 
L 2766 2266 
Q 2766 2663 2505 2880 
Q 2244 3097 1772 3097 
Q 1472 3097 1187 3025 
Q 903 2953 641 2809 
L 641 3341 
Q 956 3463 1253 3523 
Q 1550 3584 1831 3584 
Q 2591 3584 2966 3190 
Q 3341 2797 3341 1997 
z
" transform="scale(0.015625)"/>
      <path id="DejaVuSans-63" d="M 3122 3366 
L 3122 2828 
Q 2878 2963 2633 3030 
Q 2388 3097 2138 3097 
Q 1578 3097 1268 2742 
Q 959 2388 959 1747 
Q 959 1106 1268 751 
Q 1578 397 2138 397 
Q 2388 397 2633 464 
Q 2878 531 3122 666 
L 3122 134 
Q 2881 22 2623 -34 
Q 2366 -91 2075 -91 
Q 1284 -91 818 406 
Q 353 903 353 1747 
Q 353 2603 823 3093 
Q 1294 3584 2113 3584 
Q 2378 3584 2631 3529 
Q 2884 3475 3122 3366 
z
" transform="scale(0.015625)"/>
      <path id="DejaVuSans-68" d="M 3513 2113 
L 3513 0 
L 2938 0 
L 2938 2094 
Q 2938 2591 2744 2837 
Q 2550 3084 2163 3084 
Q 1697 3084 1428 2787 
Q 1159 2491 1159 1978 
L 1159 0 
L 581 0 
L 581 4863 
L 1159 4863 
L 1159 2956 
Q 1366 3272 1645 3428 
Q 1925 3584 2291 3584 
Q 2894 3584 3203 3211 
Q 3513 2838 3513 2113 
z
" transform="scale(0.015625)"/>
      <path id="DejaVuSans-f3" d="M 1959 3097 
Q 1497 3097 1228 2736 
Q 959 2375 959 1747 
Q 959 1119 1226 758 
Q 1494 397 1959 397 
Q 2419 397 2687 759 
Q 2956 1122 2956 1747 
Q 2956 2369 2687 2733 
Q 2419 3097 1959 3097 
z
M 1959 3584 
Q 2709 3584 3137 3096 
Q 3566 2609 3566 1747 
Q 3566 888 3137 398 
Q 2709 -91 1959 -91 
Q 1206 -91 779 398 
Q 353 888 353 1747 
Q 353 2609 779 3096 
Q 1206 3584 1959 3584 
z
M 2394 5119 
L 3016 5119 
L 1998 3944 
L 1519 3944 
L 2394 5119 
z
" transform="scale(0.015625)"/>
     </defs>
     <use xlink:href="#DejaVuSans-54"/>
     <use xlink:href="#DejaVuSans-65" x="44.083984"/>
     <use xlink:href="#DejaVuSans-6d" x="105.607422"/>
     <use xlink:href="#DejaVuSans-70" x="203.019531"/>
     <use xlink:href="#DejaVuSans-6f" x="266.496094"/>
     <use xlink:href="#DejaVuSans-20" x="327.677734"/>
     <use xlink:href="#DejaVuSans-64" x="359.464844"/>
     <use xlink:href="#DejaVuSans-65" x="422.941406"/>
     <use xlink:href="#DejaVuSans-20" x="484.464844"/>
     <use xlink:href="#DejaVuSans-73" x="516.251953"/>
     <use xlink:href="#DejaVuSans-65" x="568.351562"/>
     <use xlink:href="#DejaVuSans-72" x="629.875"/>
     <use xlink:href="#DejaVuSans-76" x="670.988281"/>
     <use xlink:href="#DejaVuSans-69" x="730.167969"/>
     <use xlink:href="#DejaVuSans-e7" x="757.951172"/>
     <use xlink:href="#DejaVuSans-6f" x="812.931641"/>
     <use xlink:href="#DejaVuSans-20" x="874.113281"/>
     <use xlink:href="#DejaVuSans-75" x="905.900391"/>
     <use xlink:href="#DejaVuSans-74" x="969.279297"/>
     <use xlink:href="#DejaVuSans-69" x="1008.488281"/>
     <use xlink:href="#DejaVuSans-6c" x="1036.271484"/>
     <use xlink:href="#DejaVuSans-69" x="1064.054688"/>
     <use xlink:href="#DejaVuSans-7a" x="1091.837891"/>
     <use xlink:href="#DejaVuSans-61" x="1144.328125"/>
     <use xlink:href="#DejaVuSans-6e" x="1205.607422"/>
     <use xlink:href="#DejaVuSans-64" x="1268.986328"/>
     <use xlink:href="#DejaVuSans-6f" x="1332.462891"/>
     <use xlink:href="#DejaVuSans-20" x="1393.644531"/>
     <use xlink:href="#DejaVuSans-73" x="1425.431641"/>
     <use xlink:href="#DejaVuSans-6f" x="1477.53125"/>
     <use xlink:href="#DejaVuSans-6d" x="1538.712891"/>
     <use xlink:href="#DejaVuSans-65" x="1636.125"/>
     <use xlink:href="#DejaVuSans-6e" x="1697.648438"/>
     <use xlink:href="#DejaVuSans-74" x="1761.027344"/>
     <use xlink:href="#DejaVuSans-65" x="1800.236328"/>
     <use xlink:href="#DejaVuSans-20" x="1861.759766"/>
     <use xlink:href="#DejaVuSans-63" x="1893.546875"/>
     <use xlink:href="#DejaVuSans-61" x="1948.527344"/>
     <use xlink:href="#DejaVuSans-63" x="2009.806641"/>
     <use xlink:href="#DejaVuSans-68" x="2064.787109"/>
     <use xlink:href="#DejaVuSans-65" x="2128.166016"/>
     <use xlink:href="#DejaVuSans-20" x="2189.689453"/>
     <use xlink:href="#DejaVuSans-65" x="2221.476562"/>
     <use xlink:href="#DejaVuSans-6d" x="2283"/>
     <use xlink:href="#DejaVuSans-20" x="2380.412109"/>
     <use xlink:href="#DejaVuSans-6d" x="2412.199219"/>
     <use xlink:href="#DejaVuSans-65" x="2509.611328"/>
     <use xlink:href="#DejaVuSans-6d" x="2571.134766"/>
     <use xlink:href="#DejaVuSans-f3" x="2668.546875"/>
     <use xlink:href="#DejaVuSans-72" x="2729.728516"/>
     <use xlink:href="#DejaVuSans-69" x="2770.841797"/>
     <use xlink:href="#DejaVuSans-61" x="2798.625"/>
    </g>
   </g>
   <g id="legend_1">
    <g id="patch_7">
     <path d="M 278.398125 93.506375 
L 407.72 93.506375 
Q 409.72 93.506375 409.72 91.506375 
L 409.72 48.472 
Q 409.72 46.472 407.72 46.472 
L 278.398125 46.472 
Q 276.398125 46.472 276.398125 48.472 
L 276.398125 91.506375 
Q 276.398125 93.506375 278.398125 93.506375 
z
" style="fill: #ffffff; opacity: 0.8; stroke: #cccccc; stroke-linejoin: miter"/>
    </g>
    <g id="line2d_18">
     <path d="M 280.398125 54.570438 
L 290.398125 54.570438 
L 300.398125 54.570438 
" style="fill: none; stroke: #1f77b4; stroke-width: 1.5; stroke-linecap: square"/>
    </g>
    <g id="text_19">
     <!-- 100% -->
     <g transform="translate(308.398125 58.070438) scale(0.1 -0.1)">
      <defs>
       <path id="DejaVuSans-25" d="M 4653 2053 
Q 4381 2053 4226 1822 
Q 4072 1591 4072 1178 
Q 4072 772 4226 539 
Q 4381 306 4653 306 
Q 4919 306 5073 539 
Q 5228 772 5228 1178 
Q 5228 1588 5073 1820 
Q 4919 2053 4653 2053 
z
M 4653 2450 
Q 5147 2450 5437 2106 
Q 5728 1763 5728 1178 
Q 5728 594 5436 251 
Q 5144 -91 4653 -91 
Q 4153 -91 3862 251 
Q 3572 594 3572 1178 
Q 3572 1766 3864 2108 
Q 4156 2450 4653 2450 
z
M 1428 4353 
Q 1159 4353 1004 4120 
Q 850 3888 850 3481 
Q 850 3069 1003 2837 
Q 1156 2606 1428 2606 
Q 1700 2606 1854 2837 
Q 2009 3069 2009 3481 
Q 2009 3884 1853 4118 
Q 1697 4353 1428 4353 
z
M 4250 4750 
L 4750 4750 
L 1831 -91 
L 1331 -91 
L 4250 4750 
z
M 1428 4750 
Q 1922 4750 2215 4408 
Q 2509 4066 2509 3481 
Q 2509 2891 2217 2550 
Q 1925 2209 1428 2209 
Q 931 2209 642 2551 
Q 353 2894 353 3481 
Q 353 4063 643 4406 
Q 934 4750 1428 4750 
z
" transform="scale(0.015625)"/>
      </defs>
      <use xlink:href="#DejaVuSans-31"/>
      <use xlink:href="#DejaVuSans-30" x="63.623047"/>
      <use xlink:href="#DejaVuSans-30" x="127.246094"/>
      <use xlink:href="#DejaVuSans-25" x="190.869141"/>
     </g>
    </g>
    <g id="line2d_19">
     <path d="M 280.398125 69.248563 
L 290.398125 69.248563 
L 300.398125 69.248563 
" style="fill: none; stroke: #008000; stroke-width: 1.5; stroke-linecap: square"/>
    </g>
    <g id="text_20">
     <!-- Média: 0.15 ns -->
     <g transform="translate(308.398125 72.748563) scale(0.1 -0.1)">
      <defs>
       <path id="DejaVuSans-4d" d="M 628 4666 
L 1569 4666 
L 2759 1491 
L 3956 4666 
L 4897 4666 
L 4897 0 
L 4281 0 
L 4281 4097 
L 3078 897 
L 2444 897 
L 1241 4097 
L 1241 0 
L 628 0 
L 628 4666 
z
" transform="scale(0.015625)"/>
       <path id="DejaVuSans-e9" d="M 3597 1894 
L 3597 1613 
L 953 1613 
Q 991 1019 1311 708 
Q 1631 397 2203 397 
Q 2534 397 2845 478 
Q 3156 559 3463 722 
L 3463 178 
Q 3153 47 2828 -22 
Q 2503 -91 2169 -91 
Q 1331 -91 842 396 
Q 353 884 353 1716 
Q 353 2575 817 3079 
Q 1281 3584 2069 3584 
Q 2775 3584 3186 3129 
Q 3597 2675 3597 1894 
z
M 3022 2063 
Q 3016 2534 2758 2815 
Q 2500 3097 2075 3097 
Q 1594 3097 1305 2825 
Q 1016 2553 972 2059 
L 3022 2063 
z
M 2466 5119 
L 3088 5119 
L 2070 3944 
L 1591 3944 
L 2466 5119 
z
" transform="scale(0.015625)"/>
       <path id="DejaVuSans-3a" d="M 750 794 
L 1409 794 
L 1409 0 
L 750 0 
L 750 794 
z
M 750 3309 
L 1409 3309 
L 1409 2516 
L 750 2516 
L 750 3309 
z
" transform="scale(0.015625)"/>
      </defs>
      <use xlink:href="#DejaVuSans-4d"/>
      <use xlink:href="#DejaVuSans-e9" x="86.279297"/>
      <use xlink:href="#DejaVuSans-64" x="147.802734"/>
      <use xlink:href="#DejaVuSans-69" x="211.279297"/>
      <use xlink:href="#DejaVuSans-61" x="239.0625"/>
      <use xlink:href="#DejaVuSans-3a" x="300.341797"/>
      <use xlink:href="#DejaVuSans-20" x="334.033203"/>
      <use xlink:href="#DejaVuSans-30" x="365.820312"/>
      <use xlink:href="#DejaVuSans-2e" x="429.443359"/>
      <use xlink:href="#DejaVuSans-31" x="461.230469"/>
      <use xlink:href="#DejaVuSans-35" x="524.853516"/>
      <use xlink:href="#DejaVuSans-20" x="588.476562"/>
      <use xlink:href="#DejaVuSans-6e" x="620.263672"/>
      <use xlink:href="#DejaVuSans-73" x="683.642578"/>
     </g>
    </g>
    <g id="line2d_20">
     <path d="M 280.398125 83.926688 
L 290.398125 83.926688 
L 300.398125 83.926688 
" style="fill: none; stroke: #ff0000; stroke-width: 1.5; stroke-linecap: square"/>
    </g>
    <g id="text_21">
     <!-- Des. pad.: 50.71 ns -->
     <g transform="translate(308.398125 87.426688) scale(0.1 -0.1)">
      <defs>
       <path id="DejaVuSans-44" d="M 1259 4147 
L 1259 519 
L 2022 519 
Q 2988 519 3436 956 
Q 3884 1394 3884 2338 
Q 3884 3275 3436 3711 
Q 2988 4147 2022 4147 
L 1259 4147 
z
M 628 4666 
L 1925 4666 
Q 3281 4666 3915 4102 
Q 4550 3538 4550 2338 
Q 4550 1131 3912 565 
Q 3275 0 1925 0 
L 628 0 
L 628 4666 
z
" transform="scale(0.015625)"/>
       <path id="DejaVuSans-37" d="M 525 4666 
L 3525 4666 
L 3525 4397 
L 1831 0 
L 1172 0 
L 2766 4134 
L 525 4134 
L 525 4666 
z
" transform="scale(0.015625)"/>
      </defs>
      <use xlink:href="#DejaVuSans-44"/>
      <use xlink:href="#DejaVuSans-65" x="77.001953"/>
      <use xlink:href="#DejaVuSans-73" x="138.525391"/>
      <use xlink:href="#DejaVuSans-2e" x="190.625"/>
      <use xlink:href="#DejaVuSans-20" x="222.412109"/>
      <use xlink:href="#DejaVuSans-70" x="254.199219"/>
      <use xlink:href="#DejaVuSans-61" x="317.675781"/>
      <use xlink:href="#DejaVuSans-64" x="378.955078"/>
      <use xlink:href="#DejaVuSans-2e" x="442.431641"/>
      <use xlink:href="#DejaVuSans-3a" x="474.21875"/>
      <use xlink:href="#DejaVuSans-20" x="507.910156"/>
      <use xlink:href="#DejaVuSans-35" x="539.697266"/>
      <use xlink:href="#DejaVuSans-30" x="603.320312"/>
      <use xlink:href="#DejaVuSans-2e" x="666.943359"/>
      <use xlink:href="#DejaVuSans-37" x="698.730469"/>
      <use xlink:href="#DejaVuSans-31" x="762.353516"/>
      <use xlink:href="#DejaVuSans-20" x="825.976562"/>
      <use xlink:href="#DejaVuSans-6e" x="857.763672"/>
      <use xlink:href="#DejaVuSans-73" x="921.142578"/>
     </g>
    </g>
   </g>
  </g>
 </g>
 <defs>
  <clipPath id="p59317feda9">
   <rect x="57.6" y="41.472" width="357.12" height="266.112"/>
  </clipPath>
 </defs>
</svg>
